<?xml version="1.0" encoding="utf-8"?>
<!-- Generator: Adobe Illustrator 16.0.0, SVG Export Plug-In . SVG Version: 6.00 Build 0)  -->
<!DOCTYPE svg PUBLIC "-//W3C//DTD SVG 1.1//EN" "http://www.w3.org/Graphics/SVG/1.1/DTD/svg11.dtd">
<svg version="1.1" id="Layer_1" xmlns="http://www.w3.org/2000/svg" xmlns:xlink="http://www.w3.org/1999/xlink" x="0px" y="0px"
	 width="24px" height="24px" viewBox="0 0 24 24" enable-background="new 0 0 24 24" xml:space="preserve">
<g>
	<path id="Facebook" d="M9.086,5.261c0,0.555,0,3.029,0,3.029h-2.22v3.703h2.22V23h4.559V11.994h3.059c0,0,0.286-1.776,0.426-3.718
		c-0.398,0-3.468,0-3.468,0s0-2.155,0-2.532c0-0.379,0.498-0.889,0.988-0.889s1.525,0,2.484,0c0-0.504,0-2.246,0-3.855
		c-1.28,0-2.735,0-3.377,0C8.973,1,9.086,4.707,9.086,5.261z"/>
</g>
</svg>
