<?xml version="1.0" encoding="utf-8"?>
<!-- Generator: Adobe Illustrator 16.0.0, SVG Export Plug-In . SVG Version: 6.00 Build 0)  -->
<!DOCTYPE svg PUBLIC "-//W3C//DTD SVG 1.1//EN" "http://www.w3.org/Graphics/SVG/1.1/DTD/svg11.dtd">
<svg version="1.1" id="Layer_1" xmlns="http://www.w3.org/2000/svg" xmlns:xlink="http://www.w3.org/1999/xlink" x="0px" y="0px"
	 width="24px" height="24px" viewBox="0 0 24 24" enable-background="new 0 0 24 24" xml:space="preserve">
<path d="M10.852,3.536c-0.226-0.028-0.444,0.007-0.632,0.084c-0.201,0.081-0.375,0.208-0.522,0.373
	C9.546,4.165,9.432,4.364,9.348,4.599C9.283,4.835,9.287,5.096,9.302,5.373v14.178l5.96-2.162c0.161-0.05,0.306-0.145,0.442-0.268
	c0.129-0.121,0.244-0.267,0.344-0.425c0.092-0.164,0.18-0.345,0.229-0.53c0.05-0.187,0.001-0.38,0-0.579V5.056l2.208,0.129v11.673
	c-0.003,0.226-0.055,0.448-0.116,0.668c-0.06,0.216-0.153,0.423-0.253,0.613c-0.109,0.188-0.235,0.361-0.381,0.507
	c-0.146,0.145-0.306,0.256-0.475,0.317l-9.276,3.854C7.684,22.94,7.396,23,7.128,23c-0.279,0-0.536-0.063-0.765-0.177
	c-0.228-0.122-0.424-0.296-0.553-0.517c-0.148-0.23-0.293-0.503-0.314-0.817V3.464C5.465,3.072,5.517,2.705,5.63,2.379
	C5.738,2.06,5.919,1.775,6.136,1.556c0.224-0.218,0.487-0.382,0.793-0.47c0.297-0.091,0.618-0.111,0.966-0.053l10.618,1.972
	l-0.01,1.391L10.852,3.536"/>
</svg>
