<?xml version="1.0" encoding="utf-8"?>
<!-- Generator: Adobe Illustrator 16.0.0, SVG Export Plug-In . SVG Version: 6.00 Build 0)  -->
<!DOCTYPE svg PUBLIC "-//W3C//DTD SVG 1.1//EN" "http://www.w3.org/Graphics/SVG/1.1/DTD/svg11.dtd">
<svg version="1.1" id="Layer_1" xmlns="http://www.w3.org/2000/svg" xmlns:xlink="http://www.w3.org/1999/xlink" x="0px" y="0px"
	 width="24px" height="24px" viewBox="0 0 24 24" enable-background="new 0 0 24 24" xml:space="preserve">
<g>
	<g>
		<path d="M15.228,1H9.98C7.643,1,6.023,1.512,4.567,2.716C3.422,3.704,2.738,5.141,2.738,6.558c0,2.185,1.665,4.506,4.751,4.506
			c0.297,0,0.626-0.03,0.916-0.057L8.362,11.11c-0.124,0.297-0.242,0.578-0.242,1.015c0,0.852,0.411,1.378,0.809,1.886l0.051,0.064
			l-0.089,0.006c-1.274,0.086-3.646,0.25-5.38,1.314c-2.046,1.217-2.205,2.986-2.205,3.5C1.306,20.938,3.209,23,7.461,23
			c4.943,0,7.531-2.729,7.531-5.422c0-1.993-1.169-2.977-2.409-4.021l-1.046-0.814c-0.323-0.268-0.726-0.601-0.726-1.219
			c0-0.607,0.402-1.008,0.758-1.361l0.037-0.038c1.129-0.89,2.41-1.899,2.41-4.082c0-2.194-1.371-3.329-2.03-3.874h1.741
			c0.021,0,0.042-0.006,0.06-0.018l1.5-0.943c0.043-0.027,0.063-0.079,0.049-0.128C15.322,1.033,15.277,1,15.228,1z M8.864,21.798
			c-3.014,0-5.038-1.407-5.038-3.503c0-1.368,0.828-2.362,2.459-2.953c1.307-0.439,2.992-0.461,3.009-0.461
			c0.286,0,0.43,0,0.658,0.027c2.108,1.502,3.122,2.289,3.122,3.79C13.074,20.61,11.461,21.798,8.864,21.798z M8.836,10.26
			c-2.529,0-3.579-3.325-3.579-5.104c0-0.905,0.206-1.6,0.63-2.125c0.459-0.575,1.246-0.946,2.005-0.946
			c2.322,0,3.606,3.121,3.606,5.279c0,0.34,0,1.375-0.715,2.095C10.302,9.938,9.52,10.26,8.836,10.26z"/>
		<path d="M22.581,11.275h-2.765V8.52c0-0.063-0.052-0.114-0.113-0.114h-1.189c-0.063,0-0.114,0.051-0.114,0.114v2.755h-2.751
			c-0.063,0-0.113,0.051-0.113,0.114v1.205c0,0.063,0.051,0.114,0.113,0.114h2.751v2.773c0,0.063,0.052,0.113,0.114,0.113h1.189
			c0.062,0,0.113-0.051,0.113-0.113v-2.773h2.765c0.063,0,0.113-0.051,0.113-0.114v-1.205
			C22.694,11.326,22.644,11.275,22.581,11.275z"/>
	</g>
</g>
</svg>
