<?xml version="1.0" encoding="utf-8"?>
<!-- Generator: Adobe Illustrator 16.0.0, SVG Export Plug-In . SVG Version: 6.00 Build 0)  -->
<!DOCTYPE svg PUBLIC "-//W3C//DTD SVG 1.1//EN" "http://www.w3.org/Graphics/SVG/1.1/DTD/svg11.dtd">
<svg version="1.1" id="Layer_1" xmlns="http://www.w3.org/2000/svg" xmlns:xlink="http://www.w3.org/1999/xlink" x="0px" y="0px"
	 width="24px" height="24px" viewBox="0 0 24 24" enable-background="new 0 0 24 24" xml:space="preserve">
<g>
	<path id="LinkedIn" d="M23.512,14.488V23h-4.935v-7.941c0-1.996-0.714-3.357-2.5-3.357c-1.364,0-2.175,0.917-2.532,1.805
		c-0.13,0.317-0.164,0.759-0.164,1.203V23H8.445c0,0,0.066-13.451,0-14.844h4.936v2.104c-0.01,0.016-0.023,0.033-0.032,0.048h0.032
		V10.26c0.656-1.01,1.827-2.453,4.448-2.453C21.077,7.807,23.512,9.929,23.512,14.488z M3.282,1C1.593,1,0.488,2.107,0.488,3.564
		c0,1.425,1.073,2.566,2.728,2.566h0.033c1.722,0,2.792-1.141,2.792-2.566C6.009,2.107,4.971,1,3.282,1z M0.782,23h4.934V8.156
		H0.782V23z"/>
</g>
</svg>
