<?xml version="1.0" encoding="utf-8"?>
<!-- Generator: Adobe Illustrator 16.0.0, SVG Export Plug-In . SVG Version: 6.00 Build 0)  -->
<!DOCTYPE svg PUBLIC "-//W3C//DTD SVG 1.1//EN" "http://www.w3.org/Graphics/SVG/1.1/DTD/svg11.dtd">
<svg version="1.1" id="Layer_1" xmlns="http://www.w3.org/2000/svg" xmlns:xlink="http://www.w3.org/1999/xlink" x="0px" y="0px"
	 width="24px" height="24px" viewBox="0 0 24 24" enable-background="new 0 0 24 24" xml:space="preserve">
<g>
	<path d="M20.014,1H3.987C2.34,1,1,2.34,1,3.987v16.027C1,21.66,2.34,23,3.987,23h16.027C21.66,23,23,21.66,23,20.014V3.987
		C23,2.34,21.66,1,20.014,1z M12,17.375c-2.713,0-4.92-2.208-4.92-4.921s2.207-4.92,4.92-4.92s4.92,2.207,4.92,4.92
		S14.713,17.375,12,17.375z M21.139,8.823h-4.446c-1.122-1.343-2.81-2.2-4.692-2.2s-3.57,0.856-4.692,2.2H2.862V4.551
		c0-1.086,0.884-1.969,1.97-1.969h14.336c1.086,0,1.971,0.883,1.971,1.969V8.823L21.139,8.823z"/>
	<path d="M12,9.292c-1.744,0-3.163,1.419-3.163,3.163c0,1.745,1.419,3.163,3.163,3.163s3.164-1.418,3.164-3.163
		C15.164,10.71,13.744,9.292,12,9.292z"/>
	<path d="M18.713,3.844h-1.904c-0.435,0-0.788,0.354-0.788,0.79v1.903c0,0.435,0.354,0.789,0.788,0.789h1.904
		c0.436,0,0.789-0.354,0.789-0.789V4.633C19.502,4.198,19.148,3.844,18.713,3.844z"/>
</g>
</svg>
