<?xml version="1.0" encoding="utf-8"?>
<!-- Generator: Adobe Illustrator 16.0.0, SVG Export Plug-In . SVG Version: 6.00 Build 0)  -->
<!DOCTYPE svg PUBLIC "-//W3C//DTD SVG 1.1//EN" "http://www.w3.org/Graphics/SVG/1.1/DTD/svg11.dtd">
<svg version="1.1" id="Layer_2" xmlns="http://www.w3.org/2000/svg" xmlns:xlink="http://www.w3.org/1999/xlink" x="0px" y="0px"
	 width="745.678px" height="867.507px" viewBox="0 0 745.678 867.507" enable-background="new 0 0 745.678 867.507"
	 xml:space="preserve">
<g>
	<polygon fill="#FFFFFF" points="443.538,712.333 139.624,562.107 138.516,463.355 443.37,612.586 	"/>
	<polygon fill="#FFFFFF" points="230.84,508.52 138.48,463.376 139.655,50.003 230.86,93.699 	"/>
	
		<polygon fill="#FFFFFF" stroke="#000000" stroke-width="3" stroke-linecap="round" stroke-linejoin="round" stroke-miterlimit="10" points="
		443.558,712.35 335.672,759.256 336.087,659.221 443.325,612.664 	"/>
	<polygon fill="#FFFFFF" stroke="#000000" stroke-linecap="round" stroke-linejoin="round" stroke-miterlimit="10" points="
		428.938,705.198 350.289,739.392 350.593,666.467 428.769,632.528 	"/>
	
		<polygon fill="#FFFFFF" stroke="#000000" stroke-width="3" stroke-linecap="round" stroke-linejoin="round" stroke-miterlimit="10" points="
		230.552,508.285 122.666,555.19 123.032,140.616 230.867,93.75 	"/>
	<g>
		<path fill="#DCDCDC" stroke="#000000" stroke-linecap="round" stroke-linejoin="round" stroke-miterlimit="10" d="
			M136.376,513.642c-0.438,0-0.875-0.128-1.255-0.376c-0.643-0.422-1.032-1.143-1.032-1.914l0.217-244.869
			c0-1.264,1.025-2.286,2.287-2.286h0.002c1.262,0.002,2.285,1.026,2.283,2.29l-0.212,241.379l82.813-36.005l0.185-245.404
			c0.002-1.262,1.025-2.286,2.287-2.286h0.002c1.264,0.001,2.287,1.026,2.285,2.29l-0.188,246.902c0,0.909-0.541,1.732-1.374,2.096
			l-87.388,37.993C136.997,513.579,136.687,513.642,136.376,513.642z"/>
	</g>
	<polygon fill="#4C4C4C" points="34.251,256.878 112.901,291.071 112.597,187.164 34.023,152.845 	"/>
	<polygon fill="#123D7F" points="215.975,231.339 137.328,265.532 137.631,161.623 216.205,127.304 	"/>
	<polygon fill="#DCDCDC" stroke="#000000" stroke-linecap="round" stroke-linejoin="round" stroke-miterlimit="10" points="
		215.975,231.339 137.328,265.532 137.631,161.623 216.205,127.304 	"/>
	<polygon fill="#DCDCDC" stroke="#000000" stroke-linecap="round" stroke-linejoin="round" stroke-miterlimit="10" points="
		219.243,228.48 280.468,262.673 280.231,158.764 219.064,124.444 	"/>
	<polygon fill="#FFFFFF" stroke="#000000" stroke-linecap="round" stroke-linejoin="round" stroke-miterlimit="10" points="
		216.384,231.339 277.609,265.532 277.373,161.623 216.205,127.304 	"/>
	
		<polygon fill="#FFFFFF" stroke="#000000" stroke-width="3" stroke-linecap="round" stroke-linejoin="round" stroke-miterlimit="10" points="
		31.776,96.891 139.63,49.956 230.891,93.727 122.981,140.587 	"/>
	
		<polygon fill="#FFFFFF" stroke="#000000" stroke-width="3" stroke-linecap="round" stroke-linejoin="round" stroke-miterlimit="10" points="
		58.756,96.453 137.383,62.237 203.912,94.144 125.246,128.307 	"/>
	
		<polygon fill="#FFFFFF" stroke="#000000" stroke-width="3" stroke-linecap="round" stroke-linejoin="round" stroke-miterlimit="10" points="
		122.666,555.19 336.146,660.324 443.325,612.664 231.119,507.229 	"/>
	<polygon fill="#CECCCD" points="135.628,451.77 233.902,501.117 305.916,469.095 208.495,419.545 	"/>
	<polygon fill="#FFFFFF" stroke="#000000" stroke-linecap="round" stroke-linejoin="round" stroke-miterlimit="10" points="
		135.628,442.549 233.902,491.897 305.916,459.875 208.495,410.324 	"/>
	<polygon fill="#FFFFFF" stroke="#000000" stroke-linecap="round" stroke-linejoin="round" stroke-miterlimit="10" points="
		367.935,600.843 251.527,543.006 196.353,567.405 194.148,566.664 190.523,567.697 190.523,569.984 310.604,629.121 
		370.894,602.313 370.894,600.026 	"/>
	
		<polygon fill="#DCDCDC" stroke="#000000" stroke-width="3" stroke-linecap="round" stroke-linejoin="round" stroke-miterlimit="10" points="
		122.961,555.228 122.981,140.587 31.776,96.891 30.601,510.263 30.639,510.282 31.745,608.996 335.659,759.221 335.987,659.022 	
		"/>
	<polygon fill="#FFFFFF" stroke="#000000" stroke-linecap="round" stroke-linejoin="round" stroke-miterlimit="10" points="
		190.523,567.697 310.604,626.834 370.894,600.026 251.527,540.719 	"/>
	<polygon fill="#DCDCDC" stroke="#000000" stroke-linecap="round" stroke-linejoin="round" stroke-miterlimit="10" points="
		247.449,589.072 279.805,604.873 305.239,593.562 273.185,577.689 	"/>
	<polygon fill="#FFFFFF" stroke="#000000" stroke-linecap="round" stroke-linejoin="round" stroke-miterlimit="10" points="
		255.28,589.671 278.867,601.19 297.408,592.943 274.04,581.373 	"/>
	<polyline fill="#DCDCDC" stroke="#000000" stroke-linecap="round" stroke-linejoin="round" stroke-miterlimit="10" points="
		203.912,94.144 137.135,123.304 137.383,64.256 137.383,62.237 	"/>
	<path fill="#1B9AFC" stroke="#000000" stroke-linecap="round" stroke-linejoin="round" stroke-miterlimit="10" d="M56.71,623.269
		v37.883c0,6.307-5.131,11.436-11.436,11.436H22.976c-6.305,0-11.436-5.129-11.436-11.436v-30.692l36.841,16.057
		c0.297,0.129,0.607,0.191,0.911,0.191c0.882,0,1.725-0.515,2.1-1.375c0.502-1.157-0.027-2.505-1.184-3.011L11.54,625.469v-33.893
		l36.841,16.058c0.297,0.129,0.607,0.19,0.911,0.19c0.882,0,1.725-0.515,2.1-1.375c0.502-1.157-0.027-2.505-1.184-3.011
		L11.54,586.586v-33.893l36.841,16.058c0.297,0.129,0.607,0.19,0.911,0.19c0.882,0,1.725-0.515,2.1-1.375
		c0.502-1.157-0.027-2.505-1.184-3.01L11.54,547.704v-33.893l36.841,16.058c0.297,0.13,0.607,0.19,0.911,0.19
		c0.882,0,1.725-0.514,2.1-1.374c0.502-1.157-0.027-2.506-1.184-3.012L11.54,508.821v-33.892l36.841,16.057
		c0.297,0.13,0.607,0.19,0.911,0.19c0.882,0,1.725-0.514,2.1-1.374c0.502-1.157-0.027-2.506-1.184-3.011L11.54,469.938v-33.894
		l36.841,16.057c0.297,0.13,0.607,0.191,0.911,0.191c0.882,0,1.725-0.515,2.1-1.374c0.502-1.159-0.027-2.507-1.184-3.011
		L11.54,431.056v-33.894l36.841,16.057c0.297,0.13,0.607,0.192,0.911,0.192c0.882,0,1.725-0.517,2.1-1.375
		c0.502-1.159-0.027-2.506-1.184-3.011L11.54,392.173v-33.894l36.841,16.057c0.297,0.13,0.607,0.19,0.911,0.19
		c0.882,0,1.725-0.514,2.1-1.374c0.502-1.158-0.027-2.505-1.184-3.011L11.54,353.289v-31.771c0-6.307,5.131-11.437,11.436-11.437
		h22.298c1.264,0,2.287-1.022,2.287-2.287c0-1.263-1.023-2.287-2.287-2.287H22.976c-8.827,0-16.01,7.183-16.01,16.011v32.092
		c-0.025,0.049-0.058,0.092-0.081,0.144c-0.288,0.662-0.23,1.38,0.081,1.973v36.765c-0.025,0.049-0.058,0.093-0.081,0.145
		c-0.288,0.662-0.23,1.38,0.081,1.973v36.765c-0.025,0.049-0.058,0.093-0.081,0.144c-0.288,0.662-0.23,1.38,0.081,1.974v36.766
		c-0.025,0.05-0.058,0.094-0.081,0.144c-0.288,0.664-0.23,1.382,0.081,1.975v36.765c-0.025,0.049-0.058,0.094-0.081,0.145
		c-0.288,0.662-0.23,1.381,0.081,1.973v36.766c-0.025,0.049-0.058,0.093-0.081,0.145c-0.288,0.662-0.23,1.381,0.081,1.973v36.765
		c-0.025,0.049-0.058,0.093-0.081,0.144c-0.288,0.663-0.23,1.382,0.081,1.974v36.765c-0.025,0.049-0.058,0.093-0.081,0.144
		c-0.288,0.663-0.23,1.382,0.081,1.974v33.243c0,8.827,7.183,16.011,16.01,16.011h22.298c8.829,0,16.01-7.184,16.01-16.011v-35.568"
		/>
	<polygon fill="#FFFFFF" stroke="#000000" stroke-linecap="round" stroke-linejoin="round" stroke-miterlimit="10" points="
		305.279,593.595 273.276,577.714 273.683,547.208 305.329,562.37 	"/>
	<polygon fill="#FFFFFF" stroke="#000000" stroke-linecap="round" stroke-linejoin="round" stroke-miterlimit="10" points="
		302.244,589.188 276.321,576.325 276.651,551.615 302.284,563.895 	"/>
	<g>
		<path fill="#DCDCDC" stroke="#000000" stroke-linecap="round" stroke-linejoin="round" stroke-miterlimit="10" d="
			M562.391,744.031l-148.002-73.187v-9.727l1.287-0.566l-1.708-0.85l-63.463,28l-0.065,15.765l141.579,70.011
			c0,0,8.671,11.646-1.385,20.585L563.98,762.5C570.958,751.965,562.391,744.031,562.391,744.031z"/>
	</g>
	
		<circle fill="#FFFFFF" stroke="#000000" stroke-linecap="round" stroke-linejoin="round" stroke-miterlimit="10" cx="372.988" cy="467.762" r="9.34"/>
	
		<circle fill="#FFFFFF" stroke="#000000" stroke-linecap="round" stroke-linejoin="round" stroke-miterlimit="10" cx="411.489" cy="374.939" r="17.535"/>
	<path fill="#FFFFFF" stroke="#000000" stroke-linecap="round" stroke-linejoin="round" stroke-miterlimit="10" d="M333.065,143.034
		c0-20.988,17.009-38.005,38-38.005c20.989,0,38.002,17.017,38.002,38.005c0,20.989-17.013,37.999-38.002,37.999
		C350.074,181.033,333.065,164.023,333.065,143.034z"/>
	<path fill="#FFFFFF" stroke="#000000" stroke-linecap="round" stroke-linejoin="round" stroke-miterlimit="10" d="M352.813,722.385
		c0-4.119,2.05-7.42,4.706-7.371c2.81,0.051,5.207,3.789,5.207,8.345c0,4.554-2.396,7.822-5.207,7.321
		C354.863,730.208,352.813,726.504,352.813,722.385z"/>
	<g>
		<polygon fill="#424142" points="474.958,400.624 654.857,489.219 745.178,449.058 566.353,360.209 		"/>
		<polygon fill="#FFFFFF" stroke="#000000" stroke-linecap="round" stroke-linejoin="round" stroke-miterlimit="10" points="
			474.958,392.058 654.857,480.653 745.178,440.491 566.353,351.644 		"/>
		<polygon fill="#1B9AFC" stroke="#000000" stroke-linecap="round" stroke-linejoin="round" stroke-miterlimit="10" points="
			654.857,489.219 474.993,400.635 474.958,392.058 654.857,480.653 		"/>
		<polygon fill="#DCDCDC" stroke="#000000" stroke-linecap="round" stroke-linejoin="round" stroke-miterlimit="10" points="
			745.11,440.509 654.79,480.671 654.857,489.219 745.11,449.075 		"/>
	</g>
	<polygon fill="#DCDCDC" stroke="#000000" stroke-linecap="round" stroke-linejoin="round" stroke-miterlimit="10" points="
		104.646,195.17 26.058,160.843 34.054,152.851 112.579,187.146 	"/>
	<polygon fill="#DCDCDC" stroke="#000000" stroke-linecap="round" stroke-linejoin="round" stroke-miterlimit="10" points="
		112.901,291.071 104.896,299.077 104.646,195.17 112.579,187.182 	"/>
	<polygon fill="#1B9AFC" stroke="#000000" stroke-linecap="round" stroke-linejoin="round" stroke-miterlimit="10" points="
		233.902,501.117 135.628,451.77 135.563,442.561 233.782,491.846 	"/>
	<polygon fill="#DCDCDC" stroke="#000000" stroke-linecap="round" stroke-linejoin="round" stroke-miterlimit="10" points="
		233.902,501.117 305.916,469.095 305.916,459.875 233.808,491.94 	"/>
	<path fill="#FFD0C7" d="M219.641,221.877l3.717-4.695l1.957,2.348l-2.348,1.958l9.779-1.372l-0.391,4.106l-0.587,3.522
		l-10.757,0.977C221.01,228.721,221.597,222.071,219.641,221.877z"/>
	<path fill="#FFFFFF" stroke="#000000" stroke-linecap="round" stroke-linejoin="round" stroke-miterlimit="10" d="M414.543,595.232
		l-11.505-0.323l-12.966,0.323h-7.943v10.373c0,1.79,7.257,3.241,16.207,3.241c8.952,0,16.207-1.451,16.207-3.241
		C414.543,605.34,414.543,595.232,414.543,595.232z"/>
	
		<ellipse fill="#FFFFFF" stroke="#000000" stroke-linecap="round" stroke-linejoin="round" stroke-miterlimit="10" cx="398.336" cy="595.232" rx="16.207" ry="3.242"/>
	<path fill="#FFFFFF" stroke="#000000" stroke-linecap="round" stroke-linejoin="round" stroke-miterlimit="10" d="M411.202,594.725
		v-44.768h-25.588v44.826c-0.044,0.056-0.071,0.112-0.071,0.169c0,0.887,5.776,1.607,12.901,1.607
		c7.125,0,12.901-0.721,12.901-1.607C411.345,594.875,411.287,594.798,411.202,594.725z"/>
	<g>
		<path fill="#FFFFFF" stroke="#000000" stroke-linecap="round" stroke-linejoin="round" stroke-miterlimit="10" d="
			M412.631,543.238l-10.149-0.286l-11.436,0.286h-7.004v9.148c0,1.58,6.401,2.859,14.295,2.859c7.896,0,14.295-1.279,14.295-2.859
			C412.631,552.153,412.631,543.238,412.631,543.238z"/>
		
			<ellipse fill="#FFFFFF" stroke="#000000" stroke-linecap="round" stroke-linejoin="round" stroke-miterlimit="10" cx="398.336" cy="543.238" rx="14.295" ry="2.859"/>
		
			<ellipse fill="#FFFFFF" stroke="#000000" stroke-width="0.5" stroke-linecap="round" stroke-linejoin="round" stroke-miterlimit="10" cx="398.336" cy="543.238" rx="11.579" ry="2.316"/>
		
			<circle fill="#FFFFFF" stroke="#000000" stroke-linecap="round" stroke-linejoin="round" stroke-miterlimit="10" cx="400.052" cy="537.474" r="6.671"/>
	</g>
	<polygon fill="#FFFFFF" stroke="#000000" stroke-linecap="round" stroke-linejoin="round" stroke-miterlimit="10" points="
		305.329,562.37 273.683,547.208 275.541,545.35 307.187,560.511 	"/>
	<polygon fill="#FFFFFF" stroke="#000000" stroke-linecap="round" stroke-linejoin="round" stroke-miterlimit="10" points="
		279.805,607.542 247.592,591.771 247.664,589.055 279.805,604.873 	"/>
	<polygon fill="#FFFFFF" stroke="#000000" stroke-linecap="round" stroke-linejoin="round" stroke-miterlimit="10" points="
		279.805,607.542 305.239,596.231 305.239,593.562 279.805,604.873 	"/>
	<polygon fill="#FFFFFF" stroke="#000000" stroke-linecap="round" stroke-linejoin="round" stroke-miterlimit="10" points="
		307.095,591.663 305.272,593.414 305.344,562.43 307.187,560.511 	"/>
	<g>
		<path fill="#FFFFFF" stroke="#000000" stroke-linecap="round" stroke-linejoin="round" stroke-miterlimit="10" d="
			M234.039,440.408c-6.936,0-12.58-5.643-12.58-12.58V297.457c0-6.936,5.645-12.579,12.58-12.579c6.938,0,12.58,5.644,12.58,12.579
			v130.371C246.618,434.766,240.976,440.408,234.039,440.408z M234.039,289.452c-4.414,0-8.005,3.592-8.005,8.005v130.371
			c0,4.417,3.592,8.006,8.005,8.006c4.416,0,8.005-3.589,8.005-8.006V297.457C242.043,293.044,238.454,289.452,234.039,289.452z"/>
	</g>
	<g>
		<path fill="#FFFFFF" stroke="#000000" stroke-linecap="round" stroke-linejoin="round" stroke-miterlimit="10" d="
			M147.124,457.943c-6.935,0-12.577-5.643-12.577-12.58V314.992c0-6.935,5.642-12.58,12.577-12.58c6.938,0,12.58,5.645,12.58,12.58
			v130.371C159.704,452.301,154.062,457.943,147.124,457.943z M147.124,306.987c-4.414,0-8.005,3.591-8.005,8.005v130.371
			c0,4.415,3.592,8.006,8.005,8.006c4.416,0,8.005-3.591,8.005-8.006V314.992C155.129,310.578,151.54,306.987,147.124,306.987z"/>
	</g>
	<g>
		<g>
			<path fill="#FFFFFF" stroke="#000000" stroke-linecap="round" stroke-linejoin="round" stroke-miterlimit="10" d="
				M173.697,442.998c2.125,7,19.638,13.373,41.232,14.325c24.351,1.076,44.355-5.003,41.713-13.707
				c-2.643-8.71-26.435-15.113-50.241-14.395C185.29,429.855,171.573,435.998,173.697,442.998z"/>
			<path fill="#DCDCDC" stroke="#000000" stroke-linecap="round" stroke-linejoin="round" stroke-miterlimit="10" d="M256.79,441.07
				v-20.959l-19.02-0.917l-64.393-2.062v20.854l0.123,0.07c-0.041,0.574,0.018,1.154,0.196,1.743
				c2.125,7,19.638,13.37,41.232,14.323C238.662,455.171,258.255,449.422,256.79,441.07z"/>
			<path fill="#FFFFFF" stroke="#000000" stroke-linecap="round" stroke-linejoin="round" stroke-miterlimit="10" d="
				M173.697,418.555c2.125,7,19.638,13.372,41.232,14.324c24.351,1.077,44.355-5.003,41.713-13.707
				c-2.643-8.709-26.435-15.112-50.241-14.394C185.29,405.413,171.573,411.555,173.697,418.555z"/>
		</g>
		<g>
			<path fill="#FFFFFF" stroke="#000000" stroke-linecap="round" stroke-linejoin="round" stroke-miterlimit="10" d="
				M173.697,421.459c2.125,6.998,19.638,13.37,41.232,14.322c24.351,1.077,44.355-5.003,41.713-13.707
				c-2.643-8.708-26.435-15.111-50.241-14.393C185.29,408.316,171.573,414.457,173.697,421.459z"/>
			<path fill="#DCDCDC" stroke="#000000" stroke-linecap="round" stroke-linejoin="round" stroke-miterlimit="10" d="
				M256.79,419.531V398.57l-19.02-0.915l-64.393-2.064v20.853l0.123,0.071c-0.041,0.574,0.018,1.155,0.196,1.743
				c2.125,7,19.638,13.372,41.232,14.323C238.662,433.632,258.255,427.883,256.79,419.531z"/>
		</g>
		<g>
			<path fill="#FFFFFF" stroke="#000000" stroke-linecap="round" stroke-linejoin="round" stroke-miterlimit="10" d="
				M173.697,395.792c2.125,7,19.638,13.373,41.232,14.325c24.351,1.076,44.355-5.004,41.713-13.71
				c-2.643-8.707-26.435-15.111-50.241-14.392C185.29,382.65,171.573,388.79,173.697,395.792z"/>
			<path fill="#DCDCDC" stroke="#000000" stroke-linecap="round" stroke-linejoin="round" stroke-miterlimit="10" d="
				M256.79,393.865v-20.958l-19.02-0.918l-64.393-2.061v20.853l0.123,0.071c-0.041,0.571,0.018,1.154,0.196,1.742
				c2.125,7,19.638,13.371,41.232,14.325C238.662,407.967,258.255,402.217,256.79,393.865z"/>
			<path fill="#FFFFFF" stroke="#000000" stroke-linecap="round" stroke-linejoin="round" stroke-miterlimit="10" d="
				M173.697,371.35c2.125,7,19.638,13.371,41.232,14.325c24.351,1.076,44.355-5.004,41.713-13.707
				c-2.643-8.708-26.435-15.114-50.241-14.395C185.29,358.21,171.573,364.35,173.697,371.35z"/>
		</g>
		<path fill="#FFFFFF" stroke="#000000" stroke-linecap="round" stroke-linejoin="round" stroke-miterlimit="10" d="
			M173.697,371.044c2.125,7.001,19.638,13.371,41.232,14.324c24.351,1.077,44.355-5.003,41.713-13.709
			c-2.643-8.705-26.435-15.111-50.241-14.392C185.29,357.901,171.573,364.045,173.697,371.044z"/>
		<path fill="#DCDCDC" stroke="#000000" stroke-linecap="round" stroke-linejoin="round" stroke-miterlimit="10" d="M256.79,369.116
			v-20.958l-19.02-0.917l-64.393-2.063v20.854l0.123,0.071c-0.041,0.571,0.018,1.154,0.196,1.742
			c2.125,7,19.638,13.37,41.232,14.324C238.662,383.217,258.255,377.468,256.79,369.116z"/>
		<path fill="#FFFFFF" stroke="#000000" stroke-linecap="round" stroke-linejoin="round" stroke-miterlimit="10" d="
			M173.697,346.602c2.125,7,19.638,13.371,41.232,14.325c24.351,1.076,44.355-5.004,41.713-13.708
			c-2.643-8.706-26.435-15.113-50.241-14.394C185.29,333.461,171.573,339.603,173.697,346.602z"/>
	</g>
	<g>
		<polygon fill="#FFFFFF" stroke="#000000" stroke-linecap="round" stroke-linejoin="round" stroke-miterlimit="10" points="
			363.266,704.677 352.004,710.016 352.308,665.513 363.096,660.432 		"/>
		<polygon fill="#FFFFFF" stroke="#000000" stroke-linecap="round" stroke-linejoin="round" stroke-miterlimit="10" points="
			374.13,700.102 362.869,705.441 363.172,660.938 373.96,655.857 		"/>
		<polygon fill="#FFFFFF" stroke="#000000" stroke-linecap="round" stroke-linejoin="round" stroke-miterlimit="10" points="
			384.995,695.527 373.733,700.867 374.037,656.364 384.825,651.283 		"/>
		<polygon fill="#FFFFFF" stroke="#000000" stroke-linecap="round" stroke-linejoin="round" stroke-miterlimit="10" points="
			395.859,690.953 384.597,696.292 384.901,651.79 395.689,646.708 		"/>
		<polygon fill="#FFFFFF" stroke="#000000" stroke-linecap="round" stroke-linejoin="round" stroke-miterlimit="10" points="
			406.723,686.379 395.461,691.718 395.765,647.215 406.553,642.134 		"/>
		<polygon fill="#FFFFFF" stroke="#000000" stroke-linecap="round" stroke-linejoin="round" stroke-miterlimit="10" points="
			417.587,681.805 406.326,687.144 406.629,642.641 417.418,637.56 		"/>
		<polygon fill="#FFFFFF" stroke="#000000" stroke-linecap="round" stroke-linejoin="round" stroke-miterlimit="10" points="
			428.452,677.23 417.19,682.569 417.494,638.066 428.282,632.985 		"/>
		<polygon fill="#FFFFFF" stroke="#000000" stroke-linecap="round" stroke-linejoin="round" stroke-miterlimit="10" points="
			428.938,642.654 350.289,676.849 350.593,665.323 428.769,631.385 		"/>
	</g>
	<g>
		<g>
			<path fill="#FFFFFF" stroke="#000000" stroke-linecap="round" stroke-linejoin="round" stroke-miterlimit="10" d="
				M534.135,473.706h-6.861v0.149l-0.855-0.054v5.146c0,0,0.189,8.196-8.197,8.196h-7.241c0,0-3.052,1.715,0,4.766h7.241h12.39
				v-0.002h3.524V473.706z"/>
			<path fill="#FFFFFF" stroke="#000000" stroke-linecap="round" stroke-linejoin="round" stroke-miterlimit="10" d="
				M530.992,476.088v5.147c0,0,0.19,8.196-8.197,8.196h-7.241c0,0-3.051,1.715,0,4.766h7.241h12.39V476.35L530.992,476.088z"/>
			<path fill="#FFFFFF" stroke="#000000" stroke-linecap="round" stroke-linejoin="round" stroke-miterlimit="10" d="
				M510.979,487.144l4.382,2.097c0,0-2.667,2.955,0.192,4.957l-4.574-2.287C510.979,491.91,507.931,489.334,510.979,487.144z"/>
		</g>
		
			<circle fill="#FFFFFF" stroke="#000000" stroke-linecap="round" stroke-linejoin="round" stroke-miterlimit="10" cx="613.12" cy="337.759" r="13.294"/>
		<path fill="#FFFFFF" stroke="#000000" stroke-linecap="round" stroke-linejoin="round" stroke-miterlimit="10" d="
			M597.141,321.369c0,0-2.479,6.861,18.298,10.864c0,0,4.765-0.381,4.954,3.622c0,0,1.144-4.191,2.859-1.525
			c0,0,1.146,2.288-0.19,3.622c0,0,0.572,3.05,2.478,2.668c1.907-0.381,5.91-16.747-10.293-17.726
			C610.712,322.619,598.092,323.656,597.141,321.369z"/>
		<g>
			<path d="M634.348,404.946v10.364c0,10.404-8.465,18.87-18.869,18.87h-43.457v-10.293h43.457c4.73,0,8.577-3.848,8.577-8.577
				v-10.507"/>
		</g>
		<polygon points="572.568,416.812 587.436,425.96 624.223,427.485 626.89,407.091 590.677,407.02 		"/>
		<g>
			<path d="M587.817,418.526H544.36c-4.729,0-8.577,3.848-8.577,8.577v49.605h-10.292v-49.605c0-10.403,8.465-18.869,18.869-18.869
				h43.457V418.526z"/>
		</g>
		<polygon fill="#FFFFFF" stroke="#000000" stroke-linecap="round" stroke-linejoin="round" stroke-miterlimit="10" points="
			610.047,413.223 588.246,402.66 570.835,403.357 565.85,401.803 552.651,400.515 552.651,404.09 587.817,419.814 620.696,418.385 
			620.696,414.81 		"/>
		<polygon fill="#FFFFFF" stroke="#000000" stroke-linecap="round" stroke-linejoin="round" stroke-miterlimit="10" points="
			587.817,416.239 552.651,400.515 588.246,399.086 620.696,414.81 		"/>
		<polygon fill="#FFFFFF" stroke="#000000" stroke-linecap="round" stroke-linejoin="round" stroke-miterlimit="10" points="
			587.51,413.914 561.872,402.452 587.822,401.411 611.476,412.873 		"/>
		<path fill="#FFFFFF" stroke="#000000" stroke-linecap="round" stroke-linejoin="round" stroke-miterlimit="10" d="
			M645.713,398.943v-29.592c0-12.438-10.194-15.152-15.725-15.725c-5.546-0.573-22.301,0-22.301,0h-21.729
			c-8.72,0-7.862-8.577-7.862-8.577v-24.159h-7.647v25.375c0,15.367,14.51,14.509,14.51,14.509h5.718v46.245h19.87h27.089
			C646.428,407.02,645.713,398.943,645.713,398.943z M634.802,396.75c-1.952,1.621-3.384,1.477-3.384,1.477V367.85
			c0-1.381,1.121-2.501,2.501-2.501c1.383,0,2.502,1.12,2.502,2.501c0,0,0.654,18.759,0.024,24.969
			C636.338,393.879,635.812,395.913,634.802,396.75z"/>
		<path fill="none" stroke="#000000" stroke-linecap="round" stroke-linejoin="round" stroke-miterlimit="10" d="M636.421,367.849
			v24.633c0,0,0.094,5.785-5.785,5.785h-25.005v8.397"/>
		<g>
			<polygon fill="none" stroke="#000000" stroke-linecap="round" stroke-linejoin="round" stroke-miterlimit="10" points="
				608.027,353.537 605.742,358.892 613.763,353.395 			"/>
			<polygon fill="none" stroke="#000000" stroke-linecap="round" stroke-linejoin="round" stroke-miterlimit="10" points="
				619.383,353.376 621.668,358.892 613.647,353.395 			"/>
		</g>
		<g>
			<path fill="#FFFFFF" stroke="#000000" stroke-linecap="round" stroke-linejoin="round" stroke-miterlimit="10" d="
				M549.764,489.717h-6.861v0.148l-0.855-0.054v5.146c0,0,0.189,8.196-8.198,8.196h-7.241c0,0-3.051,1.715,0,4.766h7.241h12.391
				v-0.002h3.524V489.717z"/>
			<path fill="#FFFFFF" stroke="#000000" stroke-linecap="round" stroke-linejoin="round" stroke-miterlimit="10" d="M546.621,492.1
				v5.146c0,0,0.189,8.196-8.197,8.196h-7.241c0,0-3.052,1.715,0,4.767h7.241h12.39V492.36L546.621,492.1z"/>
			<path fill="#FFFFFF" stroke="#000000" stroke-linecap="round" stroke-linejoin="round" stroke-miterlimit="10" d="
				M526.607,503.154l4.383,2.096c0,0-2.667,2.955,0.192,4.958l-4.575-2.288C526.607,507.92,523.559,505.345,526.607,503.154z"/>
		</g>
		<polygon fill="#FFFFFF" stroke="#000000" stroke-linecap="round" stroke-linejoin="round" stroke-miterlimit="10" points="
			613.978,395.032 620.124,380.502 613.931,359.079 613.931,358.916 613.906,358.997 613.884,358.916 613.884,359.079 
			607.688,380.502 613.835,395.032 613.835,395.369 613.906,395.199 613.978,395.369 		"/>
		<polygon fill="#FFFFFF" stroke="#000000" stroke-linecap="round" stroke-linejoin="round" stroke-miterlimit="10" points="
			610.692,355.818 613.931,358.916 616.79,355.818 613.741,353.913 		"/>
		<polygon fill="#FFFFFF" stroke="#000000" stroke-linecap="round" stroke-linejoin="round" stroke-miterlimit="10" points="
			587.817,416.239 552.651,400.515 579.813,367.064 612.262,382.789 		"/>
		<path fill="#FFFFFF" stroke="#000000" stroke-linecap="round" stroke-linejoin="round" stroke-miterlimit="10" d="
			M605.735,399.562h-5.242l-5.718,7.434c0,0,1.619,0.764,2.098,0.191l2.955-2.765h5.812L605.735,399.562z"/>
		<path fill="#FFFFFF" stroke="#000000" stroke-linecap="round" stroke-linejoin="round" stroke-miterlimit="10" d="
			M582.957,310.313c0-7.576-1.572-7.004-1.572-7.004h-7.005h-7.004c0,0-1.573-0.572-1.573,7.004c0,0-0.116,4.508,0,6.004
			c0.128,1.625,0.715,4.574,4.646,4.574h3.931h3.932c3.931,0,4.521-2.949,4.646-4.574
			C583.073,314.82,582.957,310.313,582.957,310.313z"/>
		<g>
			<path fill="#FFFFFF" d="M583.149,311.943c0,1.1-0.9,2-2,2h-10.867c-1.1,0-2-0.9-2-2v-23.085c0-1.1,0.9-2,2-2h10.867
				c1.1,0,2,0.9,2,2V311.943z"/>
			<path fill="none" stroke="#000000" stroke-linecap="round" stroke-linejoin="round" stroke-miterlimit="10" d="M583.149,311.943
				c0,1.1-0.9,2-2,2h-10.867c-1.1,0-2-0.9-2-2v-23.085c0-1.1,0.9-2,2-2h10.867c1.1,0,2,0.9,2,2V311.943z"/>
		</g>
		<g>
			<path fill="#FFFFFF" d="M581.135,307.131c0,1.1-0.9,2-2,2h-6.84c-1.1,0-2-0.9-2-2v-15.745c0-1.1,0.9-2,2-2h6.84c1.1,0,2,0.9,2,2
				V307.131z"/>
			
				<path fill="none" stroke="#000000" stroke-width="0.75" stroke-linecap="round" stroke-linejoin="round" stroke-miterlimit="10" d="
				M581.135,307.131c0,1.1-0.9,2-2,2h-6.84c-1.1,0-2-0.9-2-2v-15.745c0-1.1,0.9-2,2-2h6.84c1.1,0,2,0.9,2,2V307.131z"/>
		</g>
		
			<circle fill="#FFFFFF" stroke="#000000" stroke-width="0.5" stroke-linecap="round" stroke-linejoin="round" stroke-miterlimit="10" cx="575.716" cy="311.409" r="1.144"/>
		
			<path fill="#FFFFFF" stroke="#000000" stroke-width="0.75" stroke-linecap="round" stroke-linejoin="round" stroke-miterlimit="10" d="
			M576.096,315.494v-1.25c0,0-0.215-1.287,4.359-1.287"/>
		<polygon fill="#FFFFFF" points="578.025,313.528 581.85,312.921 582.564,311.241 582.421,314.529 580.67,315.637 577.775,315.78 
			577.489,314.672 		"/>
		
			<line fill="#FFFFFF" stroke="#000000" stroke-linecap="round" stroke-linejoin="round" stroke-miterlimit="10" x1="611.262" y1="398.604" x2="611.262" y2="406.752"/>
		
			<line fill="#FFFFFF" stroke="#000000" stroke-linecap="round" stroke-linejoin="round" stroke-miterlimit="10" x1="577.668" y1="326.037" x2="570.476" y2="326.082"/>
		<g>
			<path d="M603.471,434.181h-43.457c-4.729,0-8.577,3.847-8.577,8.577v49.603h-10.292v-49.603c0-10.405,8.465-18.87,18.869-18.87
				h43.457V434.181z"/>
		</g>
	</g>
	<polygon fill="#FFFFFF" stroke="#000000" stroke-linecap="round" stroke-linejoin="round" stroke-miterlimit="10" points="
		319.798,718.024 263.495,690.194 263.29,671.9 319.858,699.46 	"/>
	<polygon fill="#FFFFFF" stroke="#000000" stroke-linecap="round" stroke-linejoin="round" stroke-miterlimit="10" points="
		314.908,712.921 267.882,690.184 267.734,677.184 314.953,699.732 	"/>
	<path fill="#FFFFFF" stroke="#000000" stroke-linecap="round" stroke-linejoin="round" stroke-miterlimit="10" d="M275.532,680.892
		c-22.747,4.834-39.812,25.035-39.812,49.223l39.54,18.999c0-24.185,17.064-44.389,39.81-49.22L275.532,680.892z"/>
	<path fill="#FFFFFF" stroke="#000000" stroke-linecap="round" stroke-linejoin="round" stroke-miterlimit="10" d="M250.567,827.633
		c15.928-16.942,18.427-43.269,4.633-63.137l-43.312,6.938c13.792,19.869,11.295,46.196-4.635,63.137L250.567,827.633z"/>
	<g>
		<g>
			
				<circle fill="#FFFFFF" stroke="#000000" stroke-linecap="round" stroke-linejoin="round" stroke-miterlimit="10" cx="136.51" cy="16.891" r="13.294"/>
			<path fill="#FFFFFF" stroke="#000000" stroke-linecap="round" stroke-linejoin="round" stroke-miterlimit="10" d="M152.489,0.5
				c0,0,2.479,6.861-18.295,10.864c0,0-4.767-0.381-4.957,3.622c0,0-1.144-4.193-2.859-1.526c0,0-1.144,2.287,0.19,3.622
				c0,0-0.572,3.05-2.477,2.668c-1.905-0.381-5.91-16.745,10.292-17.726C138.918,1.752,151.538,2.787,152.489,0.5z"/>
		</g>
		<polygon points="114.136,80.314 114.136,104.521 122.331,107.569 127.098,107.569 127.098,101.852 144.25,101.852 144.25,106.617 
			155.114,106.617 155.114,77.074 		"/>
		<path fill="#FFFFFF" stroke="#000000" stroke-linecap="round" stroke-linejoin="round" stroke-miterlimit="10" d="M190.119,25.516
			v29.096c0,2.43-1.144,4.992-3.311,5.674c-2.01,0.634-4.266-0.521-5.85-2.143l-26.276-26.146h-16.826c0,0-16.754-0.573-22.3,0
			c-5.53,0.572-15.725,3.289-15.725,15.725v29.59c0,0-0.715,8.077,8.077,8.077h27.089h19.87V43.852l19.881,20.356
			c2.738,2.802,7.163,4.471,9.893,4.732c7.418,0.71,13.314-6.762,13.314-14.329v-29.19L190.119,25.516z M114.127,76.597
			c0,0-1.429,0.144-3.384-1.477c-1.01-0.838-1.537-2.871-1.644-3.932c-0.627-6.21,0.024-24.968,0.024-24.968
			c0-1.382,1.122-2.502,2.502-2.502c1.382,0,2.501,1.12,2.501,2.502V76.597z"/>
		<path fill="none" stroke="#000000" stroke-linecap="round" stroke-linejoin="round" stroke-miterlimit="10" d="M108.887,46.218
			v24.633c0,0-0.094,5.784,5.785,5.784h25.003v8.397"/>
		<path fill="#FFFFFF" stroke="#000000" stroke-linecap="round" stroke-linejoin="round" stroke-miterlimit="10" d="M139.867,77.455
			c0,0,1.237-1.621,3.335-1.621h8.577c0,0,0.286,1.906-0.572,1.906h8.959c0,0,1.477,0.714,0.572,1.62h0.094
			c0,0,0.857,0.906,0.096,1.667c0,0,1.001,0.954,0,1.954c0,0,0.952,1.001-0.143,2.145h-20.442h-0.525L139.867,77.455z"/>
		
			<line fill="#FFFFFF" stroke="#000000" stroke-linecap="round" stroke-linejoin="round" stroke-miterlimit="10" x1="160.738" y1="79.361" x2="155.114" y2="79.361"/>
		
			<line fill="#FFFFFF" stroke="#000000" stroke-linecap="round" stroke-linejoin="round" stroke-miterlimit="10" x1="160.917" y1="81.041" x2="155.292" y2="81.041"/>
		
			<line fill="#FFFFFF" stroke="#000000" stroke-linecap="round" stroke-linejoin="round" stroke-miterlimit="10" x1="160.953" y1="82.934" x2="155.328" y2="82.934"/>
		<path fill="#FFFFFF" stroke="#000000" stroke-linecap="round" stroke-linejoin="round" stroke-miterlimit="10" d="M186.563,19.393
			c0,1.421-1.152,2.574-2.573,2.574h-9.149c-1.42,0-2.573-1.152-2.573-2.574l0,0c0-1.421,1.152-2.573,2.573-2.573h9.149
			C185.411,16.819,186.563,17.972,186.563,19.393L186.563,19.393z"/>
		
			<line fill="#FFFFFF" stroke="#000000" stroke-linecap="round" stroke-linejoin="round" stroke-miterlimit="10" x1="150.968" y1="77.859" x2="145.822" y2="77.859"/>
		<polygon fill="#FFFFFF" stroke="#000000" stroke-linecap="round" stroke-linejoin="round" stroke-miterlimit="10" points="
			184.638,13.89 184.638,24.896 244.601,25.897 244.601,22.466 244.601,16.319 244.601,12.889 		"/>
		<path fill="#FFFFFF" stroke="#000000" stroke-linecap="round" stroke-linejoin="round" stroke-miterlimit="10" d="M188.66,22.298
			c0,1.672-1.354,3.027-3.026,3.027l0,0c-1.671,0-3.026-1.355-3.026-3.027v-6.241c0-1.67,1.355-3.026,3.026-3.026l0,0
			c1.673,0,3.026,1.356,3.026,3.026V22.298z"/>
		<path fill="#FFFFFF" stroke="#000000" stroke-linecap="round" stroke-linejoin="round" stroke-miterlimit="10" d="M187.492,13.46
			v8.291c0,0,0.286,3.646,3.645,3.646h6.819v-4.503h-5.818C192.138,20.894,192.281,13.817,187.492,13.46z"/>
		<path fill="#FFFFFF" stroke="#000000" stroke-linecap="round" stroke-linejoin="round" stroke-miterlimit="10" d="M192.924,20.929
			c0,0.691-0.559,1.251-1.251,1.251l0,0c-0.69,0-1.25-0.561-1.25-1.251v-9.006c0-0.69,0.561-1.25,1.25-1.25l0,0
			c0.692,0,1.251,0.561,1.251,1.25V20.929z"/>
		<path fill="#FFFFFF" stroke="#000000" stroke-linecap="round" stroke-linejoin="round" stroke-miterlimit="10" d="M195.354,20.929
			c0,0.691-0.559,1.251-1.251,1.251l0,0c-0.69,0-1.25-0.561-1.25-1.251v-9.006c0-0.69,0.561-1.25,1.25-1.25l0,0
			c0.692,0,1.251,0.561,1.251,1.25V20.929z"/>
		<path fill="#FFFFFF" stroke="#000000" stroke-linecap="round" stroke-linejoin="round" stroke-miterlimit="10" d="M197.785,20.929
			c0,0.691-0.559,1.251-1.251,1.251l0,0c-0.69,0-1.25-0.561-1.25-1.251v-9.006c0-0.69,0.561-1.25,1.25-1.25l0,0
			c0.692,0,1.251,0.561,1.251,1.25V20.929z"/>
		<path fill="#FFFFFF" stroke="#000000" stroke-linecap="round" stroke-linejoin="round" stroke-miterlimit="10" d="M200.215,18.637
			c0,0.536-0.559,0.971-1.251,0.971l0,0c-0.69,0-1.25-0.435-1.25-0.971v-6.991c0-0.537,0.561-0.973,1.25-0.973l0,0
			c0.692,0,1.251,0.436,1.251,0.973V18.637z"/>
		<path fill="#FFFFFF" d="M197.047,22.657c0,0,1.287-0.382,1.287-2.621l3.002,0.715l-1.239,3.765l-3.954,0.238l0.809-2.145"/>
		<path fill="#FFFFFF" stroke="#000000" stroke-linecap="round" stroke-linejoin="round" stroke-miterlimit="10" d="M250.605,23.825
			c0,2.566-2.08,4.646-4.646,4.646l0,0c-2.566,0-4.646-2.079-4.646-4.646v-9.579c0-2.565,2.079-4.646,4.646-4.646l0,0
			c2.566,0,4.646,2.08,4.646,4.646V23.825z"/>
		<path fill="#FFFFFF" stroke="#000000" stroke-linecap="round" stroke-linejoin="round" stroke-miterlimit="10" d="M174.555,21.466
			c0,1.304-1.054,2.359-2.359,2.359l0,0c-1.302,0-2.358-1.055-2.358-2.359v-4.862c0-1.302,1.056-2.358,2.358-2.358l0,0
			c1.305,0,2.359,1.056,2.359,2.358V21.466z"/>
		<g>
			<g>
				<polygon fill="none" stroke="#000000" stroke-linecap="round" stroke-linejoin="round" stroke-miterlimit="10" points="
					130.035,32.458 127.75,37.812 135.771,32.316 				"/>
				<polygon fill="none" stroke="#000000" stroke-linecap="round" stroke-linejoin="round" stroke-miterlimit="10" points="
					141.388,32.297 143.673,37.812 135.652,32.316 				"/>
			</g>
			<polygon fill="#FFFFFF" stroke="#000000" stroke-linecap="round" stroke-linejoin="round" stroke-miterlimit="10" points="
				135.985,73.953 142.13,59.422 135.936,38 135.936,37.837 135.914,37.918 135.889,37.837 135.889,38 129.695,59.422 
				135.842,73.953 135.842,74.289 135.914,74.12 135.985,74.289 			"/>
			<polygon fill="#FFFFFF" stroke="#000000" stroke-linecap="round" stroke-linejoin="round" stroke-miterlimit="10" points="
				132.697,34.741 135.936,37.837 138.795,34.741 135.749,32.833 			"/>
		</g>
	</g>
	<polygon points="127.288,128.5 114.136,122.403 114.136,96.479 127.288,96.479 	"/>
	<polygon points="155.114,115.921 144.25,120.305 144.25,101.054 154.924,100.863 	"/>
	
		<line fill="#FFFFFF" stroke="#000000" stroke-linecap="round" stroke-linejoin="round" stroke-miterlimit="10" x1="190.376" y1="29.771" x2="197.463" y2="29.771"/>
	
		<line fill="#FFFFFF" stroke="#000000" stroke-linecap="round" stroke-linejoin="round" stroke-miterlimit="10" x1="134.435" y1="76.78" x2="134.435" y2="84.568"/>
	<polygon fill="#FFFFFF" stroke="#000000" stroke-linecap="round" stroke-linejoin="round" stroke-miterlimit="10" points="
		26.246,264.883 104.896,299.077 104.592,195.17 26.016,160.85 	"/>
	<polygon points="172.154,222.327 172.154,249.961 179.123,247.245 183.177,245.508 183.177,240.645 197.767,240.645 
		197.767,244.696 207.007,244.696 207.007,219.571 	"/>
	<g>
		<polygon fill="#FFFFFF" stroke="#000000" stroke-linecap="round" stroke-linejoin="round" stroke-miterlimit="10" points="
			31.408,258.25 95.115,285.946 94.869,201.781 31.222,173.981 		"/>
	</g>
	
		<line fill="#FFFFFF" stroke="#000000" stroke-linecap="round" stroke-linejoin="round" stroke-miterlimit="10" x1="43.813" y1="208.743" x2="82.635" y2="225.621"/>
	
		<line fill="#FFFFFF" stroke="#000000" stroke-linecap="round" stroke-linejoin="round" stroke-miterlimit="10" x1="43.813" y1="214.513" x2="82.635" y2="231.39"/>
	
		<line fill="#FFFFFF" stroke="#000000" stroke-linecap="round" stroke-linejoin="round" stroke-miterlimit="10" x1="43.813" y1="220.283" x2="82.635" y2="237.159"/>
	<g>
		<path fill="#FFFFFF" stroke="#000000" stroke-linecap="round" stroke-linejoin="round" stroke-miterlimit="10" d="M245.912,224.37
			h-28.653c-6.859,0-12.441-5.581-12.441-12.442v-32.705h6.786v32.705c0,3.12,2.538,5.656,5.655,5.656h28.653V224.37z"/>
	</g>
	<g>
		<path fill="#DCDCDC" stroke="#000000" stroke-linecap="round" stroke-linejoin="round" stroke-miterlimit="10" d="
			M237.099,212.994c1.065-2.532,2.483-4.875,4.172-6.99l-0.672-3.359l1-1.572l11.507-4.003l0.022,0.016
			c3.601-1.488,7.547-2.304,11.688-2.253c16.379,0.206,29.488,13.647,29.283,30.026c-0.054,4.312-1.025,8.395-2.725,12.068
			c0.449-0.021,0.902-0.031,1.358-0.024c12.738,0.161,22.937,10.617,22.776,23.354c-0.123,9.89-6.466,18.222-15.251,21.392l0,0
			l-0.041,0.013c-0.451,0.163-0.9,0.328-1.362,0.462l-11.273,3.815l0.19-0.955l-2.29-3.028c-0.987-0.313-1.95-0.682-2.875-1.119
			v0.013l-66.653-34.003L237.099,212.994z"/>
		<path fill="#FFFFFF" stroke="#000000" stroke-linecap="round" stroke-linejoin="round" stroke-miterlimit="10" d="
			M281.147,240.909c-0.458-0.006-0.909,0.002-1.36,0.022c1.702-3.674,2.674-7.757,2.728-12.065
			c0.205-16.379-12.906-29.823-29.283-30.029c-12.435-0.156-23.176,7.364-27.719,18.162c-3.386-2.736-7.682-4.396-12.372-4.456
			c-11.101-0.139-20.212,8.747-20.353,19.848c-0.101,8.146,4.655,15.22,11.581,18.463l66.653,34.004v-0.014
			c2.897,1.366,6.131,2.152,9.546,2.195c12.738,0.159,23.194-10.038,23.354-22.775C304.082,251.526,293.886,241.068,281.147,240.909
			z"/>
	</g>
	<path fill="#FFFFFF" stroke="#000000" stroke-linecap="round" stroke-linejoin="round" stroke-miterlimit="10" d="M206.639,179.209
		h-14.311c0,0-14.249-0.488-18.966,0c-4.704,0.485-13.375,2.796-13.375,13.373v25.166c0,0-0.607,6.871,6.871,6.871h23.04h16.899
		V189.29 M172.147,217.141c0,0-1.217,0.121-2.879-1.255c-0.857-0.712-1.307-2.442-1.398-3.343
		c-0.534-5.283,0.022-21.236,0.022-21.236c0-1.175,0.952-2.128,2.126-2.128s2.129,0.953,2.129,2.128V217.141z"/>
	<g>
		
			<circle fill="#FFFFFF" stroke="#000000" stroke-linecap="round" stroke-linejoin="round" stroke-miterlimit="10" cx="191.183" cy="165.954" r="11.308"/>
		<path fill="#FFFFFF" stroke="#000000" stroke-linecap="round" stroke-linejoin="round" stroke-miterlimit="10" d="
			M204.773,152.014c0,0,2.109,5.835-15.562,9.239c0,0-4.052-0.323-4.215,3.081c0,0-0.972-3.564-2.43-1.298
			c0,0-0.974,1.946,0.161,3.082c0,0-0.487,2.592-2.106,2.269c-1.622-0.324-5.028-14.243,8.753-15.076
			C193.23,153.077,203.965,153.958,204.773,152.014z"/>
	</g>
	<g>
		<g>
			<polygon fill="none" stroke="#000000" stroke-linecap="round" stroke-linejoin="round" stroke-miterlimit="10" points="
				186.891,179.649 184.948,184.203 191.77,179.527 			"/>
			<polygon fill="none" stroke="#000000" stroke-linecap="round" stroke-linejoin="round" stroke-miterlimit="10" points="
				196.547,179.513 198.49,184.203 191.669,179.527 			"/>
		</g>
		<polygon fill="#FFFFFF" stroke="#000000" stroke-linecap="round" stroke-linejoin="round" stroke-miterlimit="10" points="
			191.951,214.94 197.179,202.582 191.91,184.363 191.91,184.224 191.89,184.293 191.87,184.224 191.87,184.363 186.601,202.582 
			191.83,214.94 191.83,215.227 191.89,215.083 191.951,215.227 		"/>
		<polygon fill="#FFFFFF" stroke="#000000" stroke-linecap="round" stroke-linejoin="round" stroke-miterlimit="10" points="
			189.156,181.591 191.91,184.224 194.343,181.591 191.75,179.969 		"/>
	</g>
	<g>
		<path fill="#FFFFFF" stroke="#000000" stroke-linecap="round" stroke-linejoin="round" stroke-miterlimit="10" d="
			M193.979,218.071c0,0,1.052-1.377,2.834-1.377h7.295c0,0,0.244,1.62-0.484,1.62h7.619c0,0,1.255,0.607,0.487,1.378h0.081
			c0,0,0.728,0.771,0.08,1.418c0,0,0.851,0.811,0,1.662c0,0,0.811,0.852-0.123,1.824h-17.384h-0.447L193.979,218.071z"/>
		
			<line fill="#FFFFFF" stroke="#000000" stroke-width="0.75" stroke-linecap="round" stroke-linejoin="round" stroke-miterlimit="10" x1="211.729" y1="219.692" x2="206.945" y2="219.692"/>
		
			<line fill="#FFFFFF" stroke="#000000" stroke-width="0.75" stroke-linecap="round" stroke-linejoin="round" stroke-miterlimit="10" x1="211.879" y1="221.12" x2="207.099" y2="221.12"/>
		
			<line fill="#FFFFFF" stroke="#000000" stroke-width="0.75" stroke-linecap="round" stroke-linejoin="round" stroke-miterlimit="10" x1="211.91" y1="222.731" x2="207.128" y2="222.731"/>
		
			<line fill="#FFFFFF" stroke="#000000" stroke-linecap="round" stroke-linejoin="round" stroke-miterlimit="10" x1="203.42" y1="218.315" x2="199.042" y2="218.315"/>
	</g>
	<g>
		<path fill="#FFFFFF" stroke="#000000" stroke-linecap="round" stroke-linejoin="round" stroke-miterlimit="10" d="M56.728,259.165
			c0,0-1.409-1.007-1.467-2.791l-0.232-7.292c0,0,1.61-0.295,1.635,0.435l-0.244-11.054c0,0,0.565-1.275,1.36-0.53l0.078,3.438
			c0,0,0.666-0.835,1.336-0.205c0,0,0.782-0.879,1.662-0.055c0,0,0.822-0.837,1.825,0.065l0.556,17.374l0.016,0.447L56.728,259.165z
			"/>
		
			<line fill="#FFFFFF" stroke="#000000" stroke-width="0.75" stroke-linecap="round" stroke-linejoin="round" stroke-miterlimit="10" x1="57.78" y1="241.371" x2="57.934" y2="246.152"/>
		
			<line fill="#FFFFFF" stroke="#000000" stroke-width="0.75" stroke-linecap="round" stroke-linejoin="round" stroke-miterlimit="10" x1="59.203" y1="241.173" x2="59.357" y2="245.953"/>
		
			<line fill="#FFFFFF" stroke="#000000" stroke-width="0.75" stroke-linecap="round" stroke-linejoin="round" stroke-miterlimit="10" x1="60.813" y1="241.092" x2="60.965" y2="245.872"/>
		
			<line fill="#FFFFFF" stroke="#000000" stroke-linecap="round" stroke-linejoin="round" stroke-miterlimit="10" x1="56.669" y1="249.719" x2="56.811" y2="254.093"/>
	</g>
	<path fill="none" stroke="#000000" stroke-linecap="round" stroke-linejoin="round" stroke-miterlimit="10" d="M167.689,191.303
		v20.95c0,0-0.078,4.92,4.921,4.92h21.266v7.142"/>
	<polygon fill="#DCDCDC" stroke="#000000" stroke-linecap="round" stroke-linejoin="round" stroke-miterlimit="10" points="
		277.623,161.617 216.205,127.304 219.064,124.444 280.482,159.044 	"/>
	<g>
		<g>
			<path d="M234.315,652.411v36.51H228.3v-36.51H234.315z"/>
		</g>
		<g>
			<path d="M208.019,643.646v36.512h-6.015v-36.512H208.019z"/>
		</g>
		<path fill="#FFFFFF" stroke="#000000" stroke-linecap="round" stroke-linejoin="round" stroke-miterlimit="10" d="
			M231.532,688.921c0,0-0.21,3.897,0,5.175c0.25,1.54,0.719,2.143,5.866,2.143h6.433c0,0,1.572,1.288,1.572,4.432h-8.72h-5.861
			c0,0-2.298,0.975-2.298-5.875v-5.875H231.532z"/>
		<path fill="#FFFFFF" stroke="#000000" stroke-linecap="round" stroke-linejoin="round" stroke-miterlimit="10" d="
			M234.315,688.921c0,0-0.21,3.897,0,5.175c0.25,1.54,0.719,2.143,5.865,2.143h6.433c0,0,1.572,1.288,1.572,4.432h-8.72h-5.861
			c0,0-2.298,0.975-2.298-5.875v-5.875H234.315z"/>
		<path fill="#FFFFFF" stroke="#000000" stroke-linecap="round" stroke-linejoin="round" stroke-miterlimit="10" d="M205.01,680.56
			c0,0-0.208,3.896,0,5.172c0.252,1.543,0.719,2.145,5.866,2.145h6.433c0,0,1.572,1.287,1.572,4.431h-8.72H204.3
			c0,0-2.296,0.974-2.296-5.873v-5.875H205.01z"/>
		<path fill="#FFFFFF" stroke="#000000" stroke-linecap="round" stroke-linejoin="round" stroke-miterlimit="10" d="M207.793,680.56
			c0,0-0.208,3.896,0,5.172c0.252,1.543,0.719,2.145,5.865,2.145h6.433c0,0,1.572,1.287,1.572,4.431h-8.72h-5.861
			c0,0-2.296,0.974-2.296-5.873v-5.875H207.793z"/>
	</g>
	<g>
		<g>
			<polygon fill="#1B9AFC" stroke="#000000" stroke-linecap="round" stroke-linejoin="round" stroke-miterlimit="10" points="
				221.43,664.599 122.686,615.965 122.666,611.256 221.43,659.896 			"/>
			<polygon fill="#FFFFFF" stroke="#000000" stroke-linecap="round" stroke-linejoin="round" stroke-miterlimit="10" points="
				122.666,611.256 221.43,659.896 271.016,637.847 172.842,589.069 			"/>
		</g>
		<polygon fill="#DCDCDC" stroke="#000000" stroke-linecap="round" stroke-linejoin="round" stroke-miterlimit="10" points="
			270.98,637.857 221.394,659.907 221.43,664.599 270.98,642.561 		"/>
	</g>
	<g>
		<g>
			<polygon fill="#1B9AFC" stroke="#000000" stroke-linecap="round" stroke-linejoin="round" stroke-miterlimit="10" points="
				420.449,867.007 321.703,818.374 321.685,813.665 420.449,862.304 			"/>
			<polygon fill="#FFFFFF" stroke="#000000" stroke-linecap="round" stroke-linejoin="round" stroke-miterlimit="10" points="
				321.685,813.665 420.449,862.304 470.035,840.255 371.859,791.478 			"/>
		</g>
		<polygon fill="#DCDCDC" stroke="#000000" stroke-linecap="round" stroke-linejoin="round" stroke-miterlimit="10" points="
			469.999,840.266 420.413,862.315 420.449,867.007 469.999,844.971 		"/>
	</g>
	<g>
		<g>
			
				<circle fill="#FFFFFF" stroke="#000000" stroke-linecap="round" stroke-linejoin="round" stroke-miterlimit="10" cx="218.303" cy="551.82" r="13.294"/>
			<path fill="#FFFFFF" stroke="#000000" stroke-linecap="round" stroke-linejoin="round" stroke-miterlimit="10" d="
				M234.284,535.429c0,0,2.477,6.862-18.298,10.864c0,0-4.767-0.381-4.957,3.622c0,0-1.144-4.192-2.859-1.526
				c0,0-1.144,2.288,0.19,3.622c0,0-0.572,3.05-2.477,2.668c-1.905-0.381-5.91-16.747,10.292-17.726
				C220.71,536.681,233.33,537.716,234.284,535.429z"/>
		</g>
		<g>
			<path fill="#FFFFFF" stroke="#000000" stroke-linecap="round" stroke-linejoin="round" stroke-miterlimit="10" d="
				M201.611,571.262l-19.417,12.982c-2.113,1.412-2.682,4.281-1.269,6.393l14.815,22.161l-4.597,3.074l-14.818-22.161
				c-3.107-4.648-1.854-10.96,2.794-14.068l19.415-12.979L201.611,571.262z"/>
		</g>
		<path d="M186.534,604.241l-2.453,13.122c0,0-0.38,6.67,7.244,6.861l23.824,2.287c0,0,3.623-0.954,11.436-4.193
			c0,0,5.72-1.906,7.625-1.716l4.382,1.335c0,0,2.477-8.196-3.621-8.386h-16.964h-1.336l0.88-7.972L186.534,604.241z"/>
		<path fill="#FFFFFF" stroke="#000000" stroke-linecap="round" stroke-linejoin="round" stroke-miterlimit="10" d="
			M221.628,570.667l-20.013-4.003c0,0-7.244,0.38-10.103,9.149l-5.908,33.736l31.067,4.002l3.241-29.354c0,0,3.049-5.146,4.957-0.38
			c0,0,8.789,15.357,12.387,20.014c1.615,2.085,4.003,4.191,9.913,3.62l17.344-1.715c0,0,0.954-4.003-4.192-4.192l-13.151,0.952
			c0,0-3.623-0.19-6.862-3.049l-14.295-24.969C226.013,574.478,223.536,571.047,221.628,570.667z"/>
	</g>
	
		<path fill="#FFFFFF" stroke="#000000" stroke-width="0.5" stroke-linecap="round" stroke-linejoin="round" stroke-miterlimit="10" d="
		M261.755,601.19l3.574-4.632h1.715l6.232-2.144c0,0,1.773-0.559,1.344,0.536c0,0,1.827-0.334,1.7,0.666
		c0,0,1.445-0.402,1.302,0.941l-2.859,1.739h1.715l1.155,0.273l0.228,1c0,0-0.572,0.43-0.762-0.095l-1-0.08l-1.812,0.223
		l-6.004,3.432c0,0-2.156,2.238-3.556,1.19C264.728,604.241,263.091,601.808,261.755,601.19z"/>
	
		<path fill="#FFFFFF" stroke="#000000" stroke-width="0.5" stroke-linecap="round" stroke-linejoin="round" stroke-miterlimit="10" d="
		M265.472,597.856c0,0,1.029-1.108,2.126-1.486"/>
	
		<polyline fill="#FFFFFF" stroke="#000000" stroke-width="0.5" stroke-linecap="round" stroke-linejoin="round" stroke-miterlimit="10" points="
		270,597.112 271.762,596.141 274.621,594.951 	"/>
	
		<polyline fill="#FFFFFF" stroke="#000000" stroke-width="0.5" stroke-linecap="round" stroke-linejoin="round" stroke-miterlimit="10" points="
		272.144,598.298 274.192,596.712 276.321,595.617 	"/>
	<path fill="#FFFFFF" stroke="#000000" stroke-linecap="round" stroke-linejoin="round" stroke-miterlimit="10" d="M350.517,707.004
		l134.62,67.263c3.618,0.733,6.473,5.134,6.398,9.83l0,0c-0.071,4.696-3.044,7.965-6.662,7.294L350.34,727.11"/>
	<path fill="#FFFFFF" stroke="#000000" stroke-linecap="round" stroke-linejoin="round" stroke-miterlimit="10" d="M416.214,750.518
		c0-3.004,1.494-5.409,3.431-5.374c2.048,0.036,3.797,2.763,3.797,6.082c0,3.321-1.749,5.702-3.797,5.34
		C417.708,756.22,416.214,753.52,416.214,750.518z"/>
	<path fill="#FFFFFF" stroke="#000000" stroke-linecap="round" stroke-linejoin="round" stroke-miterlimit="10" d="M465.503,779.416
		c-1.937-0.346-3.431-3.047-3.431-6.05c0-3.001,1.494-5.407,3.431-5.373c2.048,0.038,3.795,2.762,3.795,6.084
		C469.298,777.397,467.551,779.779,465.503,779.416"/>
	<path fill="#FFFFFF" stroke="#000000" stroke-linecap="round" stroke-linejoin="round" stroke-miterlimit="10" d="M480.207,786.288
		c-1.935-0.343-3.432-3.044-3.432-6.046c0-3.003,1.497-5.409,3.432-5.375c2.048,0.039,3.797,2.762,3.797,6.083
		C484.004,784.27,482.255,786.652,480.207,786.288"/>
	<path fill="#FFFFFF" stroke="#000000" stroke-linecap="round" stroke-linejoin="round" stroke-miterlimit="10" d="M446.785,765.474
		c0-3.004,1.494-5.411,3.431-5.376c2.049,0.039,3.798,2.764,3.798,6.084c0,3.321-1.749,5.702-3.798,5.34
		C448.279,771.175,446.785,768.476,446.785,765.474z"/>
	<path fill="#FFFFFF" stroke="#000000" stroke-linecap="round" stroke-linejoin="round" stroke-miterlimit="10" d="M431.499,758.411
		c0-3.001,1.497-5.409,3.431-5.374c2.05,0.038,3.797,2.763,3.797,6.084c0,3.319-1.747,5.701-3.797,5.338
		C432.995,764.113,431.499,761.414,431.499,758.411z"/>
	<path fill="#FFFFFF" stroke="#000000" stroke-linecap="round" stroke-linejoin="round" stroke-miterlimit="10" d="M400.929,742.622
		c0-3.002,1.494-5.408,3.431-5.372c2.048,0.036,3.795,2.76,3.795,6.082c0,3.319-1.747,5.702-3.795,5.338
		C402.423,748.324,400.929,745.624,400.929,742.622z"/>
	<path fill="#FFFFFF" stroke="#000000" stroke-linecap="round" stroke-linejoin="round" stroke-miterlimit="10" d="M385.643,735.562
		c0-3.003,1.494-5.41,3.431-5.375c2.048,0.038,3.797,2.764,3.797,6.083c0,3.323-1.749,5.703-3.797,5.34
		C387.137,741.264,385.643,738.565,385.643,735.562z"/>
	
		<line fill="#FFFFFF" stroke="#000000" stroke-linecap="round" stroke-linejoin="round" stroke-miterlimit="10" x1="405.618" y1="738.863" x2="464.828" y2="714.425"/>
	
		<line fill="#FFFFFF" stroke="#000000" stroke-linecap="round" stroke-linejoin="round" stroke-miterlimit="10" x1="403.169" y1="719.224" x2="462.38" y2="694.785"/>
	<path fill="#FFFFFF" stroke="#000000" stroke-linecap="round" stroke-linejoin="round" stroke-miterlimit="10" d="M370.519,728.249
		c0-3.001,1.494-5.408,3.431-5.375c2.048,0.038,3.795,2.764,3.795,6.085c0,3.322-1.747,5.701-3.795,5.338
		C372.013,733.951,370.519,731.252,370.519,728.249z"/>
	<path fill="#FFFFFF" stroke="#000000" stroke-linecap="round" stroke-linejoin="round" stroke-miterlimit="10" d="M354.155,720.561
		c0-3.004,1.494-5.409,3.431-5.376c2.048,0.038,3.797,2.763,3.797,6.085c0,3.32-1.749,5.7-3.797,5.338
		C355.649,726.262,354.155,723.562,354.155,720.561z"/>
	<g>
		<path fill="#FFFFFF" stroke="#000000" stroke-linecap="round" stroke-linejoin="round" stroke-miterlimit="10" d="
			M438.972,718.341c0,0,1.052-1.378,2.836-1.378h7.295c0,0,0.241,1.62-0.487,1.62h7.619c0,0,1.258,0.608,0.487,1.378h0.08
			c0,0,0.73,0.771,0.081,1.419c0,0,0.851,0.811,0,1.662c0,0,0.811,0.85-0.121,1.824h-17.386h-0.447L438.972,718.341z"/>
		
			<line fill="#FFFFFF" stroke="#000000" stroke-width="0.75" stroke-linecap="round" stroke-linejoin="round" stroke-miterlimit="10" x1="456.723" y1="719.961" x2="451.94" y2="719.961"/>
		
			<line fill="#FFFFFF" stroke="#000000" stroke-width="0.75" stroke-linecap="round" stroke-linejoin="round" stroke-miterlimit="10" x1="456.874" y1="721.389" x2="452.092" y2="721.389"/>
		
			<line fill="#FFFFFF" stroke="#000000" stroke-width="0.75" stroke-linecap="round" stroke-linejoin="round" stroke-miterlimit="10" x1="456.905" y1="723" x2="452.121" y2="723"/>
		
			<line fill="#FFFFFF" stroke="#000000" stroke-linecap="round" stroke-linejoin="round" stroke-miterlimit="10" x1="448.414" y1="718.584" x2="444.038" y2="718.584"/>
	</g>
	<rect x="388.667" y="720.184" width="36.363" height="31.462"/>
	<path fill="#FFFFFF" stroke="#000000" stroke-linecap="round" stroke-linejoin="round" stroke-miterlimit="10" d="M423.158,682.61
		H408.85c0,0-14.25-0.487-18.968,0c-4.702,0.487-13.373,2.797-13.373,13.375v25.165c0,0-0.608,6.87,6.868,6.87h23.04h16.899v-35.328
		 M388.667,720.543c0,0-1.217,0.121-2.876-1.256c-0.86-0.712-1.309-2.442-1.398-3.344c-0.536-5.28,0.02-21.235,0.02-21.235
		c0-1.175,0.952-2.128,2.129-2.128c1.175,0,2.126,0.953,2.126,2.128V720.543z"/>
	<g>
		
			<circle fill="#FFFFFF" stroke="#000000" stroke-linecap="round" stroke-linejoin="round" stroke-miterlimit="10" cx="407.704" cy="669.356" r="11.306"/>
		<path fill="#FFFFFF" stroke="#000000" stroke-linecap="round" stroke-linejoin="round" stroke-miterlimit="10" d="
			M421.295,655.416c0,0,2.108,5.836-15.562,9.239c0,0-4.054-0.323-4.215,3.082c0,0-0.974-3.567-2.433-1.298
			c0,0-0.974,1.946,0.161,3.081c0,0-0.484,2.595-2.106,2.271c-1.622-0.326-5.026-14.244,8.753-15.077
			C409.752,656.48,420.484,657.36,421.295,655.416z"/>
	</g>
	<g>
		<g>
			<polygon fill="none" stroke="#000000" stroke-linecap="round" stroke-linejoin="round" stroke-miterlimit="10" points="
				403.411,683.052 401.467,687.604 408.289,682.93 			"/>
			<polygon fill="none" stroke="#000000" stroke-linecap="round" stroke-linejoin="round" stroke-miterlimit="10" points="
				413.069,682.914 415.012,687.604 408.19,682.93 			"/>
		</g>
		<polygon fill="#FFFFFF" stroke="#000000" stroke-linecap="round" stroke-linejoin="round" stroke-miterlimit="10" points="
			408.472,718.345 413.701,705.984 408.432,687.765 408.432,687.626 408.412,687.694 408.392,687.626 408.392,687.765 
			403.123,705.984 408.352,718.345 408.352,718.629 408.412,718.486 408.472,718.629 		"/>
		<polygon fill="#FFFFFF" stroke="#000000" stroke-linecap="round" stroke-linejoin="round" stroke-miterlimit="10" points="
			405.678,684.992 408.432,687.626 410.864,684.992 408.271,683.371 		"/>
	</g>
	<g>
		<g enable-background="new    ">
			<g enable-background="new    ">
				<defs>
					<path id="SVGID_1_" enable-background="new    " d="M426.754,678.285c-3.889,0.396-7.775,0.788-11.662,1.184
						c-0.61,0.06-1.235,0.095-1.876,0.109l11.66-1.185C425.521,678.384,426.146,678.349,426.754,678.285z"/>
				</defs>
				<clipPath id="SVGID_2_">
					<use xlink:href="#SVGID_1_"  overflow="visible"/>
				</clipPath>
				<g clip-path="url(#SVGID_2_)" enable-background="new    ">
					<path d="M413.216,679.578l11.66-1.185c0.073,0,0.145-0.002,0.219-0.005l-11.664,1.185
						C413.359,679.573,413.288,679.575,413.216,679.578"/>
					<path d="M413.431,679.573l11.664-1.185c0.565-0.015,1.119-0.047,1.66-0.104l-11.662,1.184
						C414.552,679.522,413.998,679.558,413.431,679.573"/>
				</g>
			</g>
			<g>
				<polygon fill="#2D4057" points="413.236,729.401 424.898,728.221 435.224,728.469 423.56,729.651 				"/>
			</g>
			<g>
				<defs>
					<path id="SVGID_3_" d="M426.734,687.974c-3.886,0.396-7.773,0.788-11.662,1.185c0.246-0.025,0.494-0.055,0.746-0.093
						c0.9-0.132,1.8-0.319,2.701-0.563c0.9-0.243,1.767-0.531,2.606-0.858c0.837-0.327,1.602-0.677,2.29-1.052l11.664-1.182
						c-0.69,0.375-1.454,0.723-2.292,1.053c-0.837,0.324-1.707,0.612-2.606,0.854c-0.9,0.244-1.8,0.436-2.701,0.565
						C427.23,687.92,426.98,687.95,426.734,687.974z"/>
				</defs>
				<use xlink:href="#SVGID_3_"  overflow="visible" fill="#FFFFFF"/>
				<clipPath id="SVGID_4_">
					<use xlink:href="#SVGID_3_"  overflow="visible"/>
				</clipPath>
				<g clip-path="url(#SVGID_4_)" enable-background="new    ">
					<path fill="#2D4057" d="M423.415,686.594l11.664-1.182c-0.69,0.375-1.454,0.723-2.292,1.053
						c-0.837,0.324-1.707,0.612-2.606,0.854c-0.9,0.244-1.8,0.436-2.701,0.565c-0.25,0.035-0.5,0.065-0.746,0.089l-11.662,1.185
						c0.246-0.025,0.494-0.055,0.746-0.093c0.9-0.132,1.8-0.319,2.701-0.563c0.9-0.243,1.767-0.531,2.606-0.858
						C421.963,687.319,422.727,686.969,423.415,686.594"/>
				</g>
				
					<use xlink:href="#SVGID_3_"  overflow="visible" fill="none" stroke="#000000" stroke-linecap="round" stroke-linejoin="round" stroke-miterlimit="10"/>
			</g>
			<g>
				<polygon fill="#FFFFFF" stroke="#000000" stroke-linecap="round" stroke-linejoin="round" stroke-miterlimit="10" points="
					423.674,675.69 435.336,674.508 444.257,674.723 432.593,675.904 				"/>
			</g>
			<g>
				<polygon fill="#FFFFFF" stroke="#000000" stroke-linecap="round" stroke-linejoin="round" stroke-miterlimit="10" points="
					432.593,675.904 444.257,674.723 444.438,728.692 432.776,729.874 				"/>
			</g>
			<g>
				<polygon fill="#FFFFFF" stroke="#000000" stroke-linecap="round" stroke-linejoin="round" stroke-miterlimit="10" points="
					441.949,730.094 453.611,728.912 453.645,738.318 441.98,739.501 				"/>
			</g>
			<g>
				<polygon fill="#FFFFFF" stroke="#000000" stroke-linecap="round" stroke-linejoin="round" stroke-miterlimit="10" points="
					432.776,729.874 444.438,728.692 453.611,728.912 441.949,730.094 				"/>
			</g>
			<g>
				<path fill="#FFFFFF" stroke="#000000" stroke-linecap="round" stroke-linejoin="round" stroke-miterlimit="10" d="
					M432.593,675.904l0.183,53.97l9.173,0.22l0.031,9.407l-28.713-0.693l-0.031-9.407l10.324,0.25l-0.145-43.058
					c-0.688,0.375-1.452,0.725-2.29,1.052c-0.84,0.327-1.707,0.615-2.606,0.858c-0.9,0.243-1.8,0.431-2.701,0.563
					c-0.896,0.131-1.753,0.187-2.571,0.167l-0.031-9.655c2.169-0.036,4.143-0.364,5.915-0.989c1.776-0.625,3.288-1.595,4.543-2.898
					L432.593,675.904z"/>
			</g>
		</g>
	</g>
	<rect x="388.667" y="745.142" width="8.367" height="75.623"/>
	<rect x="416.665" y="745.142" width="8.365" height="75.623"/>
	<g>
		<path fill="#FFFFFF" stroke="#000000" stroke-linecap="round" stroke-linejoin="round" stroke-miterlimit="10" d="
			M410.498,721.474c0,0,1.052-1.378,2.836-1.378h7.295c0,0,0.241,1.621-0.487,1.621h7.619c0,0,1.257,0.607,0.487,1.378h0.081
			c0,0,0.73,0.771,0.08,1.418c0,0,0.851,0.813,0,1.663c0,0,0.811,0.85-0.121,1.824h-17.386h-0.444L410.498,721.474z"/>
		
			<line fill="#FFFFFF" stroke="#000000" stroke-width="0.75" stroke-linecap="round" stroke-linejoin="round" stroke-miterlimit="10" x1="428.249" y1="723.095" x2="423.466" y2="723.095"/>
		
			<line fill="#FFFFFF" stroke="#000000" stroke-width="0.75" stroke-linecap="round" stroke-linejoin="round" stroke-miterlimit="10" x1="428.4" y1="724.523" x2="423.618" y2="724.523"/>
		
			<line fill="#FFFFFF" stroke="#000000" stroke-width="0.75" stroke-linecap="round" stroke-linejoin="round" stroke-miterlimit="10" x1="428.432" y1="726.135" x2="423.649" y2="726.135"/>
		
			<line fill="#FFFFFF" stroke="#000000" stroke-linecap="round" stroke-linejoin="round" stroke-miterlimit="10" x1="419.939" y1="721.719" x2="415.564" y2="721.719"/>
	</g>
	<path fill="#FFFFFF" stroke="#000000" stroke-linecap="round" stroke-linejoin="round" stroke-miterlimit="10" d="M405.718,838.109
		v-3.238c-0.252-3.623-5.068-4.194-5.068-4.194c-3.607-1.524-3.828-3.786-3.828-3.786v-6.126"/>
	<path fill="none" stroke="#000000" stroke-linecap="round" stroke-linejoin="round" stroke-miterlimit="10" d="M383.938,694.653
		v20.95c0,0-0.078,4.92,4.921,4.92h21.268v7.143"/>
	<path fill="#FFFFFF" stroke="#000000" stroke-linecap="round" stroke-linejoin="round" stroke-miterlimit="10" d="M392.033,820.765
		v6.126c0,0,0.221,2.262,3.826,3.786c0,0,4.816,0.571,5.07,4.194v3.238l-11.315-7.052v-10.293H392.033z"/>
	<polygon fill="#FFFFFF" stroke="#000000" stroke-linecap="round" stroke-linejoin="round" stroke-miterlimit="10" points="
		401.269,835.274 405.718,835.274 405.718,838.109 400.929,838.109 	"/>
	<path fill="#FFFFFF" stroke="#000000" stroke-linecap="round" stroke-linejoin="round" stroke-miterlimit="10" d="M433.437,837.355
		v-3.241c-0.252-3.621-5.068-4.192-5.068-4.192c-3.607-1.524-3.829-3.785-3.829-3.785v-6.127"/>
	<path fill="#FFFFFF" stroke="#000000" stroke-linecap="round" stroke-linejoin="round" stroke-miterlimit="10" d="M419.752,820.01
		v6.127c0,0,0.221,2.261,3.828,3.785c0,0,4.816,0.572,5.068,4.192v3.241l-11.315-7.053V820.01H419.752z"/>
	<polygon fill="#FFFFFF" stroke="#000000" stroke-linecap="round" stroke-linejoin="round" stroke-miterlimit="10" points="
		428.99,834.52 433.437,834.52 433.437,837.355 428.648,837.355 	"/>
	
		<line fill="#FFFFFF" stroke="#000000" stroke-linecap="round" stroke-linejoin="round" stroke-miterlimit="10" x1="494.167" y1="777.476" x2="553.375" y2="753.037"/>
	
		<line fill="#FFFFFF" stroke="#000000" stroke-linecap="round" stroke-linejoin="round" stroke-miterlimit="10" x1="487.176" y1="760.926" x2="546.384" y2="736.487"/>
	
		<line fill="#FFFFFF" stroke="#000000" stroke-linecap="round" stroke-linejoin="round" stroke-miterlimit="10" x1="459.66" y1="757.36" x2="518.868" y2="732.923"/>
	
		<line fill="#FFFFFF" stroke="#000000" stroke-linecap="round" stroke-linejoin="round" stroke-miterlimit="10" x1="448.414" y1="742.406" x2="507.624" y2="717.967"/>
	<g>
		<path fill="#FFFFFF" stroke="#000000" stroke-linecap="round" stroke-linejoin="round" stroke-miterlimit="10" d="M493.65,682.371
			l3.979-4.505l-11.148-0.708c-0.127-0.016-0.257-0.038-0.386-0.047c-0.168-0.013-0.333-0.009-0.498-0.009l-0.034-0.002v0.002
			c-7.906,0.022-15.123,12.822-16.261,29.077c-1.161,16.619,4.475,30.552,12.587,31.121l11.718,0.786l-2.03-6.818
			c3.719-5.282,6.443-13.573,7.104-23.037C499.427,697.559,497.365,688,493.65,682.371z"/>
		<path fill="#FFFFFF" stroke="#000000" stroke-linecap="round" stroke-linejoin="round" stroke-miterlimit="10" d="
			M509.746,709.005c-1.161,16.621-8.68,29.634-16.792,29.067c-8.112-0.566-13.746-14.5-12.587-31.12
			c1.164-16.62,8.68-29.636,16.793-29.068C505.272,678.451,510.907,692.385,509.746,709.005z"/>
		
			<ellipse transform="matrix(0.9976 0.0697 -0.0697 0.9976 50.5512 -32.7844)" fill="#FFFFFF" stroke="#000000" stroke-linecap="round" stroke-linejoin="round" stroke-miterlimit="10" cx="495.058" cy="707.978" rx="5.748" ry="11.777"/>
		
			<ellipse transform="matrix(0.9976 0.0698 -0.0698 0.9976 50.5829 -32.5659)" fill="#FFFFFF" stroke="#000000" stroke-linecap="round" stroke-linejoin="round" stroke-miterlimit="10" cx="491.579" cy="707.979" rx="2.513" ry="9.148"/>
	</g>
	
		<line fill="#FFFFFF" stroke="#000000" stroke-linecap="round" stroke-linejoin="round" stroke-miterlimit="10" x1="266.578" y1="691.718" x2="287.982" y2="702.297"/>
	
		<line fill="#FFFFFF" stroke="#000000" stroke-linecap="round" stroke-linejoin="round" stroke-miterlimit="10" x1="259.296" y1="695.429" x2="280.701" y2="706.009"/>
	
		<line fill="#FFFFFF" stroke="#000000" stroke-linecap="round" stroke-linejoin="round" stroke-miterlimit="10" x1="252.588" y1="702.688" x2="273.993" y2="713.269"/>
	
		<line fill="#FFFFFF" stroke="#000000" stroke-linecap="round" stroke-linejoin="round" stroke-miterlimit="10" x1="232.879" y1="795.605" x2="257.752" y2="791.478"/>
	
		<line fill="#FFFFFF" stroke="#000000" stroke-linecap="round" stroke-linejoin="round" stroke-miterlimit="10" x1="236.964" y1="802.182" x2="252.588" y2="799.534"/>
	
		<line fill="#FFFFFF" stroke="#000000" stroke-linecap="round" stroke-linejoin="round" stroke-miterlimit="10" x1="228.523" y1="813.665" x2="254.322" y2="809.043"/>
	<g>
		<path fill="#FFFFFF" stroke="#000000" stroke-linecap="round" stroke-linejoin="round" stroke-miterlimit="10" d="M22.084,296.83
			L6.789,311.358c-1.666,1.582-1.733,4.222-0.152,5.888l16.584,17.458l-3.623,3.441L3.014,320.687
			c-3.478-3.663-3.328-9.472,0.333-12.95l15.296-14.529L22.084,296.83z"/>
	</g>
	<g>
		<g>
			
				<circle fill="#FFFFFF" stroke="#000000" stroke-linecap="round" stroke-linejoin="round" stroke-miterlimit="10" cx="34.768" cy="279.552" r="9.543"/>
			<path fill="#FFFFFF" stroke="#000000" stroke-linecap="round" stroke-linejoin="round" stroke-miterlimit="10" d="
				M40.297,264.078c0,0,3.67,3.738-8.693,12.561c0,0-3.223,1.177-2.151,3.844c0,0-1.999-2.394-2.323-0.14
				c0,0-0.063,1.835,1.208,2.308c0,0,0.539,2.161-0.819,2.481c-1.358,0.32-8.863-9.163,1.418-14.646
				C31.814,268.954,40.36,265.856,40.297,264.078z"/>
		</g>
		<path fill="#FFFFFF" stroke="#000000" stroke-linecap="round" stroke-linejoin="round" stroke-miterlimit="10" d="M16.279,323.14
			v-27.161c0,0,2.001-5.432,14.581-5.432c0,0,13.672,2.661,18.298,2.764c3.218,0.072,8.005-0.848,8.005-10.096v-23.783h6.004v23.783
			c0,0,0.295,15.547-12.008,15.862c-2.316,0.06-8.148-0.096-8.148,4.907v29.02v5.718l-26.732-7.719V323.14z"/>
		<polygon points="16.279,331.003 43.011,338.722 43.011,363.31 16.279,354.732 		"/>
		<polygon points="16.279,353.303 20.95,354.651 20.95,424.636 16.279,423.138 		"/>
		<polygon points="38.341,359.593 43.011,360.941 43.011,432.29 38.341,430.791 		"/>
	</g>
	<g>
		<path fill="#FFFFFF" stroke="#000000" stroke-linecap="round" stroke-linejoin="round" stroke-miterlimit="10" d="M40.637,430.84
			c0,0-1.05,3.76-1.124,5.05c-0.089,1.559,0.237,2.25,5.26,3.369l6.279,1.396c0,0,1.255,1.597,0.572,4.667l-8.51-1.894l-5.722-1.274
			c0,0-2.455,0.452-0.967-6.233l1.277-5.734L40.637,430.84z"/>
		<path fill="#FFFFFF" stroke="#000000" stroke-linecap="round" stroke-linejoin="round" stroke-miterlimit="10" d="M43.353,431.445
			c0,0-1.05,3.758-1.124,5.051c-0.089,1.558,0.237,2.248,5.26,3.366l6.278,1.397c0,0,1.255,1.599,0.574,4.669l-8.512-1.896
			l-5.723-1.271c0,0-2.453,0.45-0.965-6.235l1.275-5.734L43.353,431.445z"/>
	</g>
	<g>
		<path fill="#FFFFFF" stroke="#000000" stroke-linecap="round" stroke-linejoin="round" stroke-miterlimit="10" d="M19.029,422.564
			c0,0-1.05,3.76-1.124,5.051c-0.089,1.559,0.237,2.249,5.26,3.367l6.279,1.396c0,0,1.255,1.597,0.572,4.668l-8.512-1.894
			l-5.721-1.274c0,0-2.455,0.452-0.967-6.232l1.275-5.735L19.029,422.564z"/>
		<path fill="#FFFFFF" stroke="#000000" stroke-linecap="round" stroke-linejoin="round" stroke-miterlimit="10" d="M21.745,423.169
			c0,0-1.05,3.76-1.124,5.05c-0.089,1.56,0.237,2.25,5.26,3.368l6.278,1.397c0,0,1.255,1.598,0.572,4.667l-8.51-1.894l-5.723-1.272
			c0,0-2.453,0.452-0.965-6.233l1.275-5.736L21.745,423.169z"/>
	</g>
	<g>
		<path fill="#1B9AFC" stroke="#000000" stroke-linecap="round" stroke-linejoin="round" stroke-miterlimit="10" d="
			M101.309,645.399v44.34c0,8.829-7.184,16.01-16.011,16.01H63c-8.827,0-16.01-7.182-16.01-16.01V350.106
			c0-8.828,7.183-16.011,16.01-16.011h22.298c1.262,0,2.287,1.025,2.287,2.287c0,1.263-1.025,2.287-2.287,2.287H63
			c-6.305,0-11.436,5.131-11.436,11.437v339.632c0,6.306,5.131,11.436,11.436,11.436h22.298c6.306,0,11.436-5.13,11.436-11.436
			v-47.236"/>
	</g>
</g>
</svg>
