<?xml version="1.0" encoding="utf-8"?>
<!-- Generator: Adobe Illustrator 16.0.0, SVG Export Plug-In . SVG Version: 6.00 Build 0)  -->
<!DOCTYPE svg PUBLIC "-//W3C//DTD SVG 1.1//EN" "http://www.w3.org/Graphics/SVG/1.1/DTD/svg11.dtd">
<svg version="1.1" id="Layer_1" xmlns="http://www.w3.org/2000/svg" xmlns:xlink="http://www.w3.org/1999/xlink" x="0px" y="0px"
	 width="42.291px" height="63.438px" viewBox="192.181 30.958 42.291 63.438" enable-background="new 192.181 30.958 42.291 63.438"
	 xml:space="preserve">
<g>
	<path fill="#1B99FC" d="M213.329,31.646c-11.426,0-20.689,9.263-20.689,20.691c0,11.425,20.689,41.372,20.689,41.372
		s20.685-29.946,20.685-41.372C234.014,40.908,224.751,31.646,213.329,31.646z"/>
</g>
<g>
	<path fill="#FFFFFF" d="M212.87,61.446c-6.016,0-10.892-4.871-10.892-10.889c0-6.011,4.876-10.886,10.892-10.886
		c6.011,0,10.883,4.875,10.883,10.886C223.753,56.575,218.881,61.446,212.87,61.446z"/>
</g>
<g enable-background="new    ">
	<path d="M208.312,47.191h0.544h0.558v1.026l0.238-0.31c0.524-0.615,1.14-0.923,1.864-0.923c0.622,0,1.113,0.183,1.479,0.547
		c0.164,0.165,0.288,0.351,0.38,0.563l0.189-0.24c0.495-0.58,1.094-0.871,1.783-0.871c0.726,0,1.282,0.196,1.679,0.59
		c0.391,0.395,0.588,0.953,0.588,1.676v4.847h-0.579h-0.585v-4.454c0-0.524-0.104-0.922-0.318-1.193
		c-0.217-0.273-0.533-0.407-0.944-0.407c-0.5,0-0.901,0.196-1.2,0.587c-0.297,0.394-0.446,0.921-0.446,1.589v3.879h-0.579h-0.583
		v-4.731c0-0.432-0.096-0.759-0.293-0.984c-0.195-0.227-0.478-0.339-0.855-0.339c-0.517,0-0.937,0.22-1.269,0.658
		c-0.326,0.441-0.492,1.004-0.492,1.699v3.698h-0.583h-0.575V47.191z"/>
</g>
</svg>
