<?xml version="1.0" encoding="utf-8"?>
<!-- Generator: Adobe Illustrator 16.0.0, SVG Export Plug-In . SVG Version: 6.00 Build 0)  -->
<!DOCTYPE svg PUBLIC "-//W3C//DTD SVG 1.1//EN" "http://www.w3.org/Graphics/SVG/1.1/DTD/svg11.dtd">
<svg version="1.1" id="Layer_2" xmlns="http://www.w3.org/2000/svg" xmlns:xlink="http://www.w3.org/1999/xlink" x="0px" y="0px"
	 width="1260.952px" height="983.341px" viewBox="777.343 359.103 1260.952 983.341"
	 enable-background="new 777.343 359.103 1260.952 983.341" xml:space="preserve">
<g>
	<g>
		<g>
			<path stroke="#000000" stroke-miterlimit="10" d="M1860.156,846.618v34.643h-5.707v-34.643H1860.156L1860.156,846.618z"/>
		</g>
		<g>
			<path stroke="#000000" stroke-miterlimit="10" d="M1835.207,838.302v34.642h-5.707v-34.642H1835.207z"/>
		</g>
		<path fill="#FFFFFF" stroke="#000000" stroke-linecap="round" stroke-linejoin="round" stroke-miterlimit="10" d="
			M1857.517,881.26c0,0-0.197,3.697,0,4.908c0.239,1.463,0.682,2.034,5.563,2.034h6.104c0,0,1.492,1.221,1.492,4.205h-8.273h-5.561
			c0,0-2.18,0.923-2.18-5.573v-5.574H1857.517L1857.517,881.26z"/>
		<path fill="#FFFFFF" stroke="#000000" stroke-linecap="round" stroke-linejoin="round" stroke-miterlimit="10" d="
			M1860.156,881.26c0,0-0.197,3.697,0,4.908c0.239,1.463,0.683,2.034,5.565,2.034h6.104c0,0,1.492,1.221,1.492,4.205h-8.272h-5.562
			c0,0-2.178,0.923-2.178-5.573v-5.574H1860.156L1860.156,881.26z"/>
		<path fill="#FFFFFF" stroke="#000000" stroke-linecap="round" stroke-linejoin="round" stroke-miterlimit="10" d="
			M1832.355,873.326c0,0-0.199,3.696,0,4.907c0.237,1.462,0.682,2.035,5.565,2.035h6.104c0,0,1.492,1.22,1.492,4.204h-8.273h-5.561
			c0,0-2.182,0.925-2.182-5.573v-5.573H1832.355L1832.355,873.326z"/>
		<path fill="#FFFFFF" stroke="#000000" stroke-linecap="round" stroke-linejoin="round" stroke-miterlimit="10" d="
			M1834.995,873.326c0,0-0.198,3.696,0,4.907c0.237,1.462,0.683,2.035,5.564,2.035h6.104c0,0,1.492,1.22,1.492,4.204h-8.272h-5.562
			c0,0-2.181,0.925-2.181-5.573v-5.573H1834.995L1834.995,873.326z"/>
	</g>
	<g>
		<polygon fill="#FFFFFF" stroke="#000000" stroke-linecap="round" stroke-linejoin="round" stroke-miterlimit="10" points="
			1765.547,1123.895 1542.733,1233.625 1430.866,1183.881 1652.352,1073.836 		"/>
		<polygon fill="#FFFFFF" stroke="#000000" stroke-linecap="round" stroke-linejoin="round" stroke-miterlimit="10" points="
			1765.547,1113.768 1542.733,1223.5 1430.866,1173.755 1652.352,1063.709 		"/>
		<polygon fill="#1B9AFC" stroke="#000000" stroke-linecap="round" stroke-linejoin="round" stroke-miterlimit="10" points="
			1430.866,1183.881 1542.733,1233.625 1542.733,1223.5 1430.866,1173.755 		"/>
		<polygon fill="#DCDCDC" stroke="#000000" stroke-linecap="round" stroke-linejoin="round" stroke-miterlimit="10" points="
			1542.733,1233.625 1765.47,1123.861 1765.547,1113.768 1542.733,1223.5 		"/>
	</g>
	<g>
		<polygon fill="#FFFFFF" stroke="#000000" stroke-linecap="round" stroke-linejoin="round" stroke-miterlimit="10" points="
			1698.695,784.536 1872.421,870.093 1959.643,831.306 1786.952,745.505 		"/>
		<polygon fill="#FFFFFF" stroke="#000000" stroke-linecap="round" stroke-linejoin="round" stroke-miterlimit="10" points="
			1698.695,776.64 1872.421,862.196 1959.643,823.41 1786.952,737.609 		"/>
		<polygon fill="#DCDCDC" stroke="#000000" stroke-linecap="round" stroke-linejoin="round" stroke-miterlimit="10" points="
			1959.643,831.306 1872.421,870.093 1872.421,862.196 1959.643,823.41 		"/>
		<polygon fill="#1B9AFC" stroke="#000000" stroke-linecap="round" stroke-linejoin="round" stroke-miterlimit="10" points="
			1872.421,870.093 1698.756,784.51 1698.695,776.64 1872.421,862.196 		"/>
	</g>
	<g>
		<polygon fill="#FFFFFF" stroke="#000000" stroke-linecap="round" stroke-linejoin="round" stroke-miterlimit="10" points="
			1364.127,1265.847 1209.609,1341.944 1132.031,1307.447 1285.628,1231.132 		"/>
		<polygon fill="#FFFFFF" stroke="#000000" stroke-linecap="round" stroke-linejoin="round" stroke-miterlimit="10" points="
			1364.127,1258.824 1209.609,1334.922 1132.031,1300.424 1285.628,1224.109 		"/>
		<polygon fill="#1B9AFC" stroke="#000000" stroke-linecap="round" stroke-linejoin="round" stroke-miterlimit="10" points="
			1132.031,1307.447 1209.609,1341.944 1209.609,1334.922 1132.031,1300.424 		"/>
		<polygon fill="#DCDCDC" stroke="#000000" stroke-linecap="round" stroke-linejoin="round" stroke-miterlimit="10" points="
			1209.609,1341.944 1364.073,1265.824 1364.127,1258.824 1209.609,1334.922 		"/>
	</g>
	<g>
		<polygon stroke="#000000" stroke-miterlimit="10" points="1617.265,986.918 1617.265,1035.281 1617.265,1039.959 
			1617.265,1107.033 1609.329,1107.033 1609.329,1039.959 1590.703,1039.959 1590.703,1107.033 1582.765,1107.033 
			1582.765,1039.959 1582.765,1035.281 1582.765,986.918 		"/>
		<path fill="#FFFFFF" stroke="#000000" stroke-linecap="round" stroke-linejoin="round" stroke-miterlimit="10" d="
			M1601.088,1123.489v-3.073c0.24-3.437,4.811-3.979,4.811-3.979c3.42-1.447,3.63-3.591,3.63-3.591v-5.813"/>
		<path fill="#FFFFFF" stroke="#000000" stroke-linecap="round" stroke-linejoin="round" stroke-miterlimit="10" d="
			M1614.072,1107.033v5.813c0,0-0.21,2.144-3.63,3.591c0,0-4.568,0.543-4.809,3.979v3.073l10.733-6.689v-9.767L1614.072,1107.033
			L1614.072,1107.033z"/>
		<polygon fill="#FFFFFF" stroke="#000000" stroke-linecap="round" stroke-linejoin="round" stroke-miterlimit="10" points="
			1605.309,1120.8 1601.088,1120.8 1601.088,1123.489 1605.633,1123.489 		"/>
		<path fill="#FFFFFF" stroke="#000000" stroke-linecap="round" stroke-linejoin="round" stroke-miterlimit="10" d="
			M1574.787,1122.773v-3.074c0.239-3.437,4.81-3.979,4.81-3.979c3.422-1.446,3.632-3.591,3.632-3.591v-5.813"/>
		<path fill="#FFFFFF" stroke="#000000" stroke-linecap="round" stroke-linejoin="round" stroke-miterlimit="10" d="
			M1587.772,1106.317v5.813c0,0-0.21,2.145-3.63,3.591c0,0-4.569,0.542-4.812,3.979v3.074l10.736-6.691v-9.765H1587.772
			L1587.772,1106.317z"/>
		<polygon fill="#FFFFFF" stroke="#000000" stroke-linecap="round" stroke-linejoin="round" stroke-miterlimit="10" points="
			1579.009,1120.084 1574.787,1120.084 1574.787,1122.773 1579.332,1122.773 		"/>
	</g>
	
		<polygon fill="#DCDCDC" stroke="#000000" stroke-width="3" stroke-linecap="round" stroke-linejoin="round" stroke-miterlimit="10" points="
		1126.772,473.287 1126.808,473.304 1127.857,566.964 1416.207,709.494 1416.52,614.428 1214.402,515.948 	"/>
	
		<polygon fill="#FFFFFF" stroke="#000000" stroke-width="3" stroke-linecap="round" stroke-linejoin="round" stroke-miterlimit="10" points="
		1211.847,1097.634 1109.485,1142.137 1109.832,655.057 1212.146,610.592 	"/>
	
		<polygon fill="#FFFFFF" stroke="#000000" stroke-width="3" stroke-linecap="round" stroke-linejoin="round" stroke-miterlimit="10" points="
		1211.847,875.094 1109.485,919.597 1109.832,655.057 1212.146,610.592 	"/>
	
		<polygon fill="#FFFFFF" stroke="#000000" stroke-width="3" stroke-linecap="round" stroke-linejoin="round" stroke-miterlimit="10" points="
		1202.151,1055.593 1119.239,1091.641 1119.52,910.225 1202.393,874.209 	"/>
	
		<polygon fill="#B7B7B7" stroke="#000000" stroke-width="3" stroke-linecap="round" stroke-linejoin="round" stroke-miterlimit="10" points="
		1202.151,994.65 1119.239,1030.36 1119.52,909.887 1202.393,874.209 	"/>
	
		<polygon fill="#FFFFFF" stroke="#000000" stroke-width="3" stroke-linecap="round" stroke-linejoin="round" stroke-miterlimit="10" points="
		1413.945,973.031 1309.273,1017.534 1309.676,662.23 1413.72,618.056 	"/>
	
		<polygon fill="#FFFFFF" stroke="#000000" stroke-width="3" stroke-linecap="round" stroke-linejoin="round" stroke-miterlimit="10" points="
		1023.25,613.571 1125.58,569.04 1212.168,610.567 1109.783,655.029 	"/>
	
		<polygon fill="#FFFFFF" stroke="#000000" stroke-width="3" stroke-linecap="round" stroke-linejoin="round" stroke-miterlimit="10" points="
		1109.485,823.854 1261.175,898.558 1287.435,815.635 1212.384,778.347 	"/>
	<g>
		
			<polygon fill="#DCDCDC" stroke="#000000" stroke-width="3" stroke-linecap="round" stroke-linejoin="round" stroke-miterlimit="10" points="
			1022.135,518.981 1022.171,518.998 1022.171,518.998 		"/>
		
			<path fill="#DCDCDC" stroke="#000000" stroke-width="3" stroke-linecap="round" stroke-linejoin="round" stroke-miterlimit="10" d="
			M1311.584,754.33l-0.011-0.004l0.31-94.204l-202.118-98.479L1022.17,519l1.05,93.658l0.029,0.914l-0.479,168.105l-0.601-0.292
			l0.479,42.851l-0.516,181.541l0.036,0.018l1.049,93.66l86.354,42.685l0.19-93.7l0.006-130.611l201.8,99.749v-0.001l0.001,0.001
			v-0.327l0.312-94.739l-0.308-0.149L1311.584,754.33z M1224.573,879.968l-114.798-55.936l0.008-168.587l115.266,57.426
			L1224.573,879.968z"/>
		
			<polygon fill="#DCDCDC" stroke="#000000" stroke-width="3" stroke-linecap="round" stroke-linejoin="round" stroke-miterlimit="10" points="
			1022.135,781.367 1022.171,781.385 1022.171,781.384 		"/>
	</g>
	<polygon fill="#DCDCDC" stroke="#000000" stroke-linecap="round" stroke-linejoin="round" stroke-miterlimit="10" points="
		1935.423,771.049 1935.435,507.805 1848.9,466.346 1848.156,727.913 	"/>
	<polygon fill="#FFFFFF" stroke="#000000" stroke-linecap="round" stroke-linejoin="round" stroke-miterlimit="10" points="
		1923.6,711.834 1923.608,519.928 1860.524,489.705 1859.982,680.387 	"/>
	
		<line fill="none" stroke="#000000" stroke-linecap="round" stroke-linejoin="round" stroke-miterlimit="10" x1="1912.666" y1="589.092" x2="1871.278" y2="569.261"/>
	
		<line fill="none" stroke="#000000" stroke-linecap="round" stroke-linejoin="round" stroke-miterlimit="10" x1="1912.666" y1="610.684" x2="1871.278" y2="590.854"/>
	
		<line fill="none" stroke="#000000" stroke-linecap="round" stroke-linejoin="round" stroke-miterlimit="10" x1="1912.666" y1="632.277" x2="1871.278" y2="612.446"/>
	
		<line fill="none" stroke="#000000" stroke-linecap="round" stroke-linejoin="round" stroke-miterlimit="10" x1="1912.666" y1="653.869" x2="1871.278" y2="634.039"/>
	<polygon fill="#FFFFFF" stroke="#000000" stroke-linecap="round" stroke-linejoin="round" stroke-miterlimit="10" points="
		2037.795,726.546 1935.435,771.05 1935.828,507.269 2037.573,463.096 	"/>
	<polygon fill="#FFFFFF" stroke="#000000" stroke-linecap="round" stroke-linejoin="round" stroke-miterlimit="10" points="
		2011.094,669.433 1962.135,690.72 1962.323,660.947 2010.989,639.821 	"/>
	<polygon fill="#DCDCDC" stroke="#000000" stroke-linecap="round" stroke-linejoin="round" stroke-miterlimit="10" points="
		2003.603,666.664 1969.625,681.363 1969.737,663.782 2003.539,649.177 	"/>
	<g>
		<g>
			<path fill="#FFFFFF" stroke="#000000" stroke-linecap="round" stroke-linejoin="round" stroke-miterlimit="10" d="
				M1105.713,888.711h-6.511v0.14l-0.812-0.049v4.883c0,0,0.18,7.775-7.776,7.775h-6.873c0,0-2.893,1.627,0,4.521h6.873h11.755
				v-0.001h3.343L1105.713,888.711L1105.713,888.711z"/>
			<path fill="#FFFFFF" stroke="#000000" stroke-linecap="round" stroke-linejoin="round" stroke-miterlimit="10" d="
				M1102.731,890.971v4.883c0,0,0.18,7.775-7.775,7.775h-6.873c0,0-2.893,1.627,0,4.521h6.873h11.756v-16.93L1102.731,890.971z"/>
			<path fill="#FFFFFF" stroke="#000000" stroke-linecap="round" stroke-linejoin="round" stroke-miterlimit="10" d="
				M1083.742,901.459l4.158,1.991c0,0-2.527,2.804,0.184,4.701l-4.341-2.17C1083.742,905.98,1080.853,903.539,1083.742,901.459z"/>
		</g>
		
			<circle fill="#FFFFFF" stroke="#000000" stroke-linecap="round" stroke-linejoin="round" stroke-miterlimit="10" cx="1180.656" cy="759.725" r="12.614"/>
		<path fill="#FFFFFF" stroke="#000000" stroke-linecap="round" stroke-linejoin="round" stroke-miterlimit="10" d="
			M1165.492,744.174c0,0-2.35,6.511,17.361,10.309c0,0,4.521-0.362,4.703,3.436c0,0,1.085-3.978,2.712-1.445
			c0,0,1.085,2.17-0.181,3.436c0,0,0.543,2.894,2.351,2.531c1.808-0.361,5.607-15.887-9.765-16.818
			C1178.37,745.361,1166.397,746.344,1165.492,744.174z"/>
		<g>
			<path stroke="#000000" stroke-miterlimit="10" d="M1200.797,823.471v9.834c0,9.873-8.032,17.903-17.903,17.903h-41.231v-9.767
				h41.231c4.486,0,8.138-3.648,8.138-8.138v-9.969"/>
		</g>
		<polygon stroke="#000000" stroke-miterlimit="10" points="1142.181,834.729 1156.286,843.41 1191.188,844.855 1193.721,825.506 
			1159.362,825.438 		"/>
		<g>
			<path stroke="#000000" stroke-miterlimit="10" d="M1156.649,836.356h-41.23c-4.489,0-8.139,3.65-8.139,8.138v47.064h-9.765
				v-47.064c0-9.872,8.032-17.903,17.903-17.903h41.23V836.356z"/>
		</g>
		<polygon fill="#FFFFFF" stroke="#000000" stroke-linecap="round" stroke-linejoin="round" stroke-miterlimit="10" points="
			1177.738,831.324 1157.056,821.302 1140.534,821.965 1135.807,820.488 1123.283,819.267 1123.283,822.658 1156.649,837.578 
			1187.844,836.221 1187.844,832.83 		"/>
		<polygon fill="#FFFFFF" stroke="#000000" stroke-linecap="round" stroke-linejoin="round" stroke-miterlimit="10" points="
			1156.649,834.186 1123.283,819.267 1157.056,817.911 1187.844,832.83 		"/>
		<polygon fill="#FFFFFF" stroke="#000000" stroke-linecap="round" stroke-linejoin="round" stroke-miterlimit="10" points="
			1156.354,831.981 1132.031,821.105 1156.653,820.116 1179.096,830.992 		"/>
		<path fill="#FFFFFF" stroke="#000000" stroke-linecap="round" stroke-linejoin="round" stroke-miterlimit="10" d="
			M1211.579,817.775V789.7c0-11.8-9.672-14.377-14.919-14.92c-5.262-0.543-21.157,0-21.157,0h-20.616
			c-8.273,0-7.459-8.138-7.459-8.138V743.72h-7.256v24.075c0,14.579,13.767,13.767,13.767,13.767h5.425v43.876h18.854h25.702
			C1212.258,825.438,1211.579,817.775,1211.579,817.775z M1201.227,815.696c-1.854,1.537-3.21,1.401-3.21,1.401v-28.822
			c0-1.311,1.062-2.373,2.374-2.373c1.311,0,2.374,1.063,2.374,2.373c0,0,0.619,17.798,0.022,23.69
			C1202.685,812.971,1202.185,814.9,1201.227,815.696z"/>
		<path fill="none" stroke="#000000" stroke-linecap="round" stroke-linejoin="round" stroke-miterlimit="10" d="M1202.764,788.274
			v23.37c0,0,0.087,5.49-5.489,5.49h-23.726v7.967"/>
		<g>
			<polygon fill="none" stroke="#000000" stroke-linecap="round" stroke-linejoin="round" stroke-miterlimit="10" points="
				1175.823,774.695 1173.656,779.775 1181.266,774.561 			"/>
			<polygon fill="none" stroke="#000000" stroke-linecap="round" stroke-linejoin="round" stroke-miterlimit="10" points="
				1186.596,774.544 1188.764,779.775 1181.154,774.561 			"/>
		</g>
		<g>
			<path fill="#FFFFFF" stroke="#000000" stroke-linecap="round" stroke-linejoin="round" stroke-miterlimit="10" d="
				M1120.541,903.901h-6.51v0.14l-0.812-0.049v4.883c0,0,0.18,7.775-7.775,7.775h-6.873c0,0-2.893,1.627,0,4.521h6.873h11.755
				v-0.001h3.342V903.901z"/>
			<path fill="#FFFFFF" stroke="#000000" stroke-linecap="round" stroke-linejoin="round" stroke-miterlimit="10" d="
				M1117.56,906.162v4.884c0,0,0.18,7.774-7.776,7.774h-6.873c0,0-2.893,1.628,0,4.521h6.873h11.756V906.41L1117.56,906.162z"/>
			<path fill="#FFFFFF" stroke="#000000" stroke-linecap="round" stroke-linejoin="round" stroke-miterlimit="10" d="
				M1098.572,916.65l4.158,1.99c0,0-2.528,2.803,0.182,4.702l-4.34-2.17C1098.572,921.172,1095.681,918.73,1098.572,916.65z"/>
		</g>
		<polygon fill="#FFFFFF" stroke="#000000" stroke-linecap="round" stroke-linejoin="round" stroke-miterlimit="10" points="
			1181.47,814.065 1187.302,800.279 1181.423,779.954 1181.423,779.799 1181.402,779.875 1181.378,779.799 1181.378,779.954 
			1175.502,800.279 1181.334,814.065 1181.334,814.385 1181.402,814.225 1181.47,814.385 		"/>
		<polygon fill="#FFFFFF" stroke="#000000" stroke-linecap="round" stroke-linejoin="round" stroke-miterlimit="10" points="
			1178.35,776.86 1181.423,779.799 1184.138,776.86 1181.244,775.052 		"/>
		<polygon fill="#FFFFFF" stroke="#000000" stroke-linecap="round" stroke-linejoin="round" stroke-miterlimit="10" points="
			1156.649,834.186 1123.283,819.267 1149.054,787.529 1179.842,802.449 		"/>
		<path fill="#FFFFFF" stroke="#000000" stroke-linecap="round" stroke-linejoin="round" stroke-miterlimit="10" d="
			M1173.647,818.363h-4.972l-5.426,7.053c0,0,1.537,0.725,1.988,0.182l2.804-2.622h5.518L1173.647,818.363z"/>
		<path fill="#FFFFFF" stroke="#000000" stroke-linecap="round" stroke-linejoin="round" stroke-miterlimit="10" d="
			M1152.037,733.684c0-7.188-1.491-6.646-1.491-6.646h-6.646h-6.646c0,0-1.492-0.542-1.492,6.646c0,0-0.11,4.276,0,5.696
			c0.119,1.541,0.678,4.34,4.408,4.34h3.729h3.73c3.729,0,4.286-2.799,4.407-4.34
			C1152.148,737.961,1152.037,733.684,1152.037,733.684z"/>
		<g>
			<path fill="#FFFFFF" d="M1152.218,735.13c0,1.101-0.9,2-2,2h-10.105c-1.1,0-2-0.899-2-2V713.43c0-1.101,0.9-2,2-2h10.105
				c1.1,0,2,0.899,2,2V735.13z"/>
			<path fill="none" stroke="#000000" stroke-linecap="round" stroke-linejoin="round" stroke-miterlimit="10" d="M1152.218,735.13
				c0,1.101-0.9,2-2,2h-10.105c-1.1,0-2-0.899-2-2V713.43c0-1.101,0.9-2,2-2h10.105c1.1,0,2,0.899,2,2V735.13z"/>
		</g>
		<g>
			<path fill="#FFFFFF" d="M1150.309,730.563c0,1.101-0.9,2-2,2h-6.285c-1.1,0-2-0.899-2-2V715.83c0-1.101,0.9-2,2-2h6.285
				c1.1,0,2,0.899,2,2V730.563z"/>
			
				<path fill="none" stroke="#000000" stroke-width="0.75" stroke-linecap="round" stroke-linejoin="round" stroke-miterlimit="10" d="
				M1150.309,730.563c0,1.101-0.9,2-2,2h-6.285c-1.1,0-2-0.899-2-2V715.83c0-1.101,0.9-2,2-2h6.285c1.1,0,2,0.899,2,2V730.563z"/>
		</g>
		
			<circle fill="#FFFFFF" stroke="#000000" stroke-width="0.5" stroke-linecap="round" stroke-linejoin="round" stroke-miterlimit="10" cx="1145.164" cy="734.724" r="1.085"/>
		
			<path fill="#FFFFFF" stroke="#000000" stroke-width="0.75" stroke-linecap="round" stroke-linejoin="round" stroke-miterlimit="10" d="
			M1145.527,738.6v-1.187c0,0-0.204-1.221,4.137-1.221"/>
		<polygon fill="#FFFFFF" stroke="#000000" stroke-miterlimit="10" points="1147.358,736.735 1150.986,736.16 1151.664,734.566 
			1151.529,737.686 1149.867,738.737 1147.12,738.872 1146.85,737.821 		"/>
		
			<line fill="none" stroke="#000000" stroke-linecap="round" stroke-linejoin="round" stroke-miterlimit="10" x1="1178.893" y1="817.454" x2="1178.893" y2="825.184"/>
		
			<line fill="none" stroke="#000000" stroke-linecap="round" stroke-linejoin="round" stroke-miterlimit="10" x1="1147.02" y1="748.603" x2="1140.195" y2="748.645"/>
		<g>
			<path stroke="#000000" stroke-miterlimit="10" d="M1171.5,851.209h-41.231c-4.489,0-8.138,3.649-8.138,8.137v47.063h-9.766
				v-47.063c0-9.872,8.032-17.903,17.903-17.903h41.231V851.209z"/>
		</g>
	</g>
	<g>
		<g>
			<g>
				<path fill="#DCDCDC" stroke="#000000" stroke-linecap="round" stroke-linejoin="round" stroke-miterlimit="10" d="
					M1242.8,1162.868c0,5.081-4.167,9.214-9.289,9.214h-24.418v-5.024h24.418c2.327,0,4.221-1.88,4.221-4.189v-25.342h5.836"/>
			</g>
			<polygon stroke="#000000" stroke-miterlimit="10" points="1275.675,1174.345 1275.675,1196.88 1275.675,1201.558 
				1275.675,1268.632 1267.739,1268.632 1267.739,1201.558 1249.113,1201.558 1249.113,1268.632 1241.174,1268.632 
				1241.174,1201.558 1241.174,1196.88 1241.174,1174.345 			"/>
			<g>
				<path fill="#FFFFFF" stroke="#000000" stroke-linecap="round" stroke-linejoin="round" stroke-miterlimit="10" d="
					M1227.946,1171.452c0,0-0.998-1.308-2.691-1.308h-6.919c0,0-0.231,1.538,0.46,1.538h-7.229c0,0-1.192,0.576-0.461,1.307h-0.076
					c0,0-0.692,0.731-0.077,1.349c0,0-0.807,0.768,0,1.576c0,0-0.767,0.807,0.114,1.73h16.497h0.424L1227.946,1171.452z"/>
				
					<line fill="none" stroke="#000000" stroke-linecap="round" stroke-linejoin="round" stroke-miterlimit="10" x1="1211.104" y1="1172.989" x2="1215.642" y2="1172.989"/>
				
					<line fill="none" stroke="#000000" stroke-linecap="round" stroke-linejoin="round" stroke-miterlimit="10" x1="1210.959" y1="1174.344" x2="1215.498" y2="1174.344"/>
				
					<line fill="none" stroke="#000000" stroke-linecap="round" stroke-linejoin="round" stroke-miterlimit="10" x1="1210.933" y1="1175.873" x2="1215.47" y2="1175.873"/>
				
					<line fill="none" stroke="#000000" stroke-linecap="round" stroke-linejoin="round" stroke-miterlimit="10" x1="1218.988" y1="1171.683" x2="1223.14" y2="1171.683"/>
			</g>
			<path fill="#DCDCDC" stroke="#000000" stroke-linecap="round" stroke-linejoin="round" stroke-miterlimit="10" d="
				M1242.8,1147.118v33.521h16.034h21.859c7.094,0,6.518-6.521,6.518-6.521v-23.877c0-10.036-8.229-12.228-12.688-12.688
				c-4.477-0.463-17.997,0-17.997,0h-13.576 M1275.675,1149.029c0-1.115,0.905-2.019,2.02-2.019c1.115,0,2.019,0.903,2.019,2.019
				c0,0,0.527,15.139,0.021,20.148c-0.086,0.854-0.512,2.496-1.326,3.173c-1.577,1.308-2.73,1.192-2.73,1.192v-24.514H1275.675z"/>
			<g>
				
					<circle fill="#FFFFFF" stroke="#000000" stroke-linecap="round" stroke-linejoin="round" stroke-miterlimit="10" cx="1257.613" cy="1124.976" r="10.728"/>
				<path fill="#FFFFFF" stroke="#000000" stroke-linecap="round" stroke-linejoin="round" stroke-miterlimit="10" d="
					M1244.717,1111.75c0,0-1.998,5.537,14.767,8.767c0,0,3.845-0.308,3.998,2.922c0,0,0.924-3.383,2.308-1.229
					c0,0,0.925,1.846-0.152,2.923c0,0,0.46,2.461,1.999,2.153s4.769-13.514-8.306-14.304
					C1255.67,1112.76,1245.487,1113.595,1244.717,1111.75z"/>
			</g>
			<g>
				<g>
					<polygon fill="#FFFFFF" stroke="#000000" stroke-linecap="round" stroke-linejoin="round" stroke-miterlimit="10" points="
						1261.686,1137.97 1263.53,1142.293 1257.058,1137.854 					"/>
					<polygon fill="#FFFFFF" stroke="#000000" stroke-linecap="round" stroke-linejoin="round" stroke-miterlimit="10" points="
						1252.522,1137.84 1250.679,1142.293 1257.153,1137.854 					"/>
				</g>
				<polygon fill="#FFFFFF" stroke="#000000" stroke-linecap="round" stroke-linejoin="round" stroke-miterlimit="10" points="
					1256.884,1171.454 1251.925,1159.729 1256.922,1142.442 1256.922,1142.31 1256.941,1142.375 1256.959,1142.31 
					1256.959,1142.442 1261.959,1159.729 1257,1171.454 1257,1171.725 1256.941,1171.59 1256.884,1171.725 				"/>
				<polygon fill="#FFFFFF" stroke="#000000" stroke-linecap="round" stroke-linejoin="round" stroke-miterlimit="10" points="
					1259.536,1139.812 1256.922,1142.31 1254.614,1139.812 1257.073,1138.273 				"/>
			</g>
			<polygon fill="#FFFFFF" stroke="#000000" stroke-linecap="round" stroke-linejoin="round" stroke-miterlimit="10" points="
				1253.727,1178.773 1214.103,1177.06 1202.245,1161.516 1241.707,1163.084 			"/>
			<polygon fill="#FFFFFF" stroke="#000000" stroke-linecap="round" stroke-linejoin="round" stroke-miterlimit="10" points="
				1253.727,1175.277 1214.103,1173.563 1202.245,1158.019 1241.707,1159.587 			"/>
			<path fill="#FFFFFF" stroke="#000000" stroke-linecap="round" stroke-linejoin="round" stroke-miterlimit="10" d="
				M1259.496,1285.088v-3.073c0.242-3.438,4.811-3.979,4.811-3.979c3.421-1.446,3.631-3.592,3.631-3.592v-5.812"/>
			<path fill="none" stroke="#000000" stroke-linecap="round" stroke-linejoin="round" stroke-miterlimit="10" d="
				M1280.161,1148.978v19.876c0,0,0.074,4.668-4.668,4.668h-20.177v6.776"/>
			<path fill="#FFFFFF" stroke="#000000" stroke-linecap="round" stroke-linejoin="round" stroke-miterlimit="10" d="
				M1272.481,1268.632v5.812c0,0-0.209,2.146-3.63,3.592c0,0-4.569,0.542-4.81,3.979v3.073l10.734-6.69v-9.766H1272.481
				L1272.481,1268.632z"/>
			<polygon fill="#FFFFFF" stroke="#000000" stroke-linecap="round" stroke-linejoin="round" stroke-miterlimit="10" points="
				1263.719,1282.397 1259.496,1282.397 1259.496,1285.088 1264.043,1285.088 			"/>
			<path fill="#FFFFFF" stroke="#000000" stroke-linecap="round" stroke-linejoin="round" stroke-miterlimit="10" d="
				M1233.197,1284.372v-3.073c0.24-3.437,4.81-3.979,4.81-3.979c3.423-1.446,3.632-3.591,3.632-3.591v-5.813"/>
			<path fill="#FFFFFF" stroke="#000000" stroke-linecap="round" stroke-linejoin="round" stroke-miterlimit="10" d="
				M1246.182,1267.916v5.813c0,0-0.21,2.145-3.63,3.591c0,0-4.569,0.542-4.812,3.979v3.073l10.736-6.69v-9.766H1246.182
				L1246.182,1267.916z"/>
			<polygon fill="#FFFFFF" stroke="#000000" stroke-linecap="round" stroke-linejoin="round" stroke-miterlimit="10" points="
				1237.418,1281.681 1233.197,1281.681 1233.197,1284.372 1237.74,1284.372 			"/>
			<g>
				<path fill="#FFFFFF" stroke="#000000" stroke-linecap="round" stroke-linejoin="round" stroke-miterlimit="10" d="
					M1254.962,1174.426c0,0-0.998-1.308-2.691-1.308h-6.921c0,0-0.229,1.537,0.462,1.537h-7.229c0,0-1.192,0.576-0.462,1.309h-0.075
					c0,0-0.693,0.73-0.076,1.346c0,0-0.809,0.769,0,1.577c0,0-0.77,0.806,0.113,1.729h16.496H1255L1254.962,1174.426z"/>
				
					<line fill="none" stroke="#000000" stroke-linecap="round" stroke-linejoin="round" stroke-miterlimit="10" x1="1238.119" y1="1175.963" x2="1242.657" y2="1175.963"/>
				
					<line fill="none" stroke="#000000" stroke-linecap="round" stroke-linejoin="round" stroke-miterlimit="10" x1="1237.976" y1="1177.317" x2="1242.514" y2="1177.317"/>
				
					<line fill="none" stroke="#000000" stroke-linecap="round" stroke-linejoin="round" stroke-miterlimit="10" x1="1237.947" y1="1178.846" x2="1242.486" y2="1178.846"/>
				
					<line fill="none" stroke="#000000" stroke-linecap="round" stroke-linejoin="round" stroke-miterlimit="10" x1="1246.004" y1="1174.657" x2="1250.155" y2="1174.657"/>
			</g>
			
				<line fill="none" stroke="#000000" stroke-linecap="round" stroke-linejoin="round" stroke-miterlimit="10" x1="1214.275" y1="1177.19" x2="1214.275" y2="1173.324"/>
		</g>
		<path fill="#FFFFFF" stroke="#000000" stroke-linecap="round" stroke-linejoin="round" stroke-miterlimit="10" d="
			M1183.527,1179.002c0.454-10.589,8.242-19.783,19.113-21.611l11.529,16.333c-10.87,1.829-18.66,11.024-19.111,21.614
			L1183.527,1179.002z"/>
	</g>
	<g>
		<path fill="#DCDCDC" stroke="#000000" stroke-linecap="round" stroke-linejoin="round" stroke-miterlimit="10" d="
			M1823.611,720.95l-14.512,13.785c-1.58,1.5-1.646,4.005-0.146,5.585l15.735,16.564l-3.437,3.265l-15.735-16.563
			c-3.3-3.476-3.158-8.986,0.314-12.287l14.514-13.785L1823.611,720.95z"/>
	</g>
	<path fill="#FFFFFF" stroke="#000000" stroke-linecap="round" stroke-linejoin="round" stroke-miterlimit="10" d="
		M1818.103,752.854l-5.607,18.722c0,0-0.359,6.329,6.873,6.512l22.606,2.17c0,0,3.435-0.905,10.851-3.979
		c0,0,5.425-1.809,7.233-1.628l4.16,1.268c0,0,2.35-7.777-3.438-7.957h-16.094h-1.267l0.834-7.563L1818.103,752.854z"/>
	<g>
		<g>
			<path fill="#FFFFFF" stroke="#010101" stroke-linecap="round" stroke-linejoin="round" stroke-miterlimit="10" d="
				M1856.482,685.214c0,0-1.339-0.955-1.393-2.647l-0.223-6.918c0,0,1.529-0.28,1.552,0.412l-0.231-10.488
				c0,0,0.538-1.209,1.292-0.503l0.072,3.265c0,0,0.633-0.793,1.267-0.197c0,0,0.744-0.833,1.577-0.051c0,0,0.782-0.795,1.733,0.061
				l0.527,16.487l0.013,0.422L1856.482,685.214z"/>
			
				<line fill="none" stroke="#010101" stroke-width="0.75" stroke-linecap="round" stroke-linejoin="round" stroke-miterlimit="10" x1="1857.48" y1="668.334" x2="1857.625" y2="672.867"/>
			
				<line fill="none" stroke="#010101" stroke-width="0.75" stroke-linecap="round" stroke-linejoin="round" stroke-miterlimit="10" x1="1858.83" y1="668.144" x2="1858.974" y2="672.679"/>
			
				<line fill="none" stroke="#010101" stroke-width="0.75" stroke-linecap="round" stroke-linejoin="round" stroke-miterlimit="10" x1="1860.356" y1="668.067" x2="1860.502" y2="672.601"/>
			
				<line fill="none" stroke="#010101" stroke-linecap="round" stroke-linejoin="round" stroke-miterlimit="10" x1="1856.425" y1="676.253" x2="1856.56" y2="680.403"/>
		</g>
		<g>
			<g>
				
					<circle fill="#FFFFFF" stroke="#000000" stroke-linecap="round" stroke-linejoin="round" stroke-miterlimit="10" cx="1835.647" cy="704.558" r="9.054"/>
				<path fill="#FFFFFF" stroke="#000000" stroke-linecap="round" stroke-linejoin="round" stroke-miterlimit="10" d="
					M1840.893,689.875c0,0,3.479,3.547-8.25,11.918c0,0-3.059,1.114-2.041,3.647c0,0-1.896-2.271-2.202-0.133
					c0,0-0.06,1.74,1.146,2.188c0,0,0.511,2.053-0.778,2.355c-1.289,0.305-8.409-8.693,1.346-13.896
					C1832.842,694.5,1840.952,691.562,1840.893,689.875z"/>
			</g>
			<path fill="#DCDCDC" stroke="#000000" stroke-linecap="round" stroke-linejoin="round" stroke-miterlimit="10" d="
				M1818.103,745.913v-25.77c0,0,1.899-5.154,13.834-5.154c0,0,12.974,2.525,17.361,2.623c3.056,0.068,7.595-0.805,7.595-9.58
				v-22.564h5.696v22.564c0,0,0.279,14.751-11.394,15.05c-2.194,0.056-7.73-0.091-7.73,4.656v27.533v5.425l-25.363-7.324
				L1818.103,745.913L1818.103,745.913z"/>
		</g>
	</g>
	<g>
		
			<line fill="none" stroke="#000000" stroke-linecap="round" stroke-linejoin="round" stroke-miterlimit="10" x1="1495.504" y1="750.821" x2="1498.418" y2="1033.184"/>
		<path fill="#FFFFFF" stroke="#000000" stroke-linecap="round" stroke-linejoin="round" stroke-miterlimit="10" d="
			M1500.785,751.125c0.239,0.52,0.381,1.097,0.396,1.705l2.916,282.363c0.062,2.397-1.831,4.388-4.228,4.449
			s-4.39-1.831-4.451-4.229l-2.916-282.361c-0.062-2.396,1.832-4.39,4.228-4.45C1498.519,748.557,1500.079,749.598,1500.785,751.125
			z"/>
	</g>
	
		<polygon fill="#FFFFFF" stroke="#000000" stroke-width="3" stroke-linecap="round" stroke-linejoin="round" stroke-miterlimit="10" points="
		1024.116,519.734 1314.828,660.724 1416.52,615.505 1127.016,474.228 	"/>
	<polygon fill="#B7B7B7" stroke="#000000" stroke-linecap="round" stroke-linejoin="round" stroke-miterlimit="10" points="
		1848.9,466.346 1934.643,507.516 2037.573,463.096 1951.055,418.677 	"/>
	<polygon fill="#DCDCDC" stroke="#000000" stroke-linecap="round" stroke-linejoin="round" stroke-miterlimit="10" points="
		1866.823,465.729 1936.276,499.076 2019.65,463.096 1949.57,427.116 	"/>
	
		<polygon fill="#DCDCDC" stroke="#000000" stroke-width="3" stroke-linecap="round" stroke-linejoin="round" stroke-miterlimit="10" points="
		1091.591,536.153 1282.327,628.657 1349.047,598.988 1159.103,506.297 	"/>
	
		<polygon fill="#DCDCDC" stroke="#000000" stroke-width="3" stroke-linecap="round" stroke-linejoin="round" stroke-miterlimit="10" points="
		1091.591,536.153 1282.327,628.657 1349.047,598.988 1159.103,506.297 	"/>
	<g>
		<path fill="#FFFFFF" stroke="#000000" stroke-linecap="round" stroke-linejoin="round" stroke-miterlimit="10" d="
			M1519.252,985.768c0,0-1.336-1.748-3.597-1.748h-9.249c0,0-0.307,2.055,0.616,2.055h-9.661c0,0-1.592,0.771-0.614,1.748h-0.102
			c0,0-0.926,0.978-0.104,1.798c0,0-1.078,1.028,0,2.107c0,0-1.025,1.078,0.154,2.313h22.042h0.564L1519.252,985.768z"/>
		
			<line fill="none" stroke="#000000" stroke-width="0.75" stroke-linecap="round" stroke-linejoin="round" stroke-miterlimit="10" x1="1496.748" y1="987.823" x2="1502.812" y2="987.823"/>
		
			<line fill="none" stroke="#000000" stroke-width="0.75" stroke-linecap="round" stroke-linejoin="round" stroke-miterlimit="10" x1="1496.556" y1="989.634" x2="1502.618" y2="989.634"/>
		
			<line fill="none" stroke="#000000" stroke-width="0.75" stroke-linecap="round" stroke-linejoin="round" stroke-miterlimit="10" x1="1496.517" y1="991.676" x2="1502.58" y2="991.676"/>
		
			<line fill="none" stroke="#000000" stroke-linecap="round" stroke-linejoin="round" stroke-miterlimit="10" x1="1507.281" y1="986.077" x2="1512.828" y2="986.077"/>
	</g>
	<path fill="#DCDCDC" stroke="#000000" stroke-linecap="round" stroke-linejoin="round" stroke-miterlimit="10" d="
		M1576.975,951.138v44.79h21.425h29.21c9.479,0,8.71-8.711,8.71-8.711v-31.905c0-13.411-10.992-16.339-16.956-16.956
		c-5.979-0.619-24.044,0-24.044,0h-18.143 M1620.905,953.693c0-1.489,1.21-2.697,2.7-2.697c1.488,0,2.696,1.208,2.696,2.697
		c0,0,0.704,20.229,0.026,26.923c-0.116,1.145-0.685,3.336-1.773,4.239c-2.106,1.748-3.649,1.593-3.649,1.593V953.693
		L1620.905,953.693z"/>
	<g>
		
			<circle fill="#FFFFFF" stroke="#000000" stroke-linecap="round" stroke-linejoin="round" stroke-miterlimit="10" cx="1596.77" cy="921.552" r="14.335"/>
		<path fill="#FFFFFF" stroke="#000000" stroke-linecap="round" stroke-linejoin="round" stroke-miterlimit="10" d="
			M1579.538,903.879c0,0-2.672,7.398,19.73,11.715c0,0,5.139-0.411,5.342,3.906c0,0,1.233-4.522,3.083-1.646
			c0,0,1.233,2.467-0.206,3.906c0,0,0.617,3.287,2.67,2.877c2.059-0.411,6.375-18.059-11.096-19.113
			C1594.175,905.228,1580.565,906.344,1579.538,903.879z"/>
	</g>
	<g>
		<g>
			<polygon fill="none" stroke="#000000" stroke-linecap="round" stroke-linejoin="round" stroke-miterlimit="10" points="
				1602.213,938.916 1604.675,944.687 1596.027,938.762 			"/>
			<polygon fill="none" stroke="#000000" stroke-linecap="round" stroke-linejoin="round" stroke-miterlimit="10" points="
				1589.968,938.742 1587.505,944.687 1596.154,938.762 			"/>
		</g>
		<polygon fill="#FFFFFF" stroke="#000000" stroke-linecap="round" stroke-linejoin="round" stroke-miterlimit="10" points="
			1595.796,983.658 1589.168,967.991 1595.847,944.89 1595.847,944.715 1595.871,944.802 1595.897,944.715 1595.897,944.89 
			1602.579,967.991 1595.95,983.658 1595.95,984.02 1595.871,983.838 1595.796,984.02 		"/>
		<polygon fill="#FFFFFF" stroke="#000000" stroke-linecap="round" stroke-linejoin="round" stroke-miterlimit="10" points="
			1599.341,941.377 1595.847,944.715 1592.763,941.377 1596.052,939.321 		"/>
	</g>
	<g>
		<path fill="#FFFFFF" stroke="#000000" stroke-linecap="round" stroke-linejoin="round" stroke-miterlimit="10" d="
			M1593.228,987.628c0,0-1.335-1.747-3.597-1.747h-9.248c0,0-0.308,2.055,0.616,2.055h-9.659c0,0-1.595,0.771-0.617,1.747h-0.103
			c0,0-0.926,0.978-0.104,1.799c0,0-1.078,1.029,0,2.107c0,0-1.027,1.077,0.155,2.312h22.041h0.564L1593.228,987.628z"/>
		
			<line fill="none" stroke="#000000" stroke-linecap="round" stroke-linejoin="round" stroke-miterlimit="10" x1="1570.723" y1="989.682" x2="1576.786" y2="989.682"/>
		
			<line fill="none" stroke="#000000" stroke-linecap="round" stroke-linejoin="round" stroke-miterlimit="10" x1="1570.53" y1="991.494" x2="1576.594" y2="991.494"/>
		
			<line fill="none" stroke="#000000" stroke-linecap="round" stroke-linejoin="round" stroke-miterlimit="10" x1="1570.491" y1="993.536" x2="1576.555" y2="993.536"/>
		
			<line fill="none" stroke="#000000" stroke-linecap="round" stroke-linejoin="round" stroke-miterlimit="10" x1="1581.256" y1="987.937" x2="1586.806" y2="987.937"/>
	</g>
	
		<line fill="none" stroke="#000000" stroke-width="3" stroke-linecap="round" stroke-linejoin="round" stroke-miterlimit="10" x1="1202.151" y1="994.582" x2="1119.239" y2="1030.631"/>
	<g>
		<g>
			<defs>
				<polygon id="SVGID_1_" points="1091.591,536.153 1282.327,628.657 1349.047,598.988 1159.103,506.297 				"/>
			</defs>
			<clipPath id="SVGID_2_">
				<use xlink:href="#SVGID_1_"  overflow="visible"/>
			</clipPath>
			<g clip-path="url(#SVGID_2_)">
				<path fill="#DCDCDC" stroke="#000000" stroke-linecap="round" stroke-linejoin="round" stroke-miterlimit="10" d="
					M1192.073,571.739v-20.328l-18.447-0.89l-62.452-1.998v20.225l0.118,0.068c-0.039,0.556,0.016,1.12,0.189,1.688
					c2.063,6.791,19.045,12.971,39.992,13.896C1174.489,585.415,1193.492,579.838,1192.073,571.739z"/>
				<path fill="#FFFFFF" stroke="#000000" stroke-linecap="round" stroke-linejoin="round" stroke-miterlimit="10" d="
					M1111.48,549.903c2.062,6.788,19.045,12.967,39.992,13.893c23.619,1.045,43.021-4.852,40.456-13.295
					c-2.563-8.444-25.639-14.657-48.728-13.96C1122.723,537.157,1109.42,543.112,1111.48,549.903z"/>
			</g>
		</g>
	</g>
	<g>
		<path fill="#FFFFFF" stroke="#000000" stroke-linecap="round" stroke-linejoin="round" stroke-miterlimit="10" d="
			M1166.943,1033.232l-10.626-28.504v-23.922l-12.203-2.872l-8.345,2.437l-0.2,0.49l5.166,28.049l-6.4,12.825
			c-3.376,5.955-2.856,7.843-2.856,7.843l21.914,6.774l3.39,5.945l7.797-2.487
			C1168.964,1040.543,1166.943,1033.232,1166.943,1033.232z"/>
		<path fill="#FFFFFF" stroke="#000000" stroke-linecap="round" stroke-linejoin="round" stroke-miterlimit="10" d="
			M1147.789,983.242v23.923l10.627,28.505c0,0,2.02,7.309-2.366,6.577l-33.1-10.231c0,0-0.521-1.89,2.857-7.844l8.853-17.737
			l0.925-26.063L1147.789,983.242z"/>
		<path fill="none" stroke="#000000" stroke-linecap="round" stroke-linejoin="round" stroke-miterlimit="10" d="M1130.808,1014.154
			c0,0,1.124,13.629,11.112,8.846c0,0,8.526-5.603,10.964-1.218c0,0,5.979,4.78,8.593-3.213"/>
		
			<line fill="none" stroke="#000000" stroke-linecap="round" stroke-linejoin="round" stroke-miterlimit="10" x1="1147.463" y1="983.319" x2="1156.317" y2="980.806"/>
		
			<line fill="none" stroke="#000000" stroke-linecap="round" stroke-linejoin="round" stroke-miterlimit="10" x1="1147.789" y1="1007.165" x2="1156.317" y2="1004.728"/>
		
			<line fill="none" stroke="#000000" stroke-linecap="round" stroke-linejoin="round" stroke-miterlimit="10" x1="1158.875" y1="1038.673" x2="1167.4" y2="1036.216"/>
		<circle cx="1143.666" cy="1003.209" r="1.52"/>
		<circle cx="1141.11" cy="1011.334" r="3.347"/>
	</g>
	<g>
		
			<path fill="#1B9AFC" stroke="#000000" stroke-width="2" stroke-linecap="round" stroke-linejoin="round" stroke-miterlimit="10" d="
			M1136.666,1256.612h-125.865c-14.659,0-26.583-11.924-26.583-26.584V433.934c0-14.658,11.924-26.583,26.583-26.583h125.865
			c14.659,0,26.584,11.925,26.584,26.583v106.877c0,7.49-6.072,13.563-13.563,13.563c-7.489,0-13.563-6.072-13.563-13.563V434.477
			h-124.78v795.009h124.78v-104.637c0-7.491,6.074-13.563,13.563-13.563c7.491,0,13.563,6.072,13.563,13.563v105.179
			C1163.25,1244.688,1151.325,1256.612,1136.666,1256.612z"/>
	</g>
	<g>
		<g>
			<path fill="#C6C4C4" stroke="#000000" stroke-linecap="round" stroke-linejoin="round" stroke-miterlimit="10" d="
				M1189.59,1161.485v-17.663l-16.03-0.772l-54.267-1.737v17.573l0.104,0.062c-0.034,0.481,0.013,0.974,0.163,1.467
				c1.793,5.9,16.551,11.271,34.751,12.073C1174.311,1173.37,1190.823,1168.523,1189.59,1161.485z"/>
			<path fill="#C6C4C4" stroke="#000000" stroke-linecap="round" stroke-linejoin="round" stroke-miterlimit="10" d="
				M1119.561,1142.511c1.793,5.897,16.551,11.268,34.751,12.07c20.522,0.907,37.381-4.215,35.151-11.553
				c-2.228-7.337-22.277-12.735-42.34-12.13C1129.329,1131.437,1117.772,1136.611,1119.561,1142.511z"/>
		</g>
		<g>
			<path fill="#DCDCDC" stroke="#000000" stroke-linecap="round" stroke-linejoin="round" stroke-miterlimit="10" d="
				M1195.972,1144.909v-20.327l-18.448-0.89l-62.452-1.999v20.225l0.118,0.069c-0.04,0.556,0.016,1.119,0.189,1.688
				c2.062,6.79,19.046,12.97,39.991,13.895C1178.388,1158.586,1197.391,1153.009,1195.972,1144.909z"/>
			<path fill="#DCDCDC" stroke="#000000" stroke-linecap="round" stroke-linejoin="round" stroke-miterlimit="10" d="
				M1115.379,1123.073c2.062,6.788,19.046,12.966,39.991,13.893c23.619,1.044,43.021-4.853,40.456-13.296
				c-2.563-8.443-25.638-14.656-48.728-13.961C1126.62,1110.328,1113.319,1116.282,1115.379,1123.073z"/>
		</g>
		<g>
			<path fill="#FFFFFF" stroke="#000000" stroke-linecap="round" stroke-linejoin="round" stroke-miterlimit="10" d="
				M1191.655,1115.719l-15.775-42.316v-35.516l-18.115-4.263l-12.389,3.617l-0.298,0.729l7.669,41.641l-9.502,19.04
				c-5.012,8.841-4.24,11.646-4.24,11.646l32.532,10.057l5.033,8.827l11.575-3.693
				C1194.655,1126.57,1191.655,1115.719,1191.655,1115.719z"/>
			<path fill="#FFFFFF" stroke="#000000" stroke-linecap="round" stroke-linejoin="round" stroke-miterlimit="10" d="
				M1163.221,1041.505v35.515l15.775,42.317c0,0,2.999,10.85-3.512,9.765l-49.139-15.189c0,0-0.773-2.804,4.24-11.645l13.142-26.333
				l1.375-38.692L1163.221,1041.505z"/>
			<path fill="none" stroke="#000000" stroke-linecap="round" stroke-linejoin="round" stroke-miterlimit="10" d="
				M1138.008,1087.396c0,0,1.668,20.232,16.498,13.132c0,0,12.658-8.319,16.275-1.809c0,0,8.875,7.097,12.758-4.771"/>
			
				<line fill="none" stroke="#000000" stroke-linecap="round" stroke-linejoin="round" stroke-miterlimit="10" x1="1162.735" y1="1041.62" x2="1175.879" y2="1037.887"/>
			
				<line fill="none" stroke="#000000" stroke-linecap="round" stroke-linejoin="round" stroke-miterlimit="10" x1="1163.221" y1="1077.019" x2="1175.879" y2="1073.403"/>
			
				<line fill="none" stroke="#000000" stroke-linecap="round" stroke-linejoin="round" stroke-miterlimit="10" x1="1179.677" y1="1123.797" x2="1192.334" y2="1120.148"/>
			<circle cx="1157.097" cy="1071.147" r="2.255"/>
			<circle cx="1153.304" cy="1083.21" r="4.968"/>
		</g>
	</g>
	<g>
		<polygon fill="#FFFFFF" stroke="#000000" stroke-linecap="round" stroke-linejoin="round" stroke-miterlimit="10" points="
			777.843,747.503 951.569,833.058 1038.791,794.272 866.101,708.471 		"/>
		<polygon fill="#FFFFFF" stroke="#000000" stroke-linecap="round" stroke-linejoin="round" stroke-miterlimit="10" points="
			777.843,739.606 951.569,825.163 1038.791,786.378 866.101,700.576 		"/>
		<polygon fill="#DCDCDC" stroke="#000000" stroke-linecap="round" stroke-linejoin="round" stroke-miterlimit="10" points="
			1038.791,794.272 951.569,833.058 951.569,825.163 1038.791,786.378 		"/>
		<polygon fill="#1B9AFC" stroke="#000000" stroke-linecap="round" stroke-linejoin="round" stroke-miterlimit="10" points="
			951.569,833.058 777.904,747.476 777.843,739.606 951.569,825.163 		"/>
	</g>
	<g>
		<g>
			<path fill="#FFFFFF" stroke="#000000" stroke-linecap="round" stroke-linejoin="round" stroke-miterlimit="10" d="
				M933.089,610.296h5.836v25.343c0,2.31,1.895,4.188,4.222,4.188h24.418v5.026h-24.418c-5.123,0-9.289-4.134-9.289-9.215"/>
		</g>
		<polygon stroke="#000000" stroke-miterlimit="10" points="900.982,647.115 900.982,669.65 900.982,674.327 900.982,741.401 
			908.919,741.401 908.919,674.327 927.545,674.327 927.545,741.401 935.483,741.401 935.483,674.327 935.483,669.65 
			935.483,647.115 		"/>
		<g>
			<path fill="#FFFFFF" stroke="#000000" stroke-linecap="round" stroke-linejoin="round" stroke-miterlimit="10" d="
				M948.711,644.221c0,0,0.999-1.309,2.691-1.309h6.919c0,0,0.231,1.538-0.46,1.538h7.229c0,0,1.191,0.577,0.462,1.309h0.076
				c0,0,0.692,0.73,0.076,1.346c0,0,0.809,0.771,0,1.577c0,0,0.769,0.807-0.113,1.729h-16.496h-0.424L948.711,644.221z"/>
			
				<line fill="none" stroke="#000000" stroke-width="0.75" stroke-linecap="round" stroke-linejoin="round" stroke-miterlimit="10" x1="965.553" y1="645.76" x2="961.016" y2="645.76"/>
			
				<line fill="none" stroke="#000000" stroke-width="0.75" stroke-linecap="round" stroke-linejoin="round" stroke-miterlimit="10" x1="965.697" y1="647.115" x2="961.159" y2="647.115"/>
			
				<line fill="none" stroke="#000000" stroke-width="0.75" stroke-linecap="round" stroke-linejoin="round" stroke-miterlimit="10" x1="965.725" y1="648.643" x2="961.188" y2="648.643"/>
			
				<line fill="none" stroke="#000000" stroke-linecap="round" stroke-linejoin="round" stroke-miterlimit="10" x1="957.669" y1="644.454" x2="953.518" y2="644.454"/>
		</g>
		<path fill="#FFFFFF" stroke="#000000" stroke-linecap="round" stroke-linejoin="round" stroke-miterlimit="10" d="
			M933.707,610.321h-13.575c0,0-13.521-0.463-17.997,0c-4.461,0.461-12.688,2.653-12.688,12.689v23.877c0,0-0.576,6.52,6.518,6.52
			h21.859h16.034v-33.52 M900.982,646.312c0,0-1.155,0.115-2.731-1.192c-0.813-0.676-1.24-2.316-1.327-3.172
			c-0.507-5.012,0.021-20.148,0.021-20.148c0-1.115,0.903-2.02,2.018-2.02s2.02,0.904,2.02,2.02L900.982,646.312L900.982,646.312z"
			/>
		<g>
			
				<circle fill="#FFFFFF" stroke="#000000" stroke-linecap="round" stroke-linejoin="round" stroke-miterlimit="10" cx="919.044" cy="597.746" r="10.728"/>
			<path fill="#FFFFFF" stroke="#000000" stroke-linecap="round" stroke-linejoin="round" stroke-miterlimit="10" d="
				M931.94,584.519c0,0,1.999,5.538-14.767,8.767c0,0-3.845-0.308-3.997,2.923c0,0-0.924-3.383-2.309-1.229
				c0,0-0.924,1.846,0.152,2.923c0,0-0.46,2.46-1.999,2.153c-1.539-0.309-4.769-13.515,8.306-14.304
				C920.988,585.529,931.171,586.365,931.94,584.519z"/>
		</g>
		<g>
			<g>
				<polygon fill="none" stroke="#000000" stroke-linecap="round" stroke-linejoin="round" stroke-miterlimit="10" points="
					914.971,610.74 913.127,615.06 919.6,610.625 				"/>
				<polygon fill="none" stroke="#000000" stroke-linecap="round" stroke-linejoin="round" stroke-miterlimit="10" points="
					924.135,610.61 925.979,615.06 919.504,610.625 				"/>
			</g>
			<polygon fill="#FFFFFF" stroke="#000000" stroke-linecap="round" stroke-linejoin="round" stroke-miterlimit="10" points="
				919.773,644.224 924.732,632.5 919.735,615.212 919.735,615.08 919.716,615.146 919.697,615.08 919.697,615.212 914.697,632.5 
				919.656,644.224 919.656,644.496 919.716,644.359 919.773,644.496 			"/>
			<polygon fill="#FFFFFF" stroke="#000000" stroke-linecap="round" stroke-linejoin="round" stroke-miterlimit="10" points="
				917.119,612.582 919.735,615.08 922.043,612.582 919.582,611.044 			"/>
		</g>
		<polygon fill="#FFFFFF" stroke="#000000" stroke-linecap="round" stroke-linejoin="round" stroke-miterlimit="10" points="
			922.931,651.544 962.554,649.83 974.411,634.286 934.948,635.852 		"/>
		<polygon fill="#FFFFFF" stroke="#000000" stroke-linecap="round" stroke-linejoin="round" stroke-miterlimit="10" points="
			922.931,648.047 962.554,646.334 974.411,630.788 934.948,632.356 		"/>
		<path fill="#FFFFFF" stroke="#000000" stroke-linecap="round" stroke-linejoin="round" stroke-miterlimit="10" d="M917.16,757.858
			v-3.074c-0.241-3.436-4.811-3.979-4.811-3.979c-3.42-1.446-3.63-3.592-3.63-3.592v-5.813"/>
		<path fill="none" stroke="#000000" stroke-linecap="round" stroke-linejoin="round" stroke-miterlimit="10" d="M896.495,621.748
			v19.877c0,0-0.073,4.669,4.669,4.669h20.178v6.775"/>
		<path fill="#FFFFFF" stroke="#000000" stroke-linecap="round" stroke-linejoin="round" stroke-miterlimit="10" d="
			M904.176,741.401v5.813c0,0,0.21,2.146,3.63,3.592c0,0,4.569,0.542,4.809,3.979v3.074l-10.733-6.69v-9.767H904.176z"/>
		<polygon fill="#FFFFFF" stroke="#000000" stroke-linecap="round" stroke-linejoin="round" stroke-miterlimit="10" points="
			912.939,755.168 917.16,755.168 917.16,757.858 912.615,757.858 		"/>
		<path fill="#FFFFFF" stroke="#000000" stroke-linecap="round" stroke-linejoin="round" stroke-miterlimit="10" d="M943.46,757.142
			v-3.075c-0.239-3.436-4.809-3.978-4.809-3.978c-3.423-1.446-3.633-3.593-3.633-3.593v-5.812"/>
		<path fill="#FFFFFF" stroke="#000000" stroke-linecap="round" stroke-linejoin="round" stroke-miterlimit="10" d="
			M930.475,740.685v5.812c0,0,0.21,2.146,3.631,3.593c0,0,4.569,0.542,4.811,3.978v3.075l-10.735-6.691v-9.766H930.475
			L930.475,740.685z"/>
		<polygon fill="#FFFFFF" stroke="#000000" stroke-linecap="round" stroke-linejoin="round" stroke-miterlimit="10" points="
			939.239,754.452 943.46,754.452 943.46,757.142 938.916,757.142 		"/>
		<g>
			<path fill="#FFFFFF" stroke="#000000" stroke-linecap="round" stroke-linejoin="round" stroke-miterlimit="10" d="
				M921.696,647.195c0,0,0.998-1.307,2.691-1.307h6.921c0,0,0.229,1.537-0.462,1.537h7.229c0,0,1.193,0.577,0.462,1.308h0.076
				c0,0,0.694,0.732,0.077,1.348c0,0,0.807,0.769,0,1.577c0,0,0.77,0.807-0.115,1.729h-16.496h-0.421L921.696,647.195z"/>
			
				<line fill="none" stroke="#000000" stroke-width="0.75" stroke-linecap="round" stroke-linejoin="round" stroke-miterlimit="10" x1="938.536" y1="648.732" x2="934" y2="648.732"/>
			
				<line fill="none" stroke="#000000" stroke-width="0.75" stroke-linecap="round" stroke-linejoin="round" stroke-miterlimit="10" x1="938.681" y1="650.088" x2="934.144" y2="650.088"/>
			
				<line fill="none" stroke="#000000" stroke-width="0.75" stroke-linecap="round" stroke-linejoin="round" stroke-miterlimit="10" x1="938.711" y1="651.616" x2="934.171" y2="651.616"/>
			
				<line fill="none" stroke="#000000" stroke-linecap="round" stroke-linejoin="round" stroke-miterlimit="10" x1="930.654" y1="647.427" x2="926.502" y2="647.427"/>
		</g>
		
			<line fill="none" stroke="#000000" stroke-linecap="round" stroke-linejoin="round" stroke-miterlimit="10" x1="962.383" y1="649.959" x2="962.383" y2="646.094"/>
	</g>
	<g>
		<g>
			<defs>
				<polygon id="SVGID_3_" points="1187.84,958.688 1202.213,963.519 1201.584,1029.668 1165.654,1015.562 1161.98,987.893 
					1179.521,962.304 				"/>
			</defs>
			<clipPath id="SVGID_4_">
				<use xlink:href="#SVGID_3_"  overflow="visible"/>
			</clipPath>
			<g clip-path="url(#SVGID_4_)">
				<path fill="#FFFFFF" stroke="#000000" stroke-linecap="round" stroke-linejoin="round" stroke-miterlimit="10" d="
					M1214.826,1014.485l-10.625-28.504v-23.922l-12.203-2.872l-8.345,2.436l-0.2,0.491l5.166,28.048l-6.4,12.825
					c-3.376,5.955-2.856,7.843-2.856,7.843l21.914,6.774l3.391,5.945l7.797-2.486
					C1216.849,1021.794,1214.826,1014.485,1214.826,1014.485z"/>
				<path fill="#FFFFFF" stroke="#000000" stroke-linecap="round" stroke-linejoin="round" stroke-miterlimit="10" d="
					M1195.674,964.494v23.922l10.626,28.505c0,0,2.02,7.309-2.365,6.579l-33.101-10.233c0,0-0.521-1.888,2.856-7.843l8.853-17.737
					l0.926-26.063L1195.674,964.494z"/>
				<path fill="none" stroke="#000000" stroke-linecap="round" stroke-linejoin="round" stroke-miterlimit="10" d="
					M1178.692,995.407c0,0,1.123,13.628,11.113,8.847c0,0,8.525-5.604,10.963-1.22c0,0,5.979,4.781,8.593-3.213"/>
				
					<line fill="none" stroke="#000000" stroke-linecap="round" stroke-linejoin="round" stroke-miterlimit="10" x1="1195.347" y1="964.572" x2="1204.2" y2="962.058"/>
				
					<line fill="none" stroke="#000000" stroke-linecap="round" stroke-linejoin="round" stroke-miterlimit="10" x1="1195.674" y1="988.418" x2="1204.2" y2="985.98"/>
				
					<line fill="none" stroke="#000000" stroke-linecap="round" stroke-linejoin="round" stroke-miterlimit="10" x1="1206.759" y1="1019.925" x2="1215.284" y2="1017.468"/>
				<circle cx="1191.55" cy="984.461" r="1.52"/>
				<circle cx="1188.993" cy="992.586" r="3.347"/>
			</g>
		</g>
	</g>
	<path fill="none" stroke="#000000" stroke-linecap="round" stroke-linejoin="round" stroke-miterlimit="10" d="M1626.334,954.115
		v26.221c0,0,0.099,6.157-6.157,6.157h-26.616v8.938"/>
	<circle fill="#FFFFFF" cx="997.075" cy="521.953" r="6.835"/>
	<circle fill="#FFFFFF" cx="999.42" cy="490.572" r="3.349"/>
	<circle fill="#FFFFFF" cx="997.075" cy="1011.575" r="4.785"/>
	<circle fill="#FFFFFF" cx="1151.891" cy="1200.651" r="4.785"/>
	<circle fill="#FFFFFF" cx="1022.135" cy="1240.06" r="4.785"/>
	<circle fill="#FFFFFF" cx="1152.217" cy="521.953" r="4.785"/>
	<circle fill="#FFFFFF" cx="999.42" cy="866.32" r="2.393"/>
	<circle fill="#FFFFFF" cx="999.42" cy="1045.448" r="2.345"/>
	<circle fill="#FFFFFF" cx="1147.789" cy="1232.931" r="2.344"/>
	
		<polygon fill="#FFFFFF" stroke="#000000" stroke-width="3" stroke-linecap="round" stroke-linejoin="round" stroke-miterlimit="10" points="
		1282.327,628.657 1282.327,567.477 1349.047,598.988 	"/>
	<path fill="#FFFFFF" stroke="#000000" stroke-linecap="round" stroke-linejoin="round" stroke-miterlimit="10" d="M993.926,652.276
		c-0.453-10.588-8.242-19.784-19.113-21.612l-11.528,16.333c10.87,1.828,18.66,11.025,19.111,21.613L993.926,652.276z"/>
	<g>
		<g>
			<defs>
				<path id="SVGID_5_" d="M1311.883,917.269l-0.299,128.179l227.093,119.19l77.666-75.233c0,0,8.008-7.229-1.853-21.506
					l-110.393-88.24L1311.883,917.269z"/>
			</defs>
			<clipPath id="SVGID_6_">
				<use xlink:href="#SVGID_5_"  overflow="visible"/>
			</clipPath>
			
				<polygon clip-path="url(#SVGID_6_)" fill="#DCDCDC" stroke="#000000" stroke-linecap="round" stroke-linejoin="round" stroke-miterlimit="10" points="
				1244.643,985.215 1530.922,1126.164 1632.613,1080.943 1347.541,939.709 			"/>
		</g>
	</g>
	<g>
		<path fill="#DCDCDC" stroke="#000000" stroke-linecap="round" stroke-linejoin="round" stroke-miterlimit="10" d="
			M1614.49,1067.898l-302.607-150.63l-0.759,75.772l221.414,109.149c0,0,10.099,13.562-1.612,23.973l85.416-36.759
			C1624.469,1077.138,1614.49,1067.898,1614.49,1067.898z"/>
	</g>
	<path fill="#FFFFFF" stroke="#000000" stroke-linecap="round" stroke-linejoin="round" stroke-miterlimit="10" d="
		M1516.613,1112.768c-2.252-0.401-3.996-3.545-3.996-7.042c0-3.498,1.743-6.3,3.996-6.259c2.386,0.044,4.422,3.218,4.422,7.084
		C1521.034,1110.417,1518.998,1113.193,1516.613,1112.768"/>
	<path fill="#FFFFFF" stroke="#000000" stroke-linecap="round" stroke-linejoin="round" stroke-miterlimit="10" d="
		M1490.582,1099.477c-2.254-0.402-3.996-3.545-3.996-7.042s1.742-6.3,3.996-6.258c2.385,0.044,4.421,3.217,4.421,7.084
		C1495.003,1097.127,1492.966,1099.901,1490.582,1099.477"/>
	<path fill="#FFFFFF" stroke="#000000" stroke-linecap="round" stroke-linejoin="round" stroke-miterlimit="10" d="M1464.55,1087.27
		c-2.253-0.402-3.996-3.545-3.996-7.043c0-3.497,1.743-6.3,3.996-6.258c2.385,0.044,4.422,3.217,4.422,7.084
		S1466.935,1087.694,1464.55,1087.27"/>
	<path fill="#FFFFFF" stroke="#000000" stroke-linecap="round" stroke-linejoin="round" stroke-miterlimit="10" d="
		M1438.518,1075.063c-2.252-0.401-3.996-3.545-3.996-7.043c0-3.497,1.743-6.3,3.996-6.258c2.385,0.044,4.422,3.217,4.422,7.084
		C1442.94,1072.713,1440.903,1075.487,1438.518,1075.063"/>
	<path fill="#FFFFFF" stroke="#000000" stroke-linecap="round" stroke-linejoin="round" stroke-miterlimit="10" d="
		M1412.486,1061.771c-2.252-0.401-3.996-3.545-3.996-7.042s1.743-6.3,3.996-6.258c2.385,0.044,4.422,3.218,4.422,7.084
		S1414.871,1062.196,1412.486,1061.771"/>
	<path fill="#FFFFFF" stroke="#000000" stroke-linecap="round" stroke-linejoin="round" stroke-miterlimit="10" d="
		M1386.454,1049.564c-2.253-0.402-3.995-3.544-3.995-7.042c0-3.497,1.742-6.3,3.995-6.258c2.386,0.044,4.423,3.217,4.423,7.084
		C1390.877,1047.215,1388.84,1049.989,1386.454,1049.564"/>
	<path fill="#FFFFFF" stroke="#000000" stroke-linecap="round" stroke-linejoin="round" stroke-miterlimit="10" d="
		M1360.423,1036.272c-2.253-0.401-3.996-3.544-3.996-7.042s1.741-6.3,3.996-6.258c2.385,0.044,4.422,3.217,4.422,7.084
		S1362.809,1036.697,1360.423,1036.272"/>
	<path fill="#FFFFFF" stroke="#000000" stroke-linecap="round" stroke-linejoin="round" stroke-miterlimit="10" d="
		M1334.392,1024.066c-2.252-0.402-3.996-3.545-3.996-7.043c0-3.497,1.743-6.3,3.996-6.258c2.385,0.044,4.422,3.217,4.422,7.084
		C1338.813,1021.717,1336.777,1024.491,1334.392,1024.066"/>
	
		<line fill="none" stroke="#000000" stroke-linecap="round" stroke-linejoin="round" stroke-miterlimit="10" x1="1442.17" y1="1057.648" x2="1484.552" y2="1039.643"/>
	
		<line fill="none" stroke="#000000" stroke-linecap="round" stroke-linejoin="round" stroke-miterlimit="10" x1="1451.878" y1="1029.594" x2="1498.022" y2="1010.548"/>
	
		<line fill="none" stroke="#000000" stroke-linecap="round" stroke-linejoin="round" stroke-miterlimit="10" x1="1535.039" y1="1106.846" x2="1603.992" y2="1078.386"/>
	
		<line fill="none" stroke="#000000" stroke-linecap="round" stroke-linejoin="round" stroke-miterlimit="10" x1="1526.898" y1="1087.572" x2="1595.851" y2="1059.113"/>
	
		<line fill="none" stroke="#000000" stroke-linecap="round" stroke-linejoin="round" stroke-miterlimit="10" x1="1494.854" y1="1083.421" x2="1563.807" y2="1054.962"/>
	
		<line fill="none" stroke="#000000" stroke-linecap="round" stroke-linejoin="round" stroke-miterlimit="10" x1="1481.757" y1="1066.005" x2="1550.712" y2="1037.545"/>
	
		<line fill="none" stroke="#000000" stroke-linecap="round" stroke-linejoin="round" stroke-miterlimit="10" x1="1367.697" y1="1020.131" x2="1410.078" y2="1002.127"/>
	
		<line fill="none" stroke="#000000" stroke-linecap="round" stroke-linejoin="round" stroke-miterlimit="10" x1="1377.405" y1="992.077" x2="1423.549" y2="973.031"/>
	
		<line fill="none" stroke="#000000" stroke-linecap="round" stroke-linejoin="round" stroke-miterlimit="10" x1="1407.283" y1="1028.488" x2="1476.239" y2="1000.028"/>
	<polyline fill="#FFFFFF" stroke="#000000" stroke-linecap="round" stroke-linejoin="round" stroke-miterlimit="10" points="
		1312.64,977.485 1324.776,972.33 1338.639,966.439 	"/>
	
		<line fill="none" stroke="#000000" stroke-linecap="round" stroke-linejoin="round" stroke-miterlimit="10" x1="1312.448" y1="953.715" x2="1352.11" y2="937.344"/>
	
		<line fill="none" stroke="#000000" stroke-linecap="round" stroke-linejoin="round" stroke-miterlimit="10" x1="1335.845" y1="992.802" x2="1404.799" y2="964.342"/>
	<g>
		<g>
			
				<line fill="none" stroke="#000000" stroke-linecap="round" stroke-linejoin="round" stroke-miterlimit="10" x1="1538.648" y1="879.202" x2="1538.648" y2="857.861"/>
			<path fill="#DCDCDC" stroke="#000000" stroke-linecap="round" stroke-linejoin="round" stroke-miterlimit="10" d="
				M1538.648,880.83c0.899,0,1.628-0.729,1.628-1.628v-21.34c0-0.897-0.729-1.627-1.628-1.627c-0.897,0-1.627,0.729-1.627,1.627
				v21.34C1537.021,880.1,1537.75,880.83,1538.648,880.83z"/>
		</g>
		<g>
			
				<line fill="none" stroke="#000000" stroke-linecap="round" stroke-linejoin="round" stroke-miterlimit="10" x1="1510.011" y1="884.987" x2="1501.729" y2="865.319"/>
			<path fill="#DCDCDC" stroke="#000000" stroke-linecap="round" stroke-linejoin="round" stroke-miterlimit="10" d="
				M1510.643,886.487c0.829-0.35,1.216-1.305,0.869-2.133l-8.284-19.667c-0.349-0.828-1.304-1.217-2.13-0.868
				c-0.828,0.35-1.219,1.304-0.869,2.132l8.282,19.667C1508.86,886.446,1509.814,886.836,1510.643,886.487z"/>
		</g>
		<g>
			
				<line fill="none" stroke="#000000" stroke-linecap="round" stroke-linejoin="round" stroke-miterlimit="10" x1="1485.864" y1="901.433" x2="1470.598" y2="886.522"/>
			<path fill="#DCDCDC" stroke="#000000" stroke-linecap="round" stroke-linejoin="round" stroke-miterlimit="10" d="
				M1487.028,902.569c0.627-0.643,0.617-1.674-0.027-2.301l-15.268-14.911c-0.642-0.627-1.671-0.615-2.301,0.028
				c-0.627,0.642-0.615,1.672,0.027,2.302l15.267,14.909C1485.37,903.224,1486.4,903.213,1487.028,902.569z"/>
		</g>
		<g>
			
				<line fill="none" stroke="#000000" stroke-linecap="round" stroke-linejoin="round" stroke-miterlimit="10" x1="1469.992" y1="925.961" x2="1450.134" y2="918.145"/>
			<path fill="#DCDCDC" stroke="#000000" stroke-linecap="round" stroke-linejoin="round" stroke-miterlimit="10" d="
				M1471.507,926.557c0.327-0.837-0.083-1.782-0.921-2.11l-19.856-7.814c-0.835-0.33-1.78,0.081-2.108,0.917
				c-0.331,0.836,0.081,1.78,0.917,2.11l19.857,7.816C1470.233,927.804,1471.178,927.393,1471.507,926.557z"/>
		</g>
		<g>
			
				<line fill="none" stroke="#000000" stroke-linecap="round" stroke-linejoin="round" stroke-miterlimit="10" x1="1464.886" y1="954.727" x2="1443.552" y2="955.231"/>
			<path fill="#DCDCDC" stroke="#000000" stroke-linecap="round" stroke-linejoin="round" stroke-miterlimit="10" d="
				M1466.514,954.688c-0.023-0.897-0.771-1.611-1.668-1.588l-21.334,0.506c-0.898,0.021-1.608,0.765-1.587,1.664
				c0.021,0.896,0.767,1.608,1.664,1.589l21.334-0.504C1465.823,956.332,1466.532,955.587,1466.514,954.688z"/>
		</g>
		<g>
			
				<line fill="none" stroke="#000000" stroke-linecap="round" stroke-linejoin="round" stroke-miterlimit="10" x1="1471.343" y1="983.219" x2="1451.878" y2="991.965"/>
			<path fill="#DCDCDC" stroke="#000000" stroke-linecap="round" stroke-linejoin="round" stroke-miterlimit="10" d="
				M1472.828,982.552c-0.371-0.816-1.333-1.187-2.152-0.816l-19.465,8.747c-0.82,0.368-1.186,1.33-0.818,2.149
				c0.369,0.819,1.331,1.186,2.151,0.818l19.465-8.746C1472.83,984.336,1473.196,983.373,1472.828,982.552z"/>
		</g>
		<g>
			
				<line fill="none" stroke="#000000" stroke-linecap="round" stroke-linejoin="round" stroke-miterlimit="10" x1="1560.748" y1="882.591" x2="1567.141" y2="862.229"/>
			<path fill="#DCDCDC" stroke="#000000" stroke-linecap="round" stroke-linejoin="round" stroke-miterlimit="10" d="
				M1560.262,884.144c0.854,0.263,1.77-0.208,2.041-1.069l6.387-20.358c0.271-0.855-0.207-1.771-1.061-2.039
				c-0.858-0.27-1.772,0.207-2.043,1.067l-6.393,20.356C1558.927,882.962,1559.404,883.875,1560.262,884.144z"/>
		</g>
		<g>
			<path fill="#FFFFFF" stroke="#000000" stroke-linecap="round" stroke-linejoin="round" stroke-miterlimit="10" d="
				M1497.49,1054.043v-19.886l18.047-0.871l61.094-1.956v19.785l-0.117,0.069c0.038,0.542-0.016,1.094-0.186,1.651
				c-2.015,6.643-18.632,12.688-39.123,13.593C1514.69,1067.423,1496.101,1061.967,1497.49,1054.043z"/>
			<path fill="#FFFFFF" stroke="#000000" stroke-linecap="round" stroke-linejoin="round" stroke-miterlimit="10" d="
				M1576.329,1032.68c-2.015,6.643-18.632,12.687-39.123,13.591c-23.104,1.021-42.082-4.746-39.574-13.006
				c2.507-8.261,25.079-14.338,47.668-13.656C1565.332,1020.213,1578.346,1026.039,1576.329,1032.68z"/>
		</g>
		<g>
			<path fill="#FFFFFF" stroke="#020202" stroke-linecap="round" stroke-linejoin="round" stroke-miterlimit="10" d="
				M1518.011,1033.83v-10.395l9.433-0.455l31.938-1.021v10.343l-0.063,0.036c0.021,0.283-0.009,0.571-0.096,0.862
				c-1.055,3.473-9.74,6.632-20.45,7.104C1527.002,1040.824,1517.283,1037.973,1518.011,1033.83z"/>
			<path fill="#FFFFFF" stroke="#020202" stroke-linecap="round" stroke-linejoin="round" stroke-miterlimit="10" d="
				M1559.224,1022.664c-1.056,3.472-9.74,6.632-20.45,7.104c-12.078,0.534-22-2.48-20.688-6.799
				c1.31-4.318,13.108-7.496,24.917-7.14C1553.474,1016.146,1560.277,1019.191,1559.224,1022.664z"/>
		</g>
		<g>
			<path fill="#FFFFFF" stroke="#020202" stroke-linecap="round" stroke-linejoin="round" stroke-miterlimit="10" d="
				M1523.072,1021.571v-7.848l7.123-0.345l24.113-0.771v7.811l-0.044,0.025c0.015,0.214-0.006,0.434-0.073,0.653
				c-0.796,2.621-7.354,5.006-15.441,5.364C1529.862,1026.852,1522.525,1024.699,1523.072,1021.571z"/>
			<path fill="#FFFFFF" stroke="#020202" stroke-linecap="round" stroke-linejoin="round" stroke-miterlimit="10" d="
				M1554.19,1013.14c-0.796,2.622-7.355,5.007-15.442,5.364c-9.118,0.402-16.607-1.874-15.618-5.134
				c0.989-3.261,9.898-5.659,18.812-5.391C1549.848,1008.219,1554.985,1010.519,1554.19,1013.14z"/>
		</g>
		<g>
			<path fill="#FFFFFF" stroke="#020202" stroke-linecap="round" stroke-linejoin="round" stroke-miterlimit="10" d="
				M1529.427,1012.209v-4.651l4.221-0.205l14.291-0.457v4.628l-0.028,0.016c0.012,0.126-0.004,0.257-0.042,0.387
				c-0.473,1.553-4.358,2.967-9.15,3.179C1533.451,1015.337,1529.103,1014.062,1529.427,1012.209z"/>
			<path fill="#FFFFFF" stroke="#020202" stroke-linecap="round" stroke-linejoin="round" stroke-miterlimit="10" d="
				M1547.868,1007.213c-0.473,1.553-4.358,2.966-9.15,3.179c-5.404,0.238-9.845-1.111-9.257-3.043
				c0.587-1.932,5.865-3.354,11.148-3.193C1545.296,1004.297,1548.339,1005.659,1547.868,1007.213z"/>
		</g>
		<path fill="#FFFFFF" stroke="#000000" stroke-linecap="round" stroke-linejoin="round" stroke-miterlimit="10" d="M1485.9,945.977
			c0-29.131,23.617-52.747,52.748-52.747c29.133,0,52.748,23.616,52.748,52.747c0,21.979-13.447,40.812-32.56,48.738l0.006,0.006
			c0,0-11.217,6.016-11.397,11.502c0,0-4.677,2.016-8.78,2.084c-5.524,0.09-8.779-2.084-8.779-2.084
			c-0.176-5.331-10.767-11.157-11.37-11.486C1499.375,986.825,1485.9,967.978,1485.9,945.977z"/>
		<path fill="none" stroke="#000000" stroke-linecap="round" stroke-linejoin="round" stroke-miterlimit="10" d="M1521.287,952.985
			c0,9.588,7.773,17.36,17.36,17.36c9.59,0,17.361-7.772,17.361-17.36"/>
		
			<line fill="none" stroke="#000000" stroke-linecap="round" stroke-linejoin="round" stroke-miterlimit="10" x1="1538.648" y1="970.345" x2="1538.648" y2="1002.897"/>
		
			<circle fill="#FFFFFF" stroke="#000000" stroke-linecap="round" stroke-linejoin="round" stroke-miterlimit="10" cx="1538.649" cy="952.985" r="3.616"/>
	</g>
	<g>
		<g>
			<path fill="#FFFFFF" stroke="#000000" stroke-linecap="round" stroke-linejoin="round" stroke-miterlimit="10" d="M1348.019,990
				v-19.886l18.047-0.871l61.093-1.956v19.785l-0.116,0.069c0.038,0.542-0.016,1.094-0.186,1.651
				c-2.015,6.642-18.632,12.687-39.123,13.592C1365.218,1003.379,1346.628,997.923,1348.019,990z"/>
			<path fill="#FFFFFF" stroke="#000000" stroke-linecap="round" stroke-linejoin="round" stroke-miterlimit="10" d="
				M1426.858,968.637c-2.015,6.642-18.632,12.686-39.123,13.59c-23.104,1.022-42.082-4.746-39.574-13.005
				c2.508-8.261,25.079-14.339,47.667-13.657C1415.859,956.17,1428.873,961.996,1426.858,968.637z"/>
		</g>
		<g>
			<path fill="#FFFFFF" stroke="#020202" stroke-linecap="round" stroke-linejoin="round" stroke-miterlimit="10" d="
				M1368.538,969.787v-10.395l9.434-0.456l31.937-1.022v10.343l-0.062,0.036c0.021,0.283-0.009,0.571-0.097,0.862
				c-1.055,3.474-9.739,6.632-20.449,7.105C1377.53,976.78,1367.812,973.929,1368.538,969.787z"/>
			<path fill="#FFFFFF" stroke="#020202" stroke-linecap="round" stroke-linejoin="round" stroke-miterlimit="10" d="
				M1409.75,958.62c-1.055,3.472-9.739,6.632-20.449,7.104c-12.078,0.533-22-2.48-20.688-6.799
				c1.311-4.318,13.109-7.496,24.918-7.14C1404.002,952.103,1410.805,955.148,1409.75,958.62z"/>
		</g>
		<g>
			<path fill="#FFFFFF" stroke="#020202" stroke-linecap="round" stroke-linejoin="round" stroke-miterlimit="10" d="
				M1373.6,957.528v-7.849l7.123-0.345l24.111-0.771v7.81l-0.043,0.026c0.015,0.214-0.007,0.433-0.072,0.653
				c-0.797,2.621-7.356,5.007-15.443,5.364C1380.39,962.808,1373.053,960.655,1373.6,957.528z"/>
			<path fill="#FFFFFF" stroke="#020202" stroke-linecap="round" stroke-linejoin="round" stroke-miterlimit="10" d="
				M1404.719,949.096c-0.797,2.622-7.356,5.008-15.443,5.365c-9.119,0.401-16.607-1.875-15.619-5.135
				c0.99-3.261,9.899-5.658,18.813-5.391C1400.375,944.176,1405.513,946.475,1404.719,949.096z"/>
		</g>
		<g>
			<path fill="#FFFFFF" stroke="#020202" stroke-linecap="round" stroke-linejoin="round" stroke-miterlimit="10" d="
				M1379.954,948.165v-4.65l4.222-0.205l14.291-0.457v4.628l-0.027,0.015c0.01,0.126-0.004,0.257-0.042,0.387
				c-0.473,1.555-4.359,2.968-9.151,3.18C1383.979,951.294,1379.631,950.018,1379.954,948.165z"/>
			<path fill="#FFFFFF" stroke="#020202" stroke-linecap="round" stroke-linejoin="round" stroke-miterlimit="10" d="
				M1398.397,943.17c-0.473,1.552-4.359,2.966-9.151,3.178c-5.403,0.238-9.844-1.111-9.257-3.043s5.866-3.354,11.149-3.193
				C1395.823,940.253,1398.866,941.615,1398.397,943.17z"/>
		</g>
		<path fill="#FFFFFF" stroke="#000000" stroke-linecap="round" stroke-linejoin="round" stroke-miterlimit="10" d="
			M1336.428,881.934c0-29.131,23.617-52.748,52.748-52.748c29.133,0,52.748,23.617,52.748,52.748
			c0,21.979-13.447,40.812-32.561,48.737l0.006,0.006c0,0-11.217,6.016-11.396,11.502c0,0-4.677,2.016-8.78,2.084
			c-5.524,0.091-8.78-2.084-8.78-2.084c-0.176-5.33-10.766-11.157-11.369-11.486
			C1349.902,922.781,1336.428,903.935,1336.428,881.934z"/>
		<path fill="none" stroke="#000000" stroke-linecap="round" stroke-linejoin="round" stroke-miterlimit="10" d="M1371.815,888.941
			c0,9.588,7.774,17.361,17.361,17.361c9.589,0,17.359-7.773,17.359-17.361"/>
		
			<line fill="none" stroke="#000000" stroke-linecap="round" stroke-linejoin="round" stroke-miterlimit="10" x1="1389.176" y1="906.302" x2="1389.176" y2="938.853"/>
		
			<circle fill="#FFFFFF" stroke="#000000" stroke-linecap="round" stroke-linejoin="round" stroke-miterlimit="10" cx="1389.177" cy="888.941" r="3.617"/>
	</g>
	<g>
		
			<line fill="none" stroke="#000000" stroke-linecap="round" stroke-linejoin="round" stroke-miterlimit="10" x1="1415.805" y1="783.401" x2="1418.72" y2="1065.764"/>
		<path fill="#FFFFFF" stroke="#000000" stroke-linecap="round" stroke-linejoin="round" stroke-miterlimit="10" d="
			M1421.086,783.704c0.239,0.521,0.381,1.098,0.396,1.706l2.916,303.597c0.063,2.396-1.83,4.39-4.226,4.448
			c-2.397,0.063-4.391-1.83-4.45-4.227l-2.916-303.598c-0.062-2.396,1.832-4.389,4.228-4.449
			C1418.82,781.137,1420.382,782.178,1421.086,783.704z"/>
	</g>
	<g>
		<path fill="#FFFFFF" stroke="#000000" stroke-linecap="round" stroke-linejoin="round" stroke-miterlimit="10" d="
			M1411.129,1039.199v33.703c0,0.969,4.211,1.755,9.404,1.755c5.194,0,9.404-0.786,9.404-1.755v-33.703"/>
		<path fill="#FFFFFF" stroke="#000000" stroke-linecap="round" stroke-linejoin="round" stroke-miterlimit="10" d="
			M1424.194,1037.582c3.375,0.267,5.743,0.891,5.743,1.617c0,0.97-4.21,1.756-9.404,1.756c-5.192,0-9.405-0.786-9.405-1.756
			c0-0.614,1.703-1.157,4.278-1.471"/>
	</g>
	
		<line fill="none" stroke="#1B9AFC" stroke-linecap="round" stroke-linejoin="round" stroke-miterlimit="10" stroke-dasharray="2,4,2,4,2,4" x1="1950.633" y1="452.382" x2="1950.633" y2="418.184"/>
	<g>
		<path fill="none" stroke="#1B9AFC" stroke-linecap="round" stroke-linejoin="round" stroke-miterlimit="10" d="M1965.993,388.89
			c-4.613-2.336-9.832-3.653-15.357-3.653c-5.526,0-10.744,1.316-15.358,3.653"/>
		<path fill="none" stroke="#1B9AFC" stroke-linecap="round" stroke-linejoin="round" stroke-miterlimit="10" d="M1976.28,378.601
			c-7.422-4.688-16.217-7.402-25.645-7.402c-9.43,0-18.224,2.715-25.646,7.404"/>
		<path fill="none" stroke="#1B9AFC" stroke-linecap="round" stroke-linejoin="round" stroke-miterlimit="10" d="M1984.641,370.232
			c-9.647-6.701-21.368-10.629-34.005-10.629c-12.641,0-24.361,3.931-34.011,10.634"/>
	</g>
	<circle fill="#1B9AFC" cx="1950.633" cy="401.797" r="6.398"/>
	<g>
		<g>
			<defs>
				<polygon id="SVGID_7_" points="1311.883,660.122 1311.883,990.891 1434.522,1092.616 1674.797,1004.142 1493.825,725.938 
					1385.561,663.729 				"/>
			</defs>
			<clipPath id="SVGID_8_">
				<use xlink:href="#SVGID_7_"  overflow="visible"/>
			</clipPath>
			<g clip-path="url(#SVGID_8_)">
				<g>
					
						<line fill="none" stroke="#000000" stroke-linecap="round" stroke-linejoin="round" stroke-miterlimit="10" x1="1401.416" y1="710.716" x2="1314.293" y2="673.412"/>
					<path fill="#FFFFFF" stroke="#000000" stroke-linecap="round" stroke-linejoin="round" stroke-miterlimit="10" d="
						M1401.413,715.057c-0.572,0-1.154-0.114-1.714-0.355l-87.122-37.304c-2.202-0.948-3.218-3.501-2.27-5.702
						c0.948-2.203,3.501-3.219,5.703-2.271l87.122,37.305c2.201,0.949,3.217,3.502,2.27,5.703
						C1404.695,714.075,1403.095,715.057,1401.413,715.057z"/>
				</g>
				<path fill="#FFFFFF" stroke="#000000" stroke-linecap="round" stroke-linejoin="round" stroke-miterlimit="10" d="
					M1416.194,716.328c0-3.24-1.367-6.128-3.5-8.018l0.155-1.024l-3.165-0.763c-0.546-0.193-1.116-0.33-1.702-0.411
					c0,0-0.982-0.091-1.192-0.091c-5.192,0-9.402,4.616-9.402,10.308c0,4.24,2.337,7.88,5.676,9.461l0.021,0.123l0.73,0.188
					c0.521,0.19,1.064,0.329,1.622,0.417l4.337,1.112l0.247-1.633C1413.62,724.552,1416.194,720.775,1416.194,716.328z"/>
				
					<ellipse fill="#FFFFFF" stroke="#000000" stroke-linecap="round" stroke-linejoin="round" stroke-miterlimit="10" cx="1411.131" cy="717.414" rx="9.402" ry="10.308"/>
				<g>
					
						<line fill="none" stroke="#000000" stroke-linecap="round" stroke-linejoin="round" stroke-miterlimit="10" x1="1497.22" y1="753.288" x2="1410.099" y2="715.984"/>
					<path fill="#FFFFFF" stroke="#000000" stroke-linecap="round" stroke-linejoin="round" stroke-miterlimit="10" d="
						M1497.218,757.63c-0.573,0-1.155-0.113-1.714-0.354l-87.122-37.305c-2.203-0.948-3.218-3.501-2.271-5.702
						c0.948-2.203,3.501-3.219,5.703-2.271l87.122,37.306c2.202,0.947,3.217,3.502,2.271,5.702
						C1500.5,756.647,1498.899,757.63,1497.218,757.63z"/>
				</g>
			</g>
		</g>
		<g>
			<defs>
				<polygon id="SVGID_9_" points="1311.883,660.122 1311.883,990.891 1434.522,1092.616 1674.797,1004.142 1493.825,725.938 
					1385.561,663.729 				"/>
			</defs>
			<clipPath id="SVGID_10_">
				<use xlink:href="#SVGID_9_"  overflow="visible"/>
			</clipPath>
			<g clip-path="url(#SVGID_10_)">
				<g>
					
						<line fill="none" stroke="#000000" stroke-linecap="round" stroke-linejoin="round" stroke-miterlimit="10" x1="1327.091" y1="747.668" x2="1239.969" y2="710.362"/>
					<path fill="#FFFFFF" stroke="#000000" stroke-linecap="round" stroke-linejoin="round" stroke-miterlimit="10" d="
						M1327.089,752.008c-0.573,0-1.155-0.113-1.714-0.354l-87.122-37.305c-2.203-0.949-3.219-3.501-2.271-5.702
						c0.948-2.203,3.501-3.219,5.703-2.271l87.122,37.305c2.202,0.949,3.216,3.502,2.27,5.703
						C1330.369,751.025,1328.77,752.008,1327.089,752.008z"/>
				</g>
				<path fill="#FFFFFF" stroke="#000000" stroke-linecap="round" stroke-linejoin="round" stroke-miterlimit="10" d="
					M1336.494,748.909c0-3.239-1.366-6.129-3.5-8.019l0.155-1.024l-3.165-0.763c-0.546-0.193-1.116-0.33-1.701-0.411
					c0,0-0.981-0.091-1.191-0.091c-5.193,0-9.404,4.616-9.404,10.309c0,4.239,2.337,7.879,5.676,9.461l0.021,0.123l0.731,0.188
					c0.521,0.19,1.064,0.329,1.622,0.417l4.338,1.113l0.246-1.633C1333.922,757.132,1336.494,753.354,1336.494,748.909z"/>
				
					<ellipse fill="#FFFFFF" stroke="#000000" stroke-linecap="round" stroke-linejoin="round" stroke-miterlimit="10" cx="1331.432" cy="749.994" rx="9.404" ry="10.308"/>
				<g>
					
						<line fill="none" stroke="#000000" stroke-linecap="round" stroke-linejoin="round" stroke-miterlimit="10" x1="1417.521" y1="785.868" x2="1330.4" y2="748.564"/>
					<path fill="#FFFFFF" stroke="#000000" stroke-linecap="round" stroke-linejoin="round" stroke-miterlimit="10" d="
						M1417.519,790.209c-0.573,0-1.155-0.112-1.714-0.354l-87.122-37.304c-2.203-0.948-3.217-3.501-2.271-5.702
						c0.948-2.202,3.502-3.219,5.703-2.271l87.122,37.305c2.202,0.948,3.218,3.503,2.271,5.704
						C1420.8,789.227,1419.199,790.209,1417.519,790.209z"/>
				</g>
			</g>
		</g>
	</g>
	<g>
		<path fill="#FFFFFF" stroke="#000000" stroke-linecap="round" stroke-linejoin="round" stroke-miterlimit="10" d="
			M1977.43,711.598c10.309-27.155-6.604-38.089-6.604-38.089l31.332-13.537v0.42c0,0,16.912,10.934,6.604,38.088h-0.493
			l-31.332,13.537"/>
		
			<line fill="none" stroke="#000000" stroke-linecap="round" stroke-linejoin="round" stroke-miterlimit="10" x1="1988.137" y1="683.315" x2="2005.325" y2="675.889"/>
		
			<line fill="none" stroke="#000000" stroke-linecap="round" stroke-linejoin="round" stroke-miterlimit="10" x1="1989.047" y1="687.849" x2="2006.236" y2="680.424"/>
		
			<line fill="none" stroke="#000000" stroke-linecap="round" stroke-linejoin="round" stroke-miterlimit="10" x1="1989.59" y1="692.639" x2="2006.779" y2="685.214"/>
	</g>
	<g>
		<path fill="#FFFFFF" stroke="#000000" stroke-linecap="round" stroke-linejoin="round" stroke-miterlimit="10" d="M2028.02,722.38
			c-17.704,23.025-4.665,38.374-4.665,38.374l-33.905,3.923l0.122-0.403c0,0-13.039-15.348,4.665-38.374l0.471,0.144l33.905-3.924"
			/>
		
			<line fill="none" stroke="#000000" stroke-linecap="round" stroke-linejoin="round" stroke-miterlimit="10" x1="2009.609" y1="746.371" x2="1991.009" y2="748.522"/>
		
			<line fill="none" stroke="#000000" stroke-linecap="round" stroke-linejoin="round" stroke-miterlimit="10" x1="2010.045" y1="741.767" x2="1991.445" y2="743.918"/>
		
			<line fill="none" stroke="#000000" stroke-linecap="round" stroke-linejoin="round" stroke-miterlimit="10" x1="2010.907" y1="737.023" x2="1992.308" y2="739.175"/>
	</g>
	
		<line fill="none" stroke="#000000" stroke-linecap="round" stroke-linejoin="round" stroke-miterlimit="10" x1="1415.375" y1="1034.454" x2="1415.375" y2="1040.422"/>
	
		<line fill="none" stroke="#000000" stroke-linecap="round" stroke-linejoin="round" stroke-miterlimit="10" x1="1424.094" y1="1034.861" x2="1424.094" y2="1040.829"/>
</g>
</svg>
