<?xml version="1.0" encoding="utf-8"?>
<!-- Generator: Adobe Illustrator 16.0.0, SVG Export Plug-In . SVG Version: 6.00 Build 0)  -->
<!DOCTYPE svg PUBLIC "-//W3C//DTD SVG 1.1//EN" "http://www.w3.org/Graphics/SVG/1.1/DTD/svg11.dtd">
<svg version="1.1" id="Layer_1" xmlns="http://www.w3.org/2000/svg" xmlns:xlink="http://www.w3.org/1999/xlink" x="0px" y="0px"
	 width="80.856px" height="69.212px" viewBox="74.543 59.936 80.856 69.212" enable-background="new 74.543 59.936 80.856 69.212"
	 xml:space="preserve">
<g>
	
		<path fill="#FFFFFF" stroke="#0297FF" stroke-width="2" stroke-linecap="round" stroke-linejoin="round" stroke-miterlimit="10" d="
		M87.268,88.141c3.067-15.282,16.565-26.794,32.749-26.794c18.444,0,33.398,14.953,33.398,33.4c0,18.45-14.954,33.401-33.398,33.401
		c-16.031,0-29.429-11.295-32.66-26.364"/>
	
		<path fill="#FFFFFF" stroke="#0297FF" stroke-width="2" stroke-linecap="round" stroke-linejoin="round" stroke-miterlimit="10" d="
		M75.65,61.093c0,0-4.702,17.717,48.169,23.193c0,0,11.844-1.994,13.192,7.983c0,0,1.946-10.743,6.821-4.441
		c0,0,3.364,5.477,0.315,9.109c0,0,2.097,7.506,6.781,6.138c4.689-1.373,11.134-43.207-29.63-42.118
		C109.893,61.26,78.533,66.61,75.65,61.093z"/>
</g>
<polyline fill="#FFFFFF" stroke="#0297FF" stroke-width="2" stroke-linecap="round" stroke-linejoin="round" stroke-miterlimit="10" points="
	139.19,86.827 117.347,92.682 82.013,87.348 82.394,101.035 "/>
<line fill="none" stroke="#0297FF" stroke-width="2" stroke-linecap="round" stroke-linejoin="round" stroke-miterlimit="10" x1="103.812" y1="104.27" x2="116.596" y2="106.313"/>
<line fill="none" stroke="#0297FF" stroke-width="2" stroke-linecap="round" stroke-linejoin="round" stroke-miterlimit="10" x1="82.394" y1="100.979" x2="93.835" y2="102.764"/>
<line fill="none" stroke="#0297FF" stroke-width="2" stroke-linecap="round" stroke-linejoin="round" stroke-miterlimit="10" x1="117.347" y1="92.682" x2="116.68" y2="105.682"/>
<polyline fill="#FFFFFF" stroke="#0297FF" stroke-width="2" stroke-linecap="round" stroke-linejoin="round" stroke-miterlimit="10" points="
	94.514,102.764 96.514,98.516 100.681,98.85 103.43,104.266 "/>
</svg>
