<?xml version="1.0" encoding="utf-8"?>
<!-- Generator: Adobe Illustrator 16.0.0, SVG Export Plug-In . SVG Version: 6.00 Build 0)  -->
<!DOCTYPE svg PUBLIC "-//W3C//DTD SVG 1.1//EN" "http://www.w3.org/Graphics/SVG/1.1/DTD/svg11.dtd">
<svg version="1.1" id="Layer_1" xmlns="http://www.w3.org/2000/svg" xmlns:xlink="http://www.w3.org/1999/xlink" x="0px" y="0px"
	 width="127.333px" height="108.185px" viewBox="53.934 42.739 127.333 108.185"
	 enable-background="new 53.934 42.739 127.333 108.185" xml:space="preserve">
<g>
	
		<path fill="#FFFFFF" stroke="#0297FF" stroke-width="2" stroke-linecap="round" stroke-linejoin="round" stroke-miterlimit="10" d="
		M85.276,116.523c0-18.447,14.958-33.4,33.402-33.4s33.398,14.953,33.398,33.4c0,18.449-14.954,33.4-33.398,33.4
		S85.276,134.975,85.276,116.523z"/>
	
		<path fill="#FFFFFF" stroke="#0297FF" stroke-width="2" stroke-linecap="round" stroke-linejoin="round" stroke-miterlimit="10" d="
		M74.312,82.87c0,0-4.703,17.716,48.169,23.192c0,0,11.844-1.994,13.192,7.982c0,0,1.946-10.742,6.821-4.441
		c0,0,3.364,5.478,0.315,9.109c0,0,2.096,7.506,6.781,6.139c4.688-1.373,11.134-43.208-29.63-42.119
		C108.554,83.036,77.194,88.386,74.312,82.87z"/>
</g>
<g>
	
		<ellipse fill="#FFFFFF" stroke="#0297FF" stroke-width="2" stroke-linecap="round" stroke-linejoin="round" stroke-miterlimit="10" cx="117.6" cy="71.458" rx="34" ry="5"/>
	
		<line fill="none" stroke="#0297FF" stroke-width="2" stroke-linecap="round" stroke-linejoin="round" stroke-miterlimit="10" x1="162.549" y1="69.604" x2="162.549" y2="121.457"/>
	
		<path fill="#FFFFFF" stroke="#0297FF" stroke-width="2" stroke-linecap="round" stroke-linejoin="round" stroke-miterlimit="10" d="
		M167.299,143.207c0,2.624-2.127,4.75-4.75,4.75l0,0c-2.623,0-4.75-2.126-4.75-4.75v-11.498c0-2.623,2.127-4.749,4.75-4.749l0,0
		c2.623,0,4.75,2.126,4.75,4.749V143.207z"/>
	<g>
		
			<polygon fill="#FFFFFF" stroke="#0297FF" stroke-width="2" stroke-linecap="round" stroke-linejoin="round" stroke-miterlimit="10" points="
			88.084,83.581 88.512,84.142 88.512,83.581 		"/>
		
			<path fill="#FFFFFF" stroke="#0297FF" stroke-width="2" stroke-linecap="round" stroke-linejoin="round" stroke-miterlimit="10" d="
			M146.614,72.791H88.512v10.79h0.257c-0.164,0.183-0.257,0.37-0.257,0.561c-0.003,2.359,13.001,4.288,29.046,4.307
			c16.044,0.02,29.054-1.878,29.056-4.238c0-0.214-0.108-0.424-0.313-0.629h0.313V72.791z"/>
	</g>
	
		<polygon fill="#FFFFFF" stroke="#0297FF" stroke-width="2" stroke-linecap="round" stroke-linejoin="round" stroke-miterlimit="10" points="
		130.284,48.739 180.267,72.073 107.604,82.458 54.934,60.739 	"/>
	
		<polygon fill="#FFFFFF" stroke="#0297FF" stroke-width="2" stroke-linecap="round" stroke-linejoin="round" stroke-miterlimit="10" points="
		130.284,43.739 180.267,67.073 107.604,77.458 54.934,55.739 	"/>
	
		<polygon fill="#FFFFFF" stroke="#0297FF" stroke-width="2" stroke-linecap="round" stroke-linejoin="round" stroke-miterlimit="10" points="
		107.729,82.578 54.934,60.739 55.58,56.005 107.729,77.52 	"/>
	
		<polygon fill="#FFFFFF" stroke="#0297FF" stroke-width="2" stroke-linecap="round" stroke-linejoin="round" stroke-miterlimit="10" points="
		180.267,72.073 107.604,82.458 107.604,77.458 180.267,67.073 	"/>
</g>
</svg>
