<?xml version="1.0" encoding="utf-8"?>
<!-- Generator: Adobe Illustrator 16.0.0, SVG Export Plug-In . SVG Version: 6.00 Build 0)  -->
<!DOCTYPE svg PUBLIC "-//W3C//DTD SVG 1.1//EN" "http://www.w3.org/Graphics/SVG/1.1/DTD/svg11.dtd">
<svg version="1.1" id="Layer_1" xmlns="http://www.w3.org/2000/svg" xmlns:xlink="http://www.w3.org/1999/xlink" x="0px" y="0px"
	 width="24px" height="24px" viewBox="0 0 24 24" enable-background="new 0 0 24 24" xml:space="preserve">
<g>
	<g>
		<path fill="#010002" d="M23,5.179c-0.81,0.359-1.679,0.602-2.591,0.711c0.931-0.558,1.646-1.443,1.983-2.495
			c-0.875,0.517-1.839,0.892-2.867,1.096c-0.823-0.878-1.994-1.426-3.295-1.426c-2.491,0-4.513,2.021-4.513,4.512
			c0,0.354,0.04,0.698,0.116,1.028C8.084,8.417,4.758,6.62,2.533,3.889c-0.39,0.666-0.61,1.441-0.61,2.269
			c0,1.566,0.797,2.948,2.007,3.756C3.19,9.889,2.494,9.686,1.885,9.348v0.056c0,2.186,1.556,4.01,3.62,4.425
			c-0.378,0.102-0.777,0.158-1.189,0.158c-0.292,0-0.573-0.028-0.85-0.084c0.575,1.793,2.241,3.1,4.215,3.135
			c-1.544,1.21-3.49,1.929-5.605,1.929c-0.364,0-0.724-0.022-1.076-0.062c1.997,1.282,4.369,2.03,6.917,2.03
			c8.303,0,12.841-6.876,12.841-12.84L20.742,7.51C21.63,6.878,22.396,6.083,23,5.179z"/>
	</g>
</g>
</svg>
