<?xml version="1.0" encoding="utf-8"?>
<!-- Generator: Adobe Illustrator 16.0.0, SVG Export Plug-In . SVG Version: 6.00 Build 0)  -->
<!DOCTYPE svg PUBLIC "-//W3C//DTD SVG 1.1//EN" "http://www.w3.org/Graphics/SVG/1.1/DTD/svg11.dtd">
<svg version="1.1" xmlns="http://www.w3.org/2000/svg" xmlns:xlink="http://www.w3.org/1999/xlink" x="0px" y="0px" width="60px"
	 height="24px" viewBox="185.057 203.057 60 24" enable-background="new 185.057 203.057 60 24" xml:space="preserve">
<g id="Capa_1">
	<g>
		<path id="Facebook" fill="#918F8F" d="M196.878,207.706c0,0.604,0,3.304,0,3.304h-2.421v4.041h2.421v12.007h4.974V215.05h3.337
			c0,0,0.313-1.937,0.464-4.055c-0.435,0-3.782,0-3.782,0s0-2.351,0-2.763c0-0.413,0.542-0.968,1.078-0.968c0.535,0,1.664,0,2.71,0
			c0-0.551,0-2.451,0-4.207c-1.396,0-2.984,0-3.685,0C196.755,203.057,196.878,207.102,196.878,207.706z"/>
	</g>
	<g>
		<path id="Facebook_1_" fill="#494949" d="M226.879,207.706c0,0.604,0,3.304,0,3.304h-2.422v4.041h2.422v12.007h4.973V215.05h3.338
			c0,0,0.313-1.937,0.463-4.055c-0.434,0-3.781,0-3.781,0s0-2.351,0-2.763s0.541-0.968,1.078-0.968c0.535,0,1.664,0,2.709,0
			c0-0.551,0-2.451,0-4.207c-1.396,0-2.984,0-3.684,0C226.756,203.058,226.879,207.102,226.879,207.706z"/>
	</g>
</g>
<g id="Layer_2">
</g>
</svg>
