<?xml version="1.0" encoding="utf-8"?>
<!-- Generator: Adobe Illustrator 16.0.0, SVG Export Plug-In . SVG Version: 6.00 Build 0)  -->
<!DOCTYPE svg PUBLIC "-//W3C//DTD SVG 1.1//EN" "http://www.w3.org/Graphics/SVG/1.1/DTD/svg11.dtd">
<svg version="1.1" id="Layer_1" xmlns="http://www.w3.org/2000/svg" xmlns:xlink="http://www.w3.org/1999/xlink" x="0px" y="0px"
	 width="9.335px" height="20px" viewBox="195.391 205.058 9.335 20" enable-background="new 195.391 205.058 9.335 20"
	 xml:space="preserve">
<g>
	<path id="Facebook" fill="#FFFFFF" d="M197.408,208.932c0,0.504,0,2.753,0,2.753h-2.018v3.367h2.018v10.006h4.145v-10.007h2.781
		c0,0,0.261-1.613,0.386-3.378c-0.361,0-3.151,0-3.151,0s0-1.959,0-2.303c0-0.345,0.452-0.807,0.898-0.807s1.387,0,2.259,0
		c0-0.459,0-2.043,0-3.506c-1.163,0-2.487,0-3.07,0C197.306,205.058,197.408,208.428,197.408,208.932z"/>
</g>
<g id="Layer_2">
</g>
</svg>
