<?xml version="1.0" encoding="utf-8"?>
<!-- Generator: Adobe Illustrator 16.0.0, SVG Export Plug-In . SVG Version: 6.00 Build 0)  -->
<!DOCTYPE svg PUBLIC "-//W3C//DTD SVG 1.1//EN" "http://www.w3.org/Graphics/SVG/1.1/DTD/svg11.dtd">
<svg version="1.1" id="Layer_1" xmlns="http://www.w3.org/2000/svg" xmlns:xlink="http://www.w3.org/1999/xlink" x="0px" y="0px"
	 width="11.842px" height="20.001px" viewBox="194.136 205.058 11.842 20.001"
	 enable-background="new 194.136 205.058 11.842 20.001" xml:space="preserve">
<path fill="#FFFFFF" d="M199.014,207.363c-0.205-0.025-0.405,0.007-0.575,0.077c-0.182,0.073-0.341,0.19-0.474,0.338
	c-0.139,0.156-0.243,0.339-0.317,0.55c-0.06,0.216-0.057,0.453-0.042,0.705v12.889l5.418-1.966c0.146-0.046,0.278-0.132,0.402-0.243
	c0.118-0.11,0.223-0.242,0.313-0.387c0.084-0.148,0.163-0.314,0.208-0.482c0.044-0.169,0-0.345,0-0.527v-9.571l2.006,0.117v10.611
	c-0.002,0.205-0.05,0.407-0.104,0.608c-0.054,0.197-0.141,0.384-0.229,0.557c-0.1,0.171-0.215,0.329-0.347,0.463
	c-0.132,0.13-0.278,0.23-0.433,0.288l-8.432,3.503c-0.272,0.112-0.536,0.166-0.779,0.166c-0.254,0-0.488-0.058-0.696-0.161
	c-0.207-0.111-0.386-0.269-0.501-0.469c-0.137-0.211-0.268-0.459-0.287-0.743v-16.387c-0.027-0.356,0.019-0.69,0.122-0.986
	c0.098-0.292,0.263-0.551,0.46-0.748c0.204-0.199,0.442-0.348,0.721-0.428c0.27-0.083,0.562-0.103,0.878-0.049l9.653,1.793
	l-0.01,1.266L199.014,207.363"/>
</svg>
