<?xml version="1.0" encoding="utf-8"?>
<!-- Generator: Adobe Illustrator 16.0.0, SVG Export Plug-In . SVG Version: 6.00 Build 0)  -->
<!DOCTYPE svg PUBLIC "-//W3C//DTD SVG 1.1//EN" "http://www.w3.org/Graphics/SVG/1.1/DTD/svg11.dtd">
<svg version="1.1" xmlns="http://www.w3.org/2000/svg" xmlns:xlink="http://www.w3.org/1999/xlink" x="0px" y="0px" width="60px"
	 height="24px" viewBox="185.057 203.057 60 24" enable-background="new 185.057 203.057 60 24" xml:space="preserve">
<g id="Capa_1">
	<path fill="#918F8F" d="M198.804,205.824c-0.246-0.03-0.485,0.008-0.689,0.092c-0.219,0.088-0.409,0.228-0.569,0.407
		c-0.166,0.187-0.291,0.405-0.381,0.66c-0.071,0.258-0.067,0.542-0.05,0.845v15.467l6.502-2.359
		c0.176-0.055,0.334-0.158,0.483-0.291c0.141-0.133,0.267-0.291,0.374-0.465c0.101-0.178,0.196-0.377,0.25-0.578
		c0.054-0.203,0.001-0.414,0-0.633v-11.487l2.408,0.141v12.735c-0.003,0.246-0.059,0.488-0.126,0.729
		c-0.065,0.236-0.168,0.461-0.276,0.668c-0.119,0.205-0.257,0.395-0.416,0.555c-0.158,0.156-0.333,0.277-0.518,0.346l-10.119,4.203
		c-0.328,0.135-0.643,0.199-0.935,0.199c-0.305,0-0.585-0.068-0.835-0.193c-0.249-0.133-0.463-0.322-0.603-0.563
		c-0.163-0.252-0.32-0.549-0.343-0.891v-19.665c-0.033-0.428,0.022-0.828,0.146-1.184c0.118-0.349,0.315-0.659,0.552-0.897
		c0.245-0.238,0.531-0.417,0.865-0.513c0.324-0.099,0.674-0.122,1.054-0.058l11.584,2.151l-0.012,1.518L198.804,205.824"/>
	<path fill="#494949" d="M228.803,205.824c-0.245-0.03-0.485,0.008-0.689,0.092c-0.219,0.088-0.409,0.228-0.569,0.407
		c-0.166,0.187-0.291,0.405-0.381,0.66c-0.072,0.258-0.067,0.542-0.051,0.845v15.469l6.502-2.361
		c0.176-0.053,0.334-0.156,0.483-0.291c0.141-0.131,0.267-0.291,0.374-0.463c0.101-0.18,0.196-0.377,0.25-0.578
		c0.054-0.203,0.001-0.414,0-0.633v-11.489l2.408,0.141v12.735c-0.003,0.246-0.059,0.49-0.126,0.73
		c-0.065,0.234-0.168,0.459-0.276,0.668c-0.119,0.205-0.257,0.395-0.416,0.553c-0.158,0.158-0.333,0.279-0.518,0.348l-10.119,4.203
		c-0.328,0.135-0.643,0.199-0.934,0.199c-0.305,0-0.586-0.068-0.836-0.193c-0.248-0.133-0.463-0.322-0.602-0.563
		c-0.163-0.252-0.32-0.549-0.344-0.891v-19.667c-0.033-0.428,0.022-0.828,0.146-1.184c0.118-0.349,0.315-0.659,0.552-0.897
		c0.245-0.238,0.531-0.417,0.865-0.513c0.323-0.099,0.674-0.122,1.054-0.058l11.584,2.151l-0.012,1.518L228.803,205.824"/>
</g>
<g id="Layer_2">
</g>
</svg>
