<?xml version="1.0" encoding="utf-8"?>
<!-- Generator: Adobe Illustrator 16.0.0, SVG Export Plug-In . SVG Version: 6.00 Build 0)  -->
<!DOCTYPE svg PUBLIC "-//W3C//DTD SVG 1.1//EN" "http://www.w3.org/Graphics/SVG/1.1/DTD/svg11.dtd">
<svg version="1.1" xmlns="http://www.w3.org/2000/svg" xmlns:xlink="http://www.w3.org/1999/xlink" x="0px" y="0px" width="60px"
	 height="24px" viewBox="185.057 203.057 60 24" enable-background="new 185.057 203.057 60 24" xml:space="preserve">
<g id="Capa_1">
	<g>
		<g>
			<path fill="#918F8F" d="M203.578,203.057h-5.724c-2.55,0-4.316,0.56-5.905,1.872c-1.25,1.078-1.996,2.646-1.996,4.192
				c0,2.383,1.817,4.915,5.184,4.915c0.324,0,0.682-0.032,0.998-0.063l-0.046,0.113c-0.135,0.324-0.264,0.63-0.264,1.107
				c0,0.93,0.448,1.503,0.882,2.057l0.055,0.07l-0.097,0.007c-1.39,0.095-3.978,0.272-5.868,1.435
				c-2.232,1.327-2.406,3.258-2.406,3.817c0,2.229,2.076,4.477,6.715,4.477c5.394,0,8.216-2.976,8.216-5.915
				c0.001-2.173-1.274-3.247-2.628-4.387l-1.141-0.888c-0.353-0.292-0.792-0.655-0.792-1.329c0-0.662,0.439-1.1,0.827-1.485
				l0.041-0.04c1.233-0.972,2.63-2.072,2.63-4.453c0-2.395-1.497-3.632-2.216-4.226h1.899c0.023,0,0.047-0.007,0.066-0.02
				l1.636-1.029c0.047-0.028,0.068-0.086,0.054-0.139C203.681,203.093,203.633,203.057,203.578,203.057z M196.636,225.746
				c-3.288,0-5.497-1.536-5.497-3.822c0-1.491,0.904-2.576,2.683-3.222c1.425-0.479,3.265-0.503,3.283-0.503
				c0.311,0,0.468,0,0.717,0.031c2.3,1.637,3.406,2.497,3.406,4.134C201.229,224.45,199.469,225.746,196.636,225.746z
				 M196.606,213.159c-2.759,0-3.905-3.627-3.905-5.569c0-0.987,0.225-1.745,0.687-2.317c0.501-0.628,1.36-1.033,2.187-1.033
				c2.534,0,3.935,3.405,3.935,5.759c0,0.372,0,1.501-0.78,2.286C198.204,212.808,197.351,213.159,196.606,213.159z"/>
			<path fill="#918F8F" d="M211.6,214.267h-3.016v-3.006c0-0.068-0.057-0.124-0.125-0.124h-1.297c-0.068,0-0.124,0.056-0.124,0.124
				v3.006h-3.001c-0.068,0-0.124,0.056-0.124,0.124v1.314c0,0.068,0.056,0.123,0.124,0.123h3.001v3.025
				c0,0.068,0.056,0.124,0.124,0.124h1.297c0.068,0,0.125-0.056,0.125-0.124v-3.025h3.016c0.068,0,0.124-0.055,0.124-0.124v-1.313
				C211.724,214.322,211.669,214.267,211.6,214.267z"/>
		</g>
	</g>
	<g>
		<g>
			<path fill="#494949" d="M233.578,203.057h-5.725c-2.55,0-4.316,0.56-5.904,1.872c-1.25,1.078-1.996,2.646-1.996,4.192
				c0,2.383,1.816,4.915,5.184,4.915c0.324,0,0.683-0.032,0.998-0.063l-0.046,0.113c-0.136,0.324-0.264,0.63-0.264,1.107
				c0,0.93,0.448,1.503,0.882,2.057l0.055,0.07l-0.098,0.007c-1.389,0.095-3.977,0.272-5.867,1.435
				c-2.232,1.327-2.406,3.258-2.406,3.817c0,2.229,2.076,4.477,6.715,4.477c5.394,0,8.216-2.976,8.216-5.915
				c0.001-2.173-1.274-3.247-2.628-4.387l-1.141-0.888c-0.354-0.292-0.793-0.655-0.793-1.329c0-0.662,0.439-1.1,0.827-1.485
				l0.04-0.04c1.233-0.972,2.631-2.072,2.631-4.453c0-2.395-1.497-3.632-2.216-4.226h1.899c0.023,0,0.047-0.007,0.066-0.02
				l1.636-1.029c0.047-0.028,0.068-0.086,0.054-0.139C233.681,203.093,233.633,203.057,233.578,203.057z M226.636,225.746
				c-3.287,0-5.497-1.536-5.497-3.822c0-1.491,0.903-2.576,2.683-3.222c1.426-0.479,3.266-0.503,3.283-0.503
				c0.312,0,0.469,0,0.718,0.031c2.3,1.637,3.406,2.497,3.406,4.134C231.229,224.45,229.469,225.746,226.636,225.746z
				 M226.605,213.159c-2.759,0-3.904-3.627-3.904-5.569c0-0.987,0.225-1.745,0.688-2.317c0.501-0.628,1.359-1.033,2.187-1.033
				c2.534,0,3.935,3.405,3.935,5.759c0,0.372,0,1.501-0.779,2.286C228.205,212.808,227.351,213.159,226.605,213.159z"/>
			<path fill="#494949" d="M241.6,214.267h-3.016v-3.006c0-0.068-0.057-0.124-0.125-0.124h-1.297c-0.068,0-0.124,0.056-0.124,0.124
				v3.006h-3.001c-0.068,0-0.124,0.056-0.124,0.124v1.314c0,0.068,0.056,0.123,0.124,0.123h3.001v3.025
				c0,0.068,0.056,0.124,0.124,0.124h1.297c0.068,0,0.125-0.056,0.125-0.124v-3.025h3.016c0.068,0,0.124-0.055,0.124-0.124v-1.313
				C241.724,214.322,241.669,214.267,241.6,214.267z"/>
		</g>
	</g>
</g>
<g id="Layer_2">
</g>
</svg>
