<?xml version="1.0" encoding="utf-8"?>
<!-- Generator: Adobe Illustrator 16.0.0, SVG Export Plug-In . SVG Version: 6.00 Build 0)  -->
<!DOCTYPE svg PUBLIC "-//W3C//DTD SVG 1.1//EN" "http://www.w3.org/Graphics/SVG/1.1/DTD/svg11.dtd">
<svg version="1.1" id="Layer_1" xmlns="http://www.w3.org/2000/svg" xmlns:xlink="http://www.w3.org/1999/xlink" x="0px" y="0px"
	 width="19.445px" height="20px" viewBox="190.335 205.057 19.445 20" enable-background="new 190.335 205.057 19.445 20"
	 xml:space="preserve">
<g>
	<g>
		<path fill="#FFFFFF" d="M202.991,205.057h-4.771c-2.124,0-3.596,0.467-4.92,1.561c-1.042,0.898-1.664,2.205-1.664,3.493
			c0,1.985,1.514,4.096,4.32,4.096c0.27,0,0.568-0.026,0.832-0.053l-0.039,0.095c-0.112,0.27-0.22,0.524-0.22,0.923
			c0,0.774,0.374,1.251,0.735,1.714l0.045,0.059l-0.08,0.006c-1.158,0.078-3.314,0.227-4.891,1.195
			c-1.859,1.105-2.005,2.715-2.005,3.181c0,1.858,1.73,3.731,5.596,3.731c4.495,0,6.848-2.48,6.848-4.93
			c0-1.811-1.063-2.705-2.19-3.656l-0.951-0.739c-0.294-0.243-0.66-0.546-0.66-1.107c0-0.552,0.366-0.917,0.689-1.237l0.034-0.034
			c1.027-0.81,2.191-1.727,2.191-3.711c0-1.995-1.247-3.025-1.847-3.521h1.582c0.02,0,0.039-0.006,0.056-0.017l1.364-0.857
			c0.039-0.023,0.056-0.071,0.044-0.116C203.078,205.087,203.037,205.057,202.991,205.057z M197.207,223.965
			c-2.741,0-4.582-1.28-4.582-3.186c0-1.242,0.754-2.146,2.236-2.685c1.188-0.399,2.721-0.419,2.736-0.419
			c0.259,0,0.39,0,0.598,0.025c1.916,1.364,2.838,2.08,2.838,3.444C201.033,222.885,199.566,223.965,197.207,223.965z
			 M197.181,213.476c-2.298,0-3.253-3.022-3.253-4.642c0-0.821,0.187-1.453,0.572-1.93c0.417-0.524,1.133-0.861,1.822-0.861
			c2.111,0,3.279,2.837,3.279,4.799c0,0.311,0,1.251-0.65,1.905C198.513,213.184,197.803,213.476,197.181,213.476z"/>
		<path fill="#FFFFFF" d="M209.676,214.399h-2.513v-2.505c0-0.058-0.048-0.104-0.104-0.104h-1.08c-0.058,0-0.104,0.047-0.104,0.104
			v2.505h-2.501c-0.058,0-0.104,0.045-0.104,0.103v1.095c0,0.058,0.046,0.103,0.104,0.103h2.501v2.521
			c0,0.057,0.046,0.103,0.104,0.103h1.08c0.057,0,0.104-0.046,0.104-0.103v-2.521h2.513c0.057,0,0.104-0.045,0.104-0.104v-1.094
			C209.78,214.444,209.733,214.399,209.676,214.399z"/>
	</g>
</g>
<g id="Layer_2">
</g>
</svg>
