<?xml version="1.0" encoding="utf-8"?>
<!-- Generator: Adobe Illustrator 16.0.0, SVG Export Plug-In . SVG Version: 6.00 Build 0)  -->
<!DOCTYPE svg PUBLIC "-//W3C//DTD SVG 1.1//EN" "http://www.w3.org/Graphics/SVG/1.1/DTD/svg11.dtd">
<svg version="1.1" id="Layer_1" xmlns="http://www.w3.org/2000/svg" xmlns:xlink="http://www.w3.org/1999/xlink" x="0px" y="0px"
	 width="20px" height="20px" viewBox="190.059 205.057 20 20" enable-background="new 190.059 205.057 20 20" xml:space="preserve">
<g>
	<path fill="#FFFFFF" d="M207.343,205.057h-14.569c-1.497,0-2.715,1.219-2.715,2.715v14.569c0,1.498,1.218,2.716,2.715,2.716h14.569
		c1.497,0,2.716-1.218,2.716-2.716v-14.569C210.057,206.275,208.84,205.057,207.343,205.057z M200.057,219.942
		c-2.466,0-4.473-2.007-4.473-4.473s2.007-4.473,4.473-4.473s4.473,2.007,4.473,4.473S202.522,219.942,200.057,219.942z
		 M208.364,212.168h-4.041c-1.021-1.221-2.554-1.999-4.267-1.999c-1.711,0-3.245,0.778-4.266,1.999h-4.041v-3.882
		c0-0.988,0.803-1.791,1.79-1.791h13.033c0.987,0,1.789,0.804,1.789,1.791v3.882H208.364z"/>
	<path fill="#FFFFFF" d="M200.057,212.596c-1.585,0-2.876,1.289-2.876,2.874c0,1.586,1.291,2.876,2.876,2.876
		c1.586,0,2.876-1.29,2.876-2.876C202.933,213.885,201.643,212.596,200.057,212.596z"/>
	<path fill="#FFFFFF" d="M206.16,207.643h-1.729c-0.396,0-0.718,0.322-0.718,0.717v1.731c0,0.396,0.322,0.716,0.718,0.716h1.729
		c0.396,0,0.717-0.322,0.717-0.716v-1.731C206.877,207.965,206.556,207.643,206.16,207.643z"/>
</g>
<g id="Layer_2">
</g>
</svg>
