<?xml version="1.0" encoding="utf-8"?>
<!-- Generator: Adobe Illustrator 16.0.0, SVG Export Plug-In . SVG Version: 6.00 Build 0)  -->
<!DOCTYPE svg PUBLIC "-//W3C//DTD SVG 1.1//EN" "http://www.w3.org/Graphics/SVG/1.1/DTD/svg11.dtd">
<svg version="1.1" xmlns="http://www.w3.org/2000/svg" xmlns:xlink="http://www.w3.org/1999/xlink" x="0px" y="0px" width="60px"
	 height="24px" viewBox="185.057 203.057 60 24" enable-background="new 185.057 203.057 60 24" xml:space="preserve">
<g id="Capa_1">
	<g>
		<path fill="#918F8F" d="M208.8,203.057h-17.484c-1.796,0-3.258,1.462-3.258,3.258v17.483c0,1.797,1.462,3.258,3.258,3.258H208.8
			c1.796,0,3.258-1.461,3.258-3.258v-17.483C212.057,204.52,210.595,203.057,208.8,203.057z M200.057,220.92
			c-2.959,0-5.367-2.408-5.367-5.367s2.408-5.367,5.367-5.367c2.959,0,5.367,2.408,5.367,5.367S203.016,220.92,200.057,220.92z
			 M210.026,211.591h-4.85c-1.225-1.466-3.064-2.399-5.119-2.399c-2.054,0-3.895,0.934-5.119,2.399h-4.85v-4.66
			c0-1.185,0.964-2.148,2.148-2.148h15.64c1.184,0,2.148,0.964,2.148,2.148V211.591L210.026,211.591z"/>
		<path fill="#918F8F" d="M200.057,212.103c-1.902,0-3.451,1.548-3.451,3.45s1.548,3.451,3.451,3.451
			c1.902,0,3.451-1.549,3.451-3.451S201.96,212.103,200.057,212.103z"/>
		<path fill="#918F8F" d="M207.381,206.16h-2.077c-0.475,0-0.86,0.386-0.86,0.86v2.077c0,0.475,0.386,0.86,0.86,0.86h2.077
			c0.475,0,0.86-0.386,0.86-0.86v-2.077C208.241,206.546,207.855,206.16,207.381,206.16z"/>
	</g>
	<g>
		<path fill="#494949" d="M238.801,203.057h-17.483c-1.796,0-3.259,1.462-3.259,3.259v17.483c0,1.797,1.463,3.258,3.259,3.258
			h17.483c1.797,0,3.258-1.461,3.258-3.258v-17.483C242.058,204.519,240.597,203.057,238.801,203.057z M230.058,220.92
			c-2.959,0-5.367-2.408-5.367-5.367c0-2.96,2.408-5.367,5.367-5.367s5.367,2.407,5.367,5.367
			C235.426,218.512,233.017,220.92,230.058,220.92z M240.027,211.591h-4.85c-1.225-1.466-3.064-2.399-5.119-2.399
			c-2.054,0-3.895,0.934-5.118,2.399h-4.85v-4.66c0-1.185,0.964-2.148,2.148-2.148h15.64c1.184,0,2.148,0.964,2.148,2.148V211.591
			L240.027,211.591z"/>
		<path fill="#494949" d="M230.058,212.103c-1.902,0-3.45,1.548-3.45,3.45s1.548,3.45,3.45,3.45s3.451-1.548,3.451-3.45
			S231.961,212.103,230.058,212.103z"/>
		<path fill="#494949" d="M237.383,206.159h-2.078c-0.475,0-0.859,0.387-0.859,0.861v2.076c0,0.475,0.385,0.861,0.859,0.861h2.078
			c0.475,0,0.859-0.386,0.859-0.861v-2.076C238.242,206.546,237.857,206.159,237.383,206.159z"/>
	</g>
</g>
<g id="Layer_2">
</g>
</svg>
