<?xml version="1.0" encoding="utf-8"?>
<!-- Generator: Adobe Illustrator 16.0.0, SVG Export Plug-In . SVG Version: 6.00 Build 0)  -->
<!DOCTYPE svg PUBLIC "-//W3C//DTD SVG 1.1//EN" "http://www.w3.org/Graphics/SVG/1.1/DTD/svg11.dtd">
<svg version="1.1" xmlns="http://www.w3.org/2000/svg" xmlns:xlink="http://www.w3.org/1999/xlink" x="0px" y="0px" width="60px"
	 height="24px" viewBox="185.057 203.057 60 24" enable-background="new 185.057 203.057 60 24" xml:space="preserve">
<g id="Capa_1">
	<g>
		<path id="LinkedIn" fill="#918F8F" d="M212.614,217.77v9.287h-5.379v-8.666c0-2.174-0.779-3.66-2.73-3.66
			c-1.485,0-2.373,1.001-2.763,1.968c-0.141,0.346-0.176,0.83-0.176,1.313v9.045h-5.388c0,0,0.073-14.675,0-16.192h5.385v2.294
			c-0.012,0.018-0.023,0.035-0.035,0.053h0.035v-0.053c0.715-1.102,1.992-2.675,4.852-2.675
			C209.96,210.484,212.614,212.798,212.614,217.77z M190.548,203.057c-1.843,0-3.047,1.207-3.047,2.798
			c0,1.553,1.169,2.798,2.974,2.798h0.038c1.878,0,3.044-1.242,3.044-2.798C193.521,204.264,192.39,203.057,190.548,203.057z
			 M187.82,227.057h5.382v-16.192h-5.382V227.057z"/>
	</g>
	<g>
		<path id="LinkedIn_1_" fill="#494949" d="M242.614,217.77v9.287h-5.379v-8.666c0-2.174-0.779-3.659-2.73-3.659
			c-1.485,0-2.373,1.002-2.763,1.969c-0.141,0.346-0.176,0.829-0.176,1.313v9.044h-5.388c0,0,0.073-14.675,0-16.192h5.385v2.294
			c-0.012,0.018-0.023,0.035-0.035,0.053h0.035v-0.053c0.715-1.102,1.992-2.675,4.852-2.675
			C239.96,210.484,242.614,212.798,242.614,217.77z M220.548,203.057c-1.843,0-3.047,1.207-3.047,2.798
			c0,1.553,1.169,2.798,2.974,2.798h0.038c1.878,0,3.044-1.242,3.044-2.798C223.521,204.264,222.39,203.057,220.548,203.057z
			 M217.82,227.057h5.382v-16.192h-5.382V227.057z"/>
	</g>
</g>
<g id="Layer_2">
</g>
</svg>
