<?xml version="1.0" encoding="utf-8"?>
<!-- Generator: Adobe Illustrator 16.0.0, SVG Export Plug-In . SVG Version: 6.00 Build 0)  -->
<!DOCTYPE svg PUBLIC "-//W3C//DTD SVG 1.1//EN" "http://www.w3.org/Graphics/SVG/1.1/DTD/svg11.dtd">
<svg version="1.1" id="Layer_1" xmlns="http://www.w3.org/2000/svg" xmlns:xlink="http://www.w3.org/1999/xlink" x="0px" y="0px"
	 width="20.927px" height="20px" viewBox="189.594 205.057 20.927 20" enable-background="new 189.594 205.057 20.927 20"
	 xml:space="preserve">
<g>
	<path id="LinkedIn" fill="#FFFFFF" d="M210.521,217.317v7.739h-4.482v-7.222c0-1.812-0.648-3.05-2.274-3.05
		c-1.238,0-1.978,0.835-2.303,1.641c-0.117,0.288-0.146,0.691-0.146,1.094v7.537h-4.49c0,0,0.062-12.229,0-13.493h4.487v1.912
		c-0.01,0.016-0.019,0.028-0.029,0.044h0.029v-0.044c0.596-0.919,1.66-2.229,4.044-2.229
		C208.31,211.246,210.521,213.174,210.521,217.317z M192.133,205.057c-1.536,0-2.539,1.006-2.539,2.332
		c0,1.294,0.974,2.331,2.478,2.331h0.033c1.563,0,2.535-1.034,2.535-2.331C194.61,206.063,193.668,205.057,192.133,205.057z
		 M189.859,225.057h4.485v-13.493h-4.485V225.057z"/>
</g>
</svg>
