<?xml version="1.0" encoding="utf-8"?>
<!-- Generator: Adobe Illustrator 16.0.0, SVG Export Plug-In . SVG Version: 6.00 Build 0)  -->
<!DOCTYPE svg PUBLIC "-//W3C//DTD SVG 1.1//EN" "http://www.w3.org/Graphics/SVG/1.1/DTD/svg11.dtd">
<svg version="1.1" id="Layer_1" xmlns="http://www.w3.org/2000/svg" xmlns:xlink="http://www.w3.org/1999/xlink" x="0px" y="0px"
	 width="24.621px" height="20px" viewBox="187.747 205.057 24.621 20" enable-background="new 187.747 205.057 24.621 20"
	 xml:space="preserve">
<g>
	<g>
		<path fill="#FFFFFF" d="M212.368,207.423c-0.906,0.402-1.878,0.675-2.9,0.796c1.043-0.625,1.843-1.615,2.22-2.793
			c-0.979,0.578-2.059,0.998-3.209,1.226c-0.92-0.981-2.232-1.595-3.688-1.595c-2.787,0-5.05,2.263-5.05,5.051
			c0,0.395,0.046,0.781,0.131,1.149c-4.197-0.211-7.919-2.221-10.41-5.277c-0.436,0.745-0.683,1.613-0.683,2.539
			c0,1.751,0.891,3.298,2.245,4.202c-0.827-0.027-1.605-0.255-2.288-0.634v0.063c0,2.447,1.742,4.489,4.052,4.953
			c-0.423,0.114-0.869,0.178-1.331,0.178c-0.326,0-0.641-0.033-0.951-0.095c0.644,2.007,2.508,3.469,4.718,3.508
			c-1.728,1.354-3.907,2.158-6.272,2.158c-0.407,0-0.81-0.023-1.204-0.068c2.235,1.436,4.89,2.273,7.742,2.273
			c9.291,0,14.37-7.697,14.37-14.37l-0.019-0.654C210.833,209.324,211.692,208.436,212.368,207.423z"/>
	</g>
</g>
<g id="Layer_2">
</g>
</svg>
