<?xml version="1.0" encoding="utf-8"?>
<!-- Generator: Adobe Illustrator 16.0.0, SVG Export Plug-In . SVG Version: 6.00 Build 0)  -->
<!DOCTYPE svg PUBLIC "-//W3C//DTD SVG 1.1//EN" "http://www.w3.org/Graphics/SVG/1.1/DTD/svg11.dtd">
<svg version="1.1" xmlns="http://www.w3.org/2000/svg" xmlns:xlink="http://www.w3.org/1999/xlink" x="0px" y="0px" width="60px"
	 height="24px" viewBox="185.057 203.057 60 24" enable-background="new 185.057 203.057 60 24" xml:space="preserve">
<g id="Capa_1">
	<g>
		<g>
			<path fill="#918F8F" d="M214.83,205.897c-1.087,0.482-2.254,0.809-3.48,0.955c1.252-0.75,2.211-1.939,2.664-3.352
				c-1.175,0.694-2.471,1.198-3.851,1.471c-1.105-1.179-2.679-1.914-4.424-1.914c-3.347,0-6.061,2.715-6.061,6.06
				c0,0.474,0.054,0.938,0.157,1.38c-5.037-0.253-9.503-2.665-12.492-6.333c-0.523,0.895-0.82,1.936-0.82,3.047
				c0,2.102,1.07,3.958,2.695,5.043c-0.993-0.033-1.927-0.307-2.745-0.761v0.076c0,2.936,2.09,5.386,4.861,5.943
				c-0.508,0.136-1.043,0.212-1.597,0.212c-0.391,0-0.769-0.039-1.141-0.113c0.772,2.409,3.01,4.162,5.661,4.21
				c-2.073,1.624-4.688,2.59-7.527,2.59c-0.489,0-0.971-0.029-1.445-0.083c2.683,1.723,5.867,2.728,9.29,2.728
				c11.149,0,17.245-9.235,17.245-17.244l-0.022-0.785C212.989,208.178,214.019,207.112,214.83,205.897z"/>
		</g>
	</g>
	<g>
		<g>
			<path fill="#494949" d="M244.83,205.896c-1.087,0.482-2.254,0.809-3.48,0.955c1.252-0.75,2.211-1.939,2.664-3.351
				c-1.175,0.694-2.471,1.198-3.852,1.471c-1.105-1.179-2.679-1.914-4.424-1.914c-3.347,0-6.062,2.714-6.062,6.06
				c0,0.474,0.054,0.938,0.157,1.38c-5.036-0.253-9.502-2.665-12.491-6.333c-0.522,0.895-0.819,1.935-0.819,3.046
				c0,2.103,1.07,3.959,2.695,5.044c-0.993-0.033-1.928-0.307-2.746-0.761v0.076c0,2.936,2.091,5.385,4.861,5.943
				c-0.508,0.136-1.043,0.212-1.597,0.212c-0.392,0-0.77-0.039-1.141-0.113c0.771,2.409,3.009,4.162,5.66,4.21
				c-2.073,1.624-4.688,2.59-7.527,2.59c-0.489,0-0.972-0.029-1.446-0.083c2.683,1.723,5.868,2.727,9.291,2.727
				c11.149,0,17.246-9.234,17.246-17.243l-0.022-0.785C242.989,208.177,244.019,207.111,244.83,205.896z"/>
		</g>
	</g>
</g>
<g id="Layer_2">
</g>
</svg>
