<?xml version="1.0" encoding="utf-8"?>
<!-- Generator: Adobe Illustrator 16.0.0, SVG Export Plug-In . SVG Version: 6.00 Build 0)  -->
<!DOCTYPE svg PUBLIC "-//W3C//DTD SVG 1.1//EN" "http://www.w3.org/Graphics/SVG/1.1/DTD/svg11.dtd">
<svg version="1.1" id="Capa_1" xmlns="http://www.w3.org/2000/svg" xmlns:xlink="http://www.w3.org/1999/xlink" x="0px" y="0px"
	 width="29.545px" height="24px" viewBox="-2.772 0 29.545 24" enable-background="new -2.772 0 29.545 24" xml:space="preserve">
<g>
	<g>
		<path fill="#FFFFFF" d="M26.772,2.84c-1.087,0.482-2.254,0.809-3.48,0.955c1.252-0.75,2.211-1.938,2.664-3.351
			c-1.175,0.694-2.471,1.198-3.851,1.471C21,0.735,19.427,0,17.682,0c-3.347,0-6.061,2.714-6.061,6.06
			c0,0.474,0.054,0.938,0.157,1.38C6.741,7.188,2.275,4.775-0.714,1.108c-0.523,0.894-0.82,1.935-0.82,3.046
			c0,2.103,1.07,3.958,2.695,5.044c-0.993-0.033-1.927-0.307-2.745-0.76v0.076c0,2.935,2.09,5.386,4.861,5.943
			c-0.508,0.136-1.043,0.212-1.597,0.212c-0.391,0-0.769-0.039-1.141-0.113c0.772,2.409,3.01,4.162,5.661,4.21
			c-2.073,1.624-4.688,2.59-7.527,2.59c-0.489,0-0.971-0.029-1.445-0.083C-0.09,22.995,3.095,24,6.518,24
			c11.149,0,17.245-9.235,17.245-17.244L23.74,5.971C24.932,5.122,25.962,4.055,26.772,2.84z"/>
	</g>
</g>
</svg>
