<?xml version="1.0" encoding="utf-8"?>
<!-- Generator: Adobe Illustrator 16.0.0, SVG Export Plug-In . SVG Version: 6.00 Build 0)  -->
<!DOCTYPE svg PUBLIC "-//W3C//DTD SVG 1.1//EN" "http://www.w3.org/Graphics/SVG/1.1/DTD/svg11.dtd">
<svg version="1.1" xmlns="http://www.w3.org/2000/svg" xmlns:xlink="http://www.w3.org/1999/xlink" x="0px" y="0px" width="590px"
	 height="450px" viewBox="0 0 590 450" enable-background="new 0 0 590 450" xml:space="preserve">
<g id="Layer_1">
</g>
<g id="Layer_2">
	<rect fill="#FFFFFF" width="590" height="450"/>
	<g>
		<path fill="none" stroke="#000000" stroke-linecap="round" stroke-linejoin="round" stroke-miterlimit="10" d="M379.167,259.322
			H215.149c-0.985,0-1.79-0.808-1.79-1.79V148.646c0-0.983,0.805-1.79,1.79-1.79h164.018c0.984,0,1.79,0.807,1.79,1.79v108.887
			C380.957,258.515,380.151,259.322,379.167,259.322z"/>
		<path fill="#D8D8D8" d="M346.622,233.068l-47.083-87.134c-2.34-4.331-7.796-5.96-12.126-3.619l-73.995,39.982l-3.045-5.617
			c-1.386-2.555-4.611-3.511-7.167-2.123l-29.842,16.186c-2.556,1.388-3.512,4.615-2.126,7.17l3.013,5.549l-2.314,1.251
			c-4.331,2.339-5.96,7.8-3.619,12.128l47.081,87.135c2.34,4.331,7.799,5.957,12.129,3.618l115.477-62.398
			C347.333,242.856,348.962,237.399,346.622,233.068"/>
		<path fill="none" stroke="#000000" stroke-width="2" stroke-linecap="round" stroke-linejoin="round" stroke-miterlimit="10" d="
			M346.622,233.068l-47.083-87.134c-2.34-4.331-7.796-5.96-12.126-3.619l-73.995,39.982l-3.045-5.617
			c-1.386-2.555-4.611-3.511-7.167-2.123l-29.842,16.186c-2.556,1.388-3.512,4.615-2.126,7.17l3.013,5.549l-2.314,1.251
			c-4.331,2.339-5.96,7.8-3.619,12.128l47.081,87.135c2.34,4.331,7.799,5.957,12.129,3.618l115.477-62.398
			C347.333,242.856,348.962,237.399,346.622,233.068z"/>
		<path fill="#FFFFFF" d="M421.901,179.001l-29.848,78.832c-0.808,2.133-3.213,3.216-5.345,2.408l-46.525-17.615
			c-2.13-0.808-3.218-3.213-2.41-5.345l29.852-78.833c0.808-2.133,3.212-3.217,5.345-2.408l46.523,17.615
			C421.624,174.467,422.708,176.868,421.901,179.001"/>
		<path fill="none" stroke="#000000" stroke-width="2" stroke-linecap="round" stroke-linejoin="round" stroke-miterlimit="10" d="
			M421.901,179.001l-29.848,78.832c-0.808,2.133-3.213,3.216-5.345,2.408l-46.525-17.615c-2.13-0.808-3.218-3.213-2.41-5.345
			l29.852-78.833c0.808-2.133,3.212-3.217,5.345-2.408l46.523,17.615C421.624,174.467,422.708,176.868,421.901,179.001z"/>
		<path fill="#FFFFFF" d="M313.413,283.116L313.413,283.116h-75.817c-20.763,0-37.596-15.781-37.596-35.246
			c0-17.105,13.007-31.359,30.255-34.561c-0.622-2.091-0.98-4.286-0.98-6.562c0-13.512,11.684-24.461,26.096-24.461
			c6.347,0,12.162,2.127,16.686,5.66c7.147-16.655,25.074-28.472,46.077-28.472c27.28,0,49.396,19.931,49.396,44.518
			c0,1.416-0.081,2.81-0.224,4.188c17.17,4.489,29.785,19.224,29.785,36.752c0,21.088-18.234,38.184-40.734,38.184h-10.13H313.413z"
			/>
		<path fill="#0090FF" d="M309.156,276.851L309.156,276.851h-70.33c-19.26,0-34.875-14.641-34.875-32.693
			c0-15.872,12.066-29.091,28.066-32.061c-0.576-1.941-0.907-3.976-0.907-6.087c0-12.532,10.835-22.693,24.205-22.693
			c5.889,0,11.281,1.974,15.479,5.252c6.63-15.448,23.26-26.411,42.741-26.411c25.305,0,45.821,18.49,45.821,41.298
			c0,1.311-0.075,2.605-0.208,3.888c15.929,4.159,27.63,17.828,27.63,34.088c0,19.56-16.917,35.42-37.784,35.42h-9.398H309.156z"/>
		<path fill="none" stroke="#231F20" stroke-width="2" stroke-linecap="round" stroke-linejoin="round" stroke-miterlimit="10" d="
			M313.413,283.116L313.413,283.116h-75.817c-20.763,0-37.596-15.781-37.596-35.246c0-17.105,13.007-31.359,30.255-34.561
			c-0.622-2.091-0.98-4.286-0.98-6.562c0-13.512,11.684-24.461,26.096-24.461c6.347,0,12.162,2.127,16.686,5.66
			c7.147-16.655,25.074-28.472,46.077-28.472c27.28,0,49.396,19.931,49.396,44.518c0,1.416-0.081,2.81-0.224,4.188
			c17.17,4.489,29.785,19.224,29.785,36.752c0,21.088-18.234,38.184-40.734,38.184h-10.13H313.413z"/>
		
			<circle fill="none" stroke="#000000" stroke-width="2" stroke-linecap="round" stroke-linejoin="round" stroke-miterlimit="10" cx="391.301" cy="178.293" r="3.667"/>
		<path fill="none" stroke="#FFFFFF" stroke-width="3" stroke-miterlimit="10" d="M329.717,243.108
			c-1.244,2.048-2.798,3.891-4.597,5.457"/>
		<path fill="none" stroke="#FFFFFF" stroke-width="3" stroke-miterlimit="10" stroke-dasharray="7.365,3.682,7.365,3.682" d="
			M319.6,252.128c-2.922,1.339-6.17,2.087-9.594,2.087c-9.318,0-17.347-5.534-20.976-13.497"/>
		
			<path fill="none" stroke="#FFFFFF" stroke-width="3" stroke-miterlimit="10" stroke-dasharray="7.365,3.682,7.365,3.682,7.365,3.682" d="
			M287.881,237.623c-0.594-2.045-0.912-4.209-0.912-6.446c0-12.722,10.313-23.036,23.035-23.036c4.653,0,8.981,1.379,12.603,3.749"
			/>
		<path fill="none" stroke="#FFFFFF" stroke-width="3" stroke-miterlimit="10" d="M325.236,213.896
			c1.787,1.578,3.33,3.428,4.559,5.486"/>
		<polygon fill="#FFFFFF" points="337.506,244.513 320.834,244.482 329.197,230.059 		"/>
		<polygon fill="none" stroke="#FFFFFF" stroke-linecap="round" stroke-linejoin="round" stroke-miterlimit="10" points="
			337.506,244.513 320.834,244.482 329.197,230.059 		"/>
	</g>
</g>
</svg>
