<?xml version="1.0" encoding="utf-8"?>
<!-- Generator: Adobe Illustrator 16.0.0, SVG Export Plug-In . SVG Version: 6.00 Build 0)  -->
<!DOCTYPE svg PUBLIC "-//W3C//DTD SVG 1.1//EN" "http://www.w3.org/Graphics/SVG/1.1/DTD/svg11.dtd">
<svg version="1.1" xmlns="http://www.w3.org/2000/svg" xmlns:xlink="http://www.w3.org/1999/xlink" x="0px" y="0px" width="590px"
	 height="450px" viewBox="0 0 590 450" enable-background="new 0 0 590 450" xml:space="preserve">
<g id="Layer_1">
</g>
<g id="Layer_2">
	<rect fill="#FFFFFF" width="590" height="450"/>
	<g>
		<polygon fill="#FFFFFF" points="169.76,128.479 163.255,134.948 163.255,263.074 169.76,272.19 344.436,272.19 344.436,141.603 		
			"/>
		<polygon fill="none" stroke="#000000" stroke-miterlimit="10" points="169.76,128.479 163.255,134.948 163.255,263.074 
			169.76,272.19 344.436,272.19 344.436,141.603 		"/>
		<polygon fill="#FFFFFF" points="337.622,259.236 180.362,259.236 180.362,138.756 337.622,149.76 		"/>
		<polygon fill="none" stroke="#000000" stroke-width="2" stroke-miterlimit="10" points="337.622,259.236 180.362,259.236 
			180.362,138.756 337.622,149.76 		"/>
		<path fill="#D8D8D8" d="M292.842,293.414c0,3.684-16.001,6.668-35.742,6.668c-19.743,0-35.747-2.984-35.747-6.668
			c0-3.685,16.004-6.673,35.747-6.673C276.84,286.741,292.842,289.726,292.842,293.414"/>
		<ellipse fill="none" stroke="#000000" stroke-miterlimit="10" cx="257.098" cy="293.412" rx="35.744" ry="6.67"/>
		<polygon fill="#D8D8D8" points="273.978,291.793 257.1,291.793 240.984,291.793 240.984,272.19 273.978,272.19 		"/>
		<polygon fill="none" stroke="#000000" stroke-miterlimit="10" points="273.978,291.793 257.1,291.793 240.984,291.793 
			240.984,272.19 273.978,272.19 		"/>
		<line fill="none" stroke="#000000" stroke-miterlimit="10" x1="169.76" y1="128.479" x2="169.76" y2="272.19"/>
		<path fill="none" stroke="#000000" stroke-width="3" stroke-linecap="round" stroke-linejoin="round" stroke-miterlimit="10" d="
			M425.959,300.082c-0.739-21.208-22.908-12.746-22.908-12.746l-33.304,12.746"/>
		<path fill="#D8D8D8" d="M303.322,318.515l-25.619-1.76c-4.324-0.297-7.675-3.815-7.675-8.06V291.93
			c0-4.242,3.351-7.764,7.675-8.061l25.619-1.759c4.771-0.329,8.831,3.374,8.831,8.06v20.288
			C312.155,315.139,308.097,318.843,303.322,318.515"/>
		<path fill="none" stroke="#000000" stroke-width="2" stroke-miterlimit="10" d="M303.322,318.515l-25.619-1.76
			c-4.324-0.297-7.675-3.815-7.675-8.06V291.93c0-4.242,3.351-7.764,7.675-8.061l25.619-1.759c4.771-0.329,8.831,3.374,8.831,8.06
			v20.288C312.155,315.139,308.097,318.843,303.322,318.515z"/>
		<path fill="#D8D8D8" d="M362.087,321.178l-30.336-1.751c-5.227-0.298-9.298-4.299-9.298-9.132v-20.423
			c0-4.836,4.072-8.834,9.298-9.135l30.336-1.752c5.71-0.327,10.537,3.858,10.537,9.136v23.922
			C372.624,317.323,367.798,321.507,362.087,321.178"/>
		<path fill="none" stroke="#000000" stroke-width="2" stroke-miterlimit="10" d="M362.087,321.178l-30.336-1.751
			c-5.227-0.298-9.298-4.299-9.298-9.132v-20.423c0-4.836,4.072-8.834,9.298-9.135l30.336-1.752
			c5.71-0.327,10.537,3.858,10.537,9.136v23.922C372.624,317.323,367.798,321.507,362.087,321.178z"/>
		
			<line fill="none" stroke="#000000" stroke-width="3" stroke-miterlimit="10" x1="322.451" y1="300.314" x2="312.155" y2="300.082"/>
		<path fill="#FFFFFF" d="M299.215,318.324l-21.109-1.705c-3.564-0.286-6.326-3.695-6.326-7.801v-16.236
			c0-4.108,2.762-7.516,6.326-7.806l21.109-1.7c3.934-0.317,7.276,3.267,7.276,7.801v19.643
			C306.492,315.055,303.149,318.642,299.215,318.324"/>
		<path fill="none" stroke="#000000" stroke-width="2" stroke-miterlimit="10" d="M299.215,318.324l-21.109-1.705
			c-3.564-0.286-6.326-3.695-6.326-7.801v-16.236c0-4.108,2.762-7.516,6.326-7.806l21.109-1.7c3.934-0.317,7.276,3.267,7.276,7.801
			v19.643C306.492,315.055,303.149,318.642,299.215,318.324z"/>
		<path fill="#FFFFFF" d="M356.062,319.338l-24.352-1.732c-4.109-0.294-7.294-3.762-7.294-7.94v-18.276
			c0-4.18,3.185-7.647,7.294-7.941l24.352,0.02c4.537-0.325,8.396,3.324,8.396,7.943v19.986
			C364.459,316.018,360.601,319.662,356.062,319.338"/>
		<path fill="none" stroke="#000000" stroke-width="2" stroke-miterlimit="10" d="M356.062,319.338l-24.352-1.732
			c-4.109-0.294-7.294-3.762-7.294-7.94v-18.276c0-4.18,3.185-7.647,7.294-7.941l24.352,0.02c4.537-0.325,8.396,3.324,8.396,7.943
			v19.986C364.459,316.018,360.601,319.662,356.062,319.338z"/>
		
			<line fill="none" stroke="#D8D8D8" stroke-width="2" stroke-miterlimit="10" x1="358.05" y1="306.144" x2="352.332" y2="310.787"/>
		
			<line fill="none" stroke="#D8D8D8" stroke-width="2" stroke-miterlimit="10" x1="356.865" y1="299.928" x2="343.987" y2="310.787"/>
		<polygon fill="#0090FF" points="336.656,256.928 188.916,256.928 188.916,143.744 336.656,154.082 		"/>
		
			<ellipse fill="none" stroke="#FFFFFF" stroke-width="4" stroke-miterlimit="10" cx="245.211" cy="180.383" rx="16.434" ry="16.088"/>
		<path fill="none" stroke="#FFFFFF" stroke-width="3" stroke-miterlimit="10" d="M290.644,193.094
			c7.896,0,14.297,6.264,14.297,13.996c0,7.728-6.401,13.994-14.297,13.994s-14.295-6.267-14.295-13.994
			C276.349,199.357,282.748,193.094,290.644,193.094z"/>
		
			<line fill="none" stroke="#FFFFFF" stroke-width="3" stroke-miterlimit="10" x1="246.944" y1="228.197" x2="243.355" y2="203.626"/>
		
			<line fill="none" stroke="#FFFFFF" stroke-width="3" stroke-miterlimit="10" x1="261.645" y1="185.025" x2="280.225" y2="197.515"/>
		<path fill="none" stroke="#FFFFFF" stroke-width="2" stroke-miterlimit="10" d="M251.739,226.717c4.628,0,8.382,3.672,8.382,8.207
			c0,4.53-3.753,8.203-8.382,8.203c-4.63,0-8.384-3.673-8.384-8.203C243.355,230.389,247.108,226.717,251.739,226.717z"/>
		
			<line fill="none" stroke="#FFFFFF" stroke-width="3" stroke-miterlimit="10" x1="265.157" y1="228.197" x2="280.223" y2="217.725"/>
	</g>
</g>
</svg>
