<?xml version="1.0" encoding="utf-8"?>
<!-- Generator: Adobe Illustrator 16.0.0, SVG Export Plug-In . SVG Version: 6.00 Build 0)  -->
<!DOCTYPE svg PUBLIC "-//W3C//DTD SVG 1.1//EN" "http://www.w3.org/Graphics/SVG/1.1/DTD/svg11.dtd">
<svg version="1.1" xmlns="http://www.w3.org/2000/svg" xmlns:xlink="http://www.w3.org/1999/xlink" x="0px" y="0px" width="590px"
	 height="450px" viewBox="0 0 590 450" enable-background="new 0 0 590 450" xml:space="preserve">
<g id="Layer_1">
</g>
<g id="Layer_2">
	<g>
		<rect fill="#FFFFFF" width="590" height="450"/>
		<g>
			
				<rect x="201.016" y="192.57" fill="none" stroke="#000000" stroke-width="3" stroke-miterlimit="10" width="90.325" height="97.692"/>
			
				<line fill="none" stroke="#000000" stroke-width="2" stroke-miterlimit="10" x1="201.016" y1="208.203" x2="291.341" y2="208.203"/>
			<path fill="#0090FF" d="M266.337,249.207c0,14.098-11.427,25.527-25.522,25.527c-14.099,0-25.525-11.43-25.525-25.527
				c0-14.094,11.427-25.523,25.525-25.523C254.91,223.684,266.337,235.113,266.337,249.207"/>
			<circle fill="none" stroke="#000000" stroke-width="2" stroke-miterlimit="10" cx="246.178" cy="247.458" r="25.214"/>
			<path fill="none" stroke="#000000" stroke-width="2" stroke-miterlimit="10" d="M394.126,310.639H242.555
				c-0.959,0-1.74-0.787-1.74-1.742v-27.361c0-0.959,0.781-1.742,1.74-1.742h151.571c0.959,0,1.742,0.783,1.742,1.742v27.361
				C395.868,309.852,395.085,310.639,394.126,310.639z"/>
			<path fill="#D8D8D8" d="M416.71,319.002H219.221c-0.957,0-1.74-0.785-1.74-1.742v-35.725c0-0.959,0.783-1.742,1.74-1.742H416.71
				c0.955,0,1.74,0.783,1.74,1.742v35.727C418.45,318.219,417.665,319.002,416.71,319.002"/>
			<path fill="none" stroke="#000000" stroke-width="3" stroke-miterlimit="10" d="M416.71,319.002H219.221
				c-0.957,0-1.74-0.785-1.74-1.742v-35.725c0-0.959,0.783-1.742,1.74-1.742H416.71c0.955,0,1.74,0.783,1.74,1.742v35.727
				C418.45,318.219,417.665,319.002,416.71,319.002z"/>
			<path fill="#FFFFFF" d="M394.126,310.639H242.555c-0.959,0-1.74-0.787-1.74-1.742v-27.361c0-0.959,0.781-1.742,1.74-1.742
				h151.571c0.959,0,1.742,0.783,1.742,1.742v27.361C395.868,309.852,395.085,310.639,394.126,310.639"/>
			<path fill="none" stroke="#000000" stroke-width="2" stroke-miterlimit="10" d="M394.126,310.639H242.555
				c-0.959,0-1.74-0.787-1.74-1.742v-27.361c0-0.959,0.781-1.742,1.74-1.742h151.571c0.959,0,1.742,0.783,1.742,1.742v27.361
				C395.868,309.852,395.085,310.639,394.126,310.639z"/>
			<path fill="none" stroke="#000000" stroke-width="3" stroke-miterlimit="10" d="M407.862,292.572
				c2.055,0,3.719,0.912,3.719,2.041c0,1.127-1.664,2.043-3.719,2.043c-2.051,0-3.715-0.916-3.715-2.043
				C404.147,293.484,405.812,292.572,407.862,292.572z"/>
			<path fill="none" stroke="#000000" stroke-miterlimit="10" d="M204.73,172.189c-5.446-2.799-12.194-2.699-17.714,0.854
				c-5.521,3.557-8.405,9.658-8.113,15.775"/>
			<path fill="none" stroke="#000000" stroke-miterlimit="10" d="M203.065,180.541c-3.348-1.719-7.493-1.658-10.885,0.525
				c-3.391,2.184-5.162,5.932-4.984,9.689"/>
			<path fill="none" stroke="#000000" stroke-miterlimit="10" d="M208.812,162.567c-8.545-2.909-18.287-2.047-26.467,3.217
				c-8.183,5.268-12.998,13.778-13.889,22.764"/>
			<path fill="none" stroke="#000000" stroke-width="2" stroke-linejoin="round" stroke-miterlimit="10" d="M368.161,252.814
				l-13.766-3.104c-17.699-3.99-28.919-21.732-24.93-39.434l12.212-54.172c3.987-17.701,21.731-28.922,39.435-24.933l13.76,3.107
				c17.701,3.987,28.92,21.73,24.932,39.433l-12.209,54.168C403.603,245.582,385.858,256.801,368.161,252.814z"/>
			
				<ellipse transform="matrix(0.2198 -0.9755 0.9755 0.2198 108.5871 520.2096)" fill="none" stroke="#000000" stroke-width="2" stroke-linejoin="round" stroke-miterlimit="10" cx="379.525" cy="192.217" rx="50.839" ry="14.774"/>
			<path fill="#FFFFFF" d="M382.675,179.027l-6.336,28.125c-1.307,5.785-5.523,10.176-10.754,11.983
				c-2.807,0.998-5.951,1.24-9.057,0.541l-27.381-6.17c-1.422-0.322-2.738-0.821-3.948-1.467
				c-6.551-3.344-10.258-10.873-8.573-18.34l6.338-28.128c1.492-6.623,6.863-11.459,13.177-12.652
				c2.131-0.402,4.368-0.374,6.631,0.137l27.384,6.17c2.748,0.615,5.178,1.881,7.197,3.625
				C381.808,166.741,384.062,172.886,382.675,179.027"/>
			<path fill="none" stroke="#000000" stroke-width="2" stroke-linejoin="round" stroke-miterlimit="10" d="M382.675,179.027
				l-6.336,28.125c-1.307,5.785-5.523,10.176-10.754,11.983c-2.807,0.998-5.951,1.24-9.057,0.541l-27.381-6.17
				c-1.422-0.322-2.738-0.821-3.948-1.467c-6.551-3.344-10.258-10.873-8.573-18.34l6.338-28.128
				c1.492-6.623,6.863-11.459,13.177-12.652c2.131-0.402,4.368-0.374,6.631,0.137l27.384,6.17c2.748,0.615,5.178,1.881,7.197,3.625
				C381.808,166.741,384.062,172.886,382.675,179.027z"/>
			
				<line fill="none" stroke="#000000" stroke-width="2" stroke-linejoin="round" stroke-miterlimit="10" x1="368.358" y1="241.816" x2="377.345" y2="252.627"/>
			<path fill="none" stroke="#231F20" stroke-miterlimit="10" d="M361.239,210.322l-32.479-7.316
				c-3.217-0.725-5.257-3.951-4.529-7.168l6.439-28.579c0.724-3.221,3.948-5.26,7.169-4.532l32.478,7.318
				c3.223,0.725,5.258,3.953,4.533,7.17l-6.438,28.578C367.687,209.011,364.46,211.05,361.239,210.322z"/>
			<path fill="#0090FF" d="M361.116,209.345l-26.3-5.928c-3.218-0.727-5.258-3.951-4.53-7.17l5.166-22.945
				c0.726-3.215,3.951-5.255,7.172-4.529l26.299,5.924c3.217,0.727,5.264,3.955,4.535,7.17l-5.172,22.945
				C367.562,208.031,364.337,210.07,361.116,209.345"/>
		</g>
	</g>
</g>
</svg>
