<?xml version="1.0" encoding="utf-8"?>
<!-- Generator: Adobe Illustrator 16.0.0, SVG Export Plug-In . SVG Version: 6.00 Build 0)  -->
<!DOCTYPE svg PUBLIC "-//W3C//DTD SVG 1.1//EN" "http://www.w3.org/Graphics/SVG/1.1/DTD/svg11.dtd">
<svg version="1.1" xmlns="http://www.w3.org/2000/svg" xmlns:xlink="http://www.w3.org/1999/xlink" x="0px" y="0px" width="590px"
	 height="450px" viewBox="0 0 590 450" enable-background="new 0 0 590 450" xml:space="preserve">
<g id="Layer_1">
</g>
<g id="Layer_2">
	<rect fill="#FFFFFF" width="590" height="450"/>
	<g>
		<path fill="none" stroke="#000000" stroke-miterlimit="10" d="M378.238,289.973H185.854c-5.336,0-9.662-4.325-9.662-9.663V149.758
			c0-5.336,4.326-9.661,9.662-9.661h192.384c5.335,0,9.663,4.325,9.663,9.661V280.31
			C387.901,285.647,383.574,289.973,378.238,289.973z"/>
		<path fill="none" stroke="#000000" stroke-width="2" stroke-miterlimit="10" d="M392.124,300.728H170.516
			c-3.173,0-5.747-2.577-5.747-5.749V135.094c0-3.174,2.574-5.749,5.747-5.749h221.606c3.176,0,5.751,2.575,5.751,5.749v159.885
			C397.873,298.15,395.298,300.728,392.124,300.728z"/>
		<path fill="#D8D8D8" d="M405.386,320.889h-50.234c-10.868,0-19.675-8.81-19.675-19.676V190.69
			c0-10.868,8.808-19.676,19.675-19.676h50.234c10.868,0,19.676,8.808,19.676,19.676v110.522
			C425.062,312.081,416.254,320.889,405.386,320.889"/>
		<path fill="none" stroke="#000000" stroke-width="2" stroke-miterlimit="10" d="M405.386,320.889h-50.234
			c-10.868,0-19.675-8.81-19.675-19.676V190.69c0-10.868,8.808-19.676,19.675-19.676h50.234c10.868,0,19.676,8.808,19.676,19.676
			v110.522C425.062,312.081,416.254,320.889,405.386,320.889z"/>
		<polygon fill="#0090FF" points="305.732,193.169 278.552,203.347 251.37,193.169 278.552,182.993 		"/>
		<polygon fill="#0090FF" points="310.611,236.203 280.523,248.313 280.523,210.101 310.611,197.99 		"/>
		<polygon fill="#0090FF" points="274.469,248.313 249.182,239.731 247.299,197.992 274.469,210.029 		"/>
		<path fill="#FFFFFF" d="M409.924,298.039h-58.438c-3.151,0-5.705-2.554-5.705-5.705v-99.809c0-3.153,2.554-5.707,5.705-5.707
			h58.438c3.151,0,5.705,2.554,5.705,5.707v99.807C415.629,295.485,413.075,298.039,409.924,298.039"/>
		<path fill="none" stroke="#000000" stroke-miterlimit="10" d="M409.924,298.039h-58.438c-3.151,0-5.705-2.554-5.705-5.705v-99.809
			c0-3.153,2.554-5.707,5.705-5.707h58.438c3.151,0,5.705,2.554,5.705,5.707v99.807
			C415.629,295.485,413.075,298.039,409.924,298.039z"/>
		<polygon fill="#0090FF" points="395.671,226.248 380.503,231.928 365.339,226.248 380.503,220.57 		"/>
		<polygon fill="#0090FF" points="400.113,251.979 383.328,258.738 383.328,237.418 400.113,230.66 		"/>
		<polygon fill="#0090FF" points="378.229,258.738 364.121,253.948 363.072,230.66 378.229,237.377 		"/>
		
			<line fill="none" stroke="#000000" stroke-width="2" stroke-miterlimit="10" x1="188.379" y1="265.159" x2="202.152" y2="265.159"/>
		
			<line fill="none" stroke="#000000" stroke-width="2" stroke-miterlimit="10" x1="188.379" y1="273.203" x2="210.514" y2="273.203"/>
	</g>
</g>
</svg>
