<?xml version="1.0" encoding="utf-8"?>
<!-- Generator: Adobe Illustrator 16.0.0, SVG Export Plug-In . SVG Version: 6.00 Build 0)  -->
<!DOCTYPE svg PUBLIC "-//W3C//DTD SVG 1.1//EN" "http://www.w3.org/Graphics/SVG/1.1/DTD/svg11.dtd">
<svg version="1.1" xmlns="http://www.w3.org/2000/svg" xmlns:xlink="http://www.w3.org/1999/xlink" x="0px" y="0px" width="590px"
	 height="450px" viewBox="0 0 590 450" enable-background="new 0 0 590 450" xml:space="preserve">
<g id="Layer_1">
</g>
<g id="Layer_2">
	<rect fill="#FFFFFF" width="590" height="450"/>
	<g>
		<path fill="none" stroke="#000000" stroke-miterlimit="10" d="M236.911,234.735c0-1.185,0.021-2.362,0.06-3.532"/>
		<path fill="none" stroke="#000000" stroke-miterlimit="10" stroke-dasharray="3.562,1.781,3.562,1.781" d="M237.122,228.065
			c0.382-5.941,1.269-11.66,2.591-17.052"/>
		<path fill="none" stroke="#000000" stroke-miterlimit="10" d="M317.67,196.878c0.474,1.063,0.926,2.151,1.359,3.26"/>
		<path fill="none" stroke="#000000" stroke-miterlimit="10" d="M182.158,241.211c0-1.181,0.023-2.354,0.064-3.524"/>
		<path fill="none" stroke="#000000" stroke-miterlimit="10" stroke-dasharray="3.979,1.99,3.979,1.99" d="M182.41,234.183
			c0.468-6.527,1.581-12.874,3.274-18.981"/>
		<path fill="none" stroke="#000000" stroke-miterlimit="10" stroke-dasharray="3.979,1.99,3.979,1.99,3.979,1.99" d="
			M186.17,213.517c11.918-40.08,49.041-69.309,92.994-69.309c33.521,0,63.07,17.001,80.494,42.854"/>
		<path fill="none" stroke="#000000" stroke-miterlimit="10" d="M360.638,188.542c0.638,0.986,1.259,1.982,1.861,2.995"/>
		<path fill="#FFFFFF" d="M419.162,260.394l-5.406-16.465c7.429-8.063,11.816-17.941,11.816-28.624
			c0-27.146-28.238-49.146-63.071-49.146c-34.832,0-63.069,22.001-63.069,49.146c0,27.143,28.239,49.146,63.069,49.146
			c11.919,0,23.061-2.579,32.567-7.054L419.162,260.394z"/>
		<path fill="none" stroke="#231F20" stroke-width="2" stroke-miterlimit="10" d="M419.162,260.394l-5.406-16.465
			c7.429-8.063,11.816-17.941,11.816-28.624c0-27.146-28.238-49.146-63.071-49.146c-34.832,0-63.069,22.001-63.069,49.146
			c0,27.143,28.239,49.146,63.069,49.146c11.919,0,23.061-2.579,32.567-7.054L419.162,260.394z"/>
		<path fill="#0090FF" d="M411.41,213.294c0,24.921-23.939,45.122-53.47,45.122c-29.531,0-53.47-20.201-53.47-45.122
			c0-24.92,23.939-45.119,53.47-45.119C387.471,168.175,411.41,188.374,411.41,213.294"/>
		
			<rect x="220.475" y="198.177" transform="matrix(-0.9845 -0.1754 0.1754 -0.9845 538.166 539.5671)" fill="#D8D8D8" width="144.903" height="95.65"/>
		
			<rect x="220.475" y="198.177" transform="matrix(-0.9845 -0.1754 0.1754 -0.9845 538.166 539.5671)" fill="none" stroke="#000000" stroke-miterlimit="10" width="144.903" height="95.65"/>
		<rect x="220.482" y="200.953" fill="#FFFFFF" width="144.9" height="95.651"/>
		
			<rect x="220.482" y="200.953" fill="none" stroke="#000000" stroke-width="2" stroke-miterlimit="10" width="144.9" height="95.651"/>
		<path fill="#D8D8D8" d="M264.676,229.638c0,7.774-6.301,14.077-14.074,14.077c-7.773,0-14.075-6.303-14.075-14.077
			c0-7.772,6.302-14.071,14.075-14.071C258.375,215.566,264.676,221.865,264.676,229.638"/>
		<circle fill="none" stroke="#000000" stroke-width="2" stroke-miterlimit="10" cx="250.602" cy="229.638" r="14.077"/>
		<line fill="none" stroke="#231F20" stroke-miterlimit="10" x1="277.971" y1="222.916" x2="343.037" y2="222.916"/>
		<line fill="none" stroke="#231F20" stroke-miterlimit="10" x1="277.971" y1="233.531" x2="343.037" y2="233.531"/>
		<line fill="none" stroke="#231F20" stroke-miterlimit="10" x1="240.129" y1="258.911" x2="343.038" y2="258.911"/>
		<line fill="none" stroke="#231F20" stroke-miterlimit="10" x1="240.129" y1="269.525" x2="343.038" y2="269.525"/>
		<path fill="#231F20" d="M255.387,227.56c0,2.876-2.333,5.212-5.212,5.212c-2.881,0-5.215-2.336-5.215-5.212
			c0-2.881,2.334-5.213,5.215-5.213C253.054,222.347,255.387,224.679,255.387,227.56"/>
		<path fill="#231F20" d="M253.542,244.719h-5.883c-2.806,0-5.105-2.298-5.105-5.105c0-2.806,2.3-5.102,5.105-5.102h5.883
			c2.808,0,5.104,2.296,5.104,5.102C258.646,242.421,256.35,244.719,253.542,244.719"/>
		<polygon fill="#FFFFFF" points="195.248,254.746 199.667,256.318 220.347,227.368 229.152,232.186 229.844,241.365 
			217.623,263.708 228.114,269.451 222.557,279.607 207.15,301.533 178.288,285.74 		"/>
		<polygon fill="none" stroke="#000000" stroke-width="2" stroke-miterlimit="10" points="195.248,254.746 199.667,256.318 
			220.347,227.368 229.152,232.186 229.844,241.365 217.623,263.708 228.114,269.451 222.557,279.607 207.15,301.533 
			178.288,285.74 		"/>
		
			<rect x="172.291" y="246.559" transform="matrix(-0.8773 -0.4799 0.4799 -0.8773 206.0633 581.1185)" fill="#0090FF" width="10.034" height="35.325"/>
		
			<rect x="172.291" y="246.559" transform="matrix(-0.8773 -0.4799 0.4799 -0.8773 206.0633 581.1185)" fill="none" stroke="#000000" stroke-miterlimit="10" width="10.034" height="35.325"/>
	</g>
</g>
</svg>
