<?xml version="1.0" encoding="utf-8"?>
<!-- Generator: Adobe Illustrator 16.0.0, SVG Export Plug-In . SVG Version: 6.00 Build 0)  -->
<!DOCTYPE svg PUBLIC "-//W3C//DTD SVG 1.1//EN" "http://www.w3.org/Graphics/SVG/1.1/DTD/svg11.dtd">
<svg version="1.1" id="Isolation_Mode" xmlns="http://www.w3.org/2000/svg" xmlns:xlink="http://www.w3.org/1999/xlink" x="0px"
	 y="0px" width="82.075px" height="80.977px" viewBox="0 0 82.075 80.977" enable-background="new 0 0 82.075 80.977"
	 xml:space="preserve">
<path fill="none" stroke="#FCFDFE" stroke-miterlimit="10" d="M70.533,3.139l-4.218,4.706c-6.828-5.086-15.432-7.866-24.591-7.264
	C31.499,1.253,22.509,6.007,16.247,13.149l9.214,8.082c4.194-4.785,10.215-7.973,17.066-8.423
	c5.735-0.377,11.141,1.229,15.557,4.221l-4.518,5.041l18.949,0.177c0.157,0.001,0.279-0.136,0.261-0.293L70.533,3.139z"/>
<path fill="none" stroke="#FCFDFE" stroke-miterlimit="10" d="M62.517,80.11l-2.176-5.934c7.696-3.642,14.188-9.935,17.955-18.306
	c4.187-9.302,4.227-19.423,0.904-28.276c-0.025-0.064-0.099-0.099-0.164-0.073l-11.227,4.254c-0.064,0.023-0.095,0.095-0.072,0.159
	c2.213,5.922,2.185,12.687-0.615,18.907c-2.359,5.241-6.314,9.261-11.028,11.756l-2.332-6.355l-8.98,16.524
	c-0.111,0.204-0.017,0.461,0.2,0.545L62.517,80.11z"/>
<path fill="none" stroke="#FCFDFE" stroke-miterlimit="10" d="M1.182,35.054l6.199,1.229c-0.894,8.467,1.102,17.284,6.29,24.857
	c5.659,8.262,14.072,13.521,23.165,15.383c0.349,0.072,0.69-0.161,0.756-0.513l2.02-10.793c0.064-0.342-0.159-0.666-0.499-0.739
	c-6.02-1.28-11.58-4.786-15.333-10.264c-3.248-4.741-4.623-10.21-4.301-15.534l6.641,1.316l-9.146-15.762
	c-0.272-0.47-0.895-0.594-1.325-0.264L1.182,35.054z"/>
<circle fill="none" stroke="#FCFDFE" stroke-miterlimit="10" cx="45.434" cy="39.383" r="8.436"/>
</svg>
