<?xml version="1.0" encoding="utf-8"?>
<!-- Generator: Adobe Illustrator 16.0.0, SVG Export Plug-In . SVG Version: 6.00 Build 0)  -->
<!DOCTYPE svg PUBLIC "-//W3C//DTD SVG 1.1//EN" "http://www.w3.org/Graphics/SVG/1.1/DTD/svg11.dtd">
<svg version="1.1" id="Isolation_Mode" xmlns="http://www.w3.org/2000/svg" xmlns:xlink="http://www.w3.org/1999/xlink" x="0px"
	 y="0px" width="85.116px" height="83.52px" viewBox="0 0 85.116 83.52" enable-background="new 0 0 85.116 83.52"
	 xml:space="preserve">
<path fill="none" stroke="#FCFDFE" stroke-miterlimit="10" d="M23.492,28.983c0,3.065-1.807,6.567-4.873,6.567
	c-3.065,0-4.873-3.502-4.873-6.567c0-3.066,1.808-4.534,4.873-4.534C21.685,24.449,23.492,25.917,23.492,28.983z"/>
<path fill="none" stroke="#FCFDFE" stroke-linecap="round" stroke-linejoin="round" stroke-miterlimit="10" d="M28.314,41.996
	c-0.226,0.986-0.532,2.305-0.67,2.891c-0.041,0.186-0.201,0.311-0.385,0.311c0,0-3.85,0.416-6.603,0.606
	c-0.817,0.057-1.541,0.094-2.035,0.094c-2.171,0-8.641-0.7-8.641-0.7c-0.185,0-0.345-0.125-0.386-0.311
	c-0.137-0.586-0.438-1.904-0.67-2.891c-0.548-2.374,2.305-4.416,5.143-4.416h2.709c0.141,0,0.269,0.078,0.344,0.2l1.156,1.653
	c0.154,0.264,0.533,0.264,0.686,0l0.614-0.871c0.25-0.362,0.548-0.691,0.877-0.982h2.718c2.149,0,4.304,1.165,4.986,2.762
	c0.119,0.271,0.195,0.555,0.213,0.846C28.395,41.451,28.38,41.724,28.314,41.996z"/>
<circle fill="none" stroke="#FCFDFE" stroke-linecap="round" stroke-linejoin="round" stroke-miterlimit="10" cx="18.524" cy="36.281" r="18.024"/>
<path fill="none" stroke="#FCFDFE" stroke-miterlimit="10" d="M71.559,11.226c0,3.066-1.807,6.568-4.873,6.568
	c-3.065,0-4.873-3.502-4.873-6.568c0-3.065,1.808-4.534,4.873-4.534C69.752,6.691,71.559,8.16,71.559,11.226z"/>
<path fill="none" stroke="#FCFDFE" stroke-linecap="round" stroke-linejoin="round" stroke-miterlimit="10" d="M76.381,24.238
	c-0.227,0.987-0.532,2.305-0.671,2.891c-0.041,0.186-0.2,0.311-0.385,0.311c0,0-3.85,0.416-6.603,0.606
	c-0.817,0.058-1.541,0.095-2.035,0.095c-2.171,0-8.641-0.701-8.641-0.701c-0.186,0-0.346-0.125-0.387-0.311
	c-0.138-0.586-0.438-1.903-0.67-2.891c-0.548-2.374,2.306-4.416,5.144-4.416h2.709c0.141,0,0.269,0.078,0.344,0.2l1.156,1.654
	c0.153,0.263,0.532,0.263,0.686,0l0.614-0.871c0.25-0.363,0.548-0.692,0.877-0.983h2.718c2.149,0,4.304,1.165,4.986,2.762
	c0.119,0.271,0.194,0.556,0.213,0.847C76.462,23.693,76.447,23.967,76.381,24.238z"/>
<circle fill="none" stroke="#FCFDFE" stroke-linecap="round" stroke-linejoin="round" stroke-miterlimit="10" cx="66.591" cy="18.523" r="18.024"/>
<path fill="none" stroke="#FCFDFE" stroke-miterlimit="10" d="M63.392,57.697c0,3.066-1.808,6.568-4.873,6.568
	s-4.873-3.502-4.873-6.568c0-3.065,1.808-4.534,4.873-4.534S63.392,54.632,63.392,57.697z"/>
<path fill="none" stroke="#FCFDFE" stroke-linecap="round" stroke-linejoin="round" stroke-miterlimit="10" d="M68.213,70.71
	c-0.226,0.987-0.532,2.305-0.67,2.891c-0.041,0.186-0.201,0.311-0.385,0.311c0,0-3.851,0.416-6.604,0.606
	c-0.816,0.058-1.541,0.095-2.035,0.095c-2.171,0-8.641-0.701-8.641-0.701c-0.185,0-0.345-0.125-0.386-0.311
	c-0.139-0.586-0.438-1.903-0.67-2.891c-0.549-2.374,2.305-4.416,5.143-4.416h2.709c0.141,0,0.27,0.078,0.344,0.2l1.156,1.654
	c0.154,0.263,0.533,0.263,0.687,0l0.613-0.871c0.25-0.363,0.548-0.692,0.877-0.983h2.719c2.148,0,4.304,1.165,4.985,2.762
	c0.119,0.271,0.195,0.556,0.213,0.847C68.294,70.165,68.28,70.438,68.213,70.71z"/>
<circle fill="none" stroke="#FCFDFE" stroke-linecap="round" stroke-linejoin="round" stroke-miterlimit="10" cx="58.424" cy="64.995" r="18.025"/>
<line fill="none" stroke="#FCFDFE" stroke-miterlimit="10" stroke-dasharray="2,1,2,1,2,1" x1="48.567" y1="18.523" x2="34.946" y2="28.853"/>
<line fill="none" stroke="#FCFDFE" stroke-miterlimit="10" stroke-dasharray="2,1,2,1,2,1" x1="66.591" y1="36.548" x2="63.391" y2="48.119"/>
<line fill="none" stroke="#FCFDFE" stroke-miterlimit="10" stroke-dasharray="2,1,2,1,2,1" x1="41.146" y1="59.863" x2="31.378" y2="48.912"/>
</svg>
