<?xml version="1.0" encoding="utf-8"?>
<!-- Generator: Adobe Illustrator 16.0.0, SVG Export Plug-In . SVG Version: 6.00 Build 0)  -->
<!DOCTYPE svg PUBLIC "-//W3C//DTD SVG 1.1//EN" "http://www.w3.org/Graphics/SVG/1.1/DTD/svg11.dtd">
<svg version="1.1" id="Isolation_Mode" xmlns="http://www.w3.org/2000/svg" xmlns:xlink="http://www.w3.org/1999/xlink" x="0px"
	 y="0px" width="98.524px" height="75.21px" viewBox="0 0 98.524 75.21" enable-background="new 0 0 98.524 75.21"
	 xml:space="preserve">
<path fill="none" stroke="#FCFDFE" stroke-linejoin="round" stroke-miterlimit="10" d="M61.201,33.248V28.05
	c0-0.904-0.695-1.655-1.596-1.725l-4.473-0.347c-0.75-0.058-1.355-0.598-1.55-1.323c-0.544-2.041-1.361-3.973-2.407-5.753
	c-0.373-0.636-0.328-1.43,0.151-1.987l2.923-3.395c0.593-0.687,0.553-1.716-0.092-2.355L50.45,7.48
	c-0.638-0.633-1.655-0.673-2.34-0.091l-3.432,2.917c-0.564,0.479-1.362,0.524-2.001,0.153c-1.795-1.041-3.74-1.854-5.797-2.395
	c-0.728-0.19-1.27-0.798-1.329-1.548l-0.347-4.423C35.133,1.195,34.382,0.5,33.479,0.5h-5.257c-0.903,0-1.654,0.695-1.725,1.595
	L26.15,6.518c-0.058,0.75-0.601,1.357-1.329,1.548c-2.057,0.541-4.002,1.354-5.796,2.395c-0.64,0.371-1.438,0.326-2.002-0.153
	L13.591,7.39c-0.685-0.582-1.702-0.542-2.339,0.091l-3.709,3.685c-0.644,0.64-0.684,1.669-0.092,2.355l2.923,3.395
	c0.48,0.558,0.525,1.352,0.153,1.987c-1.047,1.78-1.864,3.712-2.409,5.753c-0.194,0.726-0.8,1.266-1.549,1.323l-4.472,0.347
	C1.196,26.395,0.5,27.146,0.5,28.05v5.198c0,0.904,0.696,1.655,1.597,1.725l4.472,0.347c0.749,0.058,1.355,0.598,1.549,1.324
	c0.545,2.041,1.362,3.972,2.409,5.753c0.372,0.635,0.327,1.429-0.153,1.986l-2.923,3.395c-0.592,0.688-0.552,1.716,0.092,2.355
	l3.709,3.684c0.637,0.635,1.654,0.674,2.339,0.092l3.432-2.917c0.564-0.479,1.362-0.524,2.002-0.153
	c1.794,1.041,3.739,1.853,5.796,2.394c0.728,0.192,1.271,0.799,1.329,1.55l0.347,4.422c0.071,0.899,0.822,1.595,1.725,1.595h5.257
	c0.903,0,1.654-0.695,1.725-1.595l0.347-4.423c0.059-0.75,0.601-1.357,1.329-1.549c2.057-0.541,4.002-1.353,5.797-2.394
	c0.639-0.371,1.437-0.326,2.001,0.153l3.432,2.917c0.685,0.582,1.702,0.543,2.34-0.092l3.708-3.684
	c0.645-0.64,0.685-1.668,0.092-2.355l-2.923-3.395c-0.479-0.558-0.524-1.352-0.151-1.986c1.046-1.781,1.862-3.712,2.407-5.753
	c0.194-0.727,0.8-1.267,1.55-1.324l4.473-0.347C60.505,34.903,61.201,34.152,61.201,33.248z"/>
<circle fill="none" stroke="#FCFDFE" stroke-linejoin="round" stroke-miterlimit="10" cx="31.476" cy="30.648" r="10.237"/>
<path fill="none" stroke="#FCFDFE" stroke-linejoin="round" stroke-miterlimit="10" d="M94.913,64.998l1.232-2.162
	c0.518-0.905,0.249-2.057-0.614-2.642l-1.767-1.197c-0.676-0.458-1.013-1.285-0.824-2.08c0.295-1.234,0.445-2.487,0.462-3.734
	c0.01-0.825,0.543-1.551,1.32-1.828l1.975-0.701c0.986-0.351,1.534-1.406,1.255-2.415l-0.671-2.42c-0.277-1-1.274-1.621-2.294-1.429
	l-2.105,0.396c-0.803,0.151-1.622-0.197-2.049-0.893c-0.66-1.074-1.441-2.083-2.338-3.005c-0.571-0.587-0.704-1.474-0.355-2.214
	l0.894-1.896c0.442-0.943,0.087-2.069-0.818-2.586l-2.201-1.255c-0.904-0.517-2.055-0.249-2.641,0.613l-1.178,1.733
	c-0.46,0.678-1.29,1.014-2.086,0.821c-1.25-0.302-2.518-0.461-3.777-0.482c-0.816-0.013-1.533-0.541-1.813-1.308l-0.73-2.014
	c-0.354-0.977-1.396-1.518-2.398-1.247l-2.424,0.654c-1.011,0.273-1.64,1.282-1.438,2.311l0.4,2.056
	c0.158,0.811-0.194,1.639-0.899,2.068c-1.066,0.647-2.067,1.416-2.98,2.298c-0.588,0.568-1.471,0.698-2.21,0.35l-1.93-0.911
	c-0.943-0.444-2.07-0.09-2.587,0.816l-1.232,2.162c-0.517,0.906-0.249,2.057,0.614,2.642l1.766,1.197
	c0.677,0.459,1.015,1.286,0.825,2.08c-0.295,1.236-0.446,2.488-0.461,3.735c-0.011,0.825-0.544,1.551-1.321,1.828l-1.974,0.701
	c-0.987,0.352-1.536,1.405-1.256,2.415l0.671,2.419c0.276,1,1.273,1.621,2.294,1.43l2.105-0.396c0.803-0.15,1.621,0.198,2.049,0.894
	c0.659,1.073,1.44,2.084,2.338,3.005c0.57,0.587,0.705,1.473,0.355,2.214l-0.893,1.896c-0.444,0.943-0.088,2.069,0.816,2.585
	l2.201,1.256c0.906,0.516,2.057,0.25,2.642-0.613l1.178-1.734c0.46-0.678,1.29-1.014,2.087-0.82c1.25,0.303,2.516,0.461,3.776,0.481
	c0.815,0.014,1.533,0.541,1.812,1.309l0.731,2.015c0.354,0.975,1.396,1.517,2.397,1.246l2.424-0.654
	c1.013-0.274,1.641-1.282,1.439-2.311l-0.401-2.057c-0.158-0.81,0.196-1.638,0.901-2.066c1.064-0.648,2.065-1.416,2.979-2.299
	c0.588-0.567,1.473-0.698,2.211-0.35l1.93,0.911C93.268,66.261,94.395,65.904,94.913,64.998z"/>
<circle fill="none" stroke="#FCFDFE" stroke-linejoin="round" stroke-miterlimit="10" cx="76.517" cy="53.075" r="7.537"/>
</svg>
