<?xml version="1.0" encoding="utf-8"?>
<!-- Generator: Adobe Illustrator 16.0.0, SVG Export Plug-In . SVG Version: 6.00 Build 0)  -->
<!DOCTYPE svg PUBLIC "-//W3C//DTD SVG 1.1//EN" "http://www.w3.org/Graphics/SVG/1.1/DTD/svg11.dtd">
<svg version="1.1" id="Isolation_Mode" xmlns="http://www.w3.org/2000/svg" xmlns:xlink="http://www.w3.org/1999/xlink" x="0px"
	 y="0px" width="89.147px" height="99.457px" viewBox="0 0 89.147 99.457" enable-background="new 0 0 89.147 99.457"
	 xml:space="preserve">
<circle fill="none" stroke="#FCFDFE" stroke-miterlimit="10" cx="43.381" cy="52.86" r="42"/>
<circle fill="none" stroke="#FCFDFE" stroke-linejoin="round" stroke-miterlimit="10" cx="35.791" cy="44.039" r="3.583"/>
<circle fill="none" stroke="#FCFDFE" stroke-linejoin="round" stroke-miterlimit="10" cx="49.375" cy="23.792" r="3.583"/>
<circle fill="none" stroke="#FCFDFE" stroke-linejoin="round" stroke-miterlimit="10" cx="63.585" cy="66.051" r="3.583"/>
<path fill="none" stroke="#FCFDFE" stroke-linejoin="round" stroke-miterlimit="10" stroke-dasharray="2,1,2,1,2,1" d="
	M35.792,43.967c0-17.213,13.954-31.167,31.167-31.167s26.651,22.338,19.009,37.762"/>
<path fill="none" stroke="#FCFDFE" stroke-linejoin="round" stroke-miterlimit="10" stroke-dasharray="2,1,2,1,2,1" d="
	M49.375,25.076c0-17.213,21.892-37.504,24.766-13.765c3.6,29.729-8.377,50.917-11,56.25"/>
<path fill="none" stroke="#FCFDFE" stroke-linejoin="round" stroke-miterlimit="10" stroke-dasharray="2,1,2,1,2,1" d="
	M76.169,79.106C75.276,135.104-15.13,58.693,2.87,21.167c7.444-15.52,16-19.25,32.921-9.618"/>
<path fill="none" stroke="#FCFDFE" stroke-linejoin="round" stroke-miterlimit="10" d="M30.735,12.8c0,0-26.865,45.284-2.532,44.95
	c24.333-0.333,26.286-22.603,35.383-19.213c9.097,3.39,18.751,30.025,18.751,30.025"/>
<path fill="none" stroke="#FCFDFE" stroke-linejoin="round" stroke-miterlimit="10" d="M78.11,76.484c0,0-5.907-9.967-6.574-14.017
	c-0.666-4.05-12.333-9.416-15.666-8.066c-3.334,1.35-11,18.484-8,22.083c3,3.6,2.302,17.825,2.302,17.825"/>
<path fill="#FCFDFE" d="M37.134,44.153c0,0.828-0.672,1.5-1.5,1.5c-0.828,0-1.5-0.672-1.5-1.5s0.672-1.5,1.5-1.5
	C36.462,42.653,37.134,43.325,37.134,44.153"/>
<path fill="#FCFDFE" d="M50.875,23.792c0,0.828-0.672,1.5-1.5,1.5c-0.828,0-1.5-0.672-1.5-1.5c0-0.827,0.672-1.5,1.5-1.5
	C50.203,22.292,50.875,22.965,50.875,23.792"/>
<path fill="#FCFDFE" d="M65.085,66.051c0,0.828-0.672,1.5-1.5,1.5c-0.828,0-1.5-0.672-1.5-1.5s0.672-1.5,1.5-1.5
	C64.414,64.551,65.085,65.223,65.085,66.051"/>
</svg>
