<?xml version="1.0" encoding="utf-8"?>
<!-- Generator: Adobe Illustrator 16.0.0, SVG Export Plug-In . SVG Version: 6.00 Build 0)  -->
<!DOCTYPE svg PUBLIC "-//W3C//DTD SVG 1.1//EN" "http://www.w3.org/Graphics/SVG/1.1/DTD/svg11.dtd">
<svg version="1.1" id="Isolation_Mode" xmlns="http://www.w3.org/2000/svg" xmlns:xlink="http://www.w3.org/1999/xlink" x="0px"
	 y="0px" width="45.137px" height="88.321px" viewBox="0 0 45.137 88.321" enable-background="new 0 0 45.137 88.321"
	 xml:space="preserve">
<path fill="none" stroke="#FCFDFE" stroke-miterlimit="10" d="M19.314,82.155l-4.08,1.84l-8.62-8.71l6.42-33.801l0.141,0.46
	c0.04,0.15,0.109,0.28,0.18,0.4l5.12,39.33L19.314,82.155z"/>
<path fill="none" stroke="#FCFDFE" stroke-miterlimit="10" d="M38.515,79.825l-9.38,7.89l-9.82-5.56l-0.84-0.48l-5.12-39.33
	c0.41,0.65,1.271,0.9,1.99,0.51l2.51-1.34c0.56-0.3,1.34-0.14,1.74,0.351l1.79,2.21c0.609,0.75,1.75,0.75,2.359,0l1.79-2.2
	c0.37-0.46,1.091-0.601,1.601-0.32l2.49,1.36c0.649,0.35,1.43,0.18,1.88-0.34c0.14-0.15,0.25-0.341,0.31-0.561l0.82-2.71
	c0.08-0.28,0.31-0.32,0.55-0.49L38.515,79.825z"/>
<path fill="none" stroke="#FCFDFE" stroke-miterlimit="10" d="M44.074,23.745c0.75-0.61,0.75-1.75,0-2.36l-2.199-1.79
	c-0.461-0.37-0.601-1.09-0.32-1.6l1.359-2.49c0.461-0.85,0.03-1.91-0.89-2.19l-2.72-0.819c-0.61-0.181-1.05-0.851-0.99-1.48
	l0.29-2.82c0.1-0.96-0.71-1.77-1.66-1.67l-2.83,0.29c-0.58,0.061-1.189-0.35-1.35-0.909l-0.8-2.721c-0.28-0.93-1.33-1.37-2.181-0.91
	l-2.51,1.341c-0.55,0.3-1.34,0.14-1.74-0.351l-1.79-2.21c-0.609-0.74-1.75-0.74-2.359,0l-1.79,2.21
	c-0.37,0.45-1.09,0.59-1.601,0.311l-2.489-1.36c-0.851-0.46-1.91-0.03-2.181,0.9l-0.83,2.72c-0.18,0.6-0.85,1.04-1.479,0.979
	l-2.82-0.29c-0.96-0.1-1.77,0.71-1.67,1.67l0.29,2.82c0.061,0.58-0.35,1.19-0.91,1.351l-2.72,0.81c-0.93,0.27-1.37,1.32-0.91,2.17
	l1.34,2.51c0.3,0.561,0.141,1.34-0.35,1.74l-2.21,1.79c-0.74,0.61-0.74,1.75,0,2.36l2.21,1.79c0.45,0.37,0.59,1.09,0.31,1.6
	l-1.359,2.49c-0.46,0.85-0.03,1.91,0.899,2.189l2.721,0.82c0.6,0.18,1.05,0.85,0.979,1.48l-0.29,2.819
	c-0.1,0.96,0.71,1.771,1.67,1.67l2.82-0.29c0.58-0.06,1.189,0.351,1.36,0.91l0.659,2.26l0.141,0.46c0.04,0.15,0.109,0.28,0.18,0.4
	c0.41,0.65,1.271,0.9,1.99,0.51l2.51-1.34c0.56-0.3,1.34-0.14,1.74,0.351l1.79,2.21c0.609,0.75,1.75,0.75,2.359,0l1.79-2.2
	c0.37-0.46,1.091-0.601,1.601-0.32l2.49,1.36c0.649,0.35,1.43,0.18,1.88-0.34c0.14-0.15,0.25-0.341,0.31-0.561l0.82-2.71
	c0.08-0.28,0.279-0.54,0.52-0.71c0.28-0.2,0.63-0.31,0.96-0.28l2.83,0.29c0.95,0.101,1.76-0.71,1.66-1.67l-0.29-2.819
	c-0.06-0.58,0.35-1.19,0.91-1.351l2.72-0.81c0.931-0.271,1.37-1.32,0.92-2.17l-1.35-2.511c-0.29-0.55-0.14-1.34,0.35-1.739
	L44.074,23.745z M29.215,33.795c-1,0.6-2.101,1.06-3.25,1.37c-1.08,0.3-2.221,0.45-3.4,0.45c-0.34,0-0.67-0.011-1-0.04
	c-2.59-0.19-4.96-1.141-6.9-2.631c-3.13-2.369-5.149-6.14-5.149-10.38c0-7.21,5.84-13.05,13.05-13.05s13.05,5.84,13.05,13.05
	C35.614,27.345,33.045,31.524,29.215,33.795z"/>
<circle fill="none" stroke="#FCFDFE" stroke-miterlimit="10" cx="22.572" cy="22.616" r="10.179"/>
</svg>
