<?xml version="1.0" encoding="utf-8"?>
<!-- Generator: Adobe Illustrator 16.0.0, SVG Export Plug-In . SVG Version: 6.00 Build 0)  -->
<!DOCTYPE svg PUBLIC "-//W3C//DTD SVG 1.1//EN" "http://www.w3.org/Graphics/SVG/1.1/DTD/svg11.dtd">
<svg version="1.1" xmlns="http://www.w3.org/2000/svg" xmlns:xlink="http://www.w3.org/1999/xlink" x="0px" y="0px" width="28px"
	 height="28px" viewBox="0 0 28 28" enable-background="new 0 0 28 28" xml:space="preserve">
<g id="Layer_1">
	<g id="Layer_1_1_" display="none">
	</g>
	<g id="Layer_2">
		<circle fill="none" stroke="#696969" stroke-width="1.8" stroke-miterlimit="10" cx="14.022" cy="14.031" r="13.076"/>
	</g>
	<g id="art" display="none">
		<g display="inline">
			<path fill="#696969" d="M20.521,7.291c-0.037-0.071-0.108-0.115-0.188-0.116c-0.079-0.001-0.153,0.041-0.192,0.111
				c-0.231,0.413-0.574,0.58-0.975,0.773c-0.32,0.155-0.652,0.316-0.998,0.625c-0.486,0.438-0.671,0.983-0.497,1.46l-0.012,0.018
				c-0.255-0.296-0.528-0.566-0.812-0.803c-1.322-1.106-3.063-1.669-4.772-1.542C12,7.823,11.923,7.831,11.848,7.839
				c-1.902,0.209-3.63,1.26-4.74,2.883c-1.104,1.614-1.454,3.597-0.961,5.438c0.042,0.154,0.089,0.311,0.142,0.459
				c0.694,2.01,2.062,3.445,3.751,3.939c0.417,0.121,0.828,0.162,1.223,0.118c0.978-0.108,1.775-0.727,2.187-1.694
				c0.157-0.367,0.243-0.741,0.256-1.108c0.008-0.217-0.037-0.427-0.08-0.631c-0.045-0.211-0.086-0.409-0.077-0.614
				c0.023-0.472,0.316-0.783,0.784-0.836c0.134-0.016,0.272-0.007,0.413,0.021c-0.127,0.309-0.242,0.604-0.339,0.875
				c-0.207,0.578-0.342,1.052-0.4,1.41c-0.036,0.221-0.133,0.807,0.283,1.029c0.131,0.071,0.291,0.085,0.449,0.036
				c0.143-0.042,0.577-0.173,1.681-1.747c0.296-0.421,0.611-0.907,0.938-1.443c0.941-0.438,1.613-1.341,1.711-2.306
				c0.023-0.24,0.019-0.495-0.02-0.756c0.303-0.606,0.565-1.17,0.828-1.773c0.004-0.012,0.008-0.024,0.014-0.037
				c0.457-0.18,0.819-0.589,1.002-1.126C21.154,9.195,21.023,8.24,20.521,7.291z M15.621,11.4c-0.139,0.288-0.413,0.481-0.732,0.516
				c-0.174,0.019-0.349-0.011-0.506-0.087c-0.223-0.109-0.39-0.296-0.471-0.531c-0.081-0.234-0.066-0.485,0.042-0.707
				c0.141-0.289,0.415-0.482,0.733-0.517c0.174-0.02,0.349,0.011,0.506,0.088c0.224,0.108,0.391,0.297,0.47,0.531
				C15.745,10.926,15.729,11.178,15.621,11.4z M17.001,12.938c0.392-0.738,0.808-1.474,1.209-2.132
				c0.084,0.06,0.175,0.118,0.274,0.172c0.164,0.088,0.332,0.153,0.5,0.191c-0.319,0.719-0.672,1.435-1.104,2.249
				c-0.707,1.338-1.459,2.589-2.113,3.529c-0.369,0.521-0.694,0.932-0.951,1.189c0.07-0.359,0.226-0.861,0.455-1.462
				C15.678,15.604,16.292,14.277,17.001,12.938z M8.824,13.831C8.65,13.85,8.476,13.82,8.318,13.743
				c-0.222-0.108-0.39-0.296-0.47-0.531c-0.082-0.234-0.066-0.485,0.042-0.708c0.14-0.288,0.414-0.481,0.732-0.516
				C8.796,11.97,8.971,12,9.128,12.077c0.46,0.223,0.652,0.778,0.429,1.238C9.417,13.604,9.142,13.796,8.824,13.831z M8.081,15.966
				c0.14-0.288,0.414-0.479,0.733-0.516c0.173-0.021,0.348,0.011,0.506,0.088c0.223,0.106,0.39,0.297,0.471,0.53
				s0.065,0.484-0.042,0.707c-0.14,0.289-0.414,0.48-0.733,0.517c-0.173,0.021-0.348-0.011-0.505-0.088
				c-0.223-0.106-0.391-0.297-0.471-0.53C7.958,16.439,7.973,16.188,8.081,15.966z M10.43,10.17c0.14-0.288,0.414-0.481,0.733-0.517
				c0.173-0.019,0.348,0.012,0.506,0.088c0.459,0.223,0.651,0.779,0.428,1.238c-0.14,0.288-0.414,0.481-0.732,0.516
				c-0.174,0.019-0.349-0.011-0.506-0.087c-0.223-0.108-0.39-0.296-0.47-0.531C10.306,10.644,10.322,10.393,10.43,10.17z"/>
		</g>
	</g>
	<g id="Layer_4" display="none">
		<g display="inline">
			<g>
				<rect x="7.813" y="11.138" fill="#696969" width="1.559" height="6.141"/>
				<rect x="11.361" y="11.138" fill="#696969" width="1.559" height="6.141"/>
				<rect x="14.909" y="11.138" fill="#696969" width="1.558" height="6.141"/>
				<rect x="18.455" y="11.138" fill="#696969" width="1.561" height="6.141"/>
				<path fill="#696969" d="M20.646,9.011h-0.147V8.986c0-0.119-0.074-0.225-0.187-0.266l-6.306-2.359
					c-0.064-0.024-0.135-0.024-0.199,0l-6.307,2.36c-0.11,0.04-0.183,0.147-0.183,0.265v0.026h-0.15
					c-0.157,0-0.284,0.127-0.284,0.283v0.938c0,0.156,0.127,0.284,0.284,0.284h13.479c0.158,0,0.285-0.127,0.285-0.284V9.295
					C20.934,9.139,20.805,9.011,20.646,9.011z"/>
				<path fill="#696969" d="M20.646,17.951H7.168c-0.157,0-0.284,0.127-0.284,0.283v1.277c0,0.156,0.127,0.283,0.284,0.283h13.479
					c0.158,0,0.285-0.127,0.285-0.283v-1.277C20.934,18.078,20.805,17.951,20.646,17.951z"/>
			</g>
		</g>
	</g>
	<g id="Layer_5" display="none">
		<g display="inline">
			<g>
				<path fill="#6A6A6A" d="M21.174,10.584c-0.248,0-0.449,0-0.449,0v2.2h0.449c0.247,0,0.448-0.219,0.448-0.488v-1.223
					C21.622,10.803,21.421,10.584,21.174,10.584z"/>
				<path fill="#6A6A6A" d="M20.005,19.494c0.271,0,0.489-0.219,0.489-0.488v-3.531V9.878c0-0.271-0.219-0.489-0.489-0.489h-0.478
					v-0.49h0.255V8.736h-0.835v0.163h0.255v0.489H15.82h-0.271H8.168c-0.27,0-0.489,0.219-0.489,0.489v0.896v1.387v1.032
					c0,0.27,0.219,0.489,0.489,0.489h1.146v1.29h0.132v0.502H6.91c-0.27,0-0.489,0.219-0.489,0.489v3.043
					c0,0.271,0.219,0.488,0.489,0.488L20.005,19.494L20.005,19.494z M19.624,12.784v0.883h-2.322v-0.883H19.624z M19.217,10.387
					c0.157,0,0.286,0.128,0.286,0.285c0,0.157-0.129,0.286-0.286,0.286c-0.156,0-0.285-0.129-0.285-0.286
					C18.932,10.515,19.061,10.387,19.217,10.387z M19.217,11.589c0.157,0,0.286,0.128,0.286,0.285s-0.129,0.286-0.286,0.286
					c-0.156,0-0.285-0.129-0.285-0.286S19.061,11.589,19.217,11.589z M18.32,10.387c0.158,0,0.285,0.128,0.285,0.285
					c0,0.157-0.127,0.286-0.285,0.286c-0.157,0-0.284-0.129-0.284-0.286C18.036,10.515,18.163,10.387,18.32,10.387z M18.32,11.589
					c0.158,0,0.285,0.128,0.285,0.285s-0.127,0.286-0.285,0.286c-0.157,0-0.284-0.129-0.284-0.286S18.163,11.589,18.32,11.589z
					 M17.424,10.387c0.157,0,0.286,0.128,0.286,0.285c0,0.157-0.129,0.286-0.286,0.286c-0.156,0-0.285-0.129-0.285-0.286
					C17.139,10.515,17.268,10.387,17.424,10.387z M17.424,11.589c0.157,0,0.286,0.128,0.286,0.285s-0.129,0.286-0.286,0.286
					c-0.156,0-0.285-0.129-0.285-0.286S17.268,11.589,17.424,11.589z M9.61,14.973h0.132v-0.47h0.469V14.38H9.742v-0.699h1.624
					c0.27,0,0.489-0.219,0.489-0.488V12.16h2.554c0.631,0,1.141,0.512,1.141,1.142v1.685c0,0.271-0.219,0.488-0.487,0.488H9.61
					V14.973z"/>
			</g>
		</g>
	</g>
	<g id="Layer_6" display="none">
		<g display="inline">
			<g>
				<path fill="#696969" d="M10.085,11.735c-0.243-0.011-0.554,0.013-0.934,0.071c-0.379,0.058-0.746,0.19-1.099,0.396
					c-0.354,0.206-0.66,0.511-0.918,0.918c-0.258,0.406-0.388,0.956-0.388,1.653c0,0.537,0.08,0.987,0.237,1.352
					c0.159,0.363,0.374,0.654,0.648,0.871c0.275,0.216,0.591,0.363,0.949,0.441c0.359,0.08,0.739,0.104,1.14,0.071
					c0.338-0.03,0.654-0.1,0.949-0.204c0.295-0.106,0.591-0.275,0.886-0.508c0.105,0.221,0.231,0.4,0.38,0.538
					c0.147,0.138,0.327,0.205,0.538,0.205c0.105,0,0.219-0.031,0.34-0.095c0.122-0.063,0.235-0.147,0.34-0.254
					c0.105-0.105,0.187-0.219,0.246-0.34c0.058-0.121,0.081-0.24,0.071-0.355l-0.016-0.031c-0.085-0.38-0.143-0.704-0.175-0.973
					c-0.031-0.27-0.047-0.563-0.047-0.878c0-0.2,0-0.416,0-0.648c0-0.243,0.005-0.47,0.016-0.681
					c0.01-0.137,0.016-0.269,0.016-0.395c0-0.137,0-0.264,0-0.38v-0.126c0-0.158-0.002-0.355-0.007-0.594
					c-0.006-0.237-0.04-0.482-0.104-0.735c-0.063-0.253-0.161-0.5-0.292-0.744c-0.132-0.242-0.319-0.458-0.561-0.648
					c-0.243-0.19-0.551-0.341-0.926-0.451s-0.831-0.15-1.368-0.118C9.636,9.115,9.288,9.17,8.962,9.26
					C8.635,9.348,8.34,9.47,8.077,9.623c-0.264,0.153-0.486,0.332-0.665,0.538c-0.18,0.206-0.296,0.435-0.348,0.688
					c0.01,0.148,0.026,0.231,0.047,0.253c0.053,0.116,0.116,0.243,0.189,0.379c0.075,0.137,0.175,0.206,0.301,0.206h0.015
					c0.064,0.011,0.153,0.013,0.27,0.008c0.116-0.005,0.211-0.029,0.285-0.071c0.042-0.021,0.083-0.05,0.126-0.087
					c0.042-0.037,0.083-0.071,0.126-0.104c0.126-0.105,0.297-0.221,0.514-0.348C9.155,10.96,9.5,10.88,9.975,10.849
					c0.295-0.011,0.535,0.016,0.72,0.079c0.184,0.063,0.327,0.15,0.427,0.262c0.101,0.11,0.168,0.234,0.205,0.371
					s0.056,0.269,0.056,0.396c-0.148-0.053-0.325-0.098-0.53-0.134C10.647,11.785,10.391,11.756,10.085,11.735z M11.367,13.808
					c0.021,0.053,0.036,0.119,0.047,0.198c0.01,0.079,0.016,0.167,0.016,0.261c0,0.168-0.021,0.35-0.063,0.545
					s-0.132,0.383-0.27,0.562c-0.18,0.137-0.382,0.253-0.609,0.347c-0.227,0.096-0.487,0.145-0.783,0.145
					c-0.379,0-0.677-0.104-0.894-0.309c-0.217-0.207-0.324-0.482-0.324-0.832c0-0.357,0.163-0.671,0.491-0.94
					c0.327-0.268,0.754-0.403,1.281-0.403c0.222,0,0.424,0.042,0.609,0.127C11.053,13.592,11.219,13.691,11.367,13.808z"/>
				<path fill="#696969" d="M14.216,13.658c0.063,0.043,0.124,0.072,0.18,0.088c0.047,0.058,0.108,0.096,0.181,0.115
					c0.073,0.02,0.149,0.024,0.228,0.014c0.077-0.011,0.154-0.036,0.232-0.075c0.076-0.038,0.137-0.088,0.184-0.149
					c0.113,0.234,0.271,0.425,0.475,0.576c0.201,0.149,0.455,0.292,0.759,0.429c0.389,0.174,0.782,0.26,1.187,0.257
					c0.402-0.001,0.785-0.078,1.151-0.229c0.362-0.151,0.696-0.374,0.997-0.667s0.543-0.643,0.723-1.046l0.133-0.296
					c0.186-0.411,0.282-0.815,0.293-1.213c0.008-0.397-0.056-0.768-0.188-1.11c-0.134-0.343-0.334-0.645-0.601-0.906
					c-0.268-0.261-0.582-0.455-0.944-0.582c-0.254-0.086-0.505-0.128-0.752-0.125c-0.248,0.003-0.457,0.021-0.628,0.055
					c0.033-0.096,0.07-0.188,0.111-0.279c0.041-0.091,0.084-0.186,0.129-0.285l0.348-0.775C18.475,7.317,18.549,7.166,18.637,7
					s0.163-0.299,0.227-0.398c0.035-0.057,0.076-0.121,0.127-0.189c0.011-0.068-0.004-0.144-0.043-0.226
					c-0.041-0.082-0.086-0.142-0.133-0.182c-0.068-0.067-0.166-0.129-0.287-0.183c-0.12-0.054-0.252-0.087-0.395-0.095
					c-0.143-0.009-0.285,0.019-0.428,0.082c-0.145,0.064-0.264,0.183-0.359,0.359c-0.06,0.092-0.152,0.261-0.273,0.507
					c-0.125,0.245-0.266,0.532-0.42,0.858c-0.156,0.328-0.322,0.681-0.496,1.06c-0.176,0.378-0.344,0.75-0.508,1.114
					c-0.067,0.153-0.154,0.335-0.26,0.549c-0.104,0.213-0.218,0.434-0.339,0.663c-0.134,0.259-0.266,0.517-0.396,0.774
					c-0.129,0.257-0.237,0.484-0.326,0.683c-0.041,0.091-0.075,0.169-0.1,0.237c-0.025,0.065-0.047,0.131-0.067,0.195
					c-0.083,0.164-0.128,0.302-0.137,0.411c-0.008,0.11,0.006,0.202,0.042,0.273C14.103,13.559,14.152,13.616,14.216,13.658z
					 M16.652,11.279l0.031-0.069c0.077-0.174,0.162-0.333,0.254-0.475s0.189-0.281,0.295-0.416c0.257-0.122,0.506-0.205,0.748-0.247
					c0.242-0.042,0.475-0.014,0.695,0.085c0.243,0.109,0.438,0.279,0.585,0.51c0.148,0.23,0.179,0.517,0.087,0.861
					c0.014,0.033,0.016,0.084,0.008,0.153c-0.01,0.069-0.025,0.146-0.049,0.231c-0.024,0.086-0.059,0.174-0.099,0.264
					c-0.041,0.092-0.079,0.175-0.112,0.251c-0.217,0.441-0.513,0.75-0.888,0.924c-0.375,0.174-0.757,0.175-1.146,0.001
					c-0.196-0.089-0.349-0.223-0.455-0.403c-0.105-0.181-0.203-0.364-0.295-0.55l-0.006-0.017
					C16.363,12.036,16.479,11.667,16.652,11.279z"/>
				<path fill="#696969" d="M18.291,16.893c-0.348,0.096-0.677,0.25-0.99,0.465c-0.313,0.217-0.58,0.486-0.807,0.813
					c-0.227,0.324-0.385,0.661-0.475,1.008c-0.09,0.348-0.112,0.688-0.065,1.021c0.046,0.334,0.16,0.648,0.343,0.943
					c0.182,0.295,0.436,0.547,0.766,0.758c0.203,0.132,0.428,0.229,0.668,0.293c0.244,0.063,0.479,0.093,0.707,0.086
					c0.229-0.008,0.434-0.055,0.611-0.143c0.18-0.087,0.309-0.217,0.389-0.388c0.045-0.095,0.059-0.199,0.041-0.313
					c-0.017-0.117-0.072-0.213-0.172-0.289c-0.052-0.039-0.104-0.063-0.156-0.073c-0.055-0.009-0.135-0.011-0.242,0
					c-0.188,0.011-0.383,0.005-0.585-0.019c-0.204-0.025-0.371-0.08-0.503-0.162c-0.164-0.121-0.291-0.262-0.379-0.422
					c-0.088-0.162-0.139-0.335-0.149-0.521c-0.015-0.186,0.015-0.379,0.081-0.576c0.066-0.198,0.175-0.393,0.322-0.584
					c0.125-0.16,0.273-0.307,0.447-0.438c0.17-0.131,0.346-0.229,0.521-0.295c0.178-0.066,0.35-0.1,0.518-0.1
					c0.166,0.001,0.313,0.05,0.439,0.148c0.115,0.09,0.189,0.205,0.225,0.344c0.036,0.14,0.057,0.289,0.061,0.451
					c-0.045,0.095-0.041,0.188,0.013,0.287c0.054,0.098,0.114,0.174,0.185,0.229c0.024,0.018,0.074,0.034,0.153,0.05
					c0.081,0.017,0.171,0.023,0.271,0.022c0.099-0.004,0.195-0.018,0.291-0.045c0.098-0.025,0.177-0.074,0.24-0.146
					c0.111-0.115,0.176-0.27,0.189-0.456c0.018-0.188-0.01-0.384-0.083-0.589c-0.073-0.204-0.183-0.404-0.333-0.6
					c-0.148-0.195-0.331-0.363-0.547-0.504c-0.288-0.188-0.605-0.303-0.951-0.34C18.988,16.77,18.639,16.798,18.291,16.893z"/>
			</g>
		</g>
	</g>
	<g id="Layer_7" display="none">
		<g display="inline">
			<g>
				<g>
					<path fill="#696969" d="M15.864,6.162c-0.505-0.506-1.324-0.507-1.832-0.005C13.525,5.655,12.706,5.655,12.2,6.16
						c-0.507,0.506-0.507,1.328-0.001,1.835c0.024,0.025,1.227,1.222,1.67,1.664c0.089,0.089,0.233,0.089,0.322,0
						c0.444-0.44,1.646-1.637,1.67-1.662C16.372,7.49,16.372,6.668,15.864,6.162z"/>
				</g>
				<g>
					<g>
						<path fill="#696969" d="M22.244,15.37l-2.398-5.205c-0.14-0.301-0.494-0.433-0.797-0.294
							c-0.072,0.034-0.193,0.131-0.193,0.131c-0.008,0.445-0.371,0.804-0.818,0.803c-0.446,0-0.811-0.359-0.818-0.804h-0.005
							c-0.028-0.031-0.063-0.06-0.099-0.083c-0.275-0.186-0.649-0.114-0.832,0.162l-2.23,3.31l-2.229-3.318
							c-0.11-0.166-0.289-0.257-0.473-0.264V9.806L7.413,9.804v0.003C7.1,9.782,6.82,9.999,6.771,10.313l-0.803,5.205
							c-0.051,0.326,0.174,0.635,0.502,0.686c0.031,0.006,0.062,0.007,0.092,0.007c0.292,0,0.547-0.212,0.593-0.508l0.408-2.649
							l-0.004,8.563c0,0.331,0.269,0.601,0.6,0.601c0.333,0,0.601-0.269,0.601-0.6l0.002-4.807l1.201,0.002l-0.002,4.806
							c0,0.331,0.269,0.6,0.601,0.6s0.6-0.269,0.601-0.6l0.005-10.368l2.35,3.496c0.045,0.085,0.111,0.162,0.197,0.22
							c0.103,0.069,0.219,0.103,0.335,0.103c0.193,0,0.383-0.094,0.499-0.266l2.008-2.981l-1.324,5.026
							c-0.049,0.184-0.01,0.377,0.105,0.525c0.115,0.146,0.29,0.234,0.479,0.234h0.781l-0.002,4.004
							c0,0.332,0.266,0.603,0.598,0.603s0.603-0.271,0.603-0.603l0.002-4.002h0.401l-0.002,4.004c0,0.33,0.268,0.601,0.599,0.602
							c0.332,0,0.603-0.271,0.603-0.601l0.002-4.005h0.777c0.188,0,0.365-0.086,0.479-0.235c0.114-0.147,0.155-0.341,0.106-0.522
							l-1.115-4.252l1.51,3.276c0.102,0.219,0.318,0.35,0.545,0.35c0.085,0,0.17-0.019,0.252-0.055
							C22.253,16.029,22.384,15.674,22.244,15.37z"/>
					</g>
					<g>
						<circle fill="#696969" cx="9.361" cy="7.803" r="1.322"/>
					</g>
					<g>
						<circle fill="#696969" cx="18.037" cy="8.215" r="1.323"/>
					</g>
				</g>
			</g>
		</g>
	</g>
	<g id="Layer_8" display="none">
		<g display="inline">
			<path fill="#696969" d="M11.287,12.746v6.512c0,0.291-0.183,0.549-0.456,0.645c-0.385,0.134-0.851,0.205-1.346,0.205l0,0
				c-1.425,0-2.957-0.582-2.957-1.866V9.907C6.496,9.334,6.696,8.323,7.654,7.776C8.1,7.522,10.436,6.02,11.609,5.26
				c0.209-0.136,0.476-0.145,0.695-0.026c0.22,0.12,0.356,0.35,0.356,0.599v0.986c0,0.376-0.305,0.682-0.682,0.682
				c-0.293,0-0.542-0.185-0.639-0.445c-1.061,0.681-2.622,1.682-3.01,1.903C7.981,9.158,7.906,9.525,7.891,9.724
				c0,0.223,0.048,0.399,0.135,0.495c0.242,0.264,1.048,0.1,1.928-0.429c0.845-0.506,5.012-3.281,5.055-3.309
				c0.209-0.14,0.479-0.153,0.698-0.034c0.223,0.119,0.359,0.35,0.359,0.602v0.077c0,0.228-0.113,0.44-0.303,0.567
				c0,0-2.893,1.931-3.148,2.095C11.635,10.419,11.287,11.193,11.287,12.746z M21.52,9.458v8.845c0,0.234-0.121,0.452-0.319,0.577
				c0,0-3.974,3.084-4.778,3.574c-0.424,0.258-0.964,0.396-1.561,0.396c-1.417,0-2.881-0.767-2.881-2.048v-8.256v-0.2
				c0-0.002,0.002-0.005,0.002-0.009c0.013-0.499,0.13-1.211,1.057-1.895c0.556-0.41,3.868-2.668,4.008-2.764
				c0.209-0.142,0.479-0.156,0.7-0.04c0.224,0.118,0.364,0.35,0.364,0.603v0.987c0,0.376-0.305,0.681-0.682,0.681
				c-0.281,0-0.522-0.17-0.628-0.415c-1.056,0.724-2.607,1.789-2.955,2.044c-0.439,0.324-0.498,0.538-0.505,0.813
				c0.001,0.204,0.056,0.359,0.168,0.461c0.348,0.318,1.283,0.185,2.206-0.369c0.683-0.41,3.625-2.682,4.699-3.523
				c0.206-0.159,0.485-0.188,0.72-0.075C21.37,8.958,21.52,9.196,21.52,9.458z M20.154,12.494l-3.405,2.643v1.362l3.405-2.643
				V12.494z"/>
		</g>
	</g>
	<g id="Layer_9" display="none">
		<path display="inline" fill="#696969" d="M20.654,7.979h-0.344V7.427c0-0.134-0.108-0.243-0.244-0.243h-1.358
			c-0.134,0-0.243,0.108-0.243,0.243v0.551H17.26V7.363c0-0.941-0.767-1.707-1.708-1.707h-3.058c-0.942,0-1.708,0.766-1.708,1.707
			v0.616H9.58V7.427c0-0.134-0.108-0.243-0.243-0.243H7.978c-0.134,0-0.243,0.108-0.243,0.243v0.551H7.388
			c-1.27,0-2.299,1.029-2.299,2.299v8.103c0,1.271,1.029,2.3,2.299,2.3h13.268c1.271,0,2.3-1.029,2.3-2.3v-8.103
			C22.955,9.008,21.926,7.979,20.654,7.979z M11.756,7.363c0-0.406,0.33-0.736,0.736-0.736h3.058c0.406,0,0.736,0.331,0.736,0.736
			v0.616h-4.531L11.756,7.363L11.756,7.363z M14.022,18.471c-2.287,0-4.141-1.854-4.141-4.142s1.854-4.141,4.141-4.141
			c2.287,0,4.141,1.854,4.141,4.141S16.309,18.471,14.022,18.471z M17.131,15.348c0,0.063-0.025,0.125-0.07,0.172
			c-0.047,0.045-0.106,0.069-0.172,0.069l-1.604,0.002v1.604c0,0.133-0.108,0.242-0.243,0.242h-2.039
			c-0.134,0-0.243-0.109-0.243-0.242v-1.603l-1.602,0.001l0,0c-0.064,0-0.126-0.023-0.172-0.07
			c-0.045-0.045-0.071-0.107-0.071-0.172l-0.002-2.04c0-0.134,0.108-0.243,0.242-0.243l1.604-0.001v-1.604
			c0-0.134,0.108-0.243,0.243-0.243h2.039c0.135,0,0.243,0.109,0.243,0.243v1.602l1.602-0.001l0,0c0.134,0,0.243,0.108,0.243,0.242
			L17.131,15.348z"/>
	</g>
	<g id="Layer_10" display="none">
		<g display="inline">
			<path fill="#696969" d="M10.734,8.277v3.815v5.918c-0.652-0.283-1.558-0.283-2.433,0.166C7,18.846,6.633,20.066,7.134,20.838
				c0.501,0.773,1.87,1.1,3.172,0.432c0.937-0.482,1.388-1.25,1.382-1.931v-7.438l7.63-1.526v6.682
				c-0.652-0.283-1.558-0.283-2.433,0.166c-1.302,0.67-1.669,1.889-1.168,2.662c0.5,0.773,1.869,1.1,3.171,0.43
				c0.936-0.48,1.389-1.248,1.383-1.928v-8.203V7.323V6.369L10.734,8.277z"/>
		</g>
	</g>
	<g id="Layer_11" display="none">
		<g display="inline">
			<g>
				<path fill="#696969" d="M19.936,22.5c-0.098-0.813-0.992-0.902-1.514-0.848c-0.556-2.088,1.38-5.201,1.493-5.939
					c0.122-0.791-0.565-5.401-0.64-7.735c-0.074-2.396-3.553-5.041-4.135-4.62c-0.576,0.637,0.828,1.496,0.09,2.232
					c-0.715,0.712-0.901,1.19-1.432,1.996c-1.359,2.063,2.323,2.089,2.323,2.089s-2.882,2.136-3.522,3.213
					c-0.591,0.992-0.839,2.1-1.551,3.036c-1.625,2.133-1.259,5.848-1.259,5.848s-3.076-1.008-1.383-4.521
					c1.289-2.674,1.924-6.619-0.976-5.604c-1.122,0.393,0.251,1.219,0.488,1.483c0.793,0.885,0.123,2.373-0.355,3.234
					c-1.279,2.304-1.743,4.718,0.949,6.207c1.196,0.66,2.812,0.824,4.438,0.85l4.138,0.012C18.45,23.499,19.992,23.244,19.936,22.5z
					"/>
			</g>
		</g>
	</g>
	<g id="Layer_12" display="none">
		<g display="inline">
			<path fill="#696969" d="M20.814,9.43h-3.012l-1.781-1.691c-0.111-0.105-0.258-0.164-0.412-0.164h-3.177
				c-0.152,0-0.3,0.059-0.411,0.164L10.24,9.43H7.227c-0.527,0-0.955,0.428-0.955,0.955v9.086c0,0.526,0.427,0.953,0.955,0.953
				h13.587c0.527,0,0.957-0.427,0.957-0.953v-9.086C21.771,9.858,21.343,9.43,20.814,9.43z M14.022,18.382
				c-1.908,0-3.455-1.546-3.455-3.454c0-1.908,1.547-3.454,3.455-3.454s3.455,1.546,3.455,3.454
				C17.477,16.836,15.93,18.382,14.022,18.382z"/>
			<circle fill="#696969" cx="14.022" cy="14.928" r="2.187"/>
		</g>
	</g>
	<g id="Layer_13" display="none">
		<g display="inline">
			<path fill="#696969" d="M21.157,19.188l-4.209-7.785V6.765c0-0.437-0.367-0.784-0.802-0.784h-4.295
				c-0.436,0-0.795,0.348-0.795,0.784v4.638l-4.211,7.785c-0.321,0.595-0.305,1.314,0.041,1.896
				c0.346,0.581,0.972,0.938,1.646,0.938h10.935c0.676,0,1.303-0.357,1.648-0.938C21.46,20.502,21.479,19.781,21.157,19.188z
				 M14.693,15.93c0.377,0,0.685,0.307,0.685,0.685c0,0.377-0.308,0.684-0.685,0.684c-0.375,0-0.683-0.307-0.683-0.684
				C14.011,16.236,14.317,15.93,14.693,15.93z M12.775,11.827c0.377,0,0.683,0.306,0.683,0.683c0,0.376-0.306,0.682-0.683,0.682
				s-0.682-0.306-0.682-0.682C12.093,12.133,12.398,11.827,12.775,11.827z M12.775,14.209c0.611,0,1.107,0.496,1.107,1.105
				c0,0.61-0.496,1.106-1.107,1.106s-1.106-0.496-1.106-1.106C11.669,14.705,12.164,14.209,12.775,14.209z M19.128,19.883
				c-0.144,0.242-0.399,0.385-0.68,0.385H9.55c-0.28,0-0.539-0.143-0.681-0.385c-0.143-0.242-0.146-0.535-0.01-0.781l1.069-1.922
				c0.152-0.275,0.454-0.434,0.766-0.404c1.42,0.138,3.016,1.353,4.443,1.298c0.764-0.029,1.473-0.308,2.148-0.681
				c0.381-0.211,0.861-0.072,1.072,0.31l0.778,1.397C19.273,19.348,19.271,19.643,19.128,19.883z"/>
		</g>
	</g>
	<g id="Layer_14" display="none">
		<g display="inline">
			<g>
				<circle fill="#696969" cx="14.045" cy="6.977" r="1.369"/>
				<path fill="#696969" d="M15.52,9.926c-0.153-0.771-0.881-1.3-1.672-1.194c-0.653,0.086-1.153,0.582-1.276,1.194
					c0.413-0.305,0.923-0.486,1.475-0.486S15.105,9.622,15.52,9.926z"/>
				<path fill="#696969" d="M18.934,16.375c-0.313-0.275-0.793-0.246-1.068,0.068l-1.079,1.227
					c-0.276,0.314-0.246,0.793,0.069,1.068c0.145,0.127,0.321,0.188,0.498,0.188c0.211,0,0.42-0.088,0.569-0.256l1.078-1.229
					C19.277,17.131,19.247,16.65,18.934,16.375z"/>
				<path fill="#696969" d="M17.923,9.247c-0.278-0.314-0.756-0.345-1.067-0.068c-0.315,0.276-0.347,0.755-0.069,1.069l1.079,1.227
					c0.15,0.17,0.359,0.257,0.568,0.257c0.18,0,0.357-0.062,0.502-0.188c0.313-0.276,0.344-0.755,0.067-1.069L17.923,9.247z"/>
				<g>
					<path fill="#696969" d="M14.052,14.107c-0.002,0-0.012,0-0.015,0c-0.482,0-0.942,0.218-1.263,0.579
						c-0.321,0.359-0.475,0.846-0.42,1.324l0.778,5.033c0.053,0.473,0.441,0.863,0.913,0.863c0.473,0,0.859-0.387,0.914-0.863
						l0.777-5.033c0.057-0.479-0.098-0.965-0.42-1.326C14.993,14.325,14.534,14.107,14.052,14.107z"/>
					<circle fill="#696969" cx="14.044" cy="12.01" r="1.669"/>
				</g>
				<g>
					<path fill="#696969" d="M21.219,11.79c-0.002,0-0.01,0-0.014,0c-0.439,0-0.857,0.2-1.148,0.527
						c-0.293,0.328-0.433,0.771-0.384,1.208l0.707,4.579c0.05,0.433,0.403,0.787,0.833,0.787s0.782-0.352,0.831-0.783l0.709-4.583
						c0.049-0.437-0.092-0.878-0.384-1.206C22.077,11.99,21.658,11.79,21.219,11.79z"/>
					<circle fill="#696969" cx="21.213" cy="9.881" r="1.52"/>
				</g>
			</g>
			<g>
				<path fill="#696969" d="M9.156,16.375c0.314-0.275,0.792-0.246,1.068,0.068l1.079,1.227c0.277,0.314,0.246,0.793-0.068,1.068
					c-0.144,0.127-0.323,0.188-0.5,0.188c-0.21,0-0.419-0.088-0.569-0.256l-1.08-1.229C8.812,17.131,8.841,16.65,9.156,16.375z"/>
				<path fill="#696969" d="M10.166,9.247c0.276-0.314,0.755-0.345,1.069-0.068c0.313,0.276,0.344,0.755,0.068,1.069l-1.079,1.227
					c-0.15,0.17-0.359,0.257-0.569,0.257c-0.178,0-0.356-0.062-0.5-0.188c-0.313-0.276-0.344-0.755-0.068-1.069L10.166,9.247z"/>
				<g>
					<path fill="#696969" d="M6.87,11.79c0.001,0,0.011,0,0.013,0c0.439,0,0.858,0.2,1.151,0.527
						c0.293,0.327,0.432,0.771,0.383,1.208l-0.709,4.579c-0.048,0.433-0.402,0.787-0.831,0.787c-0.43,0-0.783-0.352-0.832-0.783
						l-0.708-4.583c-0.049-0.437,0.089-0.878,0.383-1.206C6.012,11.99,6.43,11.79,6.87,11.79z"/>
					<circle fill="#696969" cx="6.877" cy="9.881" r="1.52"/>
				</g>
			</g>
		</g>
		<g display="inline">
			<g>
				<path fill="#696969" d="M14.104,11.704c0.3,0,0.587,0.063,0.847,0.176c0.02-0.425,0.167-0.817,0.4-1.143
					c-0.166-0.035-0.336-0.053-0.511-0.053h-1.654c-0.175,0-0.345,0.018-0.509,0.053c0.25,0.347,0.399,0.771,0.402,1.229
					C13.384,11.799,13.733,11.704,14.104,11.704z"/>
				<circle fill="#696969" cx="14.013" cy="8.601" r="1.95"/>
				<path fill="#696969" d="M17.076,13.879c0.992,0,1.797-0.805,1.797-1.797c0-0.993-0.805-1.796-1.797-1.796
					c-0.982,0-1.779,0.79-1.795,1.769c0.566,0.356,0.963,0.956,1.035,1.654C16.547,13.816,16.805,13.879,17.076,13.879z"/>
				<path fill="#696969" d="M10.951,10.285c-0.993,0-1.797,0.804-1.797,1.797c0,0.992,0.805,1.796,1.797,1.796
					c0.351,0,0.678-0.103,0.956-0.277c0.088-0.574,0.396-1.077,0.835-1.418c0.002-0.035,0.005-0.067,0.005-0.101
					C12.747,11.089,11.942,10.285,10.951,10.285z"/>
				<path fill="#696969" d="M18.242,10.247c0.566,0.355,0.965,0.957,1.037,1.654c0.229,0.107,0.488,0.17,0.758,0.17
					c0.994,0,1.799-0.804,1.799-1.796c0-0.992-0.805-1.797-1.799-1.797C19.055,8.478,18.258,9.267,18.242,10.247z"/>
				<circle fill="#696969" cx="14.104" cy="13.937" r="1.797"/>
				<path fill="#696969" d="M17.838,14.001h-1.512c-0.018,0.604-0.275,1.149-0.686,1.542c1.129,0.337,1.955,1.381,1.955,2.617v0.574
					c1.491-0.055,2.354-0.479,2.409-0.508l0.119-0.062h0.015v-1.864C20.139,15.033,19.105,14.001,17.838,14.001z"/>
				<path fill="#696969" d="M20.801,12.193h-1.512c-0.018,0.605-0.277,1.15-0.686,1.542c1.129,0.336,1.953,1.381,1.953,2.617v0.574
					c1.493-0.055,2.354-0.479,2.411-0.507l0.119-0.063h0.015v-1.862C23.102,13.226,22.068,12.193,20.801,12.193z"/>
				<path fill="#696969" d="M12.564,15.543c-0.407-0.391-0.664-0.932-0.683-1.533c-0.056-0.004-0.111-0.008-0.169-0.008h-1.523
					c-1.269,0-2.301,1.032-2.301,2.3v1.865l0.005,0.028l0.128,0.039c0.972,0.306,1.839,0.443,2.591,0.486V18.16
					C10.612,16.924,11.437,15.88,12.564,15.543z"/>
				<path fill="#696969" d="M14.866,15.855h-1.524c-1.269,0-2.3,1.033-2.3,2.301v1.865l0.004,0.028l0.128,0.04
					c1.21,0.379,2.262,0.504,3.128,0.504c1.69,0,2.671-0.48,2.731-0.514l0.119-0.061h0.014v-1.865
					C17.166,16.889,16.135,15.855,14.866,15.855z"/>
				<path fill="#696969" d="M7.962,12.128c0.272,0,0.528-0.063,0.76-0.17c0.072-0.697,0.469-1.299,1.035-1.654
					C9.743,9.325,8.946,8.535,7.962,8.535c-0.992,0-1.797,0.804-1.797,1.796S6.97,12.128,7.962,12.128z"/>
				<path fill="#696969" d="M9.396,13.793c-0.409-0.392-0.667-0.937-0.683-1.542H7.2c-1.269,0-2.301,1.032-2.301,2.3v1.865h0.013
					l0.12,0.061c0.057,0.029,0.918,0.453,2.411,0.508V16.41C7.443,15.175,8.268,14.129,9.396,13.793z"/>
				<path fill="#696969" d="M10.063,10.108c0.216-0.087,0.545-0.195,0.859-0.195c0.365,0,0.723,0.094,1.042,0.273
					c0.07-0.07,0.136-0.145,0.194-0.227c-0.303-0.397-0.468-0.885-0.468-1.387c0-0.337,0.075-0.673,0.219-0.978
					c-0.328-0.295-0.745-0.457-1.189-0.457c-0.808,0-1.511,0.547-1.717,1.317C9.607,8.806,10,9.42,10.063,10.108z"/>
				<path fill="#696969" d="M15.883,9.858c0.063,0.1,0.137,0.193,0.219,0.279c0.295-0.147,0.619-0.225,0.945-0.225
					c0.322,0,0.629,0.083,0.832,0.151c0.063-0.746,0.514-1.404,1.189-1.737C18.82,7.62,18.15,7.137,17.391,7.137
					c-0.49,0-0.953,0.202-1.291,0.556c0.119,0.28,0.18,0.576,0.18,0.879C16.277,9.035,16.141,9.478,15.883,9.858z"/>
			</g>
		</g>
		<g display="inline">
			<circle fill="#696969" cx="8.598" cy="7.524" r="1.739"/>
			<circle fill="#696969" cx="19.451" cy="7.524" r="1.739"/>
			<circle fill="#696969" cx="19.451" cy="16.792" r="1.733"/>
			<circle fill="#696969" cx="8.598" cy="16.792" r="1.739"/>
			<path fill="#696969" d="M21.807,11.696c0-1.251-1.053-2.258-2.35-2.258c-1.303,0-2.354,1.014-2.354,2.258v0.821l-1.369,1.458
				h-3.381l-1.405-1.496v-0.783c0-1.251-1.053-2.258-2.356-2.258c-1.303,0-2.355,1.014-2.355,2.258v1.258h4.21l1.155,1.232v2.727
				l-1.354,2.438c-0.424-0.404-1.008-0.653-1.649-0.653c-1.302,0-2.355,1.014-2.355,2.259v1.258h4.705v-1.258
				c0-0.366-0.097-0.7-0.257-1.008l1.63-2.907h3.439l1.611,2.875c-0.166,0.313-0.274,0.66-0.274,1.04v1.258H21.8v-1.258
				c0-1.252-1.051-2.259-2.348-2.259c-0.629,0-1.2,0.243-1.624,0.628l-1.495-2.676V14.34l1.296-1.387h4.18v-1.257H21.807z"/>
		</g>
	</g>
	<g id="Layer_15" display="none">
		<g display="inline">
			<g>
				<path fill="#696969" d="M21.654,18.886c-0.166-0.61-0.762-0.995-1.385-0.899l-4.778,0.736V12.01h0.382l0.874,4.369
					c0.053,0.264,0.241,0.477,0.496,0.561l2.979,0.994c0.078,0.025,0.155,0.037,0.235,0.037c0.312,0,0.603-0.195,0.706-0.509
					c0.13-0.392-0.081-0.813-0.471-0.942l-2.57-0.855l-0.91-4.544c-0.068-0.348-0.375-0.598-0.729-0.598H14.9
					c-0.25-0.192-0.559-0.311-0.899-0.311c-0.34,0-0.651,0.119-0.9,0.311h-1.583c-0.355,0-0.661,0.25-0.73,0.598l-0.91,4.544
					L7.307,16.52c-0.388,0.131-0.601,0.553-0.471,0.942c0.129,0.39,0.546,0.597,0.943,0.472l2.98-0.994
					c0.253-0.084,0.443-0.297,0.495-0.561l0.875-4.369h0.381v6.711l-4.777-0.736c-0.624-0.096-1.221,0.291-1.387,0.9
					c-0.167,0.607,0.15,1.246,0.737,1.479l4.967,1.987c0.635,0.254,1.358-0.055,1.614-0.69c0.032-0.08,0.055-0.16,0.07-0.239
					l0.078,0.012c0.127,0.021,0.253,0.021,0.379,0l0.079-0.012c0.015,0.079,0.038,0.159,0.07,0.239
					c0.193,0.483,0.66,0.78,1.153,0.78c0.153,0,0.31-0.028,0.46-0.09l4.968-1.987C21.505,20.132,21.822,19.494,21.654,18.886z"/>
				<path fill="#696969" d="M14,10.096c1.254,0,2.27-1.015,2.27-2.27c0-1.253-1.016-2.268-2.27-2.268s-2.27,1.015-2.27,2.268
					C11.731,9.081,12.747,10.096,14,10.096z"/>
			</g>
		</g>
	</g>
	<g id="Layer_16" display="none">
		<g display="inline">
			<path fill="#696969" d="M18.955,6.631c-0.93,0-1.713,0.494-2.135,1.233h-5.599c-0.421-0.74-1.205-1.233-2.134-1.233
				c-1.383,0-2.467,1.083-2.467,2.467c0,1.994,1.396,3.187,2.747,4.339c0.591,0.505,1.158,0.991,1.598,1.529
				c0.489,1.257,1.098,2.271,1.779,2.849c1.922,2.071-2.485,1.772-2.485,3.617h7.462c0-1.81-4.235-1.558-2.59-3.498
				c0.749-0.552,1.418-1.611,1.946-2.97c0.438-0.536,1.006-1.023,1.597-1.527c1.352-1.153,2.747-2.345,2.747-4.339
				C21.422,7.714,20.338,6.631,18.955,6.631z M12.48,11.379c0.74,0,1.11-0.74,1.172-1.048h0.987v4.317h-1.234v-2.467H12.48V11.379z
				 M10.168,12.5c-1.242-1.061-2.314-1.976-2.314-3.402c0-0.703,0.53-1.233,1.233-1.233c0.23,0,0.439,0.062,0.62,0.164
				c0.013,1.52,0.203,3.089,0.533,4.534C10.217,12.541,10.193,12.52,10.168,12.5z M17.874,12.5c-0.024,0.02-0.048,0.041-0.072,0.062
				c0.33-1.445,0.521-3.014,0.533-4.535c0.181-0.101,0.39-0.163,0.62-0.163c0.703,0,1.232,0.53,1.232,1.233
				C20.188,10.523,19.116,11.439,17.874,12.5z"/>
		</g>
	</g>
	<g id="Layer_17" display="none">
		<g display="inline">
			<g>
				<path fill="#696969" d="M20.121,11.462c-0.155-3.578-2.821-6.428-6.099-6.428s-5.945,2.85-6.098,6.428
					c-0.479,0.127-0.833,0.56-0.833,1.077v2.785c0,0.617,0.5,1.117,1.12,1.117c0.619,0,1.12-0.5,1.12-1.117h0.001v-0.217
					c0.529,2.466,1.812,5.658,4.69,5.658c2.878,0,4.162-3.19,4.691-5.656v0.215c0,0.492,0.321,0.906,0.764,1.056
					c-0.031,0.563-0.338,3.546-3.25,4.789c-0.183-0.112-0.403-0.149-0.623-0.073l-1.283,0.478c-0.373,0.138-0.563,0.552-0.426,0.923
					c0.14,0.373,0.552,0.563,0.925,0.427l1.281-0.475c0.279-0.104,0.457-0.362,0.469-0.64c3.265-1.443,3.599-4.888,3.632-5.434
					c0.434-0.15,0.75-0.563,0.75-1.051v-2.785C20.953,12.022,20.598,11.589,20.121,11.462z M14.022,7.159
					c-2.548,0-4.647,2.024-4.974,4.643c-0.087-0.099-0.19-0.179-0.306-0.242c0.107-3.123,2.426-5.617,5.28-5.617
					s5.173,2.494,5.279,5.617c-0.113,0.063-0.218,0.144-0.305,0.241C18.671,9.182,16.57,7.159,14.022,7.159z"/>
			</g>
		</g>
	</g>
	<g id="Layer_18" display="none">
		<path display="inline" fill="#696969" d="M14.021,5c-5.013,0-9.077,4.064-9.077,9.077c0,5.014,4.064,9.077,9.077,9.077
			c5.014,0,9.077-4.063,9.077-9.077C23.1,9.064,19.035,5,14.021,5z M10.508,7.126c-0.162,0.226-0.318,0.467-0.465,0.727
			C9.817,8.248,9.616,8.674,9.44,9.125c-0.375-0.104-0.749-0.22-1.121-0.349C8.943,8.106,9.684,7.545,10.508,7.126z M7.379,10.013
			c0.533,0.2,1.069,0.375,1.61,0.525c-0.223,0.881-0.361,1.824-0.407,2.797H6.268C6.382,12.127,6.774,10.998,7.379,10.013z
			 M7.379,18.141c-0.605-0.983-0.997-2.113-1.111-3.322h2.314c0.046,0.974,0.185,1.916,0.407,2.797
			C8.448,17.766,7.912,17.941,7.379,18.141z M8.319,19.378c0.372-0.129,0.745-0.245,1.12-0.349c0.176,0.451,0.377,0.877,0.603,1.271
			c0.147,0.26,0.303,0.501,0.465,0.727C9.684,20.609,8.943,20.049,8.319,19.378z M13.28,21.48c-0.949-0.354-1.79-1.377-2.376-2.787
			c0.788-0.146,1.582-0.234,2.376-0.271V21.48z M13.28,16.938c-0.952,0.039-1.902,0.15-2.845,0.336
			c-0.193-0.763-0.321-1.588-0.368-2.455h3.213V16.938z M13.28,13.336h-3.213c0.047-0.866,0.175-1.693,0.368-2.454
			c0.943,0.185,1.894,0.297,2.845,0.334V13.336z M13.28,9.73c-0.795-0.035-1.588-0.125-2.376-0.27
			c0.586-1.411,1.427-2.432,2.376-2.788V9.73z M20.664,10.013c0.604,0.985,0.997,2.114,1.111,3.323h-2.314
			c-0.046-0.974-0.184-1.916-0.406-2.797C19.596,10.388,20.132,10.213,20.664,10.013z M19.725,8.776
			c-0.371,0.129-0.744,0.245-1.121,0.349C18.427,8.674,18.227,8.248,18,7.853c-0.146-0.259-0.303-0.501-0.465-0.727
			C18.359,7.545,19.1,8.106,19.725,8.776z M14.764,6.672c0.948,0.356,1.789,1.377,2.375,2.789c-0.787,0.146-1.582,0.235-2.375,0.27
			V6.672z M14.764,11.216c0.951-0.038,1.901-0.149,2.844-0.334c0.193,0.761,0.322,1.588,0.369,2.454h-3.213V11.216z M14.764,14.818
			h3.213c-0.047,0.867-0.176,1.692-0.369,2.455c-0.942-0.187-1.894-0.297-2.844-0.336V14.818z M14.764,21.48v-3.058
			c0.793,0.035,1.588,0.125,2.375,0.271C16.553,20.104,15.712,21.126,14.764,21.48z M17.535,21.027
			c0.162-0.226,0.318-0.467,0.465-0.727c0.227-0.396,0.427-0.822,0.604-1.271c0.375,0.104,0.75,0.22,1.121,0.349
			C19.1,20.049,18.359,20.609,17.535,21.027z M20.664,18.141c-0.532-0.199-1.068-0.375-1.609-0.524
			c0.223-0.882,0.36-1.823,0.406-2.796h2.314C21.661,16.027,21.27,17.156,20.664,18.141z"/>
		<g display="inline">
			<path fill="#696969" d="M5.916,16.896c-0.256,0-0.464,0.209-0.464,0.463c0,0.256,0.208,0.465,0.464,0.465h1.72v1.998
				c0,0.328,0.266,0.594,0.595,0.594h1.998v1.721c0,0.256,0.208,0.463,0.463,0.463c0.256,0,0.464-0.207,0.464-0.463v-1.721h1.292
				v1.721c0,0.256,0.208,0.463,0.464,0.463c0.255,0,0.463-0.207,0.463-0.463v-1.721h1.293v1.721c0,0.256,0.208,0.463,0.463,0.463
				c0.256,0,0.465-0.207,0.465-0.463v-1.721h1.291v1.721c0,0.256,0.209,0.463,0.465,0.463s0.465-0.207,0.465-0.463v-1.721h1.996
				c0.328,0,0.596-0.266,0.596-0.594v-1.998h1.72c0.256,0,0.464-0.209,0.464-0.465c0-0.254-0.208-0.463-0.464-0.463h-1.72v-1.293
				h1.72c0.256,0,0.464-0.207,0.464-0.463c0-0.257-0.208-0.464-0.464-0.464h-1.72v-1.293h1.72c0.256,0,0.464-0.208,0.464-0.463
				c0-0.256-0.208-0.464-0.464-0.464h-1.72v-1.292h1.72c0.256,0,0.464-0.208,0.464-0.464c0-0.256-0.208-0.463-0.464-0.463h-1.72
				V8.24c0-0.329-0.268-0.595-0.596-0.595h-1.996v-1.72c0-0.256-0.209-0.464-0.465-0.464s-0.465,0.208-0.465,0.464v1.72h-1.291
				v-1.72c0-0.256-0.209-0.464-0.465-0.464c-0.255,0-0.463,0.208-0.463,0.464v1.72h-1.293v-1.72c0-0.256-0.208-0.464-0.463-0.464
				c-0.256,0-0.464,0.208-0.464,0.464v1.72h-1.292v-1.72c0-0.256-0.208-0.464-0.464-0.464c-0.256,0-0.464,0.208-0.464,0.464v1.72
				H8.23c-0.329,0-0.595,0.266-0.595,0.595v1.998h-1.72c-0.256,0-0.464,0.208-0.464,0.463c0,0.256,0.208,0.464,0.464,0.464h1.72
				v1.292h-1.72c-0.256,0-0.464,0.208-0.464,0.464c0,0.255,0.208,0.463,0.464,0.463h1.72v1.293h-1.72
				c-0.256,0-0.464,0.207-0.464,0.464c0,0.256,0.208,0.463,0.464,0.463h1.72v1.293H5.916L5.916,16.896z M15.713,9.336
				c0-0.219,0.178-0.396,0.396-0.396h2.605c0.221,0,0.396,0.177,0.396,0.396v2.606c0,0.219-0.178,0.396-0.396,0.396h-0.098
				c-0.221,0-0.396-0.177-0.396-0.396V9.831h-2.111c-0.219,0-0.396-0.177-0.396-0.396V9.336z M15.713,18.627
				c0-0.221,0.178-0.396,0.396-0.396h2.111v-2.11c0-0.22,0.178-0.396,0.396-0.396h0.098c0.221,0,0.396,0.178,0.396,0.396v2.604
				c0,0.221-0.178,0.396-0.396,0.396h-2.605c-0.219,0-0.396-0.176-0.396-0.396V18.627z M8.93,9.336c0-0.219,0.177-0.396,0.396-0.396
				h2.606c0.219,0,0.396,0.177,0.396,0.396v0.099c0,0.219-0.177,0.396-0.396,0.396h-2.11v2.111c0,0.219-0.177,0.396-0.396,0.396
				H9.327c-0.219,0-0.397-0.177-0.397-0.396V9.336L8.93,9.336z M8.93,16.119c0-0.219,0.177-0.396,0.396-0.396h0.099
				c0.219,0,0.396,0.178,0.396,0.396v2.111h2.111c0.219,0,0.396,0.176,0.396,0.396v0.099c0,0.221-0.177,0.396-0.396,0.396H9.327
				c-0.219,0-0.396-0.177-0.396-0.396L8.93,16.119L8.93,16.119z"/>
		</g>
	</g>
	<g id="Layer_19" display="none">
		<g display="inline">
			<path fill="#696969" d="M22.18,9.585c0.783,3.168-13.623,10.438-14.779,10.726c-0.648,0.16-1.42,0.192-1.568-0.404
				c-0.049-0.199,0.11-0.545,0.427-0.993l0,0l-1.542-1.638c-0.209-0.225-0.174-0.578,0.073-0.756l0.165-0.121
				c0.3-0.217,0.682-0.287,1.042-0.198l2.201,0.549c0.646-0.636,1.388-1.317,2.181-2.007L5.979,13.22
				c-0.348-0.121-0.454-0.563-0.198-0.827l0.262-0.272c0.436-0.451,1.041-0.702,1.667-0.692l6.721,0.104
				c1.773-1.267,3.42-2.239,4.473-2.5c0.283-0.069,0.566-0.132,0.84-0.179l-1.691,1.332l0.113,0.652l2.607-2.079
				C21.518,8.75,22.025,8.959,22.18,9.585z M15.857,16.951l3.014,2.092c0.184,0.127,0.43,0.117,0.604-0.021l0.281-0.225
				c0.506-0.408,0.697-1.099,0.467-1.71l-0.918-2.446c-0.057-0.152-0.238-0.209-0.373-0.121l-3.07,2.016
				C15.713,16.632,15.711,16.85,15.857,16.951z"/>
		</g>
	</g>
	<g id="Layer_20" display="none">
		<path display="inline" fill="#696969" d="M19.479,16.518l-0.545-0.162c0,0,0-0.002-0.002-0.002
			c-0.205-0.651-0.26-1.453-0.262-2.121c-0.001-0.544,0.034-0.995,0.057-1.212c0.028-0.05,0.15-0.291,0.205-0.441
			c0.088-0.238,0.129-0.476,0.139-0.703c0.021-0.433-0.092-0.822-0.307-1.103c0.063-0.332,0.106-0.904,0.113-1.169l0,0
			c0-2.694-2.186-4.877-4.877-4.877c-2.692,0-4.877,2.183-4.877,4.877l0,0c0,0.325,0.05,0.825,0.113,1.17l0,0
			c-0.078,0.103-0.142,0.223-0.189,0.352c-0.154,0.408-0.161,0.925,0.023,1.452c0.054,0.156,0.125,0.303,0.206,0.439
			c0.02,0.215,0.055,0.668,0.055,1.214C9.33,14.9,9.274,15.703,9.068,16.354l-0.547,0.162c-0.684,0.205-1.093,0.905-0.935,1.602
			l0.333,1.466c0.647,2.843,3.188,4.849,6.065,4.854c0.002,0,0.004,0.002,0.007,0.002c0.003,0,0.006,0,0.009,0
			c0.001,0,0.001,0,0.001,0c0.005,0,0.01-0.002,0.014-0.002c3.117-0.006,4.719-2.213,4.771-2.236
			c0.608-0.76,1.057-1.573,1.294-2.617l0.333-1.466C20.572,17.422,20.164,16.723,19.479,16.518z M9.827,19.575
			c-0.175,0.526-0.403,0.999-0.657,1.409c0,0.004-0.001,0.004-0.002,0.005c-0.271-0.474-0.481-0.993-0.608-1.552l-0.334-1.467
			c-0.081-0.357,0.131-0.72,0.482-0.824l1.373-0.408c0.001,0,0.001,0.001,0.001,0.001C10.248,17.496,10.178,18.518,9.827,19.575z
			 M14,18.439c-1.268,0-2.321-0.907-2.552-2.107c0-0.002,0-0.002,0-0.002l0.604-0.18c0,0,0.001,0,0.001,0.002
			c0.411,0.343,0.861,0.605,1.357,0.725c0.191,0.044,0.388,0.066,0.59,0.066c0.725,0,1.381-0.317,1.949-0.793h0.002l0.602,0.18
			C16.322,17.531,15.27,18.439,14,18.439z M17.085,13.464c-0.599,1.366-1.72,2.825-3.085,2.825s-2.488-1.459-3.084-2.825
			c-0.051-0.12-0.183-0.197-0.314-0.197c-0.289,0-0.708-0.317-0.913-0.905c-0.229-0.655-0.047-1.24,0.265-1.34
			c0.044-0.014,0.184-0.025,0.294-0.117c0.733-0.612,1.912-3.214,1.912-3.214c1.952,2.649,4.137,3.079,5.79,3.312
			c0.024,0.003,0.079,0.013,0.1,0.019c0.308,0.108,0.491,0.685,0.263,1.34c-0.203,0.588-0.621,0.905-0.92,0.905
			C17.262,13.274,17.139,13.343,17.085,13.464z M19.773,17.971l-0.334,1.467c-0.127,0.56-0.338,1.078-0.608,1.553
			c-0.254-0.412-0.483-0.885-0.658-1.414c-0.353-1.061-0.421-2.08-0.254-2.837l1.372,0.409
			C19.645,17.252,19.854,17.613,19.773,17.971z"/>
	</g>
	<g id="Layer_21" display="none">
		<g display="inline">
			<path fill="#696969" d="M16.253,18.773c-0.153-0.15-0.36-0.236-0.576-0.236h-0.726v-0.469h0.609c0.195,0,0.354-0.159,0.354-0.355
				v-0.462c0-0.196-0.159-0.354-0.354-0.354h-0.609v-0.607h0.609c0.195,0,0.354-0.158,0.354-0.354v-0.465
				c0-0.195-0.159-0.354-0.354-0.354h-0.609v-0.458c0-0.329-0.266-0.594-0.594-0.594c-0.328,0-0.593,0.265-0.593,0.594v0.458H8.423
				v-0.458c0-0.329-0.265-0.594-0.593-0.594c-0.327,0-0.593,0.265-0.593,0.594v0.458h-0.61c-0.196,0-0.354,0.159-0.354,0.354v0.465
				c0,0.195,0.158,0.354,0.354,0.354h0.61v0.607h-0.61c-0.196,0-0.354,0.158-0.354,0.354v0.462c0,0.196,0.158,0.355,0.354,0.355
				h0.61v0.469H6.511c-0.216,0-0.423,0.086-0.577,0.236l-0.925,0.912c-0.102,0.102-0.133,0.254-0.079,0.389
				c0.055,0.132,0.185,0.22,0.328,0.22h0.793v1.481c0,0.328,0.265,0.595,0.593,0.595s0.594-0.267,0.594-0.595v-1.481h7.713v1.481
				c0,0.328,0.265,0.595,0.594,0.595c0.326,0,0.594-0.267,0.594-0.595v-1.481h0.791c0.144,0,0.273-0.088,0.327-0.22
				c0.054-0.135,0.022-0.287-0.08-0.389L16.253,18.773z M8.423,16.288h5.341v0.606H8.423V16.288z M8.423,18.068h5.341v0.469H8.423
				V18.068z"/>
			<path fill="#696969" d="M19.625,5.842c-0.747,0-1.393,0.932-1.706,2.286c1.04,0.385,1.808,1.601,1.896,3.132
				c0.601,0.337,1.021,0.93,1.168,1.623c0.343-0.747,0.554-1.772,0.554-2.905C21.535,7.694,20.68,5.842,19.625,5.842z"/>
			<path fill="#696969" d="M19.031,20.21c0,0.194,0.16,0.354,0.354,0.354h0.479c0.197,0,0.354-0.16,0.354-0.354v-4.928
				c-0.33,0.296-0.736,0.495-1.188,0.563v4.364H19.031z"/>
			<path fill="#696969" d="M19.223,11.646c0-0.031,0.004-0.061,0.004-0.092c0-1.641-0.895-2.971-2.002-2.971
				c-1.104,0-2.002,1.331-2.002,2.971c0,0.385,0.055,0.751,0.144,1.089c-0.489,0.31-0.81,0.821-0.81,1.402
				c0,0.944,0.846,1.711,1.891,1.711c0.047,0,0.089-0.013,0.133-0.016v4.469c0,0.195,0.161,0.354,0.354,0.354h1.051
				c0.195,0,0.354-0.158,0.354-0.354v-4.973c0.119,0.029,0.241,0.05,0.37,0.05c0.963,0,1.742-0.836,1.742-1.867
				C20.451,12.583,19.934,11.881,19.223,11.646z"/>
		</g>
	</g>
	<g id="Layer_22" display="none">
		<g display="inline">
			<g>
				<path fill="#696969" d="M9.301,8.866c0.977-0.776,0.612-2.422-0.608-2.728c-1.08-0.272-2.082,0.643-1.914,1.747
					C6.957,9.061,8.366,9.608,9.301,8.866z"/>
				<path fill="#696969" d="M10.311,9.781C10.12,9.404,9.648,9.229,9.258,9.393l-1.491,0.623c-0.27,0.113-0.431,0.357-0.449,0.625
					l-0.005-0.01c0,0-0.625,1.789,0,2.97c0.435,0.822,1.392,1.236,1.935,1.413l0.216,0.463c0.007,0.017,0.017,0.027,0.024,0.041
					l0.015,0.031l0.002-0.002c0.147,0.256,0.399,0.424,0.679,0.467c-0.175,0.988-0.106,2.43,1.269,3.607
					c0.036,0.031,0.081,0.047,0.125,0.047c0.054,0,0.107-0.023,0.146-0.066c0.069-0.08,0.06-0.203-0.021-0.27
					c-1.292-1.107-1.318-2.447-1.137-3.336c0.021-0.004,0.042-0.006,0.063-0.014l3.771-1.229l4.265,2.701
					c0.108,0.067,0.226,0.108,0.343,0.131l0.979,2.74c0.143,0.397,0.488,0.938,0.771,1.209c0.283,0.268,0.514,0.143,0.516-0.281
					l0.011-13.084c0-0.472-0.38-0.85-0.851-0.85h-8.735c-0.104-0.149-0.276-0.247-0.471-0.247h-0.479
					c-0.188,0-0.364,0.092-0.472,0.247c-0.107,0.154-0.133,0.351-0.067,0.527l0.991,2.68l-0.484,0.056L10.311,9.781z M15.391,9.397
					c0.41,0.1,0.789,0.519,0.844,0.935c0.057,0.416,0.43,0.853,0.834,0.975l1.949,0.588c0.404,0.122,0.825,0.507,0.94,0.858
					c0.112,0.352,0.067,0.951-0.104,1.338l-0.639,1.443l-4.171-2.642c-0.243-0.152-0.539-0.19-0.811-0.101l-1.681,0.548
					c0.67-0.685,1.872-2.181,1.943-4.16L15.391,9.397z M12.058,11.584c0.176-0.02,0.332-0.119,0.424-0.27
					c0.092-0.15,0.111-0.334,0.049-0.5l-0.859-2.322l2.442,0.595c-0.04,2.125-1.496,3.679-2.039,4.186l-0.807-1.597L12.058,11.584z"
					/>
			</g>
		</g>
	</g>
</g>
<g id="Layer_2_1_">
	<g>
		<g>
			<path fill="#696969" d="M9.703,14.592v2.223c0,0,1.885,2.084,4.538,2.084c3.337,0,4.537-2.084,4.537-2.084v-2.412l-3.917,2.29
				c-0.279,0.164-0.625,0.174-0.916,0.028L9.703,14.592z"/>
			<path fill="#696969" d="M14.338,11.945c-0.49,0-0.977-0.102-1.24-0.314l-4.71,1.631l5.59,2.797
				c0.289,0.146,0.632,0.135,0.91-0.029l6.513-3.796c0.304-0.177,0.486-0.507,0.476-0.858s-0.215-0.668-0.528-0.826l-6.744-3.375
				c-0.29-0.145-0.632-0.134-0.912,0.029L7.18,11c-0.304,0.177-0.486,0.506-0.476,0.858c0.012,0.352,0.215,0.668,0.53,0.826
				l-0.015,3.448c-0.337,0.116-0.578,0.44-0.578,0.815c0,0.279,0.132,0.527,0.337,0.688c-0.064,0.477-0.287,0.819-0.549,1.063
				c-0.21,0.195-0.322,0.477-0.304,0.763c0.018,0.288,0.165,0.553,0.399,0.72l0.12,0.084c0.222,0.16,0.5,0.217,0.767,0.156
				c0.267-0.063,0.494-0.23,0.627-0.469c0.458-0.818,0.236-1.882,0.084-2.393c0.157-0.156,0.254-0.373,0.254-0.611
				c0-0.374-0.239-0.693-0.571-0.815l0.014-3.29l5.112-1.771c0.044-0.217,0.263-0.417,0.263-0.417
				c-0.017,0.059,0.016,0.773,1.098,0.773c0.622,0,1.125-0.198,1.125-0.604c0-0.074-0.018-0.154-0.051-0.237
				c0.176,0.215,0.279,0.458,0.279,0.657C15.646,11.715,15.06,11.945,14.338,11.945z"/>
		</g>
	</g>
</g>
</svg>
