<?xml version="1.0" encoding="utf-8"?>
<!-- Generator: Adobe Illustrator 17.0.0, SVG Export Plug-In . SVG Version: 6.00 Build 0)  -->
<!DOCTYPE svg PUBLIC "-//W3C//DTD SVG 1.1//EN" "http://www.w3.org/Graphics/SVG/1.1/DTD/svg11.dtd">
<svg version="1.1" id="Layer_1" xmlns="http://www.w3.org/2000/svg" xmlns:xlink="http://www.w3.org/1999/xlink" x="0px" y="0px"
	 width="35px" height="35px" viewBox="0 0 35 35" enable-background="new 0 0 35 35" xml:space="preserve">
<g>
	<g>
		<path fill="#00B3E6" d="M15.618,14.49c0.538-0.009,1.076-0.003,1.614-0.003c0.552,0,1.105-0.016,1.656,0.006
			c0.327,0.013,0.414-0.12,0.407-0.425c-0.006-0.297,0.051-0.594,0.074-0.892c0.016-0.213,0.051-0.409-0.293-0.41
			c-0.924-0.003-1.848-0.054-2.773-0.064c-0.305-0.004-0.612,0.047-0.915,0.093c-0.069,0.01-0.179,0.106-0.178,0.16
			c0.009,0.42,0.056,0.838,0.059,1.258C15.272,14.48,15.411,14.494,15.618,14.49z"/>
		<path fill="#00B3E6" d="M16.887,17.533c-1.064,0.098-2.333,1.072-2.292,2.796c0.035,1.49,1.152,2.701,2.655,2.66
			c1.31-0.036,2.644-1.101,2.635-2.675C20.032,18.799,18.63,17.372,16.887,17.533z"/>
		<path fill="#00B3E6" d="M17.222,0.476C7.709,0.476,0,8.205,0,17.74C0,27.272,7.709,35,17.222,35
			c9.509,0,17.218-7.728,17.218-17.26C34.44,8.205,26.73,0.476,17.222,0.476z M27.122,15.46c-0.158,0.616-0.617,0.794-1.225,0.643
			c-0.794-0.198-1.603-0.336-2.405-0.502c-0.393-0.081-0.784-0.177-1.179-0.252c-0.524-0.1-0.876-0.475-0.752-1.136
			c0.058-0.307,0.109-0.616,0.163-0.924c0.002-0.014,0.01-0.026,0.016-0.039c-0.255-0.095-0.506-0.205-0.767-0.273
			c-0.058-0.015-0.225,0.12-0.224,0.184c0.012,0.477,0.032,0.957,0.098,1.429c0.019,0.133,0.18,0.27,0.308,0.359
			c1.463,1.018,2.937,2.02,4.394,3.046c0.274,0.193,0.499,0.464,0.724,0.72c0.234,0.267,0.36,0.568,0.356,0.953
			c-0.021,1.804-0.019,3.607-0.001,5.411c0.004,0.347-0.106,0.417-0.429,0.416c-2.997-0.011-5.993-0.007-8.99-0.007
			c-2.997,0-5.993-0.006-8.99,0.008c-0.343,0.002-0.457-0.067-0.452-0.434c0.022-1.647,0.051-3.296-0.009-4.942
			c-0.028-0.773,0.279-1.315,0.778-1.824c0.89-0.907,1.954-1.583,3.008-2.271c0.642-0.42,1.296-0.821,1.943-1.234
			c0.064-0.041,0.157-0.102,0.162-0.161c0.042-0.455,0.073-0.912,0.093-1.369c0.01-0.226-0.073-0.351-0.337-0.259
			c-0.188,0.065-0.489,0.036-0.558,0.154c-0.084,0.144,0.025,0.4,0.044,0.607c0.025,0.263,0.1,0.537,0.052,0.786
			c-0.1,0.521-0.499,0.793-1.101,0.876c-0.456,0.063-0.909,0.149-1.36,0.241c-0.623,0.126-1.243,0.273-1.866,0.399
			c-0.222,0.045-0.468,0.123-0.672,0.069c-0.381-0.1-0.59-0.363-0.615-0.803c-0.026-0.462-0.231-0.921-0.216-1.377
			c0.027-0.822,0.166-1.644,0.602-2.364c0.108-0.178,0.366-0.312,0.581-0.369c0.982-0.264,1.968-0.518,2.963-0.727
			c0.625-0.132,1.265-0.209,1.903-0.257c1.082-0.082,2.168-0.127,3.252-0.178c0.765-0.036,1.533-0.096,2.297-0.07
			c0.781,0.027,1.56,0.139,2.338,0.228c0.695,0.079,1.387,0.174,2.08,0.268c1.046,0.143,2.059,0.427,3.053,0.775
			c0.39,0.136,0.648,0.433,0.798,0.818C27.415,13.188,27.414,14.325,27.122,15.46z"/>
	</g>
</g>
</svg>
