<?xml version="1.0" encoding="iso-8859-1"?>
<svg width="49px" height="49px" version="1.1" xmlns="http://www.w3.org/2000/svg" xmlns:xlink="http://www.w3.org/1999/xlink">
<g id="news">
	<g id="news_1_">
		<g>
			<path style="fill:#007399;" d="M39.962,33.729l-7.749-25.16c-0.063-0.202-0.205-0.372-0.397-0.473
				c-0.191-0.101-0.416-0.123-0.625-0.062L9.59,14.282c-0.434,0.126-0.682,0.568-0.552,0.99l7.75,25.16
				C16.893,40.776,17.22,41,17.574,41c0.078,0,0.157-0.011,0.235-0.033l21.601-6.248c0.208-0.06,0.384-0.198,0.488-0.384
				C40.002,34.149,40.025,33.931,39.962,33.729z M18.126,39.213l-7.279-23.634l20.028-5.793l7.28,23.635L18.126,39.213z
				 M16.477,25.799l5.295-1.532c0.435-0.126,0.682-0.569,0.552-0.99c-0.13-0.421-0.587-0.66-1.022-0.535l-5.295,1.533
				c-0.435,0.126-0.681,0.569-0.552,0.99c0.106,0.345,0.433,0.569,0.786,0.569C16.32,25.833,16.399,25.821,16.477,25.799z
				 M22.529,27.452c0.435-0.125,0.682-0.568,0.553-0.99c-0.13-0.421-0.588-0.662-1.021-0.535l-5.297,1.532
				c-0.435,0.125-0.682,0.568-0.552,0.99c0.106,0.345,0.433,0.568,0.786,0.568c0.078,0,0.157-0.01,0.235-0.033L22.529,27.452z
				 M18.125,31.869l5.296-1.532c0.435-0.125,0.682-0.568,0.552-0.99c-0.13-0.421-0.587-0.662-1.022-0.535l-5.296,1.532
				c-0.435,0.125-0.682,0.569-0.552,0.99c0.106,0.345,0.433,0.569,0.786,0.569C17.967,31.903,18.047,31.892,18.125,31.869z
				 M23.698,31.768L18.401,33.3c-0.435,0.125-0.682,0.568-0.553,0.99c0.107,0.345,0.433,0.568,0.787,0.568
				c0.078,0,0.157-0.011,0.235-0.034l5.297-1.532c0.435-0.125,0.682-0.568,0.552-0.99C24.59,31.882,24.132,31.642,23.698,31.768z
				 M26.755,32.823l8.583-2.483l-3.472-11.272l-8.582,2.486L26.755,32.823z M30.258,15.798l-15.889,4.597
				c-0.435,0.125-0.682,0.569-0.552,0.99c0.107,0.345,0.433,0.568,0.786,0.568c0.078,0,0.157-0.011,0.236-0.033l15.889-4.596
				c0.435-0.126,0.682-0.569,0.552-0.99C31.15,15.911,30.693,15.672,30.258,15.798z M16.417,15.49l-3.635,1.05l0.743,2.416
				l3.635-1.05L16.417,15.49z M30.038,14.181l-0.744-2.415L17.662,15.13l0.744,2.415L30.038,14.181z"/>
		</g>
	</g>
	<g id="bg">
		<circle id="bg_1_" style="fill:none;stroke:#007399;stroke-width:2;stroke-miterlimit:10;" cx="24.5" cy="24.5" r="23.5"/>
	</g>
</g>

</svg>
