<?xml version="1.0" encoding="utf-8"?>
<!-- Generator: Adobe Illustrator 18.1.1, SVG Export Plug-In . SVG Version: 6.00 Build 0)  -->
<!DOCTYPE svg PUBLIC "-//W3C//DTD SVG 1.1//EN" "http://www.w3.org/Graphics/SVG/1.1/DTD/svg11.dtd">
<svg version="1.1" id="Layer_1" xmlns="http://www.w3.org/2000/svg" xmlns:xlink="http://www.w3.org/1999/xlink" x="0px" y="0px"
	 width="40px" height="40px" viewBox="0 0 40 40" enable-background="new 0 0 40 40" xml:space="preserve">
<ellipse fill="#484C60" cx="16" cy="12.9" rx="4.6" ry="4.7"/>
<ellipse fill="#484C60" cx="25.1" cy="13.2" rx="3.7" ry="3.8"/>
<path fill="#484C60" d="M9.4,29.2c0,0-0.4-10.9,7.1-10.9c0,0,5.8,0.1,6,10.9H9.4z"/>
<path fill="#484C60" d="M21.5,19.1c0,0,1.1-1.4,3.7-1.2c0,0,5.7-0.1,5.4,9.4h-6.2C24.4,27.3,24.6,22.4,21.5,19.1z"/>
<path fill="#484C60" d="M20,40C9,40,0,31,0,20S9,0,20,0s20,9,20,20S31,40,20,40z M20,3C10.6,3,3,10.6,3,20s7.6,17,17,17
	s17-7.6,17-17S29.4,3,20,3z"/>
</svg>
