<?xml version="1.0" encoding="UTF-8" standalone="no"?>
<svg width="32px" height="32px" viewBox="0 0 32 32" version="1.1" xmlns="http://www.w3.org/2000/svg" xmlns:xlink="http://www.w3.org/1999/xlink" xmlns:sketch="http://www.bohemiancoding.com/sketch/ns">
    <!-- Generator: Sketch 3.1 (8751) - http://www.bohemiancoding.com/sketch -->
    <title>Oval 6 + forward</title>
    <desc>Created with Sketch.</desc>
    <defs></defs>
    <g id="Welcome" stroke="none" stroke-width="1" fill="none" fill-rule="evenodd" sketch:type="MSPage">
        <g id="Mobile-Portrait" sketch:type="MSArtboardGroup" transform="translate(-268.000000, -709.000000)">
            <g id="Oval-6-+-forward" sketch:type="MSLayerGroup" transform="translate(268.000000, 709.000000)">
                <circle id="Oval-6" fill-opacity="0.75" fill="#009246" sketch:type="MSShapeGroup" cx="16" cy="16" r="16"></circle>
                <path d="M16.5740741,8.09391861 C16.4814815,7.99935213 16.3333333,7.98043884 16.2037037,8.01826543 C16.0740741,8.07500531 16,8.20739838 16,8.33979145 L16,12.7655026 L8.33333333,12.7655026 C8.14814815,12.7655026 8,12.9168089 8,13.1059419 L8,18.5529709 C8,18.7421039 8.14814815,18.8934103 8.33333333,18.8934103 L16,18.8934103 L16,23.3191214 C16,23.4515144 16.0740741,23.5839075 16.2037037,23.6406474 C16.3333333,23.678474 16.4814815,23.6595607 16.5740741,23.5649942 L23.9074074,16.0753292 C23.962963,15.9996761 24,15.9240229 24,15.8294564 C24,15.7348899 23.962963,15.6592367 23.9074074,15.5835836 L16.5740741,8.09391861 Z" id="forward" fill="#FFFFFF" sketch:type="MSShapeGroup" transform="translate(16.000000, 16.000000) rotate(-90.000000) translate(-16.000000, -16.000000) "></path>
            </g>
        </g>
    </g>
</svg>