<?xml version="1.0" encoding="utf-8"?>
<!-- Generator: Adobe Illustrator 16.0.0, SVG Export Plug-In . SVG Version: 6.00 Build 0)  -->
<!DOCTYPE svg PUBLIC "-//W3C//DTD SVG 1.1//EN" "http://www.w3.org/Graphics/SVG/1.1/DTD/svg11.dtd">
<svg version="1.1" id="Layer_1" xmlns="http://www.w3.org/2000/svg" xmlns:xlink="http://www.w3.org/1999/xlink" x="0px" y="0px"
	 width="184.267px" height="130.782px" viewBox="0 0 184.267 130.782" enable-background="new 0 0 184.267 130.782"
	 xml:space="preserve">
<g display="none">
	<polygon display="inline" fill="none" stroke="#918F8F" stroke-miterlimit="10" points="98.779,97.161 96.918,102.231 
		83.079,97.17 84.929,92.101 91.848,94.631 	"/>
	<polygon display="inline" fill="none" stroke="#918F8F" stroke-miterlimit="10" points="102.189,87.801 100.338,92.871 
		93.418,90.341 86.499,87.811 88.349,82.741 95.269,85.271 	"/>
	<polyline display="inline" fill="none" stroke="#918F8F" stroke-miterlimit="10" points="96.659,81.471 98.048,77.671 
		101.359,78.881 102.468,75.851 116.308,80.911 115.208,83.931 118.518,85.141 115.808,92.571 115.749,92.75 121.949,95.011 
		120.098,100.081 113.888,97.821 106.258,95.031 108.008,90.241 	"/>
	<polyline display="inline" fill="none" stroke="#918F8F" stroke-miterlimit="10" points="113.668,108.341 102.838,104.391 
		104.688,99.321 112.329,102.111 118.529,104.371 117.298,107.731 	"/>
	<path display="inline" fill="none" stroke="#918F8F" stroke-miterlimit="10" d="M71.359,64.75c0,1.61-1.31,2.91-2.92,2.91
		c-1.13,0-2.11-0.64-2.59-1.57v-0.01c-0.21-0.4-0.33-0.85-0.33-1.33c0-1.61,1.31-2.92,2.92-2.92
		C70.049,61.831,71.359,63.141,71.359,64.75z"/>
	<polygon display="inline" fill="none" stroke="#918F8F" stroke-miterlimit="10" points="78.979,114.161 43.509,120.111 
		42.509,114.161 	"/>
	<polygon display="inline" fill="none" stroke="#918F8F" stroke-miterlimit="10" points="84.579,113.221 80.188,113.96 
		80.188,111.621 	"/>
	<path display="inline" fill="none" stroke="#918F8F" stroke-miterlimit="10" d="M139.939,86l6.46-17.67l-12.561-4.59l-12.28-4.49
		l-1.109-0.4l-2.38-0.87l-1.891-0.69l-6.71-2.45l-16.41-5.99l-6.199-2.27l-6.67,18.26v-27.01h-31.84c-0.05,0.64-0.37,1.2-0.85,1.58
		c0.01,0.1,0.02,0.21,0.02,0.32c0,1.84-1.49,3.33-3.33,3.33c-0.91,0-1.73-0.36-2.34-0.95c-0.61-0.61-0.99-1.45-0.99-2.38
		c0-0.7,0.22-1.36,0.59-1.9h-11.74l-2.07-12.33l134.52-22.58l15.88,94.62l-45.08,7.561L139.939,86z"/>
	<polyline display="inline" fill="none" stroke="#918F8F" stroke-miterlimit="10" points="96.659,81.471 98.048,77.671 
		101.359,78.881 102.468,75.851 116.308,80.911 115.208,83.931 118.518,85.141 115.808,92.571 	"/>
	<path display="inline" fill="none" stroke="#918F8F" stroke-miterlimit="10" d="M137.678,36.951l-10.02,14.06
		c-2.681-1.68-5.96-2.44-9.32-1.88c-3.76,0.63-6.89,2.78-8.87,5.71l-16.41-5.99c4.19-8.55,12.311-15.03,22.42-16.73
		C123.548,30.771,131.399,32.71,137.678,36.951z"/>
	<path display="inline" fill="none" stroke="#918F8F" stroke-miterlimit="10" d="M139.939,86l6.46-17.67l-12.561-4.59
		c0.13-1.19,0.101-2.41-0.109-3.64c-0.551-3.28-2.261-6.07-4.631-8.04l10.03-14.07c5.96,4.55,10.271,11.28,11.61,19.26
		C152.619,68.471,148.149,79.28,139.939,86z"/>
	
		<rect x="149.579" y="14.516" transform="matrix(0.9862 -0.1655 0.1655 0.9862 -0.7906 25.4826)" display="inline" fill="none" stroke="#918F8F" stroke-miterlimit="10" width="5.94" height="5.94"/>
	
		<rect x="151.496" y="25.94" transform="matrix(0.9862 -0.1655 0.1655 0.9862 -2.6546 25.9701)" display="inline" fill="none" stroke="#918F8F" stroke-miterlimit="10" width="5.94" height="5.94"/>
	<line display="inline" fill="none" stroke="#918F8F" stroke-miterlimit="10" x1="155.97" y1="87.222" x2="167.981" y2="85.271"/>
	<line display="inline" fill="none" stroke="#918F8F" stroke-miterlimit="10" x1="156.887" y1="91.34" x2="168.898" y2="89.389"/>
	<polygon display="inline" fill="none" stroke="#918F8F" stroke-miterlimit="10" points="98.779,97.161 96.918,102.231 
		83.079,97.17 84.929,92.101 91.848,94.631 	"/>
	<polygon display="inline" fill="none" stroke="#918F8F" stroke-miterlimit="10" points="102.189,87.801 100.338,92.871 
		93.418,90.341 86.499,87.811 88.349,82.741 95.269,85.271 	"/>
	<polyline display="inline" fill="none" stroke="#918F8F" stroke-miterlimit="10" points="96.659,81.471 98.048,77.671 
		101.359,78.881 102.468,75.851 116.308,80.911 115.208,83.931 118.518,85.141 115.808,92.571 115.749,92.75 121.949,95.011 
		120.098,100.081 113.888,97.821 106.258,95.031 108.008,90.241 	"/>
	<path display="inline" fill="none" stroke="#918F8F" stroke-miterlimit="10" d="M133.838,63.741l-12.28-4.49l-1.11-0.4l-2.38-0.87
		l-1.89-0.69l-6.71-2.45l-16.41-5.99l-6.2-2.27l-6.67,18.26v46.78l4.39,1.601l40.069,14.64l8.311-22.76L139.938,86l6.46-17.67
		L133.838,63.741z M88.349,82.741l6.919,2.53l6.92,2.53l-1.85,5.069l-6.92-2.529l-6.92-2.53L88.349,82.741z M83.079,97.17
		l1.85-5.069l6.92,2.53l6.93,2.529l-1.859,5.07L83.079,97.17z M116.678,109.441l-3.01-1.1l-10.83-3.95l1.85-5.07l7.641,2.79
		l6.199,2.26l-1.229,3.36L116.678,109.441z M101.648,78.091l-1.03,2.83l13.841,5.061l0.75-2.05 M96.658,81.471l1.391-3.8l3.31,1.21
		l1.11-3.03l13.84,5.06l-1.1,3.02l3.31,1.21l-2.71,7.43l-0.06,0.18l6.199,2.261l-1.85,5.069l-6.21-2.26l-7.63-2.79l1.75-4.79
		l8.632,2.835 M97.068,80.351l-1.8,4.92"/>
	<polygon display="inline" fill="none" stroke="#918F8F" stroke-miterlimit="10" points="118.529,104.371 117.298,107.731 
		116.678,109.441 113.668,108.341 102.838,104.391 104.688,99.321 112.329,102.111 	"/>
	<polygon display="inline" fill="none" stroke="#918F8F" stroke-miterlimit="10" points="102.189,87.801 100.338,92.871 
		93.418,90.341 86.499,87.811 88.349,82.741 95.269,85.271 	"/>
	<polygon display="inline" fill="none" stroke="#918F8F" stroke-miterlimit="10" points="121.949,95.011 120.098,100.081 
		113.888,97.821 106.258,95.031 108.008,90.241 108.109,89.96 114.779,92.391 115.749,92.75 	"/>
	<line display="inline" fill="none" stroke="#918F8F" stroke-miterlimit="10" x1="96.659" y1="81.471" x2="95.268" y2="85.271"/>
	<polygon display="inline" fill="none" stroke="#918F8F" stroke-miterlimit="10" points="116.308,80.911 115.208,83.931 
		114.458,85.981 100.619,80.921 101.359,78.881 102.468,75.851 	"/>
	<polygon display="inline" fill="none" stroke="#918F8F" stroke-miterlimit="10" points="98.779,97.161 96.918,102.231 
		83.079,97.17 84.929,92.101 91.848,94.631 	"/>
	<polygon display="inline" fill="none" stroke="#918F8F" stroke-miterlimit="10" points="118.529,104.371 117.298,107.731 
		116.678,109.441 113.668,108.341 102.838,104.391 104.688,99.321 112.329,102.111 	"/>
	<line display="inline" fill="none" stroke="#918F8F" stroke-miterlimit="10" x1="93.419" y1="90.34" x2="91.852" y2="94.63"/>
	<path display="inline" fill="none" stroke="#918F8F" stroke-miterlimit="10" d="M48.349,37.831c-0.05,0.64-0.37,1.2-0.85,1.58
		c0.01,0.1,0.02,0.21,0.02,0.32c0,1.84-1.49,3.33-3.33,3.33c-0.91,0-1.73-0.36-2.34-0.95c-0.61-0.61-0.99-1.45-0.99-2.38
		c0-0.7,0.22-1.36,0.59-1.9H3.859v66.42h11.25v9.58l-11.25-9.58l11.5,9.91h63.62l1.21-0.2v-76.13H48.349z M15.679,90.121
		c-0.46,1.011-1.48,1.71-2.66,1.71c-1.61,0-2.91-1.3-2.91-2.92c0-1.609,1.3-2.91,2.91-2.91c1.61,0,2.92,1.301,2.92,2.91
		C15.939,89.341,15.849,89.75,15.679,90.121z M68.439,67.661c-1.13,0-2.11-0.64-2.59-1.57v-0.01c-0.21-0.4-0.33-0.85-0.33-1.33
		c0-1.61,1.31-2.92,2.92-2.92c1.61,0,2.92,1.31,2.92,2.92C71.359,66.361,70.049,67.661,68.439,67.661z"/>
	<polygon display="inline" fill="none" stroke="#918F8F" stroke-miterlimit="10" points="15.109,104.25 15.109,113.831 
		3.859,104.25 	"/>
	<path display="inline" fill="none" stroke="#918F8F" stroke-miterlimit="10" d="M15.939,88.911c0,0.431-0.09,0.84-0.26,1.21
		c-0.46,1.011-1.48,1.71-2.66,1.71c-1.61,0-2.91-1.3-2.91-2.92c0-1.609,1.3-2.91,2.91-2.91C14.629,86,15.939,87.301,15.939,88.911z"
		/>
	<path display="inline" fill="none" stroke="#918F8F" stroke-miterlimit="10" d="M71.359,64.75c0,1.61-1.31,2.91-2.92,2.91
		c-1.13,0-2.11-0.64-2.59-1.57v-0.01c-0.21-0.4-0.33-0.85-0.33-1.33c0-1.61,1.31-2.92,2.92-2.92
		C70.049,61.831,71.359,63.141,71.359,64.75z"/>
	<polygon display="inline" fill="none" stroke="#918F8F" stroke-miterlimit="10" points="80.189,113.96 80.189,114.161 
		78.979,114.161 	"/>
	<path display="inline" fill="none" stroke="#918F8F" stroke-miterlimit="10" d="M47.519,39.73c0,1.84-1.49,3.33-3.33,3.33
		c-0.91,0-1.73-0.36-2.34-0.95c-0.61-0.61-0.99-1.45-0.99-2.38c0-0.7,0.22-1.36,0.59-1.9c0.6-0.87,1.6-1.44,2.74-1.44h0.04
		c-0.23,0.36-0.37,0.79-0.37,1.25c0,0.06,0,0.13,0.01,0.19c0.09,1.15,1.05,2.06,2.24,2.06c0.52,0,1.01-0.18,1.39-0.48
		C47.509,39.511,47.519,39.621,47.519,39.73z"/>
	<path display="inline" fill="none" stroke="#918F8F" stroke-miterlimit="10" d="M48.359,37.641c0,0.06,0,0.13-0.01,0.19
		c-0.05,0.64-0.37,1.2-0.85,1.58c-0.38,0.3-0.87,0.48-1.39,0.48c-1.19,0-2.15-0.91-2.24-2.06c-0.01-0.06-0.01-0.13-0.01-0.19
		c0-0.46,0.14-0.89,0.37-1.25c0.41-0.6,1.09-1,1.88-1C47.349,35.391,48.359,36.4,48.359,37.641z"/>
	<line display="inline" fill="none" stroke="#918F8F" stroke-miterlimit="10" x1="41.854" y1="42.104" x2="39.687" y2="43.893"/>
	<line display="inline" fill="none" stroke="#918F8F" stroke-miterlimit="10" x1="67.359" y1="64.831" x2="65.849" y2="66.081"/>
	<polyline display="inline" fill="none" stroke="#918F8F" stroke-miterlimit="10" points="65.849,66.091 59.519,71.331 
		51.019,69.331 38.019,85 30.188,82.831 23.019,91.831 15.679,90.121 13.019,89.5 	"/>
	<path display="inline" fill="none" stroke="#918F8F" stroke-miterlimit="10" d="M71.359,64.75c0,1.61-1.31,2.91-2.92,2.91
		c-1.13,0-2.11-0.64-2.59-1.57v-0.01c-0.21-0.4-0.33-0.85-0.33-1.33c0-1.61,1.31-2.92,2.92-2.92
		C70.049,61.831,71.359,63.141,71.359,64.75z"/>
	<path display="inline" fill="none" stroke="#918F8F" stroke-miterlimit="10" d="M15.939,88.911c0,0.431-0.09,0.84-0.26,1.21
		c-0.46,1.011-1.48,1.71-2.66,1.71c-1.61,0-2.91-1.3-2.91-2.92c0-1.609,1.3-2.91,2.91-2.91C14.629,86,15.939,87.301,15.939,88.911z"
		/>
	<polygon display="inline" fill="none" stroke="#918F8F" stroke-linejoin="round" stroke-miterlimit="10" points="15.109,104.25 
		15.109,113.831 3.859,104.25 	"/>
	<line display="inline" fill="none" stroke="#918F8F" stroke-miterlimit="10" x1="113.888" y1="97.821" x2="112.329" y2="102.111"/>
</g>
<g display="none">
	<line display="inline" fill="none" stroke="#918F8F" stroke-miterlimit="10" x1="79.484" y1="100.334" x2="181.345" y2="100.334"/>
	
		<rect x="116.619" y="94.767" display="inline" fill="none" stroke="#918F8F" stroke-miterlimit="10" width="46.283" height="3.132"/>
	<circle display="inline" fill="none" stroke="#918F8F" stroke-miterlimit="10" cx="139.292" cy="77.563" r="4.872"/>
	<path display="inline" fill="none" stroke="#918F8F" stroke-miterlimit="10" d="M70.475,41.985
		c0,15.081-8.891,32.309-23.972,32.309S22.533,57.066,22.533,41.985s8.89-22.303,23.971-22.303S70.475,26.904,70.475,41.985z"/>
	<path display="inline" fill="none" stroke="#918F8F" stroke-miterlimit="10" d="M27.586,26.462c0,0,21.799,23.438,42.889,15.523"/>
	<path display="inline" fill="none" stroke="#918F8F" stroke-miterlimit="10" d="M23.023,36.282c0,0,7.21,0.538,10.957-4.072"/>
	<path display="inline" fill="none" stroke="#918F8F" stroke-miterlimit="10" d="M28.585,72.324c0,0-25.945,2.883-28.033,7.108
		c0,0,17.206,41.209,18.995,46.578"/>
	<path display="inline" fill="none" stroke="#918F8F" stroke-miterlimit="10" d="M61.709,72.324c0,0,4.831,0.639,12.937,2.511
		l16.015-47.256l14.692,4.991l-15.61,46.862c0,0-17.479,37.618-19.269,42.986"/>
	<path display="inline" fill="none" stroke="#918F8F" stroke-miterlimit="10" d="M101.626,28.152l-7.402-1.726
		c-2.068-0.483-3.355-2.552-2.873-4.621l3.278-14.059c0.483-2.07,2.552-3.356,4.621-2.874l7.402,1.726
		c2.069,0.483,3.355,2.552,2.874,4.622l-3.279,14.058C105.765,27.349,103.697,28.636,101.626,28.152z"/>
	<path display="inline" fill="none" stroke="#918F8F" stroke-miterlimit="10" d="M93.406,12.993c0,0,3.429,0.678,3.153,5.055
		c-0.276,4.377-1.569,3.773-1.569,3.773"/>
	<line display="inline" fill="none" stroke="#918F8F" stroke-miterlimit="10" x1="74.646" y1="74.835" x2="72.844" y2="81.2"/>
	<path display="inline" fill="none" stroke="#918F8F" stroke-miterlimit="10" d="M120.805,54.063c0,0-16.783,2.651-18.548,6.222
		c0,0,12.889,29.012,14.401,33.55"/>
	<path display="inline" fill="none" stroke="#918F8F" stroke-miterlimit="10" d="M148.465,32.195
		c0,10.005-5.897,21.435-15.903,21.435s-15.903-11.43-15.903-21.435s5.897-14.797,15.903-14.797S148.465,22.19,148.465,32.195z"/>
	<path display="inline" fill="none" stroke="#918F8F" stroke-miterlimit="10" d="M120.011,21.897c0,0,14.463,15.55,28.454,10.298"/>
	<path display="inline" fill="none" stroke="#918F8F" stroke-miterlimit="10" d="M116.984,28.412c0,0,4.783,0.357,7.269-2.701"/>
	<rect x="135.652" y="35.515" display="inline" fill="none" stroke="#918F8F" stroke-miterlimit="10" width="6.594" height="4.59"/>
	<line display="inline" fill="none" stroke="#918F8F" stroke-miterlimit="10" x1="131.697" y1="37.809" x2="135.653" y2="37.809"/>
	<line display="inline" fill="none" stroke="#918F8F" stroke-miterlimit="10" x1="142.246" y1="37.809" x2="147.74" y2="37.809"/>
	<line display="inline" fill="none" stroke="#918F8F" stroke-miterlimit="10" x1="125.103" y1="37.809" x2="118.963" y2="37.809"/>
	<rect x="124.507" y="35.515" display="inline" fill="none" stroke="#918F8F" stroke-miterlimit="10" width="6.593" height="4.59"/>
	<path display="inline" fill="none" stroke="#918F8F" stroke-miterlimit="10" d="M161.902,62.063h-44.283c-0.55,0-1,0.45-1,1v28.616
		c0,0.55,0.45,1,1,1h44.283c0.55,0,1-0.45,1-1V63.063C162.902,62.514,162.452,62.063,161.902,62.063z"/>
	<path display="inline" fill="none" stroke="#918F8F" stroke-miterlimit="10" d="M147.74,51.923c0,0,2.841,0.376,7.609,1.477
		l9.42-27.797l8.642,2.936l-9.182,27.565c0,0-1.139,2.45-2.696,5.837"/>
	<path display="inline" fill="none" stroke="#918F8F" stroke-miterlimit="10" d="M169.676,25.581l-1.268-0.296
		c-2.069-0.482-3.356-2.551-2.873-4.621l1.209-5.183c0.481-2.07,2.551-3.357,4.621-2.874l1.267,0.296
		c2.07,0.482,3.357,2.551,2.874,4.621l-1.209,5.183C173.815,24.777,171.747,26.064,169.676,25.581z"/>
	<path display="inline" fill="none" stroke="#918F8F" stroke-miterlimit="10" d="M166.384,17.024c0,0,2.017,0.399,1.854,2.973
		c-0.162,2.575-0.923,2.22-0.923,2.22"/>
	<line display="inline" fill="none" stroke="#918F8F" stroke-miterlimit="10" x1="155.349" y1="53.4" x2="154.29" y2="57.145"/>
</g>
<g>
	<path fill="none" stroke="#918F8F" stroke-linejoin="round" stroke-miterlimit="10" d="M160.958,75.61l-70.004,54.672
		l-10.424-0.045L20.94,84.874l20.349-10.586l2.491,1.422c1.458,0.833,3.314,0.407,4.265-0.988l1.902-2.807
		c0.743-1.087,2.083-1.63,3.369-1.322c2.019,0.489,4.066,0.742,6.104,0.779c1.322,0.018,2.472,0.869,2.925,2.109l1.186,3.261
		c0.571,1.575,2.255,2.444,3.867,2.01l3.922-1.06c1.63-0.435,2.644-2.064,2.318-3.73l-0.643-3.324
		c-0.253-1.304,0.317-2.645,1.458-3.333c1.721-1.05,3.333-2.291,4.809-3.713c0.951-0.923,2.382-1.132,3.568-0.57l3.124,1.476
		c1.522,0.715,3.342,0.145,4.175-1.322l1.993-3.496c0.833-1.458,0.398-3.323-0.996-4.265l-2.853-1.929
		c-0.951-0.652-1.494-1.766-1.404-2.898l18.665-9.709l16.654,10.433l-12.696,32.485l8.186,3.197l12.1-30.927L160.958,75.61z"/>
	<path fill="none" stroke="#918F8F" stroke-linejoin="round" stroke-miterlimit="10" d="M93.009,40l-3.188,1.132
		c-1.259,0.444-2.119,1.621-2.137,2.952c-0.018,2.02-0.263,4.039-0.743,6.032c-0.036,0.154-0.063,0.308-0.072,0.471
		c-0.091,1.132,0.453,2.246,1.404,2.898l2.851,1.929c1.396,0.942,1.83,2.807,0.997,4.265l-1.992,3.496
		c-0.833,1.467-2.653,2.037-4.175,1.322l-3.124-1.476c-1.187-0.562-2.617-0.353-3.568,0.57c-1.476,1.422-3.088,2.663-4.809,3.713
		c-1.141,0.688-1.712,2.029-1.458,3.333l0.643,3.324c0.326,1.666-0.688,3.296-2.319,3.73l-3.921,1.06
		c-1.612,0.435-3.296-0.435-3.867-2.01l-1.186-3.261c-0.453-1.24-1.603-2.092-2.925-2.109c-2.038-0.037-4.085-0.29-6.104-0.779
		c-1.286-0.308-2.627,0.235-3.369,1.322l-1.902,2.807c-0.951,1.396-2.807,1.821-4.266,0.988l-2.49-1.422L40.22,73.68
		c-1.458-0.833-2.037-2.652-1.322-4.175l1.449-3.061c0.562-1.195,0.344-2.626-0.579-3.577c-1.449-1.494-2.708-3.124-3.777-4.854
		c-0.688-1.123-2.01-1.694-3.305-1.449l-3.406,0.643c-1.648,0.308-3.26-0.688-3.703-2.31l-1.087-3.903
		c-0.453-1.639,0.434-3.341,2.028-3.903l3.188-1.132c1.259-0.453,2.119-1.621,2.137-2.961c0.028-2.011,0.272-4.03,0.743-6.032
		c0.308-1.286-0.235-2.617-1.331-3.36l-2.853-1.929c-1.395-0.951-1.829-2.807-0.996-4.274l1.992-3.487
		c0.842-1.467,2.663-2.037,4.184-1.322l3.116,1.467c1.195,0.571,2.617,0.353,3.568-0.561c1.476-1.422,3.097-2.663,4.818-3.713
		c1.141-0.689,1.711-2.029,1.449-3.342l-0.643-3.324c-0.326-1.657,0.688-3.287,2.327-3.731l3.912-1.05
		c1.621-0.444,3.306,0.434,3.876,2.01l1.178,3.251c0.452,1.241,1.612,2.092,2.925,2.119c2.037,0.027,4.084,0.29,6.104,0.779
		c1.286,0.308,2.626-0.235,3.369-1.331l1.901-2.798c0.951-1.395,2.808-1.83,4.275-0.988l3.55,2.02
		c1.467,0.842,2.038,2.653,1.322,4.184l-1.44,3.061c-0.561,1.195-0.353,2.626,0.571,3.577c1.449,1.485,2.717,3.115,3.776,4.854
		c0.689,1.123,2.02,1.685,3.315,1.44l3.396-0.634c1.648-0.317,3.261,0.688,3.714,2.301l1.077,3.912
		C95.49,37.728,94.603,39.429,93.009,40z"/>
	<circle fill="none" stroke="#918F8F" stroke-linejoin="round" stroke-miterlimit="10" cx="59.766" cy="43.545" r="12.177"/>
	<polygon fill="none" stroke="#918F8F" stroke-linejoin="round" stroke-miterlimit="10" points="111.783,90 109.489,83.793 
		117.678,86.996 	"/>
	<polygon fill="none" stroke="#918F8F" stroke-linejoin="round" stroke-miterlimit="10" points="136.125,39.829 129.778,56.066 
		117.678,86.994 109.492,83.796 122.188,51.312 127.929,36.631 	"/>
	
		<line fill="none" stroke="#918F8F" stroke-linejoin="round" stroke-miterlimit="10" x1="131.678" y1="37.871" x2="113.583" y2="81.445"/>
	<path fill="none" stroke="#918F8F" stroke-linejoin="round" stroke-miterlimit="10" d="M127.855,30.617l1.092-1.914
		c0.457-0.802,0.22-1.821-0.545-2.34l-1.563-1.059c-0.6-0.406-0.898-1.138-0.73-1.842c0.26-1.094,0.395-2.203,0.408-3.307
		c0.009-0.731,0.48-1.373,1.169-1.618l1.748-0.622c0.874-0.31,1.36-1.244,1.112-2.138l-0.595-2.142
		c-0.246-0.886-1.128-1.435-2.03-1.265l-1.865,0.35c-0.71,0.134-1.436-0.175-1.814-0.791c-0.584-0.95-1.274-1.844-2.068-2.66
		c-0.507-0.52-0.624-1.304-0.315-1.96l0.79-1.68c0.393-0.835,0.078-1.831-0.723-2.289l-1.949-1.111
		c-0.802-0.457-1.82-0.221-2.339,0.543l-1.042,1.535c-0.408,0.6-1.144,0.898-1.849,0.727c-1.106-0.268-2.228-0.408-3.344-0.427
		c-0.722-0.012-1.356-0.479-1.604-1.158l-0.647-1.784c-0.313-0.863-1.236-1.343-2.123-1.103l-2.146,0.579
		c-0.896,0.242-1.452,1.135-1.274,2.046l0.355,1.82c0.14,0.718-0.174,1.451-0.798,1.831c-0.943,0.574-1.829,1.254-2.639,2.035
		c-0.52,0.503-1.302,0.618-1.957,0.309l-1.708-0.806c-0.835-0.394-1.833-0.079-2.29,0.723l-1.092,1.914
		c-0.457,0.802-0.22,1.822,0.544,2.34l1.564,1.059c0.599,0.406,0.896,1.138,0.729,1.842c-0.261,1.094-0.395,2.203-0.408,3.307
		c-0.009,0.731-0.48,1.374-1.17,1.618l-1.748,0.622c-0.874,0.31-1.358,1.244-1.11,2.138l0.594,2.142
		c0.245,0.886,1.128,1.435,2.031,1.266l1.863-0.351c0.711-0.134,1.437,0.175,1.814,0.791c0.584,0.95,1.276,1.844,2.07,2.66
		c0.506,0.52,0.624,1.304,0.314,1.96l-0.791,1.68c-0.393,0.835-0.078,1.832,0.725,2.289l1.948,1.111
		c0.802,0.457,1.82,0.221,2.338-0.543l1.043-1.535c0.408-0.6,1.144-0.898,1.849-0.727c1.105,0.268,2.228,0.408,3.343,0.427
		c0.723,0.012,1.358,0.479,1.605,1.158l0.646,1.784c0.313,0.863,1.236,1.343,2.123,1.103l2.146-0.579
		c0.896-0.242,1.451-1.135,1.274-2.046l-0.354-1.82c-0.141-0.718,0.173-1.451,0.797-1.831c0.942-0.574,1.829-1.254,2.638-2.035
		c0.521-0.502,1.303-0.618,1.957-0.309l1.708,0.806C126.4,31.734,127.397,31.418,127.855,30.617z"/>
	<circle fill="none" stroke="#918F8F" stroke-linejoin="round" stroke-miterlimit="10" cx="111.567" cy="20.06" r="6.674"/>
	<polyline fill="none" stroke="#918F8F" stroke-linejoin="round" stroke-miterlimit="10" stroke-dasharray="2,2" points="
		106.861,94.479 78.34,117.797 93.246,66.223 108.152,68.297 	"/>
	<polyline fill="none" stroke="#918F8F" stroke-linejoin="round" stroke-miterlimit="10" points="79.213,129.236 85.632,122.363 
		91.816,129.236 	"/>
</g>
<g display="none">
	<path display="inline" fill="none" stroke="#918F8F" stroke-miterlimit="10" d="M104.563,36.433l-3.997,4.46
		c-6.471-4.82-14.623-7.454-23.304-6.884c-9.688,0.637-18.209,5.142-24.142,11.91l8.731,7.659c3.974-4.534,9.68-7.555,16.172-7.981
		c5.435-0.358,10.557,1.164,14.741,3.999l-4.281,4.778l17.957,0.166c0.148,0.002,0.265-0.128,0.247-0.276L104.563,36.433z"/>
	<path display="inline" fill="none" stroke="#918F8F" stroke-miterlimit="10" d="M100.998,82.356
		c1.604,3.849,3.471,8.348,5.296,12.794c-3.199,3.659-7.1,6.564-11.389,8.6l2.065,5.621l-16.622-6.439
		c-0.21-0.084-0.294-0.325-0.188-0.514l8.516-15.657l2.202,6.02C95.125,90.525,98.732,86.969,100.998,82.356z"/>
	<path display="inline" fill="none" stroke="#918F8F" stroke-miterlimit="10" d="M103.137,68.429
		c-0.241-1.605-0.661-3.188-1.228-4.709c-0.021-0.063,0.011-0.126,0.073-0.146l10.634-4.038c0.063-0.021,0.137,0.01,0.158,0.073
		c0.786,2.098,1.373,4.269,1.74,6.48C110.824,66.688,106.586,67.475,103.137,68.429z"/>
	<path display="inline" fill="none" stroke="#918F8F" stroke-miterlimit="10" d="M38.843,66.677l5.874,1.163
		c-0.847,8.024,1.044,16.382,5.961,23.558c5.363,7.828,13.335,12.811,21.952,14.577c0.331,0.067,0.654-0.154,0.716-0.486
		l1.914-10.228c0.062-0.324-0.15-0.632-0.473-0.7c-5.704-1.214-10.974-4.535-14.53-9.727c-3.078-4.492-4.38-9.676-4.075-14.721
		l6.293,1.247l-8.667-14.937c-0.258-0.444-0.848-0.561-1.256-0.248L38.843,66.677z"/>
	<path display="inline" fill="none" stroke="#918F8F" stroke-miterlimit="10" d="M163.027,36.051
		c0,14.338-8.452,30.717-22.79,30.717s-22.791-16.379-22.791-30.717c0-14.338,8.453-21.205,22.791-21.205
		S163.027,21.712,163.027,36.051z"/>
	<path display="inline" fill="none" stroke="#918F8F" stroke-miterlimit="10" d="M122.25,21.292c0,0,20.726,22.284,40.775,14.758"/>
	<path display="inline" fill="none" stroke="#918F8F" stroke-miterlimit="10" d="M117.912,30.628c0,0,6.855,0.511,10.417-3.871"/>
	<circle display="inline" fill="none" stroke="#918F8F" stroke-miterlimit="10" cx="141.083" cy="71.653" r="2.364"/>
	<polygon display="inline" fill="none" stroke="#918F8F" stroke-miterlimit="10" points="141.409,110.968 133.538,99.464 
		140.758,76.233 148.629,98.647 	"/>
	<path display="inline" fill="none" stroke="#918F8F" stroke-miterlimit="10" d="M154.693,64.895c0,0,24.668,2.741,26.652,6.758
		c0,0-7.372,13.09-9.073,18.193"/>
	<path display="inline" fill="none" stroke="#918F8F" stroke-miterlimit="10" d="M106.293,95.15
		c-1.825-4.446-3.691-8.945-5.296-12.794c-2.56-6.178-4.446-10.707-4.446-10.707c0.587-1.206,3.209-2.287,6.585-3.221
		c3.451-0.953,7.688-1.74,11.379-2.338"/>
	<path display="inline" fill="none" stroke="#918F8F" stroke-miterlimit="10" d="M114.61,115.935
		c-0.767-2.286-4.467-11.41-8.316-20.785"/>
	<path display="inline" fill="none" stroke="#918F8F" stroke-miterlimit="10" d="M123.199,64.895c0,0-3.88,0.43-8.684,1.194"/>
	<path display="inline" fill="none" stroke="#918F8F" stroke-miterlimit="10" d="M18.186,57.053c0,0-15.956,2.52-17.634,5.915
		c0,0,12.254,27.584,13.692,31.897"/>
	<path display="inline" fill="none" stroke="#918F8F" stroke-miterlimit="10" d="M44.485,36.263c0,9.512-5.608,20.379-15.12,20.379
		c-9.514,0-15.12-10.867-15.12-20.379s5.606-14.068,15.12-14.068C38.876,22.195,44.485,26.75,44.485,36.263z"/>
	<path display="inline" fill="none" stroke="#918F8F" stroke-miterlimit="10" d="M17.432,26.472c0,0,13.75,14.784,27.053,9.791"/>
	<path display="inline" fill="none" stroke="#918F8F" stroke-miterlimit="10" d="M14.553,32.666c0,0,4.548,0.339,6.911-2.568"/>
	<rect x="32.303" y="39.417" display="inline" fill="none" stroke="#918F8F" stroke-miterlimit="10" width="6.269" height="4.364"/>
	<line display="inline" fill="none" stroke="#918F8F" stroke-miterlimit="10" x1="28.542" y1="41.6" x2="32.302" y2="41.6"/>
	<line display="inline" fill="none" stroke="#918F8F" stroke-miterlimit="10" x1="38.571" y1="41.6" x2="43.794" y2="41.6"/>
	<line display="inline" fill="none" stroke="#918F8F" stroke-miterlimit="10" x1="22.273" y1="41.6" x2="16.435" y2="41.6"/>
	<rect x="21.707" y="39.417" display="inline" fill="none" stroke="#918F8F" stroke-miterlimit="10" width="6.268" height="4.364"/>
	<path display="inline" fill="none" stroke="#918F8F" stroke-miterlimit="10" d="M38.766,56.526c0,0,4.047,0.902,4.834,1.054"/>
</g>
<g display="none">
	<line display="inline" fill="none" stroke="#918F8F" stroke-miterlimit="10" x1="93.845" y1="82.411" x2="68.009" y2="82.411"/>
	<polyline display="inline" fill="none" stroke="#918F8F" stroke-miterlimit="10" points="41.37,23.653 41.37,9.589 162.641,9.589 
		162.641,77.012 	"/>
	<line display="inline" fill="none" stroke="#918F8F" stroke-miterlimit="10" x1="140.967" y1="82.411" x2="125.44" y2="82.411"/>
	<path display="inline" fill="none" stroke="#918F8F" stroke-miterlimit="10" d="M57.776,41.905c0,12.342-7.276,26.44-19.618,26.44
		S18.54,54.247,18.54,41.905s7.276-18.253,19.618-18.253S57.776,29.563,57.776,41.905z"/>
	<path display="inline" fill="none" stroke="#918F8F" stroke-miterlimit="10" d="M22.676,29.201c0,0,17.841,19.183,35.1,12.704"/>
	<path display="inline" fill="none" stroke="#918F8F" stroke-miterlimit="10" d="M18.941,37.237c0,0,5.9,0.44,8.967-3.332"/>
	<path display="inline" fill="none" stroke="#918F8F" stroke-miterlimit="10" d="M23.494,66.734c0,0-21.234,2.358-22.942,5.816
		c0,0,14.081,33.727,15.545,38.119"/>
	<path display="inline" fill="none" stroke="#918F8F" stroke-miterlimit="10" d="M48.756,68.209c0,0,13.033-1.151,14.742,2.306
		l26.428-13.14l7.565,11.284l-29.48,13.69l-10.883,24.976"/>
	<path display="inline" fill="none" stroke="#918F8F" stroke-miterlimit="10" d="M92.312,57.375l11.609-11.377
		c0,0,4.794-1.459,3.249,1.851c-1.545,3.311-5.161,6.319-5.161,6.319l3.24,7.748l-6.771,4.817L92.312,57.375z"/>
	<path display="inline" fill="none" stroke="#918F8F" stroke-miterlimit="10" d="M129.259,94.742c0,12.35-7.276,26.45-19.616,26.45
		s-19.617-14.101-19.617-26.45c0-5.263,1.319-9.36,3.82-12.331c3.313-3.98,8.729-5.922,15.797-5.922s12.485,1.941,15.798,5.922
		C127.941,85.381,129.259,89.479,129.259,94.742z"/>
	<path display="inline" fill="none" stroke="#918F8F" stroke-miterlimit="10" d="M176.381,94.742c0,1.354-0.09,2.727-0.262,4.099
		c-0.019,0.189-0.046,0.379-0.072,0.568c0.009,0.009,0,0.009,0,0.019c-0.227,1.58-0.561,3.15-1.002,4.693
		c-0.344-0.739-0.695-1.561-1.047-2.491c-0.471-1.21-0.939-2.591-1.418-4.161c-4.713-15.636-18.262-1.571-18.262-1.571
		c6.12-3.556,9.559,2.546,12.132,8.558c1.616,3.774,2.898,7.502,4.288,8.812c-3.34,4.703-8.078,7.926-13.974,7.926
		c-12.341,0-19.616-14.101-19.616-26.45c0-5.263,1.318-9.36,3.818-12.331c3.313-3.98,8.729-5.922,15.798-5.922
		c2.112,0,4.071,0.172,5.877,0.524C171.379,78.701,176.381,84.514,176.381,94.742z"/>
	<path display="inline" fill="none" stroke="#918F8F" stroke-miterlimit="10" d="M128.794,99.779c0,4.168-8.877,6.109-19.189,10.892
		c-9.713,4.503-19.19-6.724-19.19-10.892"/>
	<path display="inline" fill="none" stroke="#918F8F" stroke-miterlimit="10" d="M162.705,97.658
		c-0.478,3.132-3.187,5.525-6.454,5.525c-3.611,0-6.545-2.935-6.545-6.546c0-3.619,2.934-6.545,6.545-6.545
		c1.516,0,2.906,0.507,4.008,1.372c-3.33,1.716-5.939,4.434-5.939,4.434C157.92,93.802,160.592,95.058,162.705,97.658z"/>
	<path display="inline" fill="none" stroke="#918F8F" stroke-miterlimit="10" d="M138.006,100.944
		c0,4.171,8.991,13.225,18.993,7.547c3.231-1.833,6.527-3.051,9.451-4.035"/>
	<path display="inline" fill="none" stroke="#918F8F" stroke-miterlimit="10" d="M173.998,101.629
		c1.101-0.614,1.833-1.309,2.05-2.203c0-0.009,0.008-0.009,0-0.018c0.053-0.18,0.071-0.37,0.071-0.568"/>
	<path display="inline" fill="none" stroke="#918F8F" stroke-miterlimit="10" d="M27.909,72.523c0,0,6.187,3.696,10.25,16.179
		c0,0,3.9-12.793,9.316-16.179"/>
	<path display="inline" fill="none" stroke="#918F8F" stroke-miterlimit="10" d="M181.346,109.88
		c-0.334,0.316-6.797,6.355-10.418,3.548c-0.063-0.045-0.127-0.1-0.189-0.163c-1.391-1.309-2.672-5.037-4.288-8.81
		c-1.056-2.475-2.266-4.975-3.746-6.798c-2.112-2.601-4.784-3.854-8.386-1.761c0,0,2.609-2.717,5.939-4.432
		c4.252-2.194,9.678-2.771,12.322,6.003c0.479,1.57,0.948,2.952,1.418,4.161c0.352,0.93,0.703,1.751,1.047,2.492
		C178.385,111.244,181.137,109.989,181.346,109.88z"/>
	<path display="inline" fill="none" stroke="#918F8F" stroke-miterlimit="10" d="M107.477,83.24c0,0,3.124,4.212,12.146-5.015"/>
</g>
<g display="none">
	<path display="inline" fill="none" stroke="#918F8F" stroke-miterlimit="10" stroke-dasharray="2,2" d="M180.448,39.233
		c-2.729,0.11-5.41,0.86-8.06,2.101"/>
	<path display="inline" fill="none" stroke="#918F8F" stroke-miterlimit="10" stroke-dasharray="2,2" d="M61.058,73.414
		c3.32,0.319,6.76,1,10.32,2.12c9.75,3.06,18.55,4.529,26.33,4.96"/>
	<path display="inline" fill="none" stroke="#918F8F" stroke-miterlimit="10" stroke-dasharray="2,2" d="M120.318,78.664
		c8.94-2.11,14.83-5.42,17.34-7.5c5.49-4.561,10.71-9.92,15.82-14.931"/>
	<path display="inline" fill="none" stroke="#918F8F" stroke-miterlimit="10" stroke-dasharray="2,2" d="M39.048,76.554
		c-18.351,7.11-29.341,23.07-29.341,23.07"/>
	<path display="inline" fill="none" stroke="#918F8F" stroke-miterlimit="10" d="M61.167,71.363c0,0.681-0.039,1.36-0.109,2.051
		c-0.71,6.6-4.8,13.339-11.3,13.339c-5.471,0-9.23-4.759-10.71-10.2c-0.471-1.71-0.71-3.48-0.71-5.19
		c0-7.18,4.239-10.619,11.42-10.619C56.938,60.744,61.167,64.184,61.167,71.363z"/>
	<path display="inline" fill="none" stroke="#918F8F" stroke-miterlimit="10" d="M40.747,63.973c0,0,10.381,11.161,20.423,7.393"/>
	<path display="inline" fill="none" stroke="#918F8F" stroke-miterlimit="10" d="M38.574,68.649c0,0,3.433,0.256,5.218-1.939"/>
	<path display="inline" fill="none" stroke="#918F8F" stroke-miterlimit="10" d="M120.338,77.773c0,0.29-0.011,0.59-0.021,0.891
		c-0.33,6.959-4.5,14.5-11.39,14.5c-6.28,0-10.311-6.28-11.221-12.669c-0.13-0.91-0.199-1.82-0.199-2.721
		c0-7.18,4.239-10.62,11.42-10.62C116.108,67.153,120.338,70.594,120.338,77.773z"/>
	<path display="inline" fill="none" stroke="#918F8F" stroke-miterlimit="10" d="M172.928,45.344c0,7.18-4.23,15.38-11.41,15.38
		c-3.38,0-6.101-1.82-8.04-4.49c-2.18-3-3.37-7.09-3.37-10.89c0-7.19,4.23-10.62,11.41-10.62c5.68,0,9.52,2.15,10.87,6.61
		C172.748,42.504,172.928,43.844,172.928,45.344z"/>
	<path display="inline" fill="none" stroke="#918F8F" stroke-miterlimit="10" d="M152.509,37.948c0,0,10.381,11.161,20.423,7.392"/>
	<path display="inline" fill="none" stroke="#918F8F" stroke-miterlimit="10" d="M150.336,42.624c0,0,3.434,0.256,5.218-1.938"/>
	<line display="inline" fill="none" stroke="#918F8F" stroke-miterlimit="10" x1="1.45" y1="117.121" x2="1.45" y2="13.66"/>
	<line display="inline" fill="none" stroke="#918F8F" stroke-miterlimit="10" x1="1.45" y1="117.121" x2="174.951" y2="117.121"/>
	<path display="inline" fill="none" stroke="#918F8F" stroke-miterlimit="10" d="M97.512,77.778c0,0,19.285,2.378,18.237-9.12"/>
	<path display="inline" fill="none" stroke="#918F8F" stroke-miterlimit="10" d="M106.652,67.157c0,0,1.882-2.433,3.882-2.164
		c2,0.271,2.734,2.691,2.734,2.691"/>
	<path display="inline" fill="none" stroke="#918F8F" stroke-linecap="round" stroke-linejoin="round" stroke-miterlimit="10" d="
		M110.534,64.994c0,0,5.833-6.917,11.667,2.164c4.066,6.33,7.25,4.983,7.25,4.983s-8.354,4.277-9.66,1.605
		c-1.485-3.036-4.619-1.189-4.619-1.189"/>
	
		<rect x="163.736" y="47.723" display="inline" fill="none" stroke="#918F8F" stroke-miterlimit="10" width="4.732" height="3.294"/>
	<line display="inline" fill="none" stroke="#918F8F" stroke-miterlimit="10" x1="160.897" y1="49.369" x2="163.736" y2="49.369"/>
	<line display="inline" fill="none" stroke="#918F8F" stroke-miterlimit="10" x1="168.468" y1="49.369" x2="172.413" y2="49.369"/>
	<line display="inline" fill="none" stroke="#918F8F" stroke-miterlimit="10" x1="156.165" y1="49.369" x2="151.757" y2="49.369"/>
	
		<rect x="155.736" y="47.723" display="inline" fill="none" stroke="#918F8F" stroke-miterlimit="10" width="4.732" height="3.294"/>
	<line display="inline" fill="none" stroke="#918F8F" stroke-miterlimit="10" x1="16.116" y1="96.16" x2="174.95" y2="96.16"/>
	<line display="inline" fill="none" stroke="#918F8F" stroke-miterlimit="10" x1="124.951" y1="85.16" x2="174.951" y2="85.16"/>
	<line display="inline" fill="none" stroke="#918F8F" stroke-miterlimit="10" x1="138.951" y1="74.16" x2="174.951" y2="74.16"/>
	<line display="inline" fill="none" stroke="#918F8F" stroke-miterlimit="10" x1="61.679" y1="85.16" x2="92.784" y2="85.16"/>
	<line display="inline" fill="none" stroke="#918F8F" stroke-miterlimit="10" x1="30.575" y1="85.16" x2="38.574" y2="85.16"/>
	<line display="inline" fill="none" stroke="#918F8F" stroke-miterlimit="10" x1="150.352" y1="63.891" x2="174.951" y2="63.891"/>
	<line display="inline" fill="none" stroke="#918F8F" stroke-miterlimit="10" x1="9.709" y1="106.313" x2="174.951" y2="106.313"/>
</g>
</svg>
